<svg width="37" height="37" viewBox="0 0 37 37" fill="none" xmlns="http://www.w3.org/2000/svg">
<path d="M18.0341 0C8.11533 0 0 8.12982 0 18.1427C0 27.196 6.60047 34.7102 15.2208 36.0682V23.3936H10.6401V18.1427H15.2208V14.1412C15.2208 9.59645 17.9078 7.09775 22.0376 7.09775C24.0033 7.09775 26.0592 7.44177 26.0592 7.44177V11.9141H23.7869C21.5507 11.9141 20.8474 13.3083 20.8474 14.7387V18.1427H25.8609L25.0493 23.3936H20.8474V36.0682C25.0969 35.3943 28.9667 33.2173 31.7578 29.9301C34.5489 26.643 36.0779 22.4622 36.0681 18.1427C36.0681 8.12982 27.9528 0 18.0341 0Z" fill="#F1EAD0"/>
</svg>
