<svg width="37" height="37" viewBox="0 0 37 37" fill="none" xmlns="http://www.w3.org/2000/svg">
<path d="M23.805 18.0341C23.805 19.1755 23.4665 20.2912 22.8324 21.2402C22.1983 22.1893 21.297 22.9289 20.2425 23.3657C19.188 23.8025 18.0277 23.9168 16.9082 23.6941C15.7888 23.4714 14.7605 22.9218 13.9534 22.1147C13.1464 21.3077 12.5967 20.2794 12.3741 19.1599C12.1514 18.0405 12.2657 16.8802 12.7025 15.8257C13.1393 14.7712 13.8789 13.8699 14.8279 13.2358C15.777 12.6016 16.8927 12.2632 18.0341 12.2632C19.5641 12.2649 21.0309 12.8735 22.1128 13.9554C23.1947 15.0373 23.8032 16.5041 23.805 18.0341ZM36.0682 10.0991V25.9691C36.0651 28.6466 35.0002 31.2136 33.1069 33.1069C31.2136 35.0002 28.6466 36.0651 25.9691 36.0682H10.0991C7.42158 36.0651 4.85459 35.0002 2.9613 33.1069C1.06801 31.2136 0.00303239 28.6466 0 25.9691V10.0991C0.00303239 7.42158 1.06801 4.85459 2.9613 2.9613C4.85459 1.06801 7.42158 0.00303239 10.0991 0H25.9691C28.6466 0.00303239 31.2136 1.06801 33.1069 2.9613C35.0002 4.85459 36.0651 7.42158 36.0682 10.0991ZM26.6905 18.0341C26.6905 16.322 26.1828 14.6484 25.2316 13.2249C24.2804 11.8013 22.9285 10.6918 21.3467 10.0367C19.765 9.38147 18.0245 9.21005 16.3453 9.54406C14.6661 9.87807 13.1237 10.7025 11.9131 11.9131C10.7025 13.1237 9.87807 14.6661 9.54406 16.3453C9.21005 18.0245 9.38147 19.765 10.0367 21.3467C10.6918 22.9285 11.8013 24.2804 13.2249 25.2316C14.6484 26.1828 16.322 26.6905 18.0341 26.6905C20.3291 26.6879 22.5294 25.775 24.1522 24.1522C25.775 22.5294 26.6879 20.3291 26.6905 18.0341ZM29.5759 8.65636C29.5759 8.22835 29.449 7.80994 29.2112 7.45406C28.9734 7.09818 28.6354 6.8208 28.24 6.657C27.8445 6.49321 27.4094 6.45035 26.9896 6.53385C26.5698 6.61736 26.1842 6.82347 25.8816 7.12612C25.5789 7.42877 25.3728 7.81438 25.2893 8.23417C25.2058 8.65396 25.2487 9.08909 25.4125 9.48452C25.5763 9.87996 25.8536 10.2179 26.2095 10.4557C26.5654 10.6935 26.9838 10.8205 27.4118 10.8205C27.9858 10.8205 28.5362 10.5925 28.9421 10.1866C29.3479 9.78076 29.5759 9.23032 29.5759 8.65636Z" fill="#F1EAD0"/>
</svg>
