<svg width="37" height="37" viewBox="0 0 37 37" fill="none" xmlns="http://www.w3.org/2000/svg">
<path fill-rule="evenodd" clip-rule="evenodd" d="M28.5318 25.4661C28.0971 26.6964 26.3694 27.7142 24.9916 28.0118C24.0485 28.2121 22.8185 28.3705 18.6743 26.6531C14.0197 24.7247 7.55629 17.8555 7.55629 13.2843C7.55629 10.9572 8.89802 8.24743 11.2443 8.24743C12.3732 8.24743 12.6221 8.26944 12.9936 9.16058C13.4282 10.2105 14.4886 12.7972 14.6148 13.0624C15.136 14.1502 14.0846 14.787 13.3218 15.734C13.0783 16.0191 12.8024 16.3273 13.1108 16.8576C13.4174 17.3772 14.4778 19.1054 16.0359 20.4926C18.0485 22.2858 19.6806 22.8582 20.2649 23.1018C20.6995 23.2822 21.2189 23.2402 21.5363 22.901C21.9385 22.4663 22.438 21.745 22.9466 21.0342C23.3055 20.5255 23.7617 20.4619 24.2396 20.6423C24.5624 20.7542 28.6652 22.6595 28.8383 22.9644C28.9664 23.1863 28.9664 24.2358 28.5318 25.4661ZM18.0377 0H18.0287C8.08648 0 0 8.08892 0 18.0341C0 21.9775 1.27142 25.6361 3.4337 28.6036L1.18665 35.3047L8.11716 33.0901C10.9683 34.977 14.3714 36.0682 18.0377 36.0682C27.9799 36.0682 36.0682 27.9793 36.0682 18.0341C36.0682 8.08892 27.9799 0 18.0377 0Z" fill="#F1EAD0"/>
</svg>
