<svg width="46" height="45" viewBox="0 0 46 45" fill="none" xmlns="http://www.w3.org/2000/svg">
<path d="M44.8137 24.815C44.8237 24.605 44.9637 24.405 44.9737 24.195C44.9737 23.985 44.9137 23.765 44.9237 23.565C44.9237 23.355 44.9237 22.975 44.9237 22.765C44.9237 22.555 44.4937 22.315 44.5037 22.105C44.5037 21.905 44.9837 21.725 44.9837 21.515C44.9837 21.305 44.7737 21.075 44.7737 20.865C44.7737 20.655 44.9937 20.475 44.9937 20.255C44.9937 20.025 44.7837 19.785 44.7637 19.555C44.7437 19.325 44.6837 19.105 44.6337 18.885C44.5937 18.665 44.3937 18.475 44.3437 18.255C44.2937 18.035 44.7037 17.695 44.6337 17.475C44.5637 17.255 44.3337 17.085 44.2637 16.865C44.1937 16.655 44.1137 16.455 44.0237 16.255C43.9437 16.045 43.5937 15.955 43.5137 15.755C43.4337 15.555 43.7937 15.155 43.7037 14.955C43.6137 14.755 43.2837 14.665 43.1937 14.475C43.1037 14.275 42.9837 14.095 42.8837 13.905C42.7837 13.715 42.6237 13.555 42.5137 13.375C42.4137 13.185 42.5737 12.815 42.4537 12.635C42.3337 12.455 41.9037 12.495 41.7837 12.315C41.6637 12.135 41.6337 11.895 41.5037 11.725L41.1037 11.225C40.9637 11.055 40.9437 10.775 40.7937 10.605C40.6537 10.425 40.5637 10.225 40.4337 10.035C40.3037 9.855 40.2937 9.605 40.1537 9.425C40.0237 9.245 39.8037 9.125 39.6837 8.935C39.5537 8.745 39.3537 8.615 39.2137 8.435C39.0737 8.255 39.0037 8.035 38.8637 7.855C38.7237 7.675 38.4737 7.575 38.3237 7.415C38.1737 7.245 38.1537 6.955 38.0037 6.795C37.8537 6.615 37.2737 6.735 37.1137 6.585C36.9537 6.435 36.9237 6.145 36.7537 5.985C36.5837 5.835 36.3037 5.815 36.1337 5.675C35.9637 5.535 35.6537 5.535 35.4837 5.395C35.3137 5.255 35.4437 4.785 35.2637 4.635C35.0837 4.495 34.7937 4.485 34.6137 4.345C34.4337 4.205 34.1737 4.165 33.9937 4.035C33.8037 3.905 33.6337 3.775 33.4337 3.665C33.2337 3.555 33.0237 3.475 32.8237 3.365C32.6237 3.255 32.5237 2.935 32.3037 2.845L31.6637 2.575C31.4537 2.485 31.2237 2.455 31.0037 2.375C30.7837 2.305 30.5937 2.145 30.3837 2.065C30.1637 1.985 29.8837 2.165 29.6637 2.095C29.4437 2.035 29.3137 1.665 29.0937 1.595C28.8737 1.525 28.5837 1.715 28.3637 1.655C28.1437 1.595 27.7837 1.985 27.5737 1.925C27.3737 1.865 27.1937 1.715 26.9937 1.655C26.7837 1.595 26.6237 1.415 26.4137 1.355C26.2037 1.305 26.0137 1.205 25.8037 1.155C25.5937 1.105 25.3437 1.235 25.1337 1.195C24.9237 1.165 24.7337 0.904999 24.5137 0.874999C24.4237 0.864999 24.3437 0.834999 24.2537 0.794999C24.1937 0.754999 24.1337 0.704999 24.0637 0.694999C23.9537 0.664999 23.8737 0.434999 23.7537 0.414999C23.6437 0.394999 23.5037 0.654999 23.3937 0.634999C23.2837 0.624999 22.8437 0.514999 22.7337 0.504999C22.6237 0.494999 22.5137 0.404999 22.3937 0.404999C22.2837 0.404999 22.0537 0.404999 21.9437 0.404999L22.0037 2.555L21.9737 0.434999C21.7437 0.454999 21.0737 0.554999 20.8637 0.594999C20.6337 0.634999 20.2537 0.804999 20.0237 0.844999C19.7937 0.884999 19.5437 0.844999 19.3137 0.894999C19.0837 0.954999 18.9037 1.165 18.6837 1.235C18.4637 1.305 18.3137 1.475 18.1037 1.565C17.9337 1.645 17.6237 1.585 17.3837 1.645C17.1737 1.705 16.8937 1.575 16.6837 1.645C16.4537 1.725 16.3337 2.015 16.1737 2.105C15.9637 2.205 15.2337 1.665 15.0537 1.765C14.8437 1.885 14.8537 2.325 14.6737 2.415C14.4737 2.515 14.1337 2.355 13.9437 2.445C13.7537 2.535 13.6237 2.755 13.4037 2.835C13.2137 2.915 13.1037 3.195 12.8937 3.295C12.7137 3.385 12.7837 3.985 12.5737 4.075C12.3837 4.165 12.2037 4.285 12.0137 4.375C11.8237 4.465 11.9537 4.565 11.7737 4.665C11.5937 4.765 11.3737 4.775 11.1837 4.875C11.0037 4.975 10.9037 4.875 10.7137 4.985C10.5337 5.085 10.3637 5.225 10.1837 5.335C9.99367 5.425 9.70367 5.345 9.52367 5.465C9.34367 5.585 9.28367 5.895 9.10367 6.015C8.92367 6.135 8.85367 6.405 8.68367 6.525C8.50367 6.645 8.12367 6.485 7.96367 6.625C7.80367 6.765 7.78367 7.085 7.62367 7.225C7.46367 7.375 7.48367 7.695 7.33367 7.835C7.18367 7.985 6.86367 7.965 6.73367 8.135C6.59367 8.305 6.29367 8.335 6.16367 8.505C6.03367 8.675 5.85367 8.835 5.73367 9.005C5.61367 9.185 5.84367 9.545 5.73367 9.715C5.63367 9.925 5.49367 10.115 5.39367 10.305C5.28367 10.505 4.95367 10.445 4.84367 10.635C4.73367 10.835 4.75367 11.095 4.63367 11.285C4.52367 11.475 3.61367 11.205 3.49367 11.415C3.39367 11.625 3.28367 11.825 3.18367 12.035C3.07367 12.235 3.16367 12.545 3.04367 12.745C2.94367 12.935 2.75367 13.065 2.66367 13.255C2.57367 13.445 2.54367 13.665 2.44367 13.855C2.35367 14.045 2.18367 14.385 2.09367 14.575C1.99367 14.765 2.30367 15.165 2.21367 15.355C2.12367 15.535 1.63367 15.505 1.53367 15.695C1.44367 15.885 1.53367 16.175 1.43367 16.365C1.33367 16.545 1.07367 16.635 0.993672 16.835C0.903672 17.045 0.993672 17.355 0.923672 17.565C0.843672 17.775 0.823672 18.005 0.763672 18.225C0.693672 18.445 0.793672 18.695 0.763672 18.915C0.723672 19.135 0.223672 19.285 0.193672 19.515C0.163672 19.745 0.303672 19.995 0.273672 20.215C0.253672 20.435 0.233672 20.655 0.233672 20.875C0.233672 21.095 0.513672 21.325 0.513672 21.535C0.513672 21.745 0.0236719 21.965 0.0136719 22.185C0.0136719 22.405 0.263672 22.615 0.253672 22.835C0.253672 23.055 0.313672 23.265 0.333672 23.485C0.353672 23.705 0.433672 23.905 0.453672 24.125C0.473672 24.335 0.173672 24.605 0.203672 24.825C0.223672 25.045 0.633672 25.175 0.683672 25.385C0.723672 25.595 0.663672 25.825 0.713672 26.035L0.863672 26.655C0.913672 26.875 0.853672 27.125 0.903672 27.345C0.953672 27.565 0.953672 27.785 0.993672 28.005C1.04367 28.225 0.943672 28.455 0.993672 28.685C1.04367 28.905 1.19367 29.105 1.23367 29.325C1.28367 29.545 1.40367 29.755 1.45367 29.975C1.49367 30.195 1.47367 30.435 1.53367 30.645C1.59367 30.865 1.78367 31.055 1.85367 31.265C1.92367 31.485 1.81367 31.755 1.88367 31.965C1.97367 32.185 2.53367 32.315 2.62367 32.515C2.70367 32.725 2.62367 32.995 2.70367 33.205C2.78367 33.415 3.03367 33.545 3.13367 33.745C3.23367 33.945 3.52367 34.065 3.61367 34.265C3.70367 34.465 3.38367 34.845 3.48367 35.055C3.59367 35.255 3.87367 35.375 3.97367 35.575C4.07367 35.775 4.28367 35.925 4.40367 36.125C4.51367 36.325 4.63367 36.505 4.76367 36.695C4.89367 36.875 5.05367 37.035 5.19367 37.215C5.33367 37.395 5.28367 37.735 5.43367 37.905L5.91367 38.405C6.07367 38.565 6.26367 38.705 6.42367 38.865C6.58367 39.035 6.69367 39.245 6.86367 39.395C7.03367 39.545 7.36367 39.515 7.53367 39.665C7.70367 39.815 7.66367 40.205 7.83367 40.355C8.01367 40.505 8.35367 40.455 8.52367 40.605C8.69367 40.755 9.18367 40.545 9.35367 40.695C9.50367 40.845 9.60367 41.045 9.77367 41.185C9.93367 41.315 10.0137 41.555 10.1837 41.685C10.3537 41.825 10.4737 42.005 10.6437 42.145C10.8237 42.275 11.1137 42.245 11.2837 42.375C11.4537 42.495 11.5237 42.805 11.7037 42.935C11.7737 42.985 11.8437 43.045 11.9037 43.115C11.9437 43.175 11.9737 43.255 12.0337 43.285C12.1237 43.345 12.1037 43.595 12.2037 43.655C12.3037 43.715 12.5237 43.545 12.6237 43.605C12.7137 43.665 13.0737 43.945 13.1737 43.995C13.2737 44.045 13.3337 44.185 13.4337 44.235C13.5337 44.285 13.7337 44.395 13.8437 44.435L14.6737 42.435L13.8437 44.425L13.9537 44.465C13.9537 44.465 14.0337 44.495 14.0837 44.505C14.1537 44.525 14.2237 44.545 14.3037 44.565C14.3837 44.585 14.4637 44.595 14.5437 44.615C14.7037 44.645 14.8637 44.675 14.9937 44.695C15.1237 44.725 15.2337 44.755 15.3337 44.775C15.3837 44.785 15.4337 44.795 15.4937 44.815H15.5837C15.5837 44.815 15.6437 44.835 15.6737 44.835H15.8637H16.0537C16.1737 44.835 16.2937 44.815 16.4237 44.805C16.5537 44.795 16.6637 44.775 16.7837 44.765L16.9637 44.735L17.1337 44.695L17.2137 44.665L17.2837 44.635L17.3537 44.595L17.4237 44.555L17.5537 44.465L17.6237 44.425L17.7037 44.395H17.7437L17.7937 44.375H17.8437H17.8937L18.0037 44.395L18.1237 44.415H18.1537H18.1637H18.1737H18.2237H18.2637L18.3037 44.395H18.3437L18.3837 44.365L18.4137 44.335V44.315L18.4437 44.295L18.4937 44.225L18.5537 44.165L18.6837 44.045L18.7537 43.985L18.8137 43.925L18.8737 43.855L18.8937 43.815L18.9137 43.775L18.9337 43.735V43.685L18.9537 43.635V43.575V43.455V43.325L18.9337 43.195V43.075V43.015V42.965L18.9437 42.915V42.865L18.9837 42.775L19.0037 42.685L19.0337 42.495L19.0637 42.305L19.0837 42.215L19.1037 42.125L19.1337 42.035L19.1737 41.945L19.2537 41.785L19.3337 41.615L19.3637 41.525L19.3837 41.435L19.4137 41.245L19.4337 41.055C19.4437 40.925 19.4537 40.795 19.4737 40.665C19.4737 40.635 19.4737 40.615 19.4737 40.605C19.4737 40.595 19.4737 40.585 19.4737 40.585C19.4737 40.585 19.4737 40.575 19.4737 40.565C19.4737 40.555 19.4737 40.535 19.4737 40.505H17.3137L19.4837 40.495C19.4837 40.465 19.4237 40.395 19.3937 40.375C19.3637 40.345 19.2237 40.305 19.2037 40.275C19.1837 40.245 19.2337 40.225 19.2037 40.195C19.1837 40.165 19.0137 40.145 18.9837 40.115C18.9537 40.085 18.8137 40.065 18.7637 40.045C18.7237 40.025 18.8337 39.995 18.8237 39.965C18.8237 39.945 19.0237 39.915 19.0137 39.885C19.0037 39.855 18.7637 39.835 18.7237 39.815C18.6937 39.785 19.4037 39.725 19.3737 39.705C19.3437 39.675 18.9337 39.665 18.9137 39.635C18.8937 39.605 19.1737 39.585 19.1637 39.555C19.1537 39.525 19.0037 39.505 19.0037 39.485C19.0037 39.465 18.8137 39.435 18.8237 39.415C18.8237 39.395 18.2737 39.365 18.2737 39.345C18.2737 39.325 18.2637 39.295 18.2737 39.275C18.2837 39.255 18.1237 39.255 18.1437 39.235C18.1537 39.215 18.2737 39.185 18.2937 39.165C18.3137 39.145 18.4437 39.135 18.4637 39.115C18.4837 39.095 18.4537 39.065 18.4637 39.045C18.4837 39.025 18.7337 38.995 18.7537 38.975C18.7737 38.955 18.5737 38.925 18.5837 38.895C18.5937 38.875 18.4337 38.845 18.4437 38.825C18.4537 38.805 18.8237 38.775 18.8337 38.755C18.8337 38.735 18.6237 38.705 18.6337 38.685C18.6337 38.665 18.3937 38.635 18.3937 38.615C18.3937 38.595 18.6137 38.565 18.6137 38.545C18.6137 38.525 18.8137 38.495 18.8037 38.465C18.7937 38.445 18.8237 38.415 18.8037 38.385C18.7837 38.365 18.3637 38.345 18.3337 38.325C18.2937 38.295 18.2937 38.275 18.2637 38.245C18.2337 38.215 18.5437 38.205 18.5137 38.175C18.4937 38.145 18.3137 38.125 18.3037 38.095C18.2837 38.065 19.2237 38.035 19.2137 38.015C19.2037 37.985 19.1737 37.965 19.1637 37.935C19.1637 37.905 18.9237 37.885 18.9237 37.855C18.9237 37.835 19.0437 37.805 19.0437 37.785C19.0437 37.765 18.9737 37.735 18.9837 37.715C18.9837 37.695 18.9837 37.645 18.9837 37.625C18.9937 37.605 18.5737 37.575 18.5937 37.545C18.6137 37.525 19.0837 37.505 19.1137 37.485C19.1337 37.465 18.9437 37.435 18.9737 37.415C19.0037 37.395 19.2237 37.375 19.2537 37.355C19.2837 37.335 19.1137 37.295 19.1337 37.275C19.1537 37.245 19.1137 37.225 19.1237 37.195C19.1337 37.165 18.9737 37.145 18.9737 37.115C18.9737 37.085 19.4437 37.065 19.4437 37.035C19.4437 37.005 19.2637 36.985 19.2537 36.955C19.2537 36.935 19.2137 36.905 19.2037 36.885C19.1937 36.865 18.8937 36.835 18.8837 36.815C18.8737 36.795 19.3437 36.765 19.3337 36.735C19.3337 36.715 19.0537 36.685 19.0537 36.665C19.0537 36.645 19.0037 36.615 18.9937 36.595C18.9837 36.575 18.9037 36.545 18.8937 36.525C18.8837 36.505 19.1837 36.475 19.1737 36.445C19.1537 36.425 18.7637 36.405 18.7437 36.375C18.7237 36.355 18.8137 36.325 18.7937 36.305C18.7737 36.285 18.7437 36.255 18.7137 36.235C18.6837 36.205 18.8137 36.185 18.8037 36.155C18.7937 36.125 18.8437 36.105 18.8437 36.075C18.8437 36.045 18.9737 36.025 18.9837 36.005C18.9937 35.975 18.9037 35.955 18.9237 35.925C18.9437 35.895 18.8737 35.875 18.8937 35.845C18.9137 35.815 19.0137 35.795 19.0337 35.765C19.0537 35.735 18.9337 35.715 18.9537 35.685C18.9637 35.655 19.1637 35.635 19.1737 35.615C19.1837 35.585 18.7237 35.555 18.7337 35.525C18.7337 35.495 18.9437 35.475 18.9437 35.455C18.9437 35.425 18.7937 35.405 18.8037 35.375C18.8137 35.345 18.6137 35.325 18.6337 35.295C18.6437 35.275 19.1137 35.255 19.1337 35.225C19.1537 35.195 18.9837 35.175 19.0137 35.145C19.0437 35.115 18.9437 35.095 18.9637 35.065C18.9837 35.035 18.9937 35.015 19.0037 34.985C19.0037 34.955 18.9837 34.935 18.9837 34.905C18.9837 34.875 19.2237 34.855 19.2237 34.825C19.2237 34.795 19.2037 34.775 19.1937 34.745C19.1837 34.715 19.1337 34.695 19.1237 34.665C19.1137 34.635 19.1937 34.615 19.1837 34.585C19.1837 34.555 18.9237 34.535 18.9237 34.515C18.9237 34.485 19.2237 34.465 19.2237 34.435C19.2237 34.405 18.9737 34.385 18.9737 34.355C18.9737 34.325 18.5037 34.305 18.5237 34.275C18.5437 34.255 18.6537 34.225 18.6637 34.205C18.6837 34.185 18.8237 34.155 18.8437 34.135C18.8637 34.115 18.9337 34.085 18.9537 34.065C18.9737 34.045 18.8037 34.015 18.8237 33.995C18.8437 33.975 19.0737 33.945 19.0837 33.925C19.0837 33.925 19.1137 33.905 19.1437 33.895C19.1837 33.895 19.2237 33.885 19.2337 33.875C19.2437 33.865 19.4837 33.855 19.4937 33.835C19.5037 33.825 19.2537 33.805 19.2637 33.795C19.2737 33.785 19.3737 33.735 19.3737 33.725C19.3737 33.715 19.4737 33.705 19.4837 33.685C19.4837 33.675 19.5137 33.645 19.5237 33.635H17.3537H19.5137V33.555C19.5137 33.555 19.5137 33.495 19.5137 33.465C19.5137 33.415 19.4937 33.365 19.4837 33.305C19.4737 33.255 19.4537 33.195 19.4437 33.135C19.4137 33.025 19.3837 32.905 19.3537 32.815V32.745L19.3337 32.685C19.3337 32.645 19.3337 32.605 19.3337 32.565V32.455L19.3137 32.395L19.2937 32.335L19.2337 32.205L19.1737 32.075C19.1337 31.995 19.0837 31.915 19.0437 31.825C18.9937 31.745 18.9437 31.665 18.9037 31.585L18.8237 31.465L18.7437 31.345L18.6937 31.285L18.6437 31.235L18.5237 31.145L18.4037 31.065L18.3437 31.015L18.2937 30.965L18.2737 30.935L18.2537 30.905V30.865L18.2337 30.825V30.735L18.2137 30.645V30.555L18.1937 30.465V30.425L18.1637 30.385L18.1437 30.355H18.1337L18.1237 30.325L18.0737 30.275L18.0237 30.215L17.9337 30.085L17.8837 30.015L17.8337 29.955L17.7837 29.895L17.7537 29.875L17.7237 29.855L17.6937 29.835H17.6537L17.6137 29.815H17.5737H17.4837H17.3837L17.2837 29.835H17.1937H17.1537H17.1137L17.0737 29.825H17.0337L16.9637 29.785L16.8937 29.765L16.7537 29.735L16.6037 29.705L16.5337 29.685L16.4637 29.665L16.3937 29.635L16.3237 29.595L16.1937 29.515L16.0637 29.435L15.9937 29.405L15.9237 29.385L15.7737 29.355L15.6237 29.335C15.5237 29.325 15.4237 29.315 15.3237 29.295C15.3037 29.295 15.2837 29.295 15.2737 29.295H15.2637C15.2637 29.295 15.2437 29.295 15.2137 29.295C15.2137 29.295 15.2037 29.355 15.2037 29.385C15.2037 29.415 15.2037 29.555 15.1937 29.575C15.1937 29.545 15.1937 29.595 15.1937 29.575C15.1937 29.605 15.1937 29.765 15.1937 29.795C15.1937 29.825 15.1937 29.965 15.1937 30.015C15.1937 30.055 15.1937 29.945 15.1937 29.955C15.1937 29.955 15.1937 29.755 15.1937 29.765C15.1937 29.775 15.1937 30.015 15.1937 30.055C15.1937 30.085 15.1937 29.375 15.1837 29.405C15.1837 29.435 15.1837 29.845 15.1837 29.865C15.1837 29.885 15.1837 29.605 15.1837 29.615V29.775C15.1837 29.775 15.1837 29.965 15.1837 29.955V30.505C15.1837 30.495 15.1837 30.655 15.1837 30.635C15.1837 30.625 15.1837 30.505 15.1837 30.485C15.1837 30.465 15.1837 30.335 15.1837 30.315C15.1837 30.295 15.1837 30.325 15.1837 30.315C15.1837 30.295 15.1837 30.045 15.1837 30.025C15.1837 30.005 15.1837 30.205 15.1837 30.195C15.1837 30.185 15.1837 30.345 15.1837 30.335C15.1837 30.325 15.1837 29.955 15.1837 29.945C15.1837 29.945 15.1837 30.155 15.1837 30.145V30.385V30.165C15.1837 30.165 15.1837 29.965 15.1837 29.975C15.1837 29.955 15.1837 29.985 15.1837 29.975C15.1837 29.995 15.1837 30.415 15.1837 30.445C15.1837 30.485 15.1837 30.485 15.1837 30.515C15.1837 30.545 15.1837 30.235 15.1837 30.265C15.1837 30.285 15.1837 30.465 15.1837 30.475C15.1837 30.495 15.1837 29.555 15.1837 29.565C15.1837 29.575 15.1837 29.605 15.1837 29.615V29.855V29.735C15.1837 29.735 15.1837 29.805 15.1837 29.795C15.1837 29.785 15.1837 29.795 15.1737 29.795C15.1737 29.785 15.1737 30.205 15.1737 30.185C15.1737 30.165 15.1737 29.695 15.1737 29.665C15.1737 29.645 15.1737 29.835 15.1737 29.805C15.1737 29.775 15.1737 29.555 15.1737 29.525C15.1737 29.495 15.1737 29.665 15.1737 29.645C15.1737 29.625 15.1737 29.665 15.1737 29.655V29.805V29.335C15.1737 29.335 15.1737 29.515 15.1737 29.525C15.1737 29.525 15.1737 29.565 15.1737 29.575C15.1737 29.585 15.1737 29.885 15.1737 29.895C15.1737 29.895 15.1737 29.435 15.1737 29.445C15.1737 29.455 15.1737 29.725 15.1737 29.725C15.1737 29.725 15.1737 29.775 15.1737 29.785C15.1737 29.795 15.1737 29.875 15.1737 29.885C15.1737 29.895 15.1737 29.595 15.1737 29.605C15.1737 29.625 15.1737 30.015 15.1737 30.035C15.1737 30.055 15.1737 29.965 15.1737 29.985C15.1737 30.005 15.1737 30.035 15.1737 30.065C15.1737 30.095 15.1737 29.965 15.1737 29.975C15.1737 29.985 15.1737 29.935 15.1737 29.935C15.1737 29.935 15.1737 29.805 15.1737 29.795C15.1737 29.785 15.1737 29.875 15.1737 29.855C15.1737 29.835 15.1737 29.905 15.1737 29.885C15.1737 29.865 15.1737 29.765 15.1737 29.745C15.1737 29.725 15.1737 29.845 15.1737 29.825C15.1737 29.815 15.1737 29.615 15.1737 29.605C15.1737 29.595 15.1737 30.055 15.1637 30.045C15.1537 30.035 15.1637 29.835 15.1637 29.835C15.1637 29.835 15.1637 29.985 15.1637 29.975C15.1637 29.965 15.1637 30.165 15.1637 30.145C15.1637 30.135 15.1637 29.665 15.1637 29.645C15.1637 29.625 15.1637 29.795 15.1637 29.765C15.1637 29.735 15.1637 29.835 15.1637 29.825C15.1637 29.805 15.1637 29.795 15.1637 29.785V29.805V29.565C15.1637 29.565 15.1637 29.585 15.1637 29.595C15.1637 29.595 15.1637 29.655 15.1637 29.665C15.1637 29.675 15.1637 29.595 15.1637 29.605C15.1637 29.615 15.1637 29.865 15.1637 29.865V29.565V29.815C15.1637 29.815 15.1637 30.285 15.1637 30.265C15.1637 30.245 15.1637 30.135 15.1637 30.125C15.1637 30.115 15.1637 29.965 15.1637 29.945C15.1637 29.925 15.1637 29.855 15.1637 29.835C15.1637 29.815 15.1637 29.985 15.1637 29.965C15.1637 29.945 15.1637 29.715 15.1637 29.705C15.1637 29.705 15.1637 29.675 15.1637 29.645C15.1637 29.605 15.1637 29.565 15.1637 29.555C15.1637 29.545 15.1637 29.305 15.1637 29.295C15.1637 29.285 15.1637 29.535 15.1637 29.525C15.1637 29.515 15.1637 29.415 15.1637 29.415C15.1637 29.415 15.1637 29.315 15.1637 29.305C15.1637 29.305 15.1637 29.275 15.1637 29.265V31.435V29.275H13.0037H15.1737C15.1737 29.255 15.1137 29.185 15.0837 29.165C15.0537 29.145 14.9137 29.105 14.8937 29.075C14.8737 29.045 14.9237 29.025 14.8937 29.005C14.8737 28.985 14.7037 28.965 14.6737 28.935C14.6437 28.915 14.5037 28.895 14.4537 28.875C14.4137 28.855 14.5237 28.825 14.5137 28.805C14.5137 28.785 14.7137 28.755 14.7037 28.735C14.6937 28.715 14.4537 28.695 14.4137 28.675C14.3837 28.655 15.0937 28.595 15.0637 28.575C15.0337 28.555 14.6237 28.535 14.6037 28.515C14.5837 28.495 14.8637 28.465 14.8537 28.445C14.8437 28.425 14.6937 28.405 14.6937 28.385C14.6937 28.365 14.5037 28.345 14.5137 28.315C14.5137 28.295 13.9637 28.275 13.9637 28.245C13.9637 28.225 13.9537 28.205 13.9637 28.175C13.9737 28.155 13.8137 28.165 13.8337 28.135C13.8437 28.115 13.9637 28.095 13.9837 28.075C14.0037 28.055 14.1337 28.045 14.1537 28.025C14.1737 28.005 14.1437 27.985 14.1537 27.955C14.1637 27.925 14.4237 27.915 14.4437 27.895C14.4637 27.875 14.2637 27.845 14.2737 27.825C14.2837 27.805 14.1237 27.775 14.1337 27.755C14.1437 27.735 14.5137 27.715 14.5237 27.695C14.5237 27.675 14.3137 27.645 14.3237 27.625C14.3237 27.605 14.0837 27.585 14.0837 27.555C14.0837 27.535 14.3037 27.515 14.3037 27.485C14.3037 27.465 14.5037 27.435 14.4937 27.415C14.4837 27.395 14.5137 27.365 14.4937 27.345C14.4737 27.325 14.0537 27.305 14.0237 27.285C13.9837 27.265 13.9837 27.235 13.9537 27.215C13.9237 27.195 14.2337 27.175 14.2037 27.155C14.1837 27.135 14.0037 27.115 13.9937 27.085C13.9737 27.065 14.9137 27.035 14.9037 27.015C14.8937 26.995 14.8637 26.965 14.8537 26.945C14.8537 26.925 14.6137 26.895 14.6137 26.875C14.6137 26.855 14.7337 26.835 14.7337 26.815C14.7337 26.795 14.6637 26.775 14.6737 26.755C14.6737 26.735 14.6737 26.695 14.6737 26.675C14.6837 26.655 14.2637 26.625 14.2837 26.605C14.3037 26.585 14.7737 26.565 14.8037 26.545C14.8237 26.525 14.6337 26.495 14.6637 26.475C14.6937 26.455 14.9137 26.435 14.9437 26.415C14.9737 26.395 14.8037 26.365 14.8237 26.345C14.8437 26.325 14.8037 26.295 14.8137 26.275C14.8137 26.255 14.6637 26.235 14.6637 26.205C14.6637 26.185 15.1337 26.155 15.1337 26.135C15.1337 26.115 14.9537 26.095 14.9437 26.065C14.9437 26.045 14.9037 26.025 14.8937 26.005C14.8937 25.985 14.5837 25.965 14.5737 25.945C14.5637 25.925 15.0337 25.895 15.0237 25.875C15.0137 25.855 14.7437 25.835 14.7437 25.815C14.7437 25.795 14.6937 25.775 14.6837 25.755C14.6737 25.735 14.5937 25.715 14.5837 25.695C14.5737 25.675 14.8737 25.645 14.8637 25.625C14.8437 25.605 14.4537 25.585 14.4337 25.565C14.4137 25.545 14.5037 25.525 14.4837 25.495C14.4637 25.475 14.4337 25.455 14.4037 25.435C14.3737 25.415 14.5037 25.385 14.4937 25.365C14.4837 25.345 14.5337 25.325 14.5337 25.295C14.5337 25.275 14.6637 25.255 14.6737 25.225C14.6837 25.205 14.5937 25.175 14.6137 25.155C14.6337 25.135 14.5637 25.105 14.5837 25.085C14.6037 25.065 14.7037 25.045 14.7237 25.015C14.7437 24.985 14.6237 24.965 14.6437 24.945C14.6537 24.925 14.8537 24.905 14.8637 24.875C14.8737 24.855 14.4137 24.815 14.4237 24.795C14.4237 24.775 14.6337 24.755 14.6337 24.725C14.6337 24.705 14.4837 24.675 14.4937 24.655C14.5037 24.635 14.3037 24.605 14.3237 24.585C14.3337 24.565 14.8037 24.545 14.8237 24.525C14.8437 24.505 14.6737 24.475 14.7037 24.455C14.7337 24.435 14.6337 24.405 14.6537 24.385C14.6737 24.365 14.6837 24.345 14.6937 24.315C14.6937 24.295 14.6737 24.265 14.6737 24.245C14.6737 24.225 14.9137 24.195 14.9137 24.175C14.9137 24.155 14.8937 24.125 14.8837 24.105C14.8837 24.085 14.8237 24.055 14.8137 24.035C14.8037 24.015 14.8837 23.985 14.8737 23.965C14.8637 23.945 14.6137 23.925 14.6137 23.895C14.6137 23.875 14.9137 23.845 14.9137 23.825C14.9137 23.805 14.6637 23.775 14.6637 23.755C14.6637 23.735 14.1937 23.705 14.2137 23.685C14.2337 23.665 14.3437 23.645 14.3537 23.625C14.3737 23.605 14.5137 23.585 14.5337 23.565C14.5537 23.545 14.6237 23.525 14.6437 23.505C14.6637 23.485 14.4937 23.455 14.5137 23.435C14.5337 23.415 14.7637 23.395 14.7737 23.375C14.7737 23.375 14.8037 23.355 14.8337 23.345C14.8737 23.345 14.9137 23.335 14.9237 23.325C14.9337 23.315 15.1737 23.305 15.1837 23.295C15.1937 23.285 14.9437 23.275 14.9537 23.265C14.9637 23.255 15.0637 23.215 15.0637 23.195C15.0637 23.185 15.1637 23.175 15.1737 23.165C15.1737 23.155 15.2037 23.135 15.2137 23.125H13.0437H15.2037C15.2037 23.125 15.2137 23.065 15.2137 23.035C15.2137 23.005 15.2137 22.865 15.2237 22.845C15.2237 22.825 15.2237 22.875 15.2237 22.845C15.2237 22.825 15.2237 22.655 15.2237 22.625C15.2237 22.595 15.2237 22.455 15.2237 22.405C15.2237 22.365 15.2237 22.475 15.2237 22.465C15.2237 22.465 15.2237 22.665 15.2237 22.655C15.2237 22.645 15.2237 22.405 15.2237 22.365C15.2237 22.335 15.2237 23.045 15.2337 23.015C15.2337 22.985 15.2337 22.575 15.2337 22.555C15.2337 22.535 15.2337 22.815 15.2337 22.805V22.645C15.2337 22.645 15.2337 22.455 15.2337 22.465V21.915C15.2337 21.925 15.2337 21.765 15.2337 21.785C15.2337 21.795 15.2337 21.915 15.2337 21.935C15.2337 21.955 15.2337 22.085 15.2337 22.105C15.2337 22.095 15.2337 22.125 15.2337 22.105C15.2337 22.115 15.2337 22.375 15.2337 22.395C15.2337 22.415 15.2337 22.215 15.2337 22.225C15.2337 22.235 15.2337 22.075 15.2337 22.085C15.2337 22.095 15.2337 22.465 15.2337 22.475C15.2337 22.485 15.2337 22.265 15.2337 22.275C15.2337 22.285 15.2337 22.035 15.2337 22.035V22.255C15.2337 22.255 15.2337 22.455 15.2337 22.445C15.2337 22.435 15.2337 22.465 15.2337 22.445C15.2337 22.425 15.2337 22.005 15.2337 21.975C15.2337 21.935 15.2337 21.935 15.2337 21.905C15.2337 21.875 15.2337 22.185 15.2337 22.155C15.2337 22.135 15.2337 21.955 15.2337 21.945C15.2337 21.925 15.2337 22.865 15.2337 22.855C15.2337 22.845 15.2337 22.815 15.2337 22.805V22.565V22.685C15.2337 22.685 15.2337 22.615 15.2337 22.625C15.2337 22.635 15.2337 22.215 15.2337 22.235C15.2337 22.255 15.2337 22.725 15.2337 22.755C15.2337 22.775 15.2337 22.585 15.2337 22.615C15.2337 22.645 15.2337 22.865 15.2337 22.895C15.2337 22.925 15.2337 22.755 15.2337 22.775C15.2337 22.795 15.2337 22.755 15.2337 22.765C15.2337 22.775 15.2337 22.615 15.2337 22.615V23.085C15.2337 23.085 15.2337 22.905 15.2337 22.895C15.2337 22.895 15.2337 22.855 15.2337 22.845C15.2337 22.835 15.2337 22.535 15.2337 22.525C15.2337 22.525 15.2337 22.985 15.2337 22.975C15.2337 22.965 15.2337 22.695 15.2337 22.695C15.2337 22.695 15.2337 22.645 15.2337 22.635C15.2337 22.625 15.2337 22.545 15.2337 22.535C15.2337 22.525 15.2337 22.825 15.2337 22.815C15.2337 22.795 15.2337 22.405 15.2337 22.385C15.2337 22.365 15.2337 22.455 15.2337 22.435C15.2337 22.415 15.2337 22.385 15.2337 22.355C15.2337 22.325 15.2337 22.455 15.2337 22.445C15.2337 22.435 15.2337 22.485 15.2337 22.485C15.2337 22.485 15.2337 22.615 15.2337 22.625C15.2337 22.635 15.2337 22.545 15.2337 22.565C15.2337 22.585 15.2337 22.515 15.2337 22.535C15.2337 22.555 15.2337 22.655 15.2337 22.675C15.2337 22.695 15.2337 22.575 15.2337 22.595C15.2337 22.605 15.2337 22.805 15.2337 22.815C15.2337 22.825 15.2337 22.365 15.2437 22.375C15.2537 22.385 15.2437 22.585 15.2437 22.585C15.2437 22.585 15.2437 22.435 15.2437 22.445C15.2437 22.455 15.2437 22.255 15.2437 22.275C15.2437 22.285 15.2437 22.755 15.2437 22.775C15.2437 22.795 15.2437 22.625 15.2437 22.655C15.2437 22.685 15.2437 22.585 15.2437 22.595C15.2437 22.615 15.2437 22.625 15.2437 22.635V22.615V22.855C15.2437 22.855 15.2437 22.835 15.2437 22.825C15.2437 22.825 15.2437 22.765 15.2437 22.755C15.2437 22.745 15.2437 22.825 15.2437 22.815C15.2437 22.805 15.2437 22.555 15.2437 22.555V22.855V22.605C15.2437 22.605 15.2437 22.135 15.2437 22.155C15.2437 22.175 15.2437 22.285 15.2437 22.295C15.2437 22.305 15.2437 22.455 15.2437 22.475C15.2437 22.495 15.2437 22.565 15.2437 22.585C15.2437 22.605 15.2437 22.435 15.2437 22.455C15.2437 22.475 15.2437 22.705 15.2437 22.715C15.2437 22.715 15.2437 22.745 15.2437 22.775C15.2437 22.815 15.2437 22.855 15.2437 22.865C15.2437 22.875 15.2437 23.115 15.2437 23.125C15.2437 23.135 15.2437 22.885 15.2437 22.895C15.2437 22.905 15.2437 23.005 15.2437 23.005C15.2437 23.005 15.2437 23.105 15.2437 23.115C15.2437 23.115 15.2437 23.145 15.2437 23.155V20.985V23.145H15.3337C15.3337 23.145 15.3937 23.145 15.4237 23.145C15.4737 23.145 15.5237 23.125 15.5837 23.115C15.6437 23.105 15.6937 23.085 15.7537 23.075C15.8637 23.045 15.9837 23.015 16.0737 22.985H16.1437L16.2037 22.965C16.2437 22.965 16.2837 22.965 16.3237 22.965H16.4437L16.5037 22.945L16.5637 22.925L16.6937 22.865L16.8237 22.805C16.9037 22.765 16.9837 22.715 17.0737 22.675C17.1537 22.625 17.2437 22.575 17.3237 22.535L17.4437 22.455L17.5637 22.375L17.6237 22.325L17.6737 22.275L17.7637 22.155L17.8437 22.035L17.8937 21.975L17.9437 21.925L17.9737 21.905L18.0037 21.885H18.0437L18.0837 21.865H18.1737L18.2637 21.845H18.3537L18.4437 21.825H18.4837L18.5237 21.795L18.5537 21.775H18.5637L18.5737 21.745L18.6237 21.685L18.6837 21.635L18.8137 21.535L18.8737 21.485L18.9337 21.435L18.9837 21.385L19.0037 21.355L19.0237 21.325L19.0437 21.295V21.255L19.0637 21.215V21.175V21.085V20.985L19.0437 20.885V20.785V20.735V20.685L19.0537 20.645V20.605L19.0937 20.535L19.1137 20.465L19.1437 20.325L19.1737 20.175L19.1937 20.105L19.2137 20.035L19.2437 19.965L19.2737 19.905L19.3537 19.775L19.4237 19.645L19.4537 19.575L19.4737 19.505L19.5037 19.365L19.5237 19.225C19.5337 19.135 19.5437 19.035 19.5637 18.935C19.5637 18.915 19.5637 18.895 19.5637 18.895V18.885V18.875C19.5637 18.875 19.5637 18.855 19.5637 18.835C19.5637 18.755 19.5037 18.515 19.4837 18.435C19.4637 18.355 19.3237 18.205 19.3137 18.125C19.3037 18.045 19.3437 17.955 19.3337 17.875C19.3237 17.795 19.1537 17.715 19.1237 17.625C19.1037 17.545 18.9637 17.475 18.9137 17.385C18.8737 17.315 18.9937 17.225 18.9937 17.135C18.9937 17.055 19.2137 16.995 19.2037 16.915C19.2037 16.835 18.9637 16.735 18.9337 16.665C18.9137 16.575 19.6437 16.495 19.6237 16.425C19.6037 16.345 19.2037 16.235 19.1937 16.165C19.1937 16.085 19.4737 16.055 19.4837 15.985C19.4837 15.915 19.3537 15.815 19.3637 15.745C19.3737 15.675 19.2037 15.565 19.2337 15.495C19.2537 15.435 18.7237 15.235 18.7537 15.155C18.7837 15.085 18.7737 15.005 18.8037 14.925C18.8337 14.855 18.6737 14.835 18.7137 14.765C18.7537 14.695 18.8737 14.655 18.9137 14.595C18.9537 14.525 19.0837 14.555 19.1137 14.485C19.1537 14.415 19.1537 14.345 19.1837 14.275C19.2237 14.215 19.4837 14.235 19.5237 14.175C19.5637 14.115 19.3937 13.965 19.4437 13.905C19.4837 13.845 19.3637 13.715 19.4037 13.645C19.4437 13.585 19.8137 13.675 19.8437 13.615C19.8737 13.555 19.7137 13.395 19.7537 13.335C19.7937 13.275 19.6037 13.095 19.6337 13.035C19.6637 12.965 19.8937 13.005 19.9237 12.945C19.9537 12.875 20.1737 12.915 20.1937 12.845C20.2137 12.775 20.2837 12.725 20.2937 12.655C20.3037 12.585 19.9837 12.325 19.9937 12.245C20.0037 12.155 20.0537 12.085 20.0737 12.005C20.0937 11.925 20.3737 12.055 20.3937 11.975C20.4137 11.895 20.3237 11.735 20.3637 11.665C20.4037 11.585 21.1937 12.105 21.2237 12.045C21.2637 11.985 21.2737 11.905 21.3237 11.845C21.3637 11.785 21.2337 11.585 21.2837 11.525C21.3237 11.475 21.4537 11.505 21.5037 11.455C21.5537 11.415 21.5537 11.315 21.6037 11.275C21.6537 11.235 21.7337 11.145 21.7837 11.105C21.8337 11.065 21.6237 10.705 21.6937 10.675C21.7537 10.645 22.1037 10.975 22.1637 10.955C22.2237 10.935 22.1637 10.735 22.2337 10.715C22.3037 10.695 22.4737 10.845 22.5437 10.835C22.6137 10.825 22.5837 10.635 22.6537 10.615C22.7237 10.595 22.7637 10.525 22.8237 10.495C22.8837 10.465 22.8637 10.295 22.9237 10.255C22.9837 10.215 23.2837 10.595 23.3437 10.555C23.4037 10.515 23.3737 10.335 23.4337 10.295C23.4937 10.255 23.5237 10.195 23.5837 10.165C23.6437 10.135 23.5637 9.825 23.6237 9.795C23.6837 9.755 23.9437 10.155 24.0037 10.125C24.0637 10.085 24.0137 9.825 24.0737 9.785C24.1337 9.755 24.1837 9.695 24.2437 9.655C24.3037 9.625 24.3437 9.525 24.4037 9.485C24.4637 9.455 24.6437 9.715 24.7037 9.685C24.7637 9.645 24.7037 9.255 24.7637 9.215C24.8237 9.175 24.9237 9.245 24.9937 9.205L25.1837 9.075C25.2537 9.025 25.3637 9.125 25.4337 9.095C25.5037 9.065 25.5937 9.095 25.6637 9.095C25.7437 9.085 25.8337 9.195 25.9137 9.195C25.9937 9.195 26.0437 9.085 26.1237 9.095C26.2037 9.095 26.2737 9.025 26.3537 9.025C26.4337 9.025 26.5237 9.115 26.5937 9.125C26.6737 9.125 26.7437 9.015 26.8237 9.015C26.9037 9.015 26.9937 9.205 27.0737 9.205C27.1537 9.205 27.2237 8.735 27.3137 8.735C27.3937 8.735 27.4837 8.935 27.5637 8.935C27.6437 8.935 27.7137 8.785 27.7937 8.785C27.8737 8.785 27.9537 8.585 28.0337 8.595C28.1137 8.605 28.1937 9.075 28.2637 9.085C28.3437 9.105 28.4237 8.935 28.5037 8.955C28.5837 8.985 28.6637 8.875 28.7437 8.895C28.8237 8.915 28.9037 8.935 28.9837 8.945C29.0637 8.955 29.1437 8.935 29.2337 8.945C29.3137 8.945 29.3937 9.195 29.4737 9.195H29.7237C29.8037 9.175 29.8837 9.135 29.9737 9.125C30.0637 9.115 30.1337 9.205 30.2137 9.195C30.2937 9.195 30.3837 8.945 30.4737 8.945C30.5537 8.945 30.6237 9.255 30.7037 9.255C30.7837 9.255 30.8837 9.015 30.9637 9.025C31.0437 9.035 31.1737 8.565 31.2637 8.585C31.3437 8.605 31.4037 8.725 31.4837 8.745C31.5637 8.765 31.6237 8.915 31.6937 8.945C31.7637 8.975 31.8337 9.065 31.9037 9.085C31.9737 9.115 32.0837 8.965 32.1537 8.985C32.2237 9.015 32.2737 9.255 32.3437 9.275C32.3737 9.285 32.4037 9.315 32.4237 9.345C32.4437 9.385 32.4537 9.425 32.4737 9.435C32.5037 9.455 32.5137 9.695 32.5637 9.715C32.6137 9.735 32.7037 9.485 32.7537 9.505C32.8037 9.525 32.9737 9.645 33.0237 9.655C33.0737 9.665 33.1137 9.765 33.1537 9.785C33.2037 9.795 33.2937 9.835 33.3437 9.845L33.5637 7.685L33.3437 9.835H35.5237V9.855H33.3637C33.3637 9.855 33.4237 9.935 33.4537 9.955C33.4837 9.975 33.6237 10.005 33.6437 10.025C33.6637 10.045 33.6137 10.065 33.6437 10.085C33.6637 10.105 33.8337 10.125 33.8637 10.145C33.8937 10.165 34.0337 10.185 34.0837 10.195C34.1237 10.215 34.0137 10.235 34.0237 10.255C34.0237 10.275 33.8237 10.295 33.8337 10.315C33.8437 10.335 34.0837 10.355 34.1237 10.365C34.1537 10.385 33.4437 10.435 33.4737 10.445C33.5037 10.465 33.9137 10.475 33.9337 10.495C33.9537 10.515 33.6737 10.535 33.6837 10.555C33.6937 10.575 33.8437 10.595 33.8437 10.615C33.8437 10.635 34.0337 10.655 34.0237 10.675C34.0237 10.695 34.5737 10.715 34.5637 10.735C34.5637 10.755 34.5737 10.775 34.5637 10.795C34.5537 10.815 34.7037 10.805 34.6937 10.825C34.6837 10.845 34.5637 10.865 34.5437 10.875C34.5237 10.895 34.3937 10.895 34.3737 10.915C34.3537 10.935 34.3837 10.955 34.3737 10.975C34.3537 10.995 34.1037 11.005 34.0837 11.025C34.0637 11.045 34.2637 11.065 34.2537 11.085C34.2437 11.105 34.4037 11.125 34.3937 11.145C34.3837 11.165 34.0137 11.185 34.0037 11.195C34.0037 11.215 34.2137 11.235 34.2037 11.255C34.2037 11.275 34.4437 11.295 34.4437 11.315C34.4437 11.335 34.2237 11.355 34.2237 11.375C34.2237 11.395 34.0237 11.415 34.0337 11.435C34.0437 11.455 34.0137 11.475 34.0337 11.495C34.0537 11.515 34.4737 11.525 34.5037 11.545C34.5437 11.565 34.5437 11.585 34.5737 11.605C34.6037 11.625 34.2937 11.635 34.3237 11.655C34.3437 11.675 34.5237 11.695 34.5337 11.715C34.5537 11.735 33.6137 11.755 33.6237 11.775C33.6337 11.795 33.6637 11.815 33.6737 11.835C33.6737 11.855 33.9137 11.875 33.9137 11.895C33.9137 11.915 33.7937 11.935 33.7937 11.955C33.7937 11.975 33.8637 11.995 33.8537 12.015C33.8537 12.035 33.8537 12.065 33.8537 12.085C33.8437 12.105 34.2637 12.125 34.2437 12.145C34.2237 12.165 33.7537 12.175 33.7237 12.195C33.7037 12.215 33.8937 12.235 33.8637 12.255C33.8337 12.275 33.6137 12.285 33.5837 12.305C33.5537 12.325 33.7237 12.345 33.7037 12.365C33.6837 12.385 33.7237 12.405 33.7137 12.425C33.7137 12.445 33.8637 12.465 33.8637 12.485C33.8637 12.505 33.3937 12.525 33.3937 12.545C33.3937 12.565 33.5737 12.585 33.5837 12.605C33.5837 12.625 33.6237 12.645 33.6337 12.665C33.6337 12.685 33.9437 12.705 33.9537 12.725C33.9537 12.745 33.4937 12.765 33.5037 12.785C33.5037 12.805 33.7837 12.825 33.7837 12.845C33.7837 12.865 33.8337 12.885 33.8437 12.905C33.8537 12.925 33.9337 12.945 33.9437 12.965C33.9537 12.985 33.6537 13.005 33.6637 13.025C33.6837 13.045 34.0737 13.055 34.0937 13.075C34.1137 13.095 34.0237 13.115 34.0437 13.135C34.0637 13.155 34.0937 13.175 34.1237 13.195C34.1537 13.215 34.0237 13.235 34.0337 13.255C34.0437 13.275 33.9937 13.295 33.9937 13.315C33.9937 13.335 33.8637 13.355 33.8537 13.375C33.8437 13.395 33.9337 13.415 33.9137 13.435C33.8937 13.455 33.9637 13.475 33.9437 13.495C33.9237 13.515 33.8237 13.535 33.8037 13.555C33.7837 13.575 33.9037 13.595 33.8837 13.615C33.8737 13.635 33.6737 13.655 33.6637 13.675C33.6537 13.695 34.1137 13.725 34.1037 13.745C34.0937 13.765 33.8937 13.785 33.8937 13.805C33.8937 13.825 34.0437 13.845 34.0337 13.865C34.0237 13.885 34.2237 13.905 34.2037 13.925C34.1937 13.945 33.7237 13.955 33.7037 13.975C33.6837 13.995 33.8537 14.015 33.8237 14.035C33.7937 14.055 33.8937 14.075 33.8737 14.095C33.8537 14.115 33.8437 14.135 33.8337 14.155C33.8337 14.175 33.8537 14.195 33.8537 14.215C33.8537 14.235 33.6137 14.255 33.6137 14.275C33.6137 14.295 33.6337 14.315 33.6437 14.335C33.6437 14.355 33.7037 14.375 33.7137 14.395C33.7237 14.415 33.6437 14.435 33.6537 14.455C33.6537 14.475 33.9137 14.495 33.9137 14.515C33.9137 14.535 33.6137 14.555 33.6137 14.575C33.6137 14.595 33.8637 14.615 33.8637 14.635C33.8637 14.655 34.3337 14.675 34.3137 14.695C34.2937 14.715 34.1837 14.735 34.1737 14.755C34.1537 14.775 34.0137 14.795 33.9937 14.805C33.9737 14.825 33.9037 14.845 33.8837 14.865C33.8637 14.885 34.0337 14.905 34.0137 14.925C33.9937 14.945 33.7637 14.965 33.7437 14.985C33.7437 14.985 33.7137 15.005 33.6837 15.005C33.6437 15.005 33.6037 15.015 33.5937 15.025C33.5837 15.025 33.3437 15.045 33.3337 15.055C33.3237 15.055 33.5737 15.075 33.5637 15.085C33.5537 15.085 33.4537 15.135 33.4537 15.145C33.4537 15.155 33.3537 15.165 33.3437 15.175C33.3437 15.175 33.3137 15.205 33.3037 15.215H35.4737H33.3137C33.3137 15.215 33.2137 15.275 33.1937 15.305C33.1637 15.335 33.1237 15.475 33.1037 15.495C33.0837 15.515 33.0537 15.465 33.0237 15.495C33.0037 15.515 32.9737 15.685 32.9537 15.715C32.9337 15.745 32.9137 15.885 32.8837 15.935C32.8637 15.975 32.8337 15.865 32.8037 15.875C32.7837 15.875 32.7537 15.675 32.7337 15.685C32.7037 15.695 32.6837 15.935 32.6637 15.975C32.6337 16.005 32.5837 15.295 32.5637 15.325C32.5337 15.355 32.5237 15.765 32.5037 15.785C32.4837 15.805 32.4537 15.525 32.4337 15.535C32.4137 15.535 32.3937 15.695 32.3637 15.695C32.3437 15.695 32.3137 15.885 32.2937 15.875C32.2737 15.875 32.2537 16.425 32.2237 16.425C32.2037 16.425 32.1737 16.435 32.1537 16.425C32.1337 16.415 32.1337 16.575 32.1137 16.555C32.0937 16.545 32.0737 16.425 32.0437 16.405C32.0237 16.385 32.0137 16.255 31.9937 16.235C31.9737 16.215 31.9437 16.245 31.9237 16.235C31.9037 16.215 31.8837 15.965 31.8537 15.945C31.8337 15.925 31.8037 16.125 31.7837 16.115C31.7637 16.105 31.7337 16.265 31.7137 16.255C31.6937 16.245 31.6737 15.875 31.6437 15.865C31.6237 15.865 31.5937 16.075 31.5737 16.065C31.5537 16.065 31.5237 16.305 31.5037 16.305C31.4837 16.305 31.4537 16.085 31.4337 16.085C31.4137 16.085 31.3837 15.885 31.3637 15.895C31.3437 15.905 31.3137 15.875 31.2937 15.895C31.2737 15.915 31.2537 16.335 31.2337 16.365C31.2137 16.405 31.1837 16.405 31.1537 16.435C31.1337 16.465 31.1137 16.155 31.0837 16.185C31.0637 16.205 31.0337 16.385 31.0137 16.395C30.9937 16.415 30.9637 15.475 30.9337 15.485C30.9137 15.495 30.8837 15.525 30.8637 15.535C30.8437 15.535 30.8137 15.775 30.7937 15.775C30.7737 15.775 30.7437 15.655 30.7237 15.655C30.7037 15.655 30.6737 15.725 30.6537 15.715C30.6337 15.715 30.5937 15.715 30.5637 15.715C30.5437 15.705 30.5137 16.125 30.4937 16.105C30.4737 16.085 30.4537 15.615 30.4337 15.585C30.4137 15.565 30.3837 15.755 30.3637 15.725C30.3437 15.695 30.3237 15.475 30.3037 15.445C30.2837 15.415 30.2537 15.585 30.2237 15.565C30.2037 15.545 30.1737 15.585 30.1537 15.575C30.1337 15.575 30.1037 15.725 30.0837 15.725C30.0637 15.725 30.0337 15.255 30.0137 15.255C29.9937 15.255 29.9637 15.435 29.9437 15.445C29.9237 15.445 29.8937 15.485 29.8737 15.495C29.8537 15.505 29.8337 15.805 29.8037 15.815C29.7837 15.815 29.7537 15.355 29.7337 15.365C29.7137 15.365 29.6937 15.645 29.6637 15.645C29.6337 15.645 29.6137 15.695 29.5937 15.705C29.5737 15.715 29.5437 15.795 29.5237 15.805C29.5037 15.815 29.4737 15.515 29.4537 15.525C29.4337 15.545 29.4137 15.935 29.3937 15.955C29.3737 15.975 29.3437 15.885 29.3237 15.905L29.2537 15.985C29.2537 15.985 29.2037 15.885 29.1837 15.895C29.1637 15.905 29.1337 15.855 29.1137 15.855C29.0937 15.855 29.0637 15.725 29.0437 15.715C29.0237 15.705 28.9937 15.795 28.9737 15.775C28.9537 15.755 28.9237 15.825 28.9037 15.805C28.9037 15.805 28.8937 15.795 28.8837 15.775V15.755L28.8737 15.745H28.7937C28.7337 15.715 28.6737 15.695 28.6037 15.695C28.4537 15.695 28.4037 15.835 28.3237 15.835C28.2337 15.845 28.1137 15.685 28.0437 15.695C27.9637 15.715 28.0637 16.175 28.0237 16.185C27.9737 16.195 27.8437 16.045 27.8037 16.055C27.7537 16.065 27.7837 16.225 27.7537 16.235C27.7137 16.245 27.7737 16.435 27.7337 16.445C27.6937 16.445 27.4137 16.075 27.3737 16.085C27.3237 16.085 27.3837 16.255 27.3437 16.255C27.2937 16.255 27.3137 16.365 27.2737 16.375C27.2337 16.385 27.1937 16.395 27.1537 16.415C27.1137 16.435 27.1037 16.485 27.0737 16.515C27.0437 16.545 26.8537 16.385 26.8137 16.425L26.7237 16.545C26.7237 16.545 26.6937 16.665 26.6737 16.705C26.6437 16.755 26.5437 16.745 26.5137 16.795C26.4837 16.845 26.6237 17.065 26.5937 17.125C26.5637 17.175 26.2337 17.125 26.1837 17.235C26.1237 17.345 26.2037 17.565 26.2337 17.705L26.1737 18.155C26.1737 18.155 26.2037 18.165 26.2037 18.175C26.2037 18.195 26.6737 18.225 26.6537 18.255C26.6337 18.275 26.5237 18.305 26.5137 18.325C26.4937 18.345 26.3537 18.365 26.3337 18.395C26.3137 18.415 26.2437 18.445 26.2237 18.465C26.2037 18.485 26.3737 18.515 26.3537 18.535C26.3337 18.555 26.1037 18.585 26.0837 18.605C26.0837 18.605 26.0537 18.625 26.0237 18.635C25.9837 18.635 25.9437 18.645 25.9337 18.655C25.9237 18.665 25.6837 18.675 25.6737 18.685C25.6637 18.695 25.9137 18.705 25.9037 18.725C25.8937 18.735 25.7937 18.785 25.7937 18.795C25.7937 18.805 25.6937 18.815 25.6837 18.835C25.6837 18.845 25.6537 18.875 25.6437 18.885H27.8137H25.6537V18.965C25.6537 18.965 25.6537 19.025 25.6537 19.055C25.6537 19.105 25.6737 19.155 25.6837 19.215C25.6937 19.265 25.7137 19.325 25.7237 19.385C25.7537 19.495 25.7837 19.615 25.8137 19.705V19.775L25.8337 19.835C25.8337 19.875 25.8337 19.915 25.8337 19.955V20.065L25.8537 20.125L25.8737 20.185L25.9337 20.315L25.9937 20.445C26.0337 20.525 26.0837 20.605 26.1237 20.695C26.1737 20.775 26.2237 20.855 26.2637 20.935L26.3437 21.055L26.4237 21.175L26.4737 21.235L26.5237 21.285L26.6437 21.375L26.7637 21.455L26.8237 21.505L26.8737 21.555L26.8937 21.585L26.9137 21.615V21.655L26.9337 21.695V21.785L26.9537 21.875V21.965L26.9737 22.055V22.095L27.0037 22.135L27.0237 22.165H27.0337L27.0437 22.195L27.0937 22.245L27.1437 22.305L27.2337 22.435L27.2837 22.505L27.3337 22.565L27.3837 22.625L27.4137 22.645L27.4437 22.665L27.4737 22.685H27.5137L27.5537 22.705H27.5937H27.6837H27.7837L27.8837 22.685H27.9737H28.0137H28.0537L28.0937 22.695H28.1337L28.2037 22.735L28.2737 22.755L28.4137 22.785L28.5637 22.815L28.6337 22.835L28.7037 22.855L28.7737 22.885L28.8437 22.925L28.9737 23.005L29.1037 23.085L29.1737 23.115L29.2437 23.135L29.3937 23.165L29.5437 23.185C29.6437 23.195 29.7437 23.205 29.8437 23.225C29.8637 23.225 29.8837 23.225 29.8937 23.225H29.9137C29.9137 23.225 29.9337 23.225 29.9637 23.225C29.9637 23.225 29.9937 23.165 30.0037 23.135C30.0037 23.105 30.0237 22.965 30.0337 22.945C30.0337 22.925 30.0537 22.975 30.0637 22.945C30.0737 22.915 30.0837 22.755 30.0937 22.725C30.0937 22.695 30.1137 22.555 30.1137 22.505C30.1137 22.465 30.1337 22.575 30.1437 22.565C30.1437 22.565 30.1637 22.765 30.1737 22.755C30.1737 22.745 30.1937 22.505 30.1937 22.465C30.1937 22.435 30.2237 23.145 30.2337 23.115C30.2337 23.085 30.2437 22.675 30.2537 22.655C30.2537 22.635 30.2737 22.915 30.2837 22.905L30.3037 22.745C30.3037 22.745 30.3237 22.555 30.3337 22.565L30.3537 22.015C30.3537 22.015 30.3737 22.005 30.3737 22.015C30.3737 22.025 30.3737 21.865 30.3837 21.885C30.3837 21.895 30.4037 22.015 30.4037 22.035C30.4037 22.055 30.4037 22.185 30.4237 22.205C30.4237 22.225 30.4437 22.195 30.4437 22.205C30.4437 22.225 30.4637 22.475 30.4637 22.495C30.4637 22.515 30.4837 22.315 30.4937 22.325C30.4937 22.335 30.5137 22.175 30.5237 22.185C30.5337 22.195 30.5437 22.565 30.5437 22.575C30.5437 22.585 30.5637 22.365 30.5737 22.375C30.5837 22.385 30.5937 22.135 30.5937 22.135L30.6137 22.355C30.6137 22.355 30.6337 22.555 30.6437 22.545C30.6437 22.535 30.6637 22.565 30.6737 22.545C30.6737 22.525 30.6837 22.105 30.6937 22.075C30.6937 22.035 30.7137 22.035 30.7237 22.005C30.7237 21.975 30.7337 22.285 30.7437 22.255C30.7437 22.235 30.7637 22.055 30.7737 22.045C30.7737 22.025 30.7937 22.965 30.8037 22.955C30.8037 22.945 30.8237 22.915 30.8337 22.905C30.8337 22.905 30.8537 22.665 30.8637 22.665L30.8837 22.785C30.8837 22.785 30.9037 22.715 30.9037 22.725C30.9037 22.725 30.9237 22.725 30.9337 22.725C30.9337 22.735 30.9537 22.315 30.9637 22.335C30.9737 22.355 30.9737 22.825 30.9837 22.855C30.9837 22.875 31.0037 22.685 31.0137 22.715C31.0137 22.745 31.0237 22.965 31.0337 22.995C31.0337 23.025 31.0537 22.855 31.0637 22.875C31.0637 22.895 31.0837 22.855 31.0937 22.865C31.1037 22.875 31.1137 22.715 31.1237 22.715C31.1237 22.715 31.1437 23.185 31.1537 23.185C31.1637 23.185 31.1737 23.005 31.1837 22.995C31.1837 22.995 31.2037 22.955 31.2037 22.945C31.2037 22.935 31.2237 22.635 31.2237 22.625C31.2237 22.625 31.2437 23.085 31.2537 23.075C31.2637 23.065 31.2737 22.795 31.2737 22.795C31.2737 22.795 31.2937 22.745 31.2937 22.735C31.2937 22.725 31.3137 22.645 31.3137 22.635C31.3137 22.625 31.3337 22.925 31.3437 22.915C31.3437 22.895 31.3537 22.505 31.3637 22.485C31.3637 22.465 31.3837 22.555 31.3937 22.535C31.3937 22.515 31.4137 22.485 31.4137 22.455C31.4137 22.425 31.4337 22.555 31.4437 22.545C31.4537 22.535 31.4637 22.585 31.4737 22.585C31.4737 22.585 31.4937 22.715 31.5037 22.725C31.5037 22.735 31.5237 22.645 31.5337 22.665C31.5337 22.685 31.5537 22.615 31.5637 22.635C31.5637 22.655 31.5837 22.755 31.5937 22.775C31.5937 22.795 31.6137 22.675 31.6237 22.695C31.6237 22.705 31.6437 22.905 31.6537 22.915C31.6537 22.925 31.6737 22.465 31.6837 22.475C31.6837 22.475 31.7037 22.685 31.7137 22.685C31.7137 22.685 31.7337 22.535 31.7437 22.545C31.7437 22.555 31.7637 22.355 31.7737 22.375C31.7737 22.385 31.7937 22.855 31.7937 22.875C31.7937 22.895 31.8137 22.725 31.8237 22.755C31.8337 22.785 31.8437 22.685 31.8537 22.695C31.8537 22.715 31.8737 22.725 31.8837 22.735C31.8837 22.735 31.9037 22.715 31.9137 22.715C31.9137 22.715 31.9337 22.955 31.9437 22.955C31.9437 22.955 31.9637 22.935 31.9737 22.925C31.9737 22.925 31.9937 22.865 32.0037 22.855C32.0037 22.845 32.0237 22.925 32.0337 22.915C32.0437 22.905 32.0537 22.655 32.0637 22.655C32.0637 22.655 32.0837 22.955 32.0937 22.955C32.0937 22.955 32.1137 22.705 32.1237 22.705C32.1237 22.705 32.1437 22.235 32.1537 22.255C32.1537 22.275 32.1737 22.385 32.1737 22.395C32.1737 22.405 32.1937 22.555 32.1937 22.575C32.1937 22.595 32.2137 22.665 32.2137 22.685C32.2137 22.705 32.2337 22.535 32.2437 22.555C32.2437 22.575 32.2637 22.805 32.2637 22.815C32.2637 22.815 32.2637 22.845 32.2637 22.875C32.2637 22.915 32.2637 22.955 32.2637 22.965C32.2637 22.975 32.2637 23.215 32.2737 23.225C32.2837 23.235 32.2737 22.985 32.2837 22.995C32.2837 23.005 32.3037 23.105 32.3037 23.105C32.3037 23.105 32.3037 23.205 32.3137 23.215C32.3137 23.215 32.3237 23.245 32.3337 23.255V21.085V23.245L34.4737 23.555L32.3337 23.255C32.3337 23.275 32.3837 23.355 32.4037 23.375C32.4237 23.405 32.5637 23.465 32.5737 23.485C32.5837 23.515 32.5437 23.525 32.5537 23.555C32.5637 23.585 32.7337 23.625 32.7637 23.655C32.7937 23.685 32.9237 23.715 32.9737 23.745C33.0137 23.765 32.8937 23.785 32.9037 23.805C32.9037 23.825 32.6937 23.825 32.7037 23.845C32.7037 23.875 32.9437 23.925 32.9837 23.945C33.0137 23.975 32.3037 23.925 32.3237 23.945C32.3537 23.975 32.7537 24.045 32.7737 24.065C32.7937 24.095 32.5137 24.075 32.5137 24.095C32.5137 24.115 32.6637 24.155 32.6637 24.185C32.6637 24.205 32.8437 24.255 32.8337 24.275C32.8337 24.295 33.3737 24.395 33.3637 24.415C33.3537 24.435 33.3637 24.465 33.3637 24.485C33.3437 24.505 33.5037 24.525 33.4837 24.545C33.4637 24.565 33.3537 24.565 33.3337 24.585C33.3137 24.605 33.1837 24.585 33.1637 24.605C33.1437 24.625 33.1637 24.655 33.1537 24.665C33.1437 24.675 32.8737 24.665 32.8537 24.685C32.8337 24.705 33.0237 24.755 33.0137 24.775C32.9937 24.795 33.1537 24.845 33.1437 24.865C33.1337 24.885 32.7537 24.855 32.7437 24.865C32.7337 24.885 32.9437 24.935 32.9337 24.965C32.9237 24.995 33.1637 25.045 33.1637 25.065C33.1637 25.085 32.9337 25.075 32.9437 25.095C32.9437 25.115 32.7337 25.115 32.7537 25.135C32.7637 25.155 32.7337 25.175 32.7537 25.205C32.7737 25.235 33.1837 25.305 33.2137 25.325C33.2437 25.355 33.2537 25.375 33.2737 25.405C33.3037 25.435 32.9937 25.405 33.0137 25.435C33.0337 25.465 33.2037 25.505 33.2137 25.535C33.2237 25.565 32.2937 25.455 32.3037 25.475C32.3037 25.495 32.3437 25.525 32.3437 25.555C32.3437 25.575 32.5737 25.635 32.5737 25.655C32.5737 25.675 32.4537 25.685 32.4437 25.705C32.4437 25.725 32.5037 25.755 32.4937 25.775C32.4837 25.795 32.4937 25.835 32.4737 25.855C32.4537 25.875 32.8737 25.965 32.8537 25.975C32.8337 25.995 32.3637 25.945 32.3337 25.955C32.3037 25.975 32.4937 26.025 32.4637 26.045C32.4337 26.065 32.2137 26.045 32.1737 26.065C32.1337 26.085 32.3037 26.135 32.2837 26.155C32.2637 26.175 32.2937 26.205 32.2837 26.225C32.2737 26.245 32.4237 26.295 32.4237 26.315C32.4237 26.335 31.9537 26.295 31.9537 26.315C31.9537 26.335 32.1237 26.385 32.1337 26.405C32.1337 26.425 32.1637 26.455 32.1737 26.475C32.1737 26.495 32.4737 26.565 32.4837 26.585C32.4837 26.605 32.0237 26.565 32.0237 26.585C32.0237 26.605 32.2937 26.665 32.2937 26.685C32.2937 26.705 32.3337 26.735 32.3437 26.755C32.3437 26.775 32.4237 26.815 32.4337 26.835C32.4437 26.855 32.1337 26.835 32.1437 26.865C32.1537 26.895 32.5437 26.965 32.5637 26.985C32.5837 27.005 32.4837 27.015 32.5037 27.045C32.5237 27.065 32.5437 27.095 32.5737 27.125C32.5937 27.155 32.4737 27.155 32.4837 27.185C32.4937 27.215 32.4337 27.225 32.4337 27.245C32.4337 27.265 32.2937 27.265 32.2837 27.295C32.2737 27.315 32.3537 27.355 32.3337 27.375C32.3137 27.395 32.3737 27.425 32.3537 27.445C32.3337 27.465 32.2337 27.475 32.2137 27.495C32.1937 27.515 32.3037 27.555 32.2837 27.575C32.2637 27.595 32.0737 27.585 32.0537 27.615C32.0437 27.635 32.4937 27.735 32.4837 27.755C32.4737 27.775 32.2737 27.775 32.2637 27.795C32.2537 27.815 32.4037 27.865 32.3837 27.885C32.3637 27.905 32.5637 27.955 32.5437 27.975C32.5237 27.995 32.0637 27.945 32.0437 27.975C32.0237 27.995 32.1837 28.045 32.1537 28.065C32.1237 28.085 32.2137 28.125 32.1937 28.145C32.1737 28.165 32.1537 28.185 32.1437 28.205C32.1437 28.225 32.1537 28.255 32.1537 28.275C32.1537 28.295 31.9037 28.285 31.9137 28.315C31.9137 28.335 31.9137 28.365 31.9337 28.385C31.9337 28.405 31.9837 28.435 31.9937 28.465C31.9937 28.485 31.9237 28.505 31.9237 28.525C31.9237 28.545 32.1737 28.605 32.1737 28.625C32.1737 28.645 31.8737 28.625 31.8737 28.655C31.8737 28.675 32.1137 28.735 32.1037 28.755C32.0937 28.775 32.5637 28.865 32.5437 28.895C32.5237 28.915 32.4137 28.915 32.3937 28.935C32.3737 28.955 32.2237 28.955 32.2037 28.975C32.1837 28.995 32.1037 29.005 32.0837 29.025C32.0637 29.045 32.2237 29.095 32.2037 29.115C32.1837 29.135 31.9537 29.115 31.9337 29.145C31.9337 29.145 31.9037 29.155 31.8737 29.165C31.8337 29.165 31.7937 29.165 31.7837 29.165C31.7637 29.165 31.5337 29.155 31.5237 29.165C31.5137 29.165 31.7637 29.225 31.7437 29.235C31.7337 29.235 31.6337 29.275 31.6237 29.285C31.6237 29.295 31.5237 29.285 31.5137 29.305C31.5137 29.315 31.4737 29.335 31.4737 29.345L33.6137 29.655L31.4737 29.355V31.515H31.2937V29.355H31.2137C31.2137 29.355 31.1537 29.355 31.1237 29.355C31.0737 29.355 31.0237 29.375 30.9637 29.385C30.9137 29.395 30.8537 29.415 30.7937 29.425C30.6837 29.455 30.5637 29.485 30.4737 29.515H30.4037L30.3437 29.535C30.3037 29.535 30.2637 29.535 30.2237 29.535H30.1137L30.0537 29.555L29.9937 29.575L29.8637 29.635L29.7337 29.695C29.6537 29.735 29.5737 29.785 29.4837 29.825C29.4037 29.875 29.3237 29.925 29.2437 29.965L29.1237 30.045L29.0037 30.125L28.9437 30.175L28.8937 30.225L28.8037 30.345L28.7237 30.465L28.6737 30.525L28.6237 30.575L28.5937 30.595L28.5637 30.615H28.5237L28.4837 30.635H28.3937L28.3037 30.655H28.2137L28.1237 30.675H28.0837L28.0437 30.705L28.0137 30.725H28.0037L27.9937 30.755L27.9437 30.805L27.8837 30.855L27.7537 30.945L27.6837 30.995L27.6237 31.045L27.5637 31.095L27.5437 31.125L27.5237 31.155L27.5037 31.185V31.225L27.4837 31.265V31.305V31.395V31.495L27.5037 31.595V31.685V31.725V31.765L27.4937 31.805V31.845L27.4537 31.915L27.4337 31.985L27.4037 32.125L27.3737 32.275L27.3537 32.345L27.3337 32.415L27.3037 32.485L27.2637 32.555L27.1837 32.685L27.1037 32.815L27.0737 32.885L27.0537 32.955L27.0237 33.105L27.0037 33.255C26.9937 33.355 26.9837 33.455 26.9637 33.555C26.9637 33.575 26.9637 33.595 26.9637 33.605V33.625V33.635C26.9637 33.635 26.9637 33.655 26.9637 33.685C26.9637 33.705 27.0237 33.785 27.0537 33.805C27.0837 33.825 27.2237 33.875 27.2437 33.895C27.2637 33.915 27.2137 33.945 27.2437 33.975C27.2637 33.995 27.4337 34.025 27.4637 34.045C27.4937 34.065 27.6337 34.085 27.6837 34.115C27.7237 34.135 27.6137 34.165 27.6237 34.195C27.6237 34.215 27.4237 34.245 27.4337 34.265C27.4437 34.295 27.6837 34.315 27.7237 34.335C27.7537 34.365 27.0437 34.415 27.0737 34.435C27.1037 34.465 27.5137 34.475 27.5337 34.495C27.5537 34.515 27.2737 34.545 27.2837 34.565C27.2837 34.585 27.4437 34.605 27.4437 34.635C27.4437 34.655 27.6337 34.685 27.6237 34.705C27.6237 34.725 28.1737 34.745 28.1637 34.775C28.1637 34.795 28.1737 34.825 28.1637 34.845C28.1537 34.865 28.3037 34.865 28.2937 34.885C28.2837 34.905 28.1637 34.925 28.1437 34.955C28.1237 34.975 27.9937 34.985 27.9737 35.005C27.9537 35.025 27.9837 35.055 27.9737 35.075C27.9537 35.095 27.7037 35.115 27.6837 35.145C27.6637 35.175 27.8637 35.195 27.8537 35.215C27.8437 35.235 28.0037 35.265 27.9937 35.285C27.9837 35.305 27.6137 35.325 27.6037 35.355C27.5937 35.385 27.8137 35.405 27.8037 35.425C27.8037 35.445 28.0437 35.475 28.0437 35.495C28.0437 35.515 27.8237 35.545 27.8237 35.565C27.8237 35.585 27.6237 35.615 27.6337 35.635C27.6437 35.655 27.6137 35.685 27.6337 35.705C27.6537 35.725 28.0737 35.745 28.1037 35.765C28.1437 35.785 28.1437 35.815 28.1737 35.835C28.2037 35.855 27.8937 35.875 27.9237 35.895C27.9437 35.915 28.1237 35.945 28.1337 35.965C28.1437 35.985 27.2137 36.015 27.2237 36.045C27.2337 36.065 27.2637 36.095 27.2737 36.115C27.2737 36.135 27.5137 36.165 27.5137 36.185C27.5137 36.205 27.3937 36.235 27.3937 36.255C27.3937 36.275 27.4637 36.305 27.4537 36.325C27.4537 36.345 27.4537 36.385 27.4537 36.415C27.4537 36.445 27.8637 36.465 27.8437 36.485C27.8237 36.505 27.3537 36.525 27.3237 36.545C27.3037 36.565 27.4937 36.595 27.4637 36.615C27.4337 36.635 27.2137 36.655 27.1837 36.675C27.1537 36.695 27.3237 36.725 27.3037 36.755C27.2837 36.775 27.3237 36.805 27.3137 36.825C27.3137 36.845 27.4637 36.875 27.4637 36.895C27.4637 36.915 26.9937 36.945 26.9937 36.965C26.9937 36.985 27.1737 37.015 27.1837 37.035C27.1837 37.055 27.2237 37.085 27.2337 37.105C27.2437 37.125 27.5437 37.145 27.5537 37.175C27.5537 37.195 27.0937 37.225 27.1037 37.245C27.1037 37.265 27.3837 37.285 27.3837 37.315C27.3837 37.335 27.4337 37.365 27.4437 37.385C27.4537 37.405 27.5337 37.435 27.5437 37.455C27.5537 37.475 27.2537 37.505 27.2637 37.525C27.2737 37.545 27.6737 37.565 27.6937 37.585C27.7137 37.605 27.6237 37.635 27.6437 37.655C27.6637 37.675 27.6937 37.705 27.7237 37.725C27.7537 37.745 27.6237 37.775 27.6337 37.795C27.6437 37.815 27.5937 37.845 27.5937 37.865C27.5937 37.885 27.4637 37.915 27.4537 37.935C27.4437 37.955 27.5337 37.985 27.5137 38.005C27.4937 38.025 27.5637 38.055 27.5437 38.075C27.5237 38.095 27.4237 38.125 27.4037 38.145C27.3837 38.165 27.5037 38.195 27.4837 38.215C27.4737 38.235 27.2737 38.265 27.2637 38.285C27.2537 38.305 27.7137 38.345 27.7037 38.375C27.6937 38.405 27.4937 38.425 27.4937 38.445C27.4937 38.465 27.6437 38.495 27.6337 38.515C27.6237 38.535 27.8237 38.565 27.8037 38.585C27.7937 38.605 27.3237 38.625 27.3037 38.655C27.2837 38.675 27.4537 38.705 27.4237 38.725C27.3937 38.745 27.4937 38.775 27.4737 38.795C27.4537 38.815 27.4437 38.845 27.4337 38.865C27.4337 38.885 27.4537 38.915 27.4537 38.935C27.4537 38.955 27.2137 38.985 27.2137 39.005C27.2137 39.025 27.2337 39.055 27.2437 39.075C27.2437 39.095 27.3037 39.125 27.3137 39.145C27.3237 39.165 27.2437 39.195 27.2537 39.215C27.2537 39.235 27.5137 39.265 27.5137 39.285C27.5137 39.305 27.2137 39.335 27.2137 39.355C27.2137 39.375 27.4637 39.405 27.4637 39.425C27.4637 39.445 27.9337 39.475 27.9137 39.505C27.8937 39.525 27.7837 39.555 27.7737 39.575C27.7537 39.595 27.6137 39.615 27.5937 39.645C27.5737 39.665 27.5037 39.695 27.4837 39.715C27.4637 39.735 27.6337 39.765 27.6137 39.785C27.5937 39.805 27.3637 39.835 27.3437 39.855C27.3437 39.855 27.3137 39.875 27.2837 39.885C27.2437 39.885 27.2037 39.895 27.1937 39.905C27.1837 39.915 26.9437 39.925 26.9337 39.935C26.9237 39.945 27.1737 39.955 27.1637 39.975C27.1537 39.985 27.0537 40.035 27.0537 40.045C27.0537 40.055 26.9537 40.065 26.9437 40.085C26.9437 40.095 26.9137 40.125 26.9037 40.135H29.0737H26.9137V40.255C26.9137 40.255 26.9137 40.335 26.9137 40.385C26.9137 40.455 26.9337 40.525 26.9437 40.605C26.9537 40.685 26.9737 40.755 26.9837 40.835C27.0137 40.995 27.0437 41.145 27.0737 41.275C27.0737 41.305 27.0737 41.335 27.0837 41.365V41.455C27.0937 41.515 27.0937 41.565 27.1037 41.615C27.1037 41.665 27.1037 41.715 27.1137 41.775V41.855C27.1137 41.855 27.1437 41.915 27.1537 41.945C27.1937 42.065 27.2337 42.185 27.2737 42.305C27.3137 42.415 27.3637 42.535 27.4037 42.645C27.4537 42.765 27.5037 42.875 27.5437 42.985L27.6237 43.145L27.7037 43.305L27.7537 43.385L27.8037 43.455L27.8637 43.515L27.9237 43.575L28.0437 43.695L28.1037 43.755L28.1537 43.825L28.1737 43.865L28.1937 43.915V43.965L28.2137 44.025V44.145L28.2337 44.275V44.305V44.325L28.2537 44.375L28.2737 44.415L28.2937 44.455L28.3237 44.485L28.3537 44.515H28.3737L28.3937 44.535H28.4137L28.4337 44.545L28.5237 44.575L28.6037 44.605L28.7637 44.685L28.8437 44.725L28.9237 44.765L29.0137 44.795H29.0637L29.1137 44.815H29.1637H29.2137H29.2737L29.3337 44.785L29.4537 44.745L29.5737 44.695C29.6637 44.655 29.7537 44.615 29.8337 44.575L29.8937 44.555L29.9537 44.535H30.0137L30.0637 44.515H30.1737L30.2837 44.495L30.5037 44.455L30.7237 44.405L30.9437 44.365L31.0537 44.345H31.1537L31.3637 44.335H31.5737L31.6837 44.305L31.7937 44.275L32.0137 44.215L32.2237 44.145L32.3337 44.105L32.4437 44.065L32.6537 43.975C32.6537 43.975 32.7037 43.955 32.7237 43.945C32.7337 43.945 32.7437 43.945 32.7437 43.945C32.7437 43.945 32.7437 43.945 32.7637 43.945C32.7737 43.945 32.7937 43.935 32.8237 43.915C33.0337 43.805 33.6037 43.445 33.7737 43.295C33.9637 43.145 34.2337 42.825 34.4237 42.685C34.6237 42.555 34.8337 42.445 35.0237 42.305C35.2037 42.155 35.2737 41.895 35.4537 41.745C35.6237 41.595 35.6837 41.375 35.8237 41.195C35.9437 41.055 36.2337 40.965 36.4237 40.805C36.5937 40.665 36.9037 40.675 37.0637 40.515C37.2337 40.345 37.2237 40.035 37.3337 39.885C37.4837 39.715 38.3437 39.865 38.4737 39.705C38.6237 39.515 38.4337 39.125 38.5637 38.975C38.7137 38.805 39.0737 38.805 39.2137 38.645C39.3537 38.485 39.3737 38.225 39.5237 38.065C39.6637 37.925 39.6537 37.625 39.8037 37.445C39.9337 37.295 39.6237 36.775 39.7737 36.605C39.9137 36.455 40.0237 36.265 40.1537 36.095C40.2837 35.935 40.1237 35.895 40.2537 35.735C40.3837 35.575 40.5937 35.485 40.7237 35.325C40.8537 35.165 40.9737 35.205 41.1037 35.035C41.2237 34.865 41.3137 34.665 41.4437 34.495C41.5737 34.325 41.8837 34.295 41.9937 34.115C42.1137 33.935 42.0437 33.625 42.1637 33.455C42.2837 33.275 42.2437 33.005 42.3337 32.815C42.4337 32.625 42.8537 32.615 42.9437 32.425C43.0437 32.225 42.9437 31.935 43.0237 31.745C43.1037 31.545 42.9537 31.255 43.0237 31.065C43.0937 30.865 43.3937 30.745 43.4437 30.535C43.5037 30.325 43.7737 30.165 43.8237 29.955C43.8737 29.745 43.9737 29.525 44.0037 29.315C44.0337 29.105 43.6637 28.865 43.6737 28.665C43.6937 28.435 43.7437 28.215 43.7637 27.995C43.7737 27.765 44.1037 27.685 44.1237 27.465C44.1437 27.235 44.0137 27.005 44.0337 26.785C44.0537 26.565 45.0037 26.435 45.0237 26.195C45.0337 25.965 45.0437 25.735 45.0537 25.505C45.0637 25.275 44.8437 25.035 44.8637 24.795L44.8137 24.815Z" fill="#F1EAD1"/>
</svg>
