<svg width="46" height="46" viewBox="0 0 46 46" fill="none" xmlns="http://www.w3.org/2000/svg">
<path d="M45.02 25.6493C45.05 25.4793 45.02 24.9593 45.02 24.7993C45 24.6193 44.91 24.3193 44.89 24.1393C44.87 23.9593 44.92 23.7793 44.9 23.5993C44.88 23.4193 44.72 23.2593 44.69 23.0893C44.66 22.9193 44.53 22.7793 44.48 22.6293C44.44 22.5093 44.55 22.3193 44.53 22.1593C44.53 22.0193 44.72 21.8593 44.71 21.7193C44.69 21.6193 44.49 21.2793 44.41 21.1093C44.35 20.9093 44.98 20.4893 44.94 20.3393C44.89 20.1793 44.49 20.1393 44.45 19.9993C44.41 19.8493 44.65 19.6393 44.62 19.4893C44.59 19.3393 44.43 19.2293 44.41 19.0593C44.38 18.9093 44.17 18.7793 44.14 18.5993C44.12 18.4493 43.56 18.3893 43.53 18.2193C43.51 18.0693 43.45 17.9093 43.43 17.7493C43.41 17.5993 43.28 17.6793 43.25 17.5193C43.22 17.3693 43.29 17.1993 43.26 17.0493C43.23 16.8993 43.35 16.8393 43.32 16.6793C43.29 16.5293 43.22 16.3793 43.19 16.2293C43.16 16.0793 43.36 15.8693 43.32 15.7093C43.28 15.5593 43.04 15.4493 43 15.2993C42.96 15.1493 42.75 15.0393 42.71 14.8893C42.67 14.7393 42.95 14.4793 42.9 14.3193C42.85 14.1693 42.58 14.0993 42.52 13.9493C42.46 13.7993 42.18 13.7593 42.11 13.6093C42.04 13.4693 42.17 13.2293 42.1 13.0893C42.03 12.9493 42.13 12.6993 42.04 12.5693C41.95 12.4393 41.89 12.2693 41.8 12.1393C41.7 12.0093 41.31 12.1193 41.21 11.9993C41.1 11.8693 41.01 11.7193 40.91 11.5893C40.8 11.4693 40.99 11.2193 40.88 11.0893C40.77 10.9593 40.55 10.9193 40.44 10.7893C40.34 10.6593 40.97 9.99931 40.86 9.85931C40.76 9.71931 40.63 9.60931 40.52 9.46931C40.41 9.33931 40.13 9.33931 40.02 9.19931C39.92 9.07931 39.92 8.87931 39.82 8.75931C39.72 8.62931 39.58 8.54931 39.48 8.42931C39.38 8.30931 39.18 8.10931 39.09 7.97931C38.99 7.84931 38.57 7.97931 38.48 7.85931C38.39 7.73931 38.66 7.34931 38.57 7.21931C38.47 7.09931 38.21 7.09931 38.12 6.96931C38.03 6.84931 38.09 6.60931 38 6.47931C37.9 6.33931 37.65 6.31931 37.54 6.18931C37.44 6.05931 37.28 5.97931 37.16 5.85931C37.04 5.74931 36.81 5.75931 36.68 5.64931C36.55 5.53931 36.71 5.07931 36.57 4.97931C36.44 4.86931 36.21 4.89931 36.06 4.80931L35.64 4.55931C35.5 4.46931 35.21 4.61931 35.08 4.52931C34.95 4.43931 35.05 3.96931 34.92 3.87931C34.78 3.79931 34.51 3.92931 34.37 3.85931C34.23 3.77931 34.07 3.72931 33.93 3.65931C33.79 3.57931 33.62 3.56931 33.48 3.48931C33.34 3.40931 33.32 3.06931 33.17 3.00931C33.02 2.94931 32.73 3.21931 32.58 3.16931C32.43 3.10931 32.32 2.95931 32.17 2.89931L31.72 2.74931C31.56 2.70931 31.44 2.52931 31.28 2.46931C31.12 2.40931 30.99 2.30931 30.84 2.23931C30.69 2.16931 30.59 1.99931 30.44 1.91931C30.29 1.83931 30.1 1.86931 29.95 1.79931C29.8 1.72931 29.61 1.73931 29.46 1.66931C29.31 1.59931 29.19 1.45931 29.03 1.38931C28.88 1.31931 28.68 1.35931 28.51 1.30931C28.35 1.24931 28.24 1.02931 28.07 0.979309C27.9 0.929309 27.54 1.28931 27.38 1.23931C27.22 1.18931 27.09 0.959309 26.94 0.929309C26.79 0.899309 26.6 1.01931 26.44 0.989309C26.29 0.959309 26.08 1.11931 25.93 1.07931C25.78 1.03931 25.73 0.589309 25.58 0.549309C25.43 0.509309 25.23 0.639309 25.08 0.589309C24.93 0.539309 24.75 0.609309 24.59 0.569309C24.42 0.529309 24.33 0.499309 24.08 0.459309L23.91 0.439309L23.41 0.459309C23.25 0.459309 23.09 0.229309 22.93 0.229309L22.45 0.249309C22.29 0.249309 22.13 0.309309 21.98 0.319309C21.82 0.319309 21.66 0.249309 21.5 0.259309C21.34 0.259309 21.2 0.509309 21.04 0.509309C20.89 0.509309 20.71 0.229309 20.52 0.249309C20.34 0.269309 20.19 0.519309 20.01 0.529309C19.83 0.539309 19.69 1.00931 19.52 1.00931C19.36 1.00931 19.2 0.929309 19.04 0.939309C18.88 0.939309 18.72 0.829309 18.56 0.839309C18.4 0.839309 18.24 0.799309 18.08 0.809309C17.92 0.809309 17.78 1.00931 17.62 1.02931C17.46 1.04931 17.26 0.869309 17.1 0.889309C17.03 0.889309 16.97 0.889309 16.9 0.889309C16.85 0.869309 16.79 0.839309 16.74 0.839309C16.66 0.839309 16.53 0.639309 16.45 0.649309C16.37 0.649309 16.34 0.919309 16.26 0.939309C16.18 0.949309 15.84 0.959309 15.76 0.969309C15.68 0.989309 15.57 0.919309 15.49 0.939309C15.41 0.959309 15.24 0.979309 15.15 0.999309C14.98 1.04931 14.53 1.28931 14.39 1.35931C14.23 1.44931 14 1.66931 13.85 1.74931C13.69 1.82931 13.51 1.86931 13.36 1.94931C13.21 2.03931 13.13 2.24931 12.99 2.34931C12.85 2.44931 12.78 2.60931 12.65 2.72931C12.55 2.82931 12.31 2.82931 12.15 2.91931C12.01 2.99931 11.76 2.90931 11.62 2.98931C11.46 3.07931 11.45 3.34931 11.36 3.45931C11.23 3.57931 10.55 3.18931 10.43 3.28931C10.29 3.40931 10.41 3.79931 10.3 3.88931C10.17 3.99931 9.87 3.88931 9.75 3.97931C9.62 4.07931 9.58 4.27931 9.44 4.37931C9.32 4.46931 9.29 4.69931 9.14 4.79931C9.02 4.88931 9.22 5.40931 9.08 5.50931C8.96 5.59931 8.84 5.71931 8.71 5.80931C8.58 5.89931 8.71 5.97931 8.58 6.06931C8.45 6.14931 8.28 6.16931 8.15 6.25931C8.03 6.34931 7.92 6.26931 7.79 6.36931C7.66 6.45931 7.57 6.58931 7.44 6.68931C7.31 6.77931 7.05 6.69931 6.92 6.80931C6.8 6.90931 6.81 7.16931 6.69 7.27931C6.57 7.37931 6.57 7.60931 6.45 7.71931C6.33 7.81931 5.98 7.68931 5.87 7.80931C5.76 7.92931 5.81 8.18931 5.7 8.30931C5.59 8.42931 5.67 8.69931 5.57 8.81931C5.47 8.93931 5.21 8.93931 5.12 9.06931C5.03 9.19931 4.77 9.21931 4.68 9.35931C4.6 9.49931 4.47 9.61931 4.39 9.75931C4.32 9.89931 4.59 10.2093 4.54 10.3493C4.48 10.5093 4.39 10.6593 4.32 10.8093C4.25 10.9593 3.95 10.8993 3.88 11.0493C3.81 11.1993 3.88 11.4293 3.81 11.5793C3.74 11.7293 2.87 11.4593 2.79 11.6193C2.72 11.7793 2.65 11.9293 2.58 12.0893C2.51 12.2493 2.64 12.4993 2.56 12.6593C2.49 12.7993 2.33 12.8893 2.26 13.0293C2.19 13.1693 2.18 13.3393 2.11 13.4793C2.05 13.6193 1.94 13.8793 1.88 14.0293C1.81 14.1693 2.11 14.4993 2.04 14.6293C1.97 14.7593 1.5 14.6993 1.43 14.8393C1.36 14.9793 1.47 15.2093 1.4 15.3493C1.33 15.4893 1.09 15.5293 1.01 15.6693C0.93 15.8193 1.01 16.0593 0.95 16.2093C0.88 16.3593 0.88 16.5393 0.83 16.6993C0.78 16.8593 0.89 17.0593 0.84 17.2193C0.8 17.3793 0.32 17.4393 0.28 17.6093C0.25 17.7793 0.38 17.9793 0.36 18.1393L0.31 18.6193C0.29 18.7793 0.54 18.9793 0.52 19.1293C0.5 19.2893 0.04 19.3993 0.03 19.5593C0.02 19.7193 0.25 19.8993 0.24 20.0593C0.23 20.2193 0.24 20.3793 0.24 20.5393C0.24 20.6993 0.3 20.8593 0.3 21.0193C0.3 21.1793 0 21.3493 0 21.5093C0 21.6693 0.37 21.8093 0.38 21.9693C0.39 22.1293 0.31 22.2893 0.33 22.4493L0.4 22.9193C0.43 23.0793 0.31 23.2593 0.32 23.4293C0.34 23.5993 0.3 23.7593 0.32 23.9293C0.32 24.0993 0.21 24.2593 0.21 24.4293C0.21 24.5993 0.31 24.7593 0.3 24.9293C0.3 25.0993 0.39 25.2593 0.4 25.4293C0.4 25.5993 0.33 25.7693 0.34 25.9393C0.34 26.1093 0.47 26.2693 0.49 26.4393C0.51 26.6093 0.36 26.7893 0.38 26.9593C0.4 27.1293 0.88 27.2993 0.91 27.4593C0.93 27.6193 0.78 27.8193 0.82 27.9793C0.85 28.1393 1.04 28.2693 1.07 28.4393C1.1 28.5993 1.33 28.7293 1.36 28.8893C1.39 29.0493 0.99 29.2993 1.03 29.4593C1.06 29.6193 1.28 29.7493 1.31 29.9093C1.34 30.0793 1.48 30.2093 1.52 30.3793C1.56 30.5393 1.6 30.6993 1.66 30.8593C1.72 31.0193 1.8 31.1593 1.87 31.3193C1.93 31.4693 1.78 31.7293 1.85 31.8793C1.92 32.0393 2 32.1893 2.08 32.3293C2.16 32.4793 2.28 32.6093 2.36 32.7493C2.44 32.8993 2.45 33.0893 2.53 33.2293C2.61 33.3793 2.9 33.4093 2.99 33.5493C3.08 33.6893 2.91 33.9893 2.99 34.1393C3.08 34.2893 3.37 34.3193 3.44 34.4693C3.49 34.5993 4.05 34.5893 4.15 34.7393C4.23 34.8693 4.22 35.0293 4.27 35.1293C4.33 35.2393 4.26 35.3893 4.28 35.4693C4.31 35.5593 4.27 35.6493 4.26 35.6793C4.26 35.7193 4.42 35.7293 4.41 35.7793C4.41 35.8393 4.18 35.8793 4.16 35.8993C4.16 35.9093 4.13 35.9193 4.1 35.9193C4.06 35.9193 4.02 35.9193 4.01 35.9193C3.99 35.9393 3.79 35.8293 3.74 35.9193C3.7 35.9893 3.91 36.1393 3.88 36.2093C3.85 36.2793 3.67 36.5293 3.64 36.5993C3.61 36.6693 3.5 36.7093 3.47 36.7893C3.44 36.8593 3.37 36.9993 3.34 37.0693L5.3 37.7193L3.34 37.0793C3.31 37.1793 3.28 37.2793 3.25 37.3993C3.23 37.4893 3.21 37.5793 3.19 37.6793C3.17 37.7793 3.15 37.8893 3.13 37.9893C3.09 38.1993 3.05 38.4093 3.02 38.5793C3.02 38.6193 3 38.6593 2.99 38.6993L2.96 38.8093C2.94 38.8793 2.92 38.9493 2.9 39.0193C2.88 39.0893 2.86 39.1493 2.84 39.2293L2.82 39.3393C2.82 39.3393 2.81 39.4193 2.8 39.4593C2.78 39.6293 2.77 39.7893 2.76 39.9493C2.76 40.1093 2.74 40.2593 2.74 40.4293C2.74 40.5893 2.74 40.7493 2.73 40.8993C2.73 41.0493 2.73 41.1993 2.73 41.3593V41.4693L2.76 41.5693L2.79 41.6693L2.82 41.7593L2.88 41.9393L2.91 42.0393L2.93 42.1393V42.1993V42.2693V42.3393L2.9 42.4093C2.87 42.5093 2.84 42.6193 2.81 42.7393V42.7793L2.79 42.7993L2.81 42.8393L2.83 42.8793L2.86 42.9093L2.89 42.9393H2.91L2.93 42.9593H2.95L2.97 42.9793H3H3.03L3.14 42.9993L3.25 43.0293L3.45 43.0993L3.55 43.1293L3.65 43.1593L3.76 43.1793H3.82H3.88H3.94L4.01 43.1693L4.08 43.1493L4.16 43.1293C4.21 43.1093 4.27 43.0893 4.32 43.0693L4.49 43.0093C4.6 42.9693 4.72 42.9293 4.83 42.8893C4.88 42.8693 4.94 42.8593 4.99 42.8493H5.06L5.13 42.8293H5.26L5.39 42.7993L5.66 42.7493L5.93 42.6993L6.2 42.6593H6.33L6.46 42.6393H6.71H6.96H7.09L7.22 42.6093L7.75 42.4893C7.93 42.4493 8.11 42.3993 8.29 42.3593C8.33 42.3493 8.36 42.3393 8.37 42.3393C8.39 42.3393 8.39 42.3393 8.4 42.3393C8.4 42.3393 8.41 42.3393 8.43 42.3393C8.45 42.3393 8.47 42.3293 8.51 42.3193L7.89 40.3493H7.9L8.52 42.3193C8.52 42.3193 8.52 42.2593 8.52 42.2293C8.52 42.1993 8.49 42.0693 8.49 42.0593C8.49 42.0393 8.51 42.0793 8.51 42.0593C8.51 42.0393 8.46 41.8793 8.46 41.8493C8.46 41.8193 8.42 41.6893 8.41 41.6393C8.41 41.5993 8.44 41.6993 8.44 41.6893C8.44 41.6793 8.51 41.8693 8.51 41.8593C8.51 41.8493 8.45 41.6293 8.44 41.5893C8.44 41.5593 8.65 42.1993 8.65 42.1793C8.65 42.1493 8.53 41.7693 8.53 41.7493C8.53 41.7293 8.62 41.9793 8.62 41.9693C8.62 41.9693 8.58 41.8193 8.59 41.8193L8.55 41.6493C8.55 41.6493 8.4 41.1393 8.41 41.1493C8.41 41.1493 8.41 41.1293 8.42 41.1493C8.42 41.1493 8.38 41.0193 8.39 41.0293C8.39 41.0393 8.44 41.1393 8.45 41.1593C8.45 41.1693 8.5 41.2893 8.51 41.3093C8.51 41.3193 8.51 41.2893 8.53 41.3093C8.55 41.3293 8.62 41.5593 8.63 41.5693C8.63 41.5793 8.59 41.3993 8.6 41.4093C8.6 41.4193 8.57 41.2693 8.58 41.2793C8.58 41.2793 8.7 41.6293 8.71 41.6293C8.71 41.6293 8.66 41.4393 8.67 41.4393C8.67 41.4393 8.61 41.2193 8.62 41.2193C8.62 41.2193 8.69 41.4193 8.7 41.4093C8.7 41.4093 8.77 41.5893 8.77 41.5793C8.77 41.5693 8.78 41.5893 8.78 41.5693C8.78 41.5493 8.66 41.1693 8.66 41.1393C8.66 41.0993 8.66 41.0993 8.66 41.0693C8.66 41.0393 8.75 41.3193 8.75 41.2993C8.75 41.2793 8.7 41.1193 8.7 41.0993C8.7 41.0793 8.98 41.9293 8.98 41.9193C8.98 41.9093 8.98 41.8793 8.98 41.8693C8.98 41.8693 8.92 41.6493 8.93 41.6393C8.93 41.6393 8.97 41.7393 8.98 41.7393C8.98 41.7393 8.97 41.6693 8.98 41.6793C8.99 41.6893 8.99 41.6693 9 41.6793C9 41.6793 8.89 41.2993 8.9 41.3193C8.91 41.3393 9.05 41.7693 9.06 41.7893C9.07 41.8093 9.02 41.6293 9.03 41.6593C9.04 41.6793 9.11 41.8893 9.13 41.9093C9.15 41.9393 9.1 41.7793 9.11 41.7993C9.12 41.8193 9.11 41.7793 9.12 41.7793L9.09 41.6393C9.09 41.6393 9.24 42.0693 9.24 42.0593C9.24 42.0593 9.2 41.8893 9.2 41.8793C9.2 41.8793 9.2 41.8393 9.2 41.8293C9.2 41.8293 9.12 41.5393 9.12 41.5293C9.12 41.5293 9.26 41.9493 9.27 41.9393C9.27 41.9393 9.2 41.6893 9.2 41.6793C9.2 41.6693 9.2 41.6293 9.2 41.6193C9.2 41.6093 9.18 41.5393 9.19 41.5193C9.19 41.5093 9.29 41.7793 9.29 41.7693C9.29 41.7493 9.18 41.3893 9.18 41.3793C9.18 41.3593 9.21 41.4393 9.21 41.4193C9.21 41.3993 9.21 41.3693 9.21 41.3493C9.21 41.3193 9.25 41.4293 9.25 41.4193C9.25 41.4093 9.27 41.4493 9.28 41.4493C9.28 41.4493 9.33 41.5693 9.34 41.5793C9.34 41.5793 9.33 41.5093 9.34 41.5193C9.34 41.5293 9.34 41.4693 9.34 41.4893C9.35 41.5093 9.38 41.5893 9.39 41.6093C9.4 41.6293 9.37 41.5193 9.39 41.5293C9.39 41.5393 9.46 41.7193 9.47 41.7193C9.47 41.7193 9.35 41.3093 9.36 41.3093C9.36 41.3093 9.43 41.4893 9.44 41.4993C9.44 41.4993 9.41 41.3593 9.42 41.3693C9.42 41.3693 9.38 41.1993 9.39 41.2093C9.39 41.2193 9.54 41.6393 9.55 41.6593C9.56 41.6793 9.52 41.5193 9.53 41.5393C9.54 41.5593 9.53 41.4693 9.53 41.4793C9.53 41.4893 9.55 41.4993 9.56 41.5093C9.56 41.5093 9.56 41.4893 9.56 41.4793C9.56 41.4793 9.64 41.6993 9.64 41.6893C9.64 41.6893 9.64 41.6693 9.64 41.6593C9.64 41.6493 9.64 41.5993 9.64 41.5893C9.64 41.5793 9.67 41.6493 9.67 41.6393C9.67 41.6293 9.61 41.3993 9.61 41.3993C9.61 41.3993 9.71 41.6693 9.71 41.6593L9.65 41.4293C9.65 41.4293 9.53 40.9993 9.54 41.0093C9.54 41.0193 9.59 41.1193 9.6 41.1393C9.6 41.1493 9.66 41.2893 9.67 41.2993C9.67 41.3093 9.71 41.3793 9.72 41.3993C9.72 41.4093 9.69 41.2593 9.7 41.2793C9.7 41.2893 9.78 41.4993 9.79 41.5193C9.79 41.5193 9.8 41.5493 9.81 41.5693C9.82 41.5993 9.84 41.6393 9.84 41.6493C9.84 41.6593 9.92 41.8793 9.92 41.8893C9.92 41.8993 9.86 41.6693 9.86 41.6793C9.86 41.6793 9.9 41.7693 9.91 41.7793C9.91 41.7793 9.94 41.8693 9.95 41.8693L9.97 41.8993L9.35 39.9293L9.97 41.8893C9.97 41.8893 9.98 41.8893 9.99 41.8893V41.8693L10.01 41.8393L10.04 41.7893L10.11 41.6793L10.25 41.4593L10.53 41.0193L11.08 40.1493L9.98 41.8993C10.13 41.9893 10.58 42.2093 10.73 42.2593C10.9 42.3193 11.22 42.3493 11.37 42.4193C11.53 42.4893 11.67 42.6093 11.83 42.6693C11.99 42.7393 12.2 42.6593 12.37 42.7093C12.53 42.7593 12.71 42.6893 12.88 42.7193C13.02 42.7393 13.17 42.9193 13.34 42.9893C13.49 43.0393 13.57 43.3093 13.73 43.3593C13.9 43.4193 14.12 43.2593 14.26 43.2693C14.43 43.3093 14.56 44.0693 14.71 44.0993C14.89 44.1293 15.12 43.7993 15.26 43.8293C15.42 43.8593 15.52 44.1693 15.67 44.2093C15.82 44.2493 16.01 44.1593 16.17 44.2093C16.31 44.2493 16.52 44.1193 16.68 44.1793C16.82 44.2293 17.11 43.7393 17.27 43.7893C17.42 43.8293 17.58 43.8493 17.73 43.8993C17.88 43.9393 17.86 43.7893 18.01 43.8293C18.16 43.8693 18.28 44.0093 18.43 44.0593C18.58 44.0993 18.58 44.2293 18.73 44.2693C18.88 44.3093 19.04 44.3093 19.19 44.3493C19.34 44.3893 19.44 44.6493 19.6 44.6793C19.76 44.7093 19.95 44.5493 20.11 44.5793C20.27 44.6093 20.45 44.4693 20.6 44.4893C20.75 44.5193 20.87 44.8793 21.03 44.8993C21.19 44.9193 21.37 44.7193 21.53 44.7293C21.69 44.7393 21.85 44.5093 22.01 44.5093C22.17 44.5093 22.32 44.7293 22.48 44.7193C22.64 44.7193 22.82 44.9093 22.97 44.8893C23.13 44.8693 23.31 44.8893 23.46 44.8693C23.62 44.8393 23.69 44.4393 23.84 44.3993C24 44.3593 24.18 44.3393 24.34 44.2893C24.5 44.2393 24.64 44.5293 24.8 44.4893C24.97 44.4493 25.1 44.2693 25.26 44.2293C25.42 44.1893 25.74 45.0493 25.91 45.0093C26.08 44.9693 26.24 44.9093 26.41 44.8693C26.58 44.8293 26.7 44.5893 26.87 44.5493C27.02 44.5193 27.2 44.5893 27.35 44.5593C27.51 44.5293 27.64 44.4193 27.79 44.3893C27.94 44.3593 28.21 44.2693 28.37 44.2493C28.52 44.2193 28.6 43.7793 28.75 43.7493C28.9 43.7193 29.14 44.1293 29.29 44.0993C29.44 44.0693 29.56 43.8393 29.71 43.8093C29.86 43.7793 30.05 43.9493 30.21 43.9193C30.38 43.8893 30.51 43.6593 30.67 43.6193C30.83 43.5793 30.98 43.4793 31.13 43.4193C31.29 43.3593 31.38 43.1493 31.53 43.0893C31.68 43.0193 32.03 43.3493 32.18 43.2693C32.33 43.1893 32.41 42.9693 32.55 42.8893L32.96 42.6193C33.1 42.5393 33.09 42.2093 33.23 42.1293C33.36 42.0393 33.75 42.3393 33.88 42.2493C34.02 42.1593 34.01 41.8593 34.14 41.7693C34.27 41.6793 34.39 41.5593 34.52 41.4693C34.65 41.3793 34.74 41.2193 34.86 41.1293C34.98 41.0293 35.31 41.1693 35.43 41.0593C35.55 40.9493 35.43 40.5693 35.54 40.4593C35.66 40.3493 35.84 40.3193 35.96 40.1993C36.07 40.0893 36.18 39.9693 36.28 39.8493C36.39 39.7193 36.6 39.6993 36.72 39.5793C36.84 39.4593 36.99 39.3893 37.12 39.2893C37.24 39.1793 37.44 39.1593 37.57 39.0593C37.7 38.9493 37.76 38.7693 37.89 38.6693C38.02 38.5693 38.1 38.3993 38.23 38.2893C38.36 38.1793 38.53 38.1293 38.66 38.0193C38.79 37.9093 38.83 37.6993 38.95 37.5893C39.07 37.4693 39.31 37.4693 39.42 37.3493C39.54 37.2193 39.37 36.7493 39.48 36.6293C39.59 36.5093 39.83 36.4993 39.94 36.3693C40.05 36.2393 40.03 36.0193 40.14 35.8893C40.24 35.7593 40.21 35.5093 40.31 35.3793C40.41 35.2493 40.85 35.3993 40.96 35.2693C41.07 35.1393 41.03 34.8993 41.15 34.7793C41.27 34.6593 41.28 34.4493 41.37 34.3193C41.47 34.1793 41.56 34.0493 41.65 33.9093C41.74 33.7693 41.81 33.6193 41.88 33.4693C41.96 33.3193 42.24 33.2793 42.32 33.1193L42.54 32.6593C42.61 32.5093 42.63 32.3293 42.69 32.1693C42.75 32.0093 42.89 31.8893 42.95 31.7293C43.01 31.5693 42.86 31.3393 42.92 31.1793C42.98 31.0193 43.31 30.9693 43.37 30.8093C43.43 30.6493 43.27 30.4093 43.33 30.2593C43.39 30.0993 43.02 29.7693 43.09 29.6193C43.15 29.4793 43.3 29.3693 43.37 29.2193C43.44 29.0793 43.62 28.9793 43.67 28.8293C43.73 28.6793 43.84 28.5493 43.9 28.3993C43.96 28.2493 43.85 28.0393 43.9 27.8893C43.95 27.7393 44.2 27.6293 44.25 27.4793C44.27 27.4193 44.31 27.3593 44.34 27.2993C44.38 27.2593 44.43 27.2193 44.45 27.1793C44.48 27.0993 44.72 27.0693 44.75 26.9893C44.78 26.9093 44.56 26.7693 44.58 26.6893C44.6 26.6093 44.74 26.2993 44.76 26.2193C44.78 26.1393 44.88 26.0693 44.9 25.9793C44.92 25.8993 44.97 25.7293 44.98 25.6493H45.02ZM35.8 31.0493C35.77 31.1693 35.63 31.2593 35.6 31.3793C35.57 31.4993 35.6 31.6293 35.55 31.7393C35.51 31.8493 35.45 32.0393 35.39 32.1393C35.34 32.2293 35.65 32.5293 35.58 32.6193C35.51 32.7193 35.08 32.5493 35.01 32.6193C34.94 32.6893 35.03 32.8793 34.95 32.9493C34.87 33.0093 34.66 32.9293 34.58 32.9793C34.5 33.0193 34.5 33.2493 34.41 33.3293C34.31 33.3993 34.25 33.5093 34.15 33.5893C34.05 33.6593 34.06 33.8593 33.96 33.9293C33.86 33.9993 33.49 33.7193 33.41 33.7793C33.32 33.8393 33.32 34.0493 33.22 34.1193C33.13 34.1793 33.05 34.2693 32.95 34.3193C32.85 34.3793 32.89 34.6893 32.78 34.7393C32.67 34.7993 32.38 34.4393 32.28 34.4793C32.18 34.5293 32.17 34.7993 32.06 34.8493C31.95 34.8993 31.85 34.9593 31.74 34.9993C31.63 35.0393 31.53 35.1393 31.41 35.1793C31.29 35.2193 31.1 34.9493 30.99 34.9893C30.88 35.0293 30.83 35.4093 30.71 35.4393C30.59 35.4693 30.44 35.3993 30.32 35.4293C30.2 35.4593 30.07 35.4893 29.94 35.5193C29.81 35.5493 29.66 35.4293 29.52 35.4393C29.38 35.4393 29.25 35.3993 29.12 35.3893C28.98 35.3793 28.87 35.2493 28.73 35.2193C28.6 35.1893 28.45 35.2693 28.32 35.2293C28.19 35.1893 28.04 35.2293 27.9 35.1993C27.77 35.1593 27.65 35.0393 27.52 34.9993C27.39 34.9593 27.22 35.0293 27.09 34.9893C26.95 34.9493 26.87 34.7293 26.74 34.6893C26.61 34.6493 26.28 35.0193 26.15 34.9593C26.01 34.9093 25.94 34.6993 25.81 34.6393C25.68 34.5893 25.49 34.6793 25.36 34.6293C25.23 34.5693 25.02 34.6993 24.88 34.6293C24.75 34.5693 24.8 34.1093 24.68 34.0393C24.56 33.9693 24.35 34.0693 24.22 33.9893C24.1 33.9093 23.92 33.9393 23.79 33.8693L23.41 33.6593C23.28 33.5993 23.14 33.5593 23 33.4993C22.87 33.4393 22.83 33.1593 22.7 33.0993L22.3 32.9193C22.17 32.8593 22.01 32.8393 21.88 32.7793C21.75 32.7193 21.65 32.5793 21.51 32.5193C21.38 32.4593 21.16 32.5993 21.03 32.5193C20.9 32.4493 20.93 32.1293 20.81 32.0593C20.69 31.9993 20.44 32.1093 20.33 32.0293C20.22 31.9493 19.83 32.2293 19.71 32.1393C19.6 32.0493 19.55 31.8893 19.45 31.7993C19.35 31.6993 19.32 31.5093 19.22 31.4193C19.12 31.3193 19.05 31.1793 18.95 31.0893C18.85 30.9893 18.63 31.0293 18.53 30.9293C18.43 30.8293 18.46 30.5693 18.36 30.4693C18.32 30.4293 18.29 30.3793 18.26 30.3193C18.26 30.2693 18.24 30.2093 18.22 30.1793C18.17 30.1193 18.27 29.9093 18.22 29.8593C18.17 29.8093 17.95 29.9393 17.91 29.8893C17.86 29.8293 17.71 29.5793 17.66 29.5293C17.61 29.4793 17.62 29.3593 17.57 29.3093C17.52 29.2593 17.43 29.1393 17.38 29.0893C17.27 28.9993 16.91 28.7493 16.8 28.6693C16.67 28.5893 16.4 28.5093 16.28 28.4093C16.16 28.3193 16.07 28.1793 15.96 28.0893C15.84 27.9893 15.63 28.0093 15.51 27.9193C15.39 27.8293 15.21 27.8393 15.07 27.7693C14.96 27.7093 14.9 27.4993 14.78 27.3893C14.68 27.2893 14.72 27.0293 14.62 26.9293C14.51 26.8193 14.25 26.8793 14.14 26.8093C14.01 26.7093 14.29 26.0193 14.2 25.9393C14.08 25.8393 13.72 26.0193 13.62 25.9393C13.51 25.8393 13.62 25.5393 13.52 25.4493C13.43 25.3493 13.23 25.3393 13.14 25.2193C13.06 25.1193 12.83 25.1093 12.75 24.9793C12.68 24.8693 12.16 25.0793 12.08 24.9493C12 24.8293 11.9 24.7293 11.82 24.5993C11.75 24.4793 11.65 24.5993 11.58 24.4693C11.51 24.3493 11.53 24.1693 11.46 24.0493C11.39 23.9193 11.49 23.8293 11.42 23.7093C11.36 23.5893 11.25 23.4793 11.19 23.3493C11.12 23.2293 11.27 22.9893 11.22 22.8593C11.16 22.7293 10.92 22.6993 10.86 22.5693C10.8 22.4393 10.59 22.3893 10.53 22.2593C10.46 22.1293 10.73 21.8493 10.67 21.7293C10.62 21.5993 10.37 21.5693 10.31 21.4393C10.25 21.3093 9.98 21.2893 9.91 21.1693C9.84 21.0493 9.99 20.8293 9.93 20.7093C9.87 20.5793 10 20.3693 9.93 20.2493C9.87 20.1293 9.84 19.9793 9.76 19.8693C9.69 19.7593 9.3 19.8093 9.23 19.6893C9.15 19.5593 9.1 19.4193 9.03 19.2893C8.96 19.1593 9.21 18.9893 9.15 18.8593C9.1 18.7293 8.92 18.6393 8.88 18.4993C8.84 18.3593 9.69 18.0493 9.65 17.9293C9.61 17.8093 9.57 17.6893 9.55 17.5593C9.53 17.4393 9.3 17.3293 9.29 17.1893C9.28 17.0693 9.39 16.9493 9.4 16.8293C9.4 16.7093 9.33 16.5893 9.35 16.4693C9.36 16.3493 9.36 16.1293 9.39 16.0093C9.41 15.8893 9.03 15.6893 9.07 15.5693C9.11 15.4493 9.56 15.4393 9.61 15.3293C9.66 15.2193 9.5 15.0393 9.56 14.9293C9.62 14.8193 9.85 14.7893 9.9 14.6793C9.97 14.5693 9.86 14.3793 9.91 14.2593C9.97 14.1493 9.98 14.0193 10.03 13.8993C10.09 13.7893 9.99 13.6193 10.04 13.4993C10.1 13.3793 10.56 13.4693 10.6 13.3593C10.65 13.2593 10.56 13.0693 10.62 12.9593L10.77 12.6493C10.83 12.5593 10.65 12.2993 10.72 12.1993C10.79 12.0993 11.22 12.2893 11.28 12.1993C11.34 12.1193 11.22 11.8693 11.3 11.7793C11.37 11.6993 11.43 11.5893 11.5 11.5093C11.57 11.4293 11.61 11.3093 11.69 11.2293C11.78 11.1493 12.04 11.3193 12.12 11.2593C12.19 11.1893 12.08 10.8293 12.17 10.7593C12.26 10.6893 12.4 10.7093 12.5 10.6593L12.78 10.4693C12.88 10.4093 13.04 10.4793 13.14 10.4493C13.25 10.4093 13.37 10.4393 13.48 10.4193C13.6 10.4093 13.71 10.5093 13.83 10.5193C13.94 10.5193 14.05 10.4293 14.17 10.4493C14.28 10.4593 14.41 10.4093 14.52 10.4293C14.64 10.4593 14.74 10.5593 14.85 10.5993C14.96 10.6293 15.11 10.5493 15.22 10.5893C15.35 10.6393 15.27 10.8093 15.31 10.8293C15.31 10.8293 15.6 10.4993 15.67 10.5493C15.73 10.5993 15.65 10.7893 15.7 10.8493C15.74 10.9093 15.92 10.8793 15.97 10.9693C16.02 11.0493 16.24 11.0493 16.29 11.1593C16.34 11.2693 15.99 11.5593 16.02 11.6693C16.06 11.7793 16.26 11.8493 16.31 12.0093C16.36 12.1693 16.49 12.2693 16.54 12.4193C16.58 12.5693 16.63 12.7093 16.68 12.8493C16.73 12.9893 16.81 13.1193 16.87 13.2593C16.93 13.3993 16.77 13.6293 16.84 13.7693L17.04 14.1793C17.11 14.3093 17.21 14.4293 17.28 14.5693C17.35 14.6993 17.34 14.8693 17.4 15.0093C17.47 15.1393 17.74 15.1893 17.8 15.3293C17.86 15.4693 17.65 15.7093 17.71 15.8493C17.77 15.9893 18.05 16.0393 18.1 16.1793C18.15 16.3193 18.64 16.3393 18.67 16.4693C18.7 16.5993 18.64 16.7493 18.65 16.8593C18.67 16.9793 18.55 17.0993 18.55 17.1793C18.55 17.2693 18.48 17.3293 18.47 17.3893C18.45 17.4393 18.61 17.5093 18.58 17.5693C18.55 17.6293 18.32 17.6293 18.29 17.6793C18.27 17.7093 18.25 17.7193 18.21 17.7393C18.17 17.7393 18.12 17.7493 18.11 17.7693C18.08 17.7993 17.86 17.7393 17.83 17.7693C17.8 17.7993 17.99 17.9593 17.95 18.0093C17.92 18.0493 17.72 18.1793 17.68 18.2193C17.64 18.2593 17.53 18.2493 17.49 18.2893C17.45 18.3293 17.35 18.3893 17.31 18.4293L18.95 19.7293L17.32 18.4393L17.29 18.4693L17.26 18.5093L17.24 18.5493L17.22 18.5893L17.19 18.6793C17.17 18.7393 17.16 18.8093 17.14 18.8593V18.8993L17.11 18.9293L17.07 18.9793L17.04 19.0193L17.01 19.0593L16.99 19.0993L16.97 19.1493L16.94 19.2593L16.91 19.3693C16.9 19.4393 16.88 19.5193 16.87 19.5993C16.87 19.6793 16.85 19.7493 16.84 19.8293V19.9393V20.0493V20.1093L16.87 20.1693L16.91 20.2893L16.96 20.4093L16.98 20.4693L17 20.5293V20.5593V20.5893V20.6193L16.98 20.6493L16.95 20.6993L16.91 20.7493V20.7693L16.87 20.7993L16.81 20.8493L16.78 20.8793L16.76 20.9093L16.74 20.9393V20.9693L16.71 21.0293L16.68 21.0893L16.61 21.2093L16.54 21.3293L16.51 21.3893V21.4193L16.49 21.4493V21.4793V21.5093V21.5393L16.51 21.5693L16.55 21.6193L16.59 21.6693L16.64 21.7193L16.68 21.7793L16.7 21.8093V21.8393L16.72 21.8693V21.8993V21.9593V22.0193L16.77 22.1293L16.81 22.2393L16.83 22.2893V22.3493L16.85 22.4093V22.4693V22.5893V22.7093V22.7693V22.8293L16.9 22.9393L16.95 23.0493L17.05 23.2593L17.06 23.2893V23.2993V23.3093C17.06 23.3093 17.06 23.3193 17.08 23.3393C17.08 23.3393 17.2 23.4093 17.24 23.4093C17.28 23.4093 17.42 23.3793 17.45 23.3993C17.48 23.4193 17.47 23.4693 17.5 23.4793C17.53 23.4993 17.68 23.4193 17.72 23.4193C17.76 23.4193 17.88 23.3693 17.94 23.3593C17.99 23.3593 17.93 23.4493 17.95 23.4693C17.98 23.4893 17.84 23.6393 17.86 23.6593C17.89 23.6793 18.08 23.5593 18.13 23.5493C18.17 23.5493 17.69 24.0393 17.73 24.0393C17.77 24.0393 18.09 23.8093 18.12 23.8193C18.16 23.8293 17.97 24.0293 18 24.0493C18.03 24.0693 18.15 23.9993 18.17 24.0193C18.19 24.0393 18.34 23.9493 18.36 23.9793C18.37 23.9993 18.8 23.6793 18.81 23.7093C18.82 23.7393 18.86 23.7393 18.87 23.7693C18.87 23.7993 18.99 23.6893 19 23.7193C19.01 23.7493 18.94 23.8393 18.95 23.8693C18.95 23.8993 18.86 23.9893 18.87 24.0193C18.87 24.0493 18.92 24.0493 18.92 24.0893C18.92 24.1193 18.76 24.2993 18.77 24.3393C18.77 24.3693 18.94 24.2693 18.95 24.2993C18.95 24.3293 19.09 24.2493 19.11 24.2793C19.13 24.3093 18.88 24.5693 18.89 24.5993C18.9 24.6293 19.08 24.5093 19.09 24.5293C19.11 24.5493 19.3 24.4093 19.32 24.4393C19.34 24.4593 19.21 24.6293 19.23 24.6493C19.25 24.6693 19.13 24.8293 19.16 24.8393C19.19 24.8493 19.19 24.8893 19.23 24.8993C19.27 24.8993 19.56 24.6393 19.6 24.6393C19.65 24.6393 19.67 24.6593 19.71 24.6593C19.75 24.6593 19.56 24.8793 19.6 24.8893C19.64 24.8893 19.77 24.7993 19.81 24.8093C19.84 24.8093 19.24 25.4793 19.27 25.4993C19.3 25.5093 19.34 25.5093 19.37 25.5293C19.4 25.5493 19.58 25.4093 19.6 25.4293C19.62 25.4493 19.57 25.5493 19.58 25.5693C19.6 25.5893 19.67 25.5693 19.68 25.5893C19.7 25.6193 19.74 25.6393 19.76 25.6693C19.77 25.6993 20.07 25.4293 20.08 25.4593C20.08 25.4893 19.8 25.8393 19.8 25.8693C19.8 25.8993 19.95 25.7893 19.96 25.8293C19.96 25.8693 19.84 26.0393 19.84 26.0793C19.84 26.1293 19.98 26.0293 19.99 26.0593C20 26.0893 20.05 26.0893 20.07 26.1093C20.09 26.1393 20.21 26.0393 20.23 26.0593C20.25 26.0793 19.98 26.4393 20.01 26.4593C20.04 26.4793 20.17 26.3693 20.2 26.3793C20.23 26.3893 20.27 26.3793 20.3 26.3993C20.33 26.4093 20.54 26.2093 20.56 26.2193C20.59 26.2293 20.33 26.5993 20.35 26.6093C20.38 26.6193 20.56 26.4393 20.59 26.4593C20.62 26.4693 20.66 26.4593 20.69 26.4693C20.72 26.4793 20.79 26.4393 20.82 26.4493C20.85 26.4493 20.69 26.7093 20.73 26.7193C20.76 26.7193 21.01 26.4493 21.05 26.4493C21.08 26.4493 21.05 26.5393 21.09 26.5393C21.13 26.5393 21.16 26.5393 21.2 26.5393C21.24 26.5393 21.2 26.6493 21.22 26.6593C21.25 26.6693 21.25 26.7293 21.27 26.7493C21.29 26.7693 21.24 26.8893 21.27 26.9093C21.29 26.9393 21.36 26.8893 21.38 26.9093C21.4 26.9393 21.46 26.9093 21.47 26.9393C21.48 26.9693 21.45 27.0693 21.47 27.0993C21.49 27.1293 21.58 27.0593 21.59 27.0993C21.61 27.1293 21.52 27.2993 21.54 27.3193C21.56 27.3493 21.85 27.0093 21.87 27.0393C21.89 27.0593 21.81 27.2293 21.83 27.2593C21.85 27.2893 21.96 27.1793 21.98 27.2093C22 27.2393 22.13 27.0993 22.15 27.1293C22.17 27.1593 21.94 27.5393 21.96 27.5693C21.98 27.5993 22.09 27.4893 22.11 27.5193C22.12 27.5593 22.2 27.4993 22.22 27.5193C22.24 27.5493 22.26 27.5793 22.28 27.5993C22.3 27.6193 22.34 27.6193 22.37 27.6293C22.4 27.6493 22.3 27.8593 22.33 27.8693L22.42 27.8993C22.42 27.8993 22.5 27.8793 22.54 27.8993C22.57 27.8993 22.56 27.9893 22.59 27.9993C22.62 27.9993 22.77 27.8193 22.8 27.8293C22.83 27.8393 22.71 28.1093 22.74 28.1193C22.77 28.1393 22.92 27.9393 22.94 27.9593C22.96 27.9793 23.22 27.5993 23.24 27.6293C23.26 27.6593 23.24 27.7593 23.24 27.7893C23.26 27.8193 23.21 27.9493 23.24 27.9793C23.26 28.0093 23.24 28.0893 23.27 28.1193C23.29 28.1493 23.39 28.0293 23.41 28.0493C23.43 28.0793 23.35 28.2893 23.37 28.3193C23.37 28.3293 23.37 28.3593 23.37 28.3793C23.37 28.4093 23.35 28.4493 23.36 28.4693C23.36 28.4893 23.28 28.6993 23.29 28.7093C23.29 28.7293 23.43 28.5193 23.44 28.5393C23.44 28.5593 23.46 28.6693 23.48 28.6793C23.49 28.6893 23.47 28.7793 23.48 28.7893C23.49 28.7993 23.51 28.8393 23.52 28.8493L23.57 28.8693C23.57 28.8693 23.61 28.8793 23.63 28.8893H23.68L23.74 28.9093H23.86C23.95 28.9293 24.03 28.9293 24.1 28.9393H24.15L24.19 28.9593L24.27 28.9893H24.31L24.35 29.0093H24.37H24.39H24.44L24.55 28.9893L24.66 28.9693C24.73 28.9493 24.8 28.9393 24.88 28.9193C24.95 28.8993 25.02 28.8793 25.09 28.8493L25.19 28.8093L25.28 28.7593L25.32 28.7293L25.36 28.6893L25.44 28.5993L25.52 28.5093L25.56 28.4693L25.6 28.4293L25.62 28.4093H25.64L25.67 28.3993H25.7H25.75H25.81L25.82 28.4093L25.85 28.4393L25.92 28.4893L25.95 28.5093L25.98 28.5293H26.01L26.04 28.5493H26.1L26.16 28.5793L26.29 28.6193L26.42 28.6593H26.48L26.51 28.6793H26.54H26.57H26.59L26.61 28.6593L26.63 28.6393L26.65 28.6193L26.67 28.5993L26.7 28.5493L26.74 28.4893L26.78 28.4393L26.8 28.4193L26.82 28.3993L26.84 28.3793H26.87L26.92 28.3493L26.97 28.3293L27.06 28.2693L27.15 28.2093L27.2 28.1793L27.25 28.1493L27.3 28.1293L27.36 28.1093L27.48 28.0793L27.54 28.0593L27.6 28.0393L27.65 28.0193H27.68L27.7 27.9893L27.79 27.9193L27.87 27.8393L28.02 27.6793C28.02 27.6793 28.04 27.6693 28.04 27.6593C28.04 27.6593 28.04 27.6593 28.06 27.6393L26.37 26.4593L28.07 27.6393C28.16 27.5093 28.34 27.1493 28.39 27.0493C28.45 26.9293 28.47 26.6793 28.54 26.5893C28.6 26.4893 28.71 26.4493 28.76 26.3693C28.81 26.2993 28.76 26.1293 28.8 26.0593C28.84 25.9993 28.81 25.8593 28.85 25.7793C28.88 25.7193 28.99 25.7793 29.05 25.7693C29.12 25.7693 29.22 25.9593 29.26 25.9393C29.31 25.9093 29.38 25.6793 29.46 25.6493C29.57 25.6193 29.66 26.3293 29.74 26.3293C29.84 26.3293 30.02 25.9693 30.13 25.9793C30.25 25.9993 30.29 26.2993 30.4 26.3293C30.51 26.3593 30.68 26.2793 30.8 26.3293C30.91 26.3793 31.11 26.2693 31.24 26.3393C31.35 26.3993 31.71 25.9793 31.86 26.0593C31.99 26.1293 32.14 26.1793 32.28 26.2593C32.41 26.3293 32.43 26.1793 32.56 26.2593C32.69 26.3293 32.77 26.4893 32.9 26.5693C33.03 26.6393 33 26.7693 33.12 26.8493C33.24 26.9193 33.39 26.9593 33.52 27.0393C33.64 27.1193 33.65 27.3893 33.78 27.4593C33.9 27.5293 34.13 27.4293 34.25 27.5093C34.37 27.5793 34.58 27.5093 34.7 27.5893C34.82 27.6593 34.76 28.0393 34.87 28.1093C34.98 28.1793 35.21 28.0693 35.31 28.1393C35.41 28.2093 35.65 28.0793 35.74 28.1393C35.84 28.2093 35.75 28.4093 35.8 28.4493C35.86 28.4993 35.74 28.6693 35.78 28.7093C35.82 28.7493 35.83 28.8193 35.88 28.8693C35.92 28.9193 36.32 28.8393 36.37 28.9293C36.44 29.0193 36.46 29.1493 36.5 29.2593C36.54 29.3793 36.26 29.4793 36.28 29.5993C36.31 29.7193 36.46 29.8393 36.48 29.9693C36.48 30.1193 35.59 30.1693 35.58 30.2793C35.58 30.3993 35.58 30.5193 35.57 30.6493C35.56 30.7693 35.74 30.9493 35.71 31.0793L35.8 31.0493Z" fill="#F1EAD1"/>
</svg>
