<svg width="46" height="46" viewBox="0 0 46 46" fill="none" xmlns="http://www.w3.org/2000/svg">
<path d="M44.7639 26.42C44.7639 26.24 44.4639 26.07 44.4639 25.89C44.4639 25.71 44.9338 25.53 44.9338 25.35C44.9338 25.17 44.6738 25 44.6638 24.82L44.6239 24.29C44.6239 24.11 44.5438 23.94 44.5438 23.76C44.5438 23.58 44.8538 23.39 44.8438 23.21C44.8339 23.03 44.4438 22.88 44.4338 22.7C44.4239 22.52 44.5138 22.34 44.5038 22.16L44.4439 21.63C44.4239 21.44 44.5538 21.25 44.5438 21.06C44.5438 20.87 44.5939 20.69 44.6039 20.51C44.6039 20.32 44.7439 20.15 44.7639 19.97C44.7839 19.78 44.6939 19.59 44.7139 19.41C44.7339 19.22 44.6739 19.03 44.6939 18.84C44.7139 18.65 44.8238 18.48 44.8438 18.29C44.8638 18.1 44.7538 17.9 44.7738 17.71C44.7938 17.52 44.9838 17.35 45.0038 17.16C45.0138 16.97 44.5639 16.67 44.5739 16.49C44.5839 16.3 44.7839 16.13 44.7938 15.94C44.7938 15.75 44.6539 15.56 44.6638 15.37C44.6738 15.18 44.4739 14.98 44.4839 14.79C44.4939 14.6 44.9639 14.46 44.9839 14.27C45.0039 14.08 44.8239 13.88 44.8539 13.69C44.8839 13.5 44.7739 13.3 44.7839 13.11C44.7938 12.92 44.8039 12.74 44.8039 12.54C44.8039 12.35 44.7738 12.16 44.7639 11.97C44.7639 11.78 44.9939 11.57 44.9739 11.38L44.9239 10.8C44.9039 10.61 44.8439 10.42 44.8239 10.23C44.8039 10.04 44.8738 9.84 44.8438 9.65C44.8238 9.46 44.5639 9.3 44.5438 9.11C44.5139 8.88 44.7839 8.61 44.7439 8.37C44.7038 8.13 44.3939 7.96 44.3539 7.73C44.3139 7.49 43.7639 7.4 43.7239 7.19C43.6838 6.99 43.7139 6.76 43.6439 6.57C43.5739 6.37 43.6439 6.13 43.5539 5.94C43.4739 5.75 43.4439 5.53 43.3539 5.34C43.2539 5.15 42.9939 5.05 42.8939 4.86C42.7939 4.68 42.8439 4.38 42.7339 4.2C42.6839 4.13 42.6539 4.04 42.6239 3.96C42.6139 3.89 42.6039 3.82 42.5639 3.76C42.5038 3.67 42.6138 3.44 42.5438 3.35C42.4739 3.26 42.2039 3.34 42.1439 3.25C42.0739 3.17 41.8238 2.79 41.7538 2.71C41.6838 2.63 41.6539 2.48 41.5739 2.41C41.4939 2.33 41.3339 2.16 41.2439 2.09C41.0639 1.94 40.4639 1.6 40.2639 1.51C40.0339 1.41 39.6339 1.32 39.4138 1.24C39.1938 1.15 38.9939 1 38.7738 0.92C38.5438 0.85 38.2839 0.94 38.0639 0.88C37.8339 0.83 37.6239 0.92 37.3939 0.91C37.2139 0.89 36.9539 0.73 36.7139 0.7C36.6039 0.68 36.4639 0.6 36.3039 0.53C36.1439 0.48 35.9539 0.43 35.8939 0.43C35.6939 0.44 35.5339 0.68 35.3839 0.72C35.1939 0.75 34.7638 0.04 34.5938 0.07C34.4039 0.1 34.2838 0.51 34.1138 0.53C33.9239 0.55 33.7239 0.27 33.5539 0.28C33.3839 0.28 33.2138 0.44 33.0238 0.44C32.8638 0.44 32.6739 0.63 32.4839 0.62C32.3239 0.62 32.1439 1.17 31.9439 1.16C31.7739 1.16 31.5839 1.18 31.4039 1.16C31.2339 1.15 31.2839 1.3 31.1039 1.29C30.9339 1.28 30.7639 1.16 30.5839 1.15C30.4139 1.13 30.3738 1 30.2038 0.98C30.0238 0.96 29.8439 0.99 29.6739 0.98C29.4939 0.96 29.3439 0.71 29.1639 0.69C28.9839 0.67 28.7839 0.87 28.6139 0.86C28.4439 0.85 28.2439 1.01 28.0639 1C27.8839 0.99 27.7339 0.62 27.5539 0.61C27.3738 0.61 27.1839 0.82 27.0039 0.81C26.8239 0.81 26.6439 1.05 26.4739 1.05C26.2938 1.05 26.1139 0.83 25.9439 0.83C25.7639 0.83 25.5639 0.63 25.3939 0.64C25.2139 0.65 25.0239 0.63 24.8439 0.64C24.6639 0.66 24.5539 1.08 24.3839 1.11C24.1938 1.15 23.9939 1.15 23.8039 1.18C23.6138 1.21 23.4939 0.9 23.3039 0.93C23.1138 0.95 22.9339 1.13 22.7439 1.14C22.5539 1.16 22.3339 0.22 22.1439 0.23C21.9538 0.24 21.7739 0.27 21.5739 0.28C21.3839 0.28 21.2039 0.52 21.0039 0.52C20.8339 0.52 20.6539 0.4 20.4839 0.4C20.3139 0.4 20.1339 0.47 19.9639 0.46C19.7938 0.46 19.4739 0.46 19.3039 0.46C19.1339 0.45 18.9139 0.87 18.7439 0.85C18.5739 0.83 18.4539 0.36 18.2839 0.33C18.1139 0.31 17.9139 0.5 17.7439 0.47C17.5739 0.44 17.4439 0.22 17.2739 0.19C17.0939 0.16 16.8639 0.33 16.6839 0.31C16.5039 0.29 16.3139 0.33 16.1238 0.32C15.9438 0.32 15.7539 0.47 15.5739 0.47C15.3839 0.47 15.1939 0 15.0139 0C14.8239 0 14.6439 0.18 14.4639 0.19L13.9339 0.24C13.7538 0.24 13.5939 0.55 13.4139 0.56C13.2339 0.57 13.0339 0.1 12.8539 0.11C12.6739 0.11 12.5139 0.39 12.3339 0.39L11.8039 0.45C11.6239 0.46 11.4539 0.54 11.2739 0.55C11.0939 0.56 10.8939 0.26 10.7139 0.27C10.5339 0.29 10.4039 0.68 10.2239 0.7C10.0438 0.72 9.85385 0.63 9.68385 0.65L9.15385 0.73C9.09385 0.74 8.88385 0.72 8.73385 0.69C8.57385 0.69 8.40385 0.69 8.29385 0.73C8.08385 0.79 7.85385 0.78 7.64385 0.84C7.43385 0.9 7.19385 0.83 6.97385 0.9C6.76385 0.97 6.58385 1.13 6.37385 1.2C6.16385 1.28 5.98385 1.44 5.78385 1.52C5.58385 1.61 5.35385 1.63 5.14385 1.73C4.93385 1.83 4.80385 2.07 4.61385 2.18C4.42385 2.29 4.14385 2.27 3.95385 2.41C3.76385 2.54 3.81385 3.12 3.65385 3.26C3.48385 3.4 3.20385 3.41 3.05385 3.57C2.89385 3.73 2.86385 4 2.72385 4.16C2.58385 4.33 2.59385 4.63 2.46385 4.8C2.33385 4.97 1.84385 4.85 1.71385 5.04C1.58385 5.22 1.61385 5.52 1.48385 5.7C1.36385 5.89 1.35385 6.15 1.24385 6.34C1.14385 6.54 1.05385 6.74 0.973851 6.95C0.893851 7.16 0.863851 7.38 0.803851 7.6C0.733851 7.82 0.463851 7.97 0.413851 8.23C0.393851 8.4 0.343851 8.56 0.333851 8.74L0.373851 9.23C0.393851 9.41 0.453851 9.59 0.473851 9.77C0.493851 9.95 0.413851 10.14 0.433851 10.32C0.453851 10.5 0.703851 10.67 0.713851 10.85C0.723851 11.03 0.423851 11.23 0.433851 11.41C0.433851 11.59 0.693851 11.77 0.693851 11.95C0.693851 12.13 1.16385 12.33 1.15385 12.52C1.14385 12.7 1.03385 12.86 1.01385 13.04C0.993851 13.22 0.853851 13.38 0.833851 13.55C0.813851 13.73 0.733851 13.89 0.723851 14.07C0.703851 14.24 0.873851 14.44 0.853851 14.61C0.833851 14.78 0.603851 14.96 0.583851 15.13C0.583851 15.2 0.553851 15.27 0.523851 15.34C0.483851 15.39 0.443851 15.44 0.433851 15.49C0.413851 15.58 0.183851 15.65 0.163851 15.74C0.153851 15.83 0.403851 15.93 0.393851 16.02C0.383851 16.11 0.273851 16.46 0.273851 16.55C0.273851 16.64 0.163851 16.73 0.163851 16.82C0.153851 16.91 0.133851 17.09 0.123851 17.18C0.123851 17.37 0.163851 17.91 0.183851 18.08C0.203851 18.27 0.333851 18.59 0.353851 18.78C0.363851 18.97 0.313851 19.17 0.323851 19.36C0.333851 19.55 0.503851 19.72 0.523851 19.91C0.543851 20.1 0.683851 20.25 0.723851 20.43C0.763851 20.58 0.643851 20.82 0.643851 21.02C0.643851 21.2 0.423851 21.39 0.433851 21.57C0.433851 21.77 0.673851 21.94 0.713851 22.09C0.743851 22.28 0.0138509 22.69 0.0338509 22.85C0.0538509 23.05 0.463851 23.18 0.483851 23.34C0.503851 23.53 0.213851 23.72 0.213851 23.9C0.213851 24.08 0.363851 24.25 0.353851 24.44C0.353851 24.61 0.533851 24.8 0.513851 24.99C0.503851 25.15 1.05385 25.35 1.04385 25.54C1.03385 25.71 1.04385 25.9 1.03385 26.08C1.01385 26.25 1.17385 26.21 1.15385 26.38C1.13385 26.55 1.01385 26.72 0.993851 26.9C0.973851 27.08 0.843851 27.1 0.823851 27.28C0.803851 27.46 0.823851 27.64 0.813851 27.82C0.793851 28 0.533851 28.15 0.523851 28.33C0.503851 28.51 0.703851 28.71 0.683851 28.89C0.663851 29.07 0.833851 29.26 0.813851 29.44C0.803851 29.62 0.433851 29.78 0.423851 29.96C0.423851 30.14 0.633851 30.33 0.633851 30.51C0.633851 30.69 0.873851 30.87 0.883851 31.05C0.883851 31.23 0.663851 31.41 0.673851 31.59C0.683851 31.77 0.483851 31.98 0.503851 32.15C0.523851 32.33 0.503851 32.53 0.523851 32.71C0.553851 32.89 0.973851 32.99 1.01385 33.16C1.06385 33.35 1.07385 33.55 1.11385 33.74C1.15385 33.93 0.853851 34.07 0.883851 34.26C0.913851 34.45 1.10385 34.62 1.12385 34.81C1.15385 35 0.233851 35.28 0.263851 35.48C0.303851 35.69 0.333851 35.89 0.373851 36.11C0.413851 36.35 0.663851 36.55 0.723851 36.78C0.773851 36.99 0.703851 37.22 0.753851 37.44C0.813851 37.65 0.953851 37.83 1.01385 38.03C1.06385 38.24 1.24385 38.58 1.31385 38.78C1.38385 38.99 1.89385 39.01 1.96385 39.2C2.04385 39.38 1.69385 39.74 1.79385 39.93C1.89385 40.12 2.17385 40.22 2.27385 40.4C2.37385 40.58 2.29385 40.84 2.39385 41.03C2.50385 41.23 2.82385 41.31 2.95385 41.49C3.08385 41.67 3.28385 41.8 3.43385 41.96C3.58385 42.12 3.85385 42.15 4.03385 42.29C4.20385 42.42 4.08385 42.95 4.28385 43.08C4.47385 43.21 4.75385 43.19 4.95385 43.31L5.54385 43.6C5.73385 43.71 6.06385 43.51 6.25385 43.6C6.44385 43.69 6.48385 44.21 6.70385 44.28C6.92385 44.35 7.19385 44.18 7.40385 44.23C7.61385 44.28 7.83385 44.3 8.04385 44.35C8.27385 44.38 8.44385 44.34 8.73385 44.38C8.86385 44.41 9.03385 44.5 9.20385 44.55L9.37385 44.6C9.37385 44.6 9.42385 44.63 9.45385 44.64C9.50385 44.67 9.54385 44.68 9.59385 44.68C9.76385 44.66 9.88385 44.26 10.0539 44.24C10.2239 44.22 10.4139 44.3 10.5939 44.28L11.1139 44.19C11.2939 44.16 11.4939 44.28 11.6739 44.26C11.8539 44.24 12.0339 44.29 12.2139 44.29C12.3939 44.29 12.5639 44.42 12.7539 44.42C12.9339 44.42 13.1139 44.33 13.3039 44.34C13.4839 44.35 13.6739 44.28 13.8539 44.29C14.0339 44.3 14.2139 44.41 14.3939 44.43C14.5739 44.45 14.7739 44.34 14.9639 44.36C15.1539 44.38 15.3239 44.58 15.5039 44.59C15.6939 44.6 15.9839 44.15 16.1639 44.16C16.3439 44.17 16.5238 44.37 16.7038 44.38C16.8839 44.39 17.0839 44.24 17.2639 44.26C17.4439 44.27 17.6539 44.08 17.8339 44.1C18.0139 44.12 18.1439 44.59 18.3339 44.61C18.5139 44.63 18.7239 44.47 18.9039 44.5C19.0839 44.53 19.2838 44.44 19.4739 44.46C19.6539 44.48 19.8339 44.49 20.0239 44.51C20.2139 44.52 20.3939 44.5 20.5739 44.5C20.7639 44.5 20.9438 44.75 21.1339 44.75H21.6939C21.8739 44.73 22.0639 44.68 22.2539 44.68C22.4439 44.68 22.6339 44.76 22.8239 44.75C23.0139 44.75 23.1938 44.5 23.3839 44.5C23.5739 44.5 23.7539 44.8 23.9439 44.81C24.1339 44.81 24.3239 44.57 24.5139 44.58C24.7039 44.59 24.9239 44.12 25.1039 44.14C25.2839 44.16 25.4538 44.28 25.6238 44.3C25.8039 44.32 25.9639 44.47 26.1439 44.49C26.3239 44.51 26.4939 44.59 26.6739 44.61C26.8539 44.63 27.0539 44.47 27.2239 44.49C27.4039 44.51 27.5739 44.75 27.7539 44.77C27.8239 44.77 27.8939 44.8 27.9639 44.83C28.0138 44.87 28.0639 44.91 28.1238 44.92C28.2139 44.94 28.2938 45.17 28.3839 45.19C28.4739 45.21 28.5739 44.95 28.6739 44.96C28.7639 44.97 29.1238 45.08 29.2139 45.09C29.3039 45.09 29.3939 45.2 29.4939 45.2C29.5839 45.21 29.7739 45.23 29.8639 45.24C30.0539 45.24 30.6138 45.15 30.7938 45.12C30.9939 45.09 31.3139 44.93 31.5139 44.91C31.7139 44.89 31.9139 44.92 32.1039 44.9C32.3039 44.88 32.4638 44.7 32.6638 44.66C32.8538 44.62 32.9939 44.48 33.1838 44.42C33.3339 44.37 33.5839 44.48 33.7839 44.46C33.9639 44.44 34.1838 44.65 34.3638 44.63C34.5639 44.61 34.7138 44.37 34.8638 44.32C35.0538 44.28 35.5439 44.97 35.7139 44.94C35.9139 44.9 35.9839 44.5 36.1939 44.45C36.4139 44.4 36.7138 44.65 36.9338 44.6C37.1539 44.54 37.3238 44.35 37.5438 44.3C37.7439 44.25 37.9039 43.99 38.1239 43.93C38.3239 43.88 38.3038 43.27 38.5038 43.19C38.6938 43.12 38.8639 43.02 39.0539 42.93C39.2339 42.85 39.1039 42.74 39.2839 42.66C39.4639 42.59 39.6739 42.57 39.8438 42.48C40.0138 42.38 40.1239 42.48 40.2938 42.37C40.4638 42.26 40.6039 42.11 40.7738 42C40.9338 41.88 41.2339 41.96 41.4039 41.83C41.5738 41.71 41.5839 41.39 41.7339 41.26C41.8839 41.12 41.9138 40.85 42.0438 40.71C42.1739 40.56 42.5939 40.66 42.7139 40.49C42.8439 40.32 42.7938 40.02 42.9138 39.85C43.0338 39.67 42.9139 39.37 43.0139 39.2C43.1239 39.03 43.3939 38.94 43.4839 38.75C43.5739 38.56 43.8538 38.44 43.9138 38.23C43.9739 38.02 44.0939 37.82 44.1239 37.61C44.1639 37.4 43.7938 37.16 43.8139 36.97C43.8339 36.74 43.8539 36.51 43.8739 36.29C43.9139 36.06 44.1838 35.81 44.1539 35.6C44.1239 35.41 43.9438 35.25 43.9138 35.06C43.8938 34.87 44.8139 34.62 44.7938 34.44C44.7738 34.26 44.7439 34.08 44.7239 33.89C44.7139 33.71 44.4739 33.53 44.4639 33.34C44.4639 33.17 44.5739 33 44.5739 32.83C44.5739 32.66 44.5038 32.49 44.5038 32.32C44.5038 32.15 44.4939 31.84 44.5038 31.67C44.5138 31.5 44.0938 31.29 44.1138 31.12C44.1339 30.95 44.6039 30.84 44.6339 30.67C44.6539 30.5 44.4639 30.3 44.4939 30.13C44.5238 29.96 44.7439 29.84 44.7839 29.67C44.8239 29.49 44.6539 29.27 44.6739 29.09C44.6939 28.91 44.6639 28.72 44.6739 28.54C44.6838 28.36 44.5239 28.17 44.5339 27.99C44.5339 27.81 45.0139 27.63 45.0139 27.44C45.0139 27.26 44.8438 27.07 44.8438 26.89L44.8139 26.36L44.7639 26.42ZM36.0238 5.7C36.0238 5.7 36.0839 5.72 36.1138 5.74C36.1438 5.77 36.1638 5.81 36.1838 5.82C36.2138 5.82 36.2839 6.05 36.3139 6.06C36.3438 6.06 36.3339 5.8 36.3739 5.82C36.4039 5.83 36.5438 5.92 36.5639 5.92C36.5938 5.92 36.6339 6.02 36.6638 6.02C36.6938 6.02 36.7539 6.05 36.7839 6.04C36.8339 6.04 37.0039 5.98 37.0539 5.97C37.1139 5.95 37.2338 5.82 37.2938 5.82C37.3539 5.82 37.4039 5.88 37.4639 5.87C37.5239 5.87 37.6339 5.73 37.7038 5.72C37.7738 5.72 37.8738 5.6 37.9538 5.59C38.0238 5.58 38.0539 5.71 38.1239 5.74C38.1839 5.77 38.1339 5.99 38.1939 6C38.2539 6.02 38.4338 5.87 38.5139 5.87C38.6039 5.89 38.2538 6.53 38.2938 6.54C38.3539 6.55 38.6739 6.29 38.7239 6.32C38.7839 6.36 38.6238 6.59 38.6638 6.63C38.7038 6.67 38.8539 6.63 38.8939 6.68C38.9339 6.72 39.1139 6.68 39.1439 6.74C39.1639 6.79 39.6939 6.57 39.7239 6.66C39.7538 6.73 39.8039 6.8 39.8339 6.87C39.8539 6.95 39.9838 6.87 40.0038 6.95C40.0138 7.03 39.9439 7.14 39.9538 7.22C39.9538 7.3 39.8339 7.35 39.8339 7.43C39.8339 7.51 39.8938 7.57 39.8839 7.65C39.8839 7.73 39.6438 7.84 39.6339 7.91C39.6339 7.98 39.8339 8.04 39.8239 8.11C39.8239 8.18 39.9939 8.25 39.9739 8.33C39.9639 8.41 39.5938 8.47 39.5839 8.54C39.5839 8.61 39.7838 8.69 39.7738 8.77C39.7639 8.84 40.0039 8.95 39.9839 9.02C39.9739 9.1 39.7339 9.13 39.7339 9.2C39.7339 9.27 39.4939 9.29 39.4939 9.36C39.4939 9.43 39.4438 9.49 39.4338 9.56C39.4338 9.63 39.8039 9.83 39.8039 9.91C39.8039 10 39.7638 10.08 39.7538 10.17C39.7538 10.26 39.4438 10.15 39.4338 10.23C39.4138 10.3 39.5239 10.47 39.4839 10.54C39.4439 10.62 38.6639 10.11 38.6439 10.15C38.6139 10.2 38.5939 10.26 38.5539 10.31C38.5239 10.36 38.6239 10.56 38.5739 10.62C38.5339 10.66 38.4138 10.62 38.3638 10.64C38.3139 10.67 38.3139 10.77 38.2538 10.79C38.1938 10.81 38.1139 10.88 38.0539 10.9C38.0039 10.91 38.1039 11.32 38.0339 11.34C37.9639 11.36 37.7439 10.93 37.6838 10.92C37.6238 10.92 37.6138 11.12 37.5438 11.12C37.4739 11.11 37.3739 10.9 37.3139 10.88C37.2538 10.86 37.2139 11.05 37.1339 11.03C37.0639 11.02 37.0039 11.07 36.9439 11.07C36.8839 11.07 36.8238 11.23 36.7538 11.23C36.6838 11.23 36.6239 10.76 36.5639 10.76C36.5139 10.76 36.4339 10.94 36.3739 10.94C36.3139 10.94 36.2539 10.96 36.1939 10.96C36.1339 10.96 36.0238 11.24 35.9538 11.23C35.8839 11.23 35.9538 10.76 35.9039 10.74C35.8539 10.74 35.7139 10.97 35.6539 10.95C35.5938 10.93 35.5239 10.95 35.4639 10.93C35.4039 10.92 35.3139 10.95 35.2538 10.93C35.1938 10.91 35.2938 10.62 35.2538 10.6C35.2038 10.58 34.9338 10.87 34.8638 10.85C34.8038 10.82 34.8139 10.7 34.7439 10.68C34.6739 10.66 34.6139 10.63 34.5539 10.6C34.4839 10.57 34.5238 10.43 34.4739 10.38C34.4239 10.33 34.4239 10.25 34.3839 10.2C34.3438 10.14 34.4239 10.01 34.4039 9.96C34.3739 9.9 34.2738 9.88 34.2538 9.82C34.2338 9.75 34.1438 9.72 34.1339 9.65C34.1339 9.58 34.1938 9.48 34.1838 9.42C34.1838 9.35 34.0538 9.31 34.0438 9.24C34.0339 9.17 34.2139 9.06 34.2139 9C34.2139 8.94 33.7339 8.91 33.7339 8.83C33.7339 8.75 33.9239 8.66 33.9239 8.59C33.9239 8.52 33.7739 8.45 33.7839 8.38C33.7839 8.31 33.5938 8.22 33.6138 8.15C33.6339 8.07 34.0939 8.06 34.1239 8C34.1539 7.94 33.9939 7.85 34.0339 7.78C34.0639 7.72 33.9939 7.63 34.0339 7.57L34.1239 7.39C34.1539 7.33 34.1439 7.26 34.1739 7.2C34.2038 7.14 34.4539 7.18 34.4639 7.13L34.5339 6.96C34.5539 6.9 34.5339 6.83 34.5739 6.77C34.6039 6.72 34.6939 6.71 34.7339 6.66C34.7639 6.61 34.6239 6.4 34.6539 6.35C34.7038 6.3 34.9538 6.47 34.9939 6.43C35.0339 6.39 34.9239 6.16 34.9839 6.12C35.0339 6.09 34.8238 5.65 34.9039 5.62C34.9739 5.59 35.0839 5.65 35.1539 5.63C35.2239 5.61 35.3438 5.72 35.4138 5.7C35.4739 5.68 35.5738 5.74 35.6339 5.73C35.6939 5.73 35.7038 5.54 35.7839 5.54C35.8539 5.54 35.9838 5.74 36.0438 5.74L36.0238 5.7ZM34.9639 20.82C34.9639 20.96 34.7538 21.09 34.7239 21.23C34.7038 21.38 34.8839 21.54 34.8739 21.69C34.8739 21.84 34.9138 21.99 34.9138 22.14C34.9138 22.29 35.0639 22.43 35.0639 22.58C35.0639 22.73 34.5839 22.88 34.5938 23.02C34.5938 23.16 34.7839 23.32 34.7639 23.46V23.89C34.7639 24.03 35.0539 24.2 35.0539 24.34C35.0539 24.49 34.5538 24.58 34.5438 24.72C34.5238 24.86 34.7638 25.03 34.7538 25.18C34.7439 25.32 34.7538 25.47 34.7439 25.61C34.7239 25.75 34.7539 25.9 34.7339 26.05C34.7139 26.19 34.3739 26.28 34.3539 26.42C34.3339 26.56 34.6939 26.78 34.6539 26.92C34.6239 27.06 34.4838 27.18 34.4538 27.32L34.3839 27.75C34.3638 27.91 34.1839 28.01 34.1239 28.15C34.0739 28.29 33.9639 28.4 33.9039 28.54C33.8438 28.68 33.6638 28.75 33.5938 28.88C33.5138 29 33.5139 29.17 33.4239 29.3C33.3339 29.42 33.3139 29.59 33.2239 29.71C33.1339 29.83 32.9839 29.9 32.8739 30.01C32.7739 30.12 32.7738 30.31 32.6838 30.43C32.5839 30.54 32.3539 30.54 32.2639 30.65C32.1739 30.76 32.3739 31.21 32.2639 31.33C32.1539 31.44 31.9139 31.41 31.8139 31.52C31.7139 31.62 31.7239 31.85 31.6039 31.94C31.4939 32.03 31.5039 32.28 31.3839 32.38C31.2638 32.47 30.8739 32.2 30.7539 32.29C30.6439 32.38 30.6238 32.6 30.4839 32.67C30.3539 32.74 30.2838 32.91 30.1539 32.98C30.0239 33.06 29.9039 33.13 29.7839 33.21C29.6539 33.28 29.5438 33.38 29.4139 33.45C29.2839 33.53 29.0339 33.39 28.9139 33.47C28.7938 33.55 28.6738 33.64 28.5438 33.71C28.4139 33.78 28.3039 33.88 28.1739 33.95C28.0439 34.02 27.8738 34.01 27.7439 34.08C27.6139 34.14 27.5839 34.45 27.4439 34.49C27.3039 34.54 27.0539 34.3 26.9139 34.35C26.7739 34.4 26.7139 34.68 26.5639 34.72C26.4239 34.75 26.3939 35.28 26.2239 35.29C26.0739 35.31 25.9139 35.23 25.7639 35.24C25.6139 35.25 25.4538 35.14 25.3139 35.15C25.1639 35.16 25.0138 35.12 24.8738 35.13C24.7339 35.14 24.5939 35.31 24.4439 35.31C24.2939 35.31 24.1238 35.09 23.9739 35.09C23.9139 35.09 23.8538 35.07 23.7938 35.05C23.7439 35.02 23.7039 34.98 23.6639 34.98C23.5939 34.98 23.5039 34.75 23.4339 34.74C23.3639 34.74 23.2938 35 23.2239 34.99C23.1539 34.99 22.8639 34.89 22.7839 34.89C22.7139 34.89 22.6339 34.79 22.5639 34.79C22.4939 34.79 22.3439 34.77 22.2739 34.76C22.1239 34.76 21.6938 34.79 21.5639 34.81C21.4139 34.83 21.1439 34.96 20.9939 34.97C20.8439 34.97 20.6938 34.9 20.5438 34.9C20.3939 34.9 20.2339 35.05 20.0839 35.05C19.9339 35.05 19.7938 35.18 19.6339 35.2C19.5039 35.23 19.3439 35.06 19.1839 35.03C19.0439 35 18.9438 34.76 18.8039 34.73C18.6539 34.7 18.4538 34.9 18.3239 34.91C18.1539 34.91 18.0739 34.09 17.9538 34.08C17.8039 34.06 17.5639 34.41 17.4339 34.38C17.2839 34.34 17.2439 34.04 17.1238 33.98C17.0038 33.93 16.8239 34 16.6839 33.93C16.5739 33.87 16.3538 33.97 16.2139 33.89C16.1038 33.83 15.6939 34.25 15.5639 34.14C15.4439 34.05 15.3039 33.99 15.1839 33.89C15.0639 33.8 15.0139 33.95 14.9039 33.86C14.7939 33.76 14.7339 33.61 14.6239 33.5C14.5239 33.39 14.5839 33.27 14.4839 33.17C14.3839 33.06 14.2439 32.99 14.1439 32.89C14.0438 32.78 14.1139 32.52 14.0139 32.41C13.9239 32.3 13.6739 32.33 13.5839 32.21C13.4939 32.1 13.2639 32.1 13.1739 31.99C13.0739 31.88 13.2539 31.54 13.1739 31.42C13.0939 31.3 12.8239 31.32 12.7439 31.21C12.6539 31.09 12.3739 31.13 12.2739 31.02C12.1739 30.91 12.2739 30.65 12.1839 30.53C12.0939 30.41 12.1839 30.16 12.0839 30.05C11.9939 29.94 11.9239 29.79 11.8239 29.69C11.7339 29.58 11.3339 29.71 11.2339 29.6C11.1239 29.48 11.0339 29.33 10.9339 29.21C10.8338 29.08 11.0439 28.86 10.9639 28.72C10.8839 28.59 10.6639 28.52 10.5839 28.38C10.5039 28.23 11.2839 27.7 11.2139 27.57C11.1339 27.44 11.0639 27.31 11.0039 27.17C10.9539 27.03 10.6839 26.97 10.6239 26.82C10.5739 26.69 10.6439 26.52 10.5939 26.39C10.5639 26.25 10.4539 26.14 10.4339 26C10.4039 25.86 10.3339 25.62 10.3039 25.48C10.2739 25.34 9.83385 25.26 9.82385 25.11C9.82385 24.96 10.2739 24.79 10.2739 24.65C10.2739 24.51 10.0539 24.38 10.0639 24.24C10.0639 24.1 10.2839 23.97 10.3039 23.83C10.3239 23.68 10.1439 23.52 10.1439 23.37C10.1439 23.22 10.0939 23.08 10.0939 22.93C10.0939 22.78 9.94385 22.64 9.94385 22.49C9.94385 22.34 10.4139 22.19 10.4139 22.05C10.4039 21.91 10.2439 21.76 10.2439 21.61V21.18C10.2439 21.04 9.94385 20.87 9.94385 20.73C9.96385 20.58 10.4539 20.49 10.4639 20.35C10.4739 20.21 10.2339 20.04 10.2539 19.89C10.2639 19.75 10.2538 19.6 10.2739 19.46C10.2939 19.32 10.2538 19.17 10.2739 19.02C10.2939 18.88 10.6339 18.79 10.6539 18.65C10.6639 18.51 10.3339 18.29 10.3639 18.15C10.3939 18.01 10.5339 17.89 10.5539 17.75L10.6239 17.32C10.6639 17.17 10.8439 17.07 10.8939 16.93C10.9439 16.79 11.0539 16.67 11.1139 16.54C11.1739 16.4 11.3539 16.33 11.4339 16.21C11.5139 16.09 11.5139 15.91 11.5939 15.79C11.6839 15.67 11.6939 15.5 11.7839 15.38C11.8839 15.26 12.0438 15.2 12.1439 15.09C12.2439 14.98 12.2339 14.78 12.3339 14.67C12.4339 14.56 12.6539 14.55 12.7639 14.46C12.8639 14.36 12.6539 13.89 12.7639 13.78C12.8639 13.67 13.1039 13.69 13.2039 13.59C13.3039 13.49 13.3139 13.28 13.4239 13.18C13.5339 13.09 13.5139 12.83 13.6339 12.73C13.7539 12.64 14.1339 12.9 14.2639 12.83C14.3839 12.76 14.4039 12.53 14.5439 12.46C14.6739 12.39 14.7439 12.22 14.8639 12.14C14.9839 12.06 15.1139 11.99 15.2439 11.92C15.3739 11.85 15.4839 11.75 15.6039 11.67C15.7339 11.59 15.9839 11.72 16.1039 11.64C16.2139 11.55 16.3539 11.49 16.4839 11.42C16.6138 11.35 16.7239 11.24 16.8439 11.17C16.9739 11.1 17.1339 11.1 17.2639 11.03C17.3939 10.96 17.4339 10.7 17.5739 10.64C17.7139 10.58 17.9639 10.82 18.0939 10.77C18.2339 10.72 18.2939 10.43 18.4339 10.39C18.5739 10.35 18.6239 9.86 18.7739 9.84C18.9239 9.82 19.0839 9.9 19.2339 9.88C19.3839 9.86 19.5439 9.97 19.6839 9.96C19.8239 9.94 19.9839 9.99 20.1238 10C20.2738 10 20.4039 9.82 20.5539 9.81C20.7038 9.81 20.8739 10.02 21.0139 10.02C21.0739 10.02 21.1339 10.03 21.1939 10.05C21.2439 10.08 21.2838 10.12 21.3239 10.12C21.3939 10.12 21.4839 10.35 21.5539 10.36C21.6238 10.37 21.6939 10.11 21.7639 10.12C21.8339 10.12 22.1238 10.21 22.2038 10.22C22.2738 10.22 22.3539 10.32 22.4239 10.32C22.4939 10.32 22.6439 10.34 22.7139 10.34C22.8638 10.34 23.2939 10.31 23.4239 10.29C23.5739 10.27 23.8439 10.14 23.9939 10.13C24.1539 10.11 24.2939 10.19 24.4439 10.2C24.5939 10.2 24.7539 10.05 24.9039 10.05C25.0539 10.05 25.1939 9.92 25.3539 9.9C25.4839 9.87 25.6539 10.03 25.8039 10.06C25.9438 10.09 26.0439 10.34 26.1839 10.36C26.3339 10.39 26.5339 10.19 26.6639 10.18C26.8339 10.18 26.9139 10.99 27.0339 11C27.1839 11.02 27.4139 10.67 27.5438 10.7C27.6938 10.74 27.7339 11.04 27.8539 11.09C27.9739 11.14 28.1539 11.07 28.2839 11.14C28.3939 11.2 28.6139 11.1 28.7439 11.18C28.8539 11.25 29.2739 10.81 29.4039 10.92C29.5239 11.01 29.6639 11.07 29.7839 11.17C29.8939 11.26 29.9538 11.11 30.0639 11.2C30.1739 11.29 30.2239 11.46 30.3439 11.56C30.4439 11.67 30.3839 11.79 30.4839 11.9C30.5839 12.01 30.7239 12.08 30.8239 12.18C30.9239 12.29 30.8538 12.56 30.9538 12.66C31.0539 12.76 31.2938 12.74 31.3839 12.85C31.4739 12.96 31.7038 12.96 31.7938 13.07C31.8839 13.19 31.7139 13.52 31.7938 13.63C31.8738 13.75 32.1339 13.73 32.2239 13.84C32.3139 13.96 32.5939 13.92 32.6939 14.03C32.7938 14.14 32.6939 14.39 32.7839 14.51C32.8739 14.63 32.7839 14.88 32.8739 14.99C32.9639 15.1 33.0239 15.25 33.1239 15.36C33.2239 15.46 33.6139 15.34 33.7139 15.45C33.8239 15.57 33.9039 15.72 34.0038 15.84C34.1038 15.97 33.8839 16.2 33.9839 16.32C34.0739 16.45 34.2838 16.52 34.3638 16.66C34.4439 16.81 33.6539 17.33 33.7239 17.46C33.7938 17.59 33.8839 17.72 33.9338 17.86C33.9838 18 34.2539 18.06 34.3039 18.21C34.3539 18.34 34.2839 18.51 34.3239 18.64C34.3739 18.77 34.4639 18.89 34.4939 19.03C34.5238 19.17 34.5938 19.41 34.6138 19.55C34.6339 19.69 35.0938 19.77 35.0938 19.92C35.0938 20.07 34.6439 20.24 34.6439 20.38C34.6439 20.52 34.8539 20.65 34.8539 20.8L34.9639 20.82Z" fill="#F1EAD1"/>
<path d="M28.8839 21.56C28.8639 21.42 29.0539 21.24 29.0239 21.1C28.9839 20.96 29.1539 20.75 29.1039 20.61C29.0539 20.47 29.0339 20.3 28.9639 20.17C28.8939 20.03 28.4839 20.08 28.3939 19.97C28.3039 19.84 28.2339 19.7 28.1439 19.57C28.0539 19.45 28.2739 19.22 28.1839 19.09C28.0939 18.96 27.8639 18.92 27.7639 18.8C27.6739 18.69 28.3339 17.99 28.2039 17.85C28.0739 17.72 27.9539 17.6 27.8239 17.47C27.6939 17.34 27.4039 17.38 27.2839 17.26C27.1739 17.15 27.1239 16.96 26.9939 16.86C26.8739 16.75 26.7039 16.71 26.5639 16.62C26.4339 16.53 26.1839 16.37 26.0439 16.29C25.9039 16.2 25.5439 16.49 25.4239 16.41C25.2939 16.34 25.3839 15.86 25.2339 15.78C25.0939 15.7 24.8539 15.81 24.7139 15.75C24.5739 15.68 24.5139 15.44 24.3639 15.37C24.2039 15.29 23.9739 15.44 23.8139 15.39C23.6539 15.35 23.4739 15.35 23.3139 15.34C23.1539 15.32 22.9839 15.47 22.8239 15.47C22.6639 15.46 22.5039 15 22.3339 15.01C22.1739 15.02 22.0239 15.21 21.8639 15.23C21.7139 15.25 21.5639 15.28 21.4139 15.32C21.2539 15.35 21.1639 15.68 21.0239 15.71C20.8839 15.74 20.6039 15.32 20.4439 15.37C20.2839 15.42 20.2139 15.72 20.0639 15.77C19.9139 15.82 19.7739 15.93 19.6339 15.99C19.4939 16.06 19.3739 16.18 19.2339 16.27C19.1039 16.35 18.7839 16.17 18.6439 16.27C18.5039 16.36 18.6139 16.78 18.4939 16.88C18.3739 16.99 18.1739 17 18.0739 17.13L17.7639 17.5C17.6639 17.63 17.4539 17.68 17.3539 17.82C17.2439 17.95 17.1139 18.05 17.0139 18.19C16.9139 18.32 16.7039 18.38 16.6139 18.52C16.5139 18.66 16.5039 18.85 16.4139 18.99C16.3239 19.13 16.3139 19.32 16.2239 19.46C16.1439 19.6 16.0039 19.72 15.9239 19.87C15.8439 20.02 15.9139 20.23 15.8539 20.38C15.7939 20.53 15.5739 20.64 15.5339 20.8C15.4939 20.97 15.8939 21.29 15.8739 21.43C15.8539 21.58 15.6339 21.71 15.6139 21.87C15.5939 22.03 15.7439 22.2 15.7339 22.35C15.7339 22.51 15.9239 22.67 15.9239 22.82C15.9239 22.97 15.4739 23.12 15.4639 23.29C15.4639 23.45 15.6539 23.61 15.6539 23.77C15.6539 23.93 15.7739 24.08 15.8039 24.24C15.8239 24.4 15.8539 24.55 15.8839 24.71C15.9339 24.87 16.0039 25.01 16.0639 25.16C16.1139 25.31 15.9639 25.56 16.0339 25.72C16.1039 25.87 16.1839 26.02 16.2839 26.17C16.3739 26.32 16.4939 26.44 16.5939 26.58C16.6939 26.72 16.7239 26.91 16.8339 27.05C16.9539 27.18 17.2439 27.16 17.3539 27.28C17.4539 27.41 17.3639 27.73 17.4939 27.86C17.6239 27.99 17.9139 27.93 18.0439 28.03C18.1739 28.15 18.6139 27.9 18.7239 27.99C18.8439 28.09 18.9039 28.26 19.0239 28.36C19.1439 28.46 19.2039 28.65 19.3439 28.74C19.4739 28.83 19.5839 28.97 19.7239 29.04C19.8739 29.11 20.0939 29.02 20.2339 29.09C20.3739 29.15 20.4639 29.41 20.6239 29.47C20.6839 29.49 20.7439 29.53 20.8039 29.57C20.8439 29.62 20.8839 29.67 20.9239 29.69C21.0039 29.72 21.0339 29.96 21.1139 29.99C21.1939 30.02 21.3239 29.78 21.4039 29.8C21.4839 29.83 21.7939 29.96 21.8839 29.96C21.9639 29.97 22.0439 30.07 22.1239 30.08C22.2039 30.08 22.3739 30.13 22.4639 30.13C22.6339 30.13 23.1039 30.04 23.2539 30C23.4139 29.97 23.6939 29.78 23.8539 29.74C24.0239 29.7 24.2039 29.72 24.3639 29.65C24.5339 29.59 24.6339 29.38 24.7839 29.31C24.9339 29.24 25.0139 29.05 25.1539 28.95C25.2639 28.86 25.5039 28.9 25.6639 28.81C25.8039 28.73 26.0639 28.84 26.2039 28.75C26.3639 28.65 26.3539 28.36 26.4439 28.25C26.5639 28.15 27.3039 28.46 27.4239 28.32C27.5539 28.17 27.3539 27.79 27.4439 27.67C27.5439 27.53 27.8939 27.59 27.9939 27.46C28.0939 27.32 28.0739 27.11 28.1839 26.97C28.2839 26.85 28.2139 26.6 28.3139 26.46C28.4039 26.34 27.9939 25.92 28.0739 25.79C28.1439 25.67 28.2039 25.53 28.2639 25.4C28.3239 25.27 28.1639 25.25 28.2339 25.13C28.3039 25.01 28.4539 24.92 28.5139 24.79C28.5739 24.66 28.7039 24.68 28.7639 24.54C28.8239 24.41 28.8139 24.25 28.8639 24.11C28.9139 23.97 29.1839 23.89 29.2239 23.75C29.2539 23.6 29.0939 23.41 29.1139 23.27C29.1339 23.12 28.9839 22.96 29.0039 22.82C29.0239 22.68 29.3839 22.55 29.3939 22.4C29.3939 22.25 29.1739 22.1 29.1639 21.96C29.1539 21.81 28.9039 21.69 28.8739 21.56H28.8839Z" fill="#F1EAD1"/>
</svg>
