<svg width="185" height="181" viewBox="0 0 185 181" fill="none" xmlns="http://www.w3.org/2000/svg">
<path d="M184.274 93.4791C184.219 93.8359 183.739 95.1806 183.671 95.5237C183.602 95.8668 184.699 96.3196 184.616 96.6764C184.548 97.0194 183.506 97.2664 183.424 97.5958C183.383 97.8016 183.191 97.9937 183.027 98.1721C182.903 98.4328 182.78 98.6936 182.739 98.968C182.629 99.6267 181.629 100.203 181.423 100.848C181.259 101.493 181.862 102.316 181.684 102.961C181.506 103.62 181.081 104.21 180.903 104.855C180.738 105.5 180.012 106.008 179.847 106.639C179.683 107.284 179.107 107.819 178.929 108.45C178.765 109.123 180.546 110.303 180.354 110.989C180.163 111.661 181.04 112.608 180.875 113.308C180.697 114.008 179.245 114.364 179.094 115.064C178.943 115.75 179.806 116.684 179.669 117.397C179.546 118.111 178.957 118.687 178.765 119.373C178.559 120.045 178.532 120.786 178.326 121.473L177.682 123.545C177.463 124.231 176.23 124.533 175.983 125.191C175.764 125.864 175.613 126.55 175.257 127.181C174.928 127.799 174.572 128.402 174.202 129.006C173.845 129.61 173.9 130.474 173.489 131.051C173.078 131.641 173.393 132.67 173.009 133.26C172.612 133.864 170.652 133.397 170.228 133.946C169.816 134.509 170.173 135.579 169.775 136.142C169.378 136.718 169.57 137.679 169.172 138.269C168.775 138.845 167.72 138.955 167.322 139.531C166.925 140.08 168.062 142.152 167.555 142.687C167.103 143.222 166.021 143.277 165.555 143.812C165.089 144.334 165.02 145.24 164.541 145.761C164.061 146.269 163.307 146.557 162.828 147.065C162.334 147.559 162.17 148.355 161.622 148.821C161.101 149.301 160.909 150.07 160.402 150.564C159.895 151.058 159.032 151.168 158.552 151.675C158.072 152.197 157.47 152.554 157.031 153.102C156.579 153.638 155.715 153.843 155.304 154.406L154.071 155.97C153.646 156.492 152.851 156.67 152.413 157.178C151.988 157.686 152.728 159.319 152.276 159.826C151.81 160.334 150.371 159.854 149.905 160.334C149.453 160.842 149.11 161.446 148.603 161.898C148.096 162.351 147.671 162.873 147.151 163.312C146.644 163.751 146.822 165.055 146.287 165.507C145.753 165.947 143.971 164.739 143.451 165.164C142.944 165.604 143.163 167.044 142.587 167.415L140.957 168.65C140.367 169.048 140.162 170.063 139.559 170.461C138.942 170.859 137.284 169.459 136.695 169.83C136.092 170.173 135.845 171.188 135.188 171.435C134.53 171.724 133.968 172.176 133.296 172.41C132.625 172.643 132.173 173.686 131.474 173.851C130.816 174.015 129.966 173.343 129.336 173.521C128.706 173.686 128.336 174.784 127.705 174.962C127.048 175.099 125.855 173.343 125.239 173.494C124.608 173.645 124.512 175.621 123.868 175.799C123.238 175.978 122.142 176.444 121.511 176.636C120.895 176.842 120.36 177.364 119.73 177.583C119.127 177.816 118.318 177.432 117.688 177.624C116.989 177.816 116.592 178.983 115.893 179.189C115.18 179.394 114.536 179.71 113.837 179.93C113.111 180.163 111.425 176.417 110.781 176.65C110.124 176.924 109.63 177.748 108.959 177.954C108.274 178.159 107.602 176.924 106.931 177.158C106.273 177.391 105.56 177.514 104.889 177.789C104.3 178.036 104.121 179.875 103.477 180.081C102.833 180.273 102.093 180.259 101.436 180.41C100.778 180.506 99.9693 179.641 99.3115 179.71C98.6538 179.779 97.9275 178.846 97.2697 178.873C96.6256 178.914 96.009 180.012 95.3375 180.012C94.6797 180.026 93.9945 181 93.3094 181C92.6379 181.014 92.0623 179.394 91.4183 179.298C90.7605 179.216 90.0342 179.875 89.3764 179.779C88.7324 179.683 87.9513 180.52 87.2798 180.41C86.622 180.314 86.1287 179.175 85.4846 179.065C84.8269 178.955 84.1554 179.051 83.5113 178.942C82.8672 178.804 82.8124 178.187 82.1958 178.036C81.5517 177.858 81.0173 177.281 80.4006 177.117C79.7702 176.952 79.8525 177.665 79.2358 177.514C78.5917 177.364 77.9065 177.35 77.2762 177.226C76.5773 177.075 75.481 179.367 74.8643 179.243C74.1518 179.12 73.3158 179.696 72.7129 179.545C72.0277 179.367 71.2603 179.847 70.6025 179.724C69.9448 179.6 69.5062 178.228 68.7937 178.132C68.177 178.063 67.2589 179.669 66.4915 179.614C65.8337 179.587 65.1622 176.17 64.477 176.032C63.8878 176.019 62.9833 176.787 62.2434 176.581C61.5993 176.389 61.2019 175.264 60.5578 175.072C59.8315 174.852 59.16 174.084 58.5571 174.056C57.8171 174.029 57.0634 174.413 56.3782 174.194C55.6793 174.002 54.7886 174.413 54.0897 174.166C53.4045 173.905 52.8016 173.411 52.1027 173.164C51.4175 172.904 50.0335 172.917 49.3072 172.698C48.622 172.547 46.6898 171.655 46.0594 171.285C45.7579 171.106 45.2098 170.612 44.922 170.42C44.6205 170.214 44.5383 169.679 44.2506 169.473C43.9628 169.267 43.0172 168.197 42.7432 167.977C42.4828 167.744 41.5372 168.471 41.2632 168.252C41.0028 168.005 41.2906 167.017 41.0576 166.756C40.9206 166.605 40.8521 166.331 40.7835 166.084C40.6328 165.837 40.4821 165.59 40.2765 165.411C39.7695 164.945 39.8243 163.724 39.331 163.271C38.8513 162.818 37.8373 162.941 37.3439 162.489C36.8506 162.022 36.5491 161.377 36.0558 160.91C35.5625 160.471 35.494 159.593 35.0555 159.085C34.6169 158.591 34.4662 157.796 34.0277 157.301C33.5618 156.794 31.6021 157.796 31.0951 157.301C30.6018 156.807 29.3137 157.123 28.7929 156.643C28.2585 156.149 28.6285 154.749 28.1488 154.228C27.6692 153.734 26.4359 153.981 25.9289 153.487C25.4218 152.979 25.1752 152.211 24.6681 151.717C24.1611 151.223 23.517 150.838 23.01 150.344C22.5167 149.823 21.9411 149.356 21.5163 148.78C21.0641 148.217 21.4478 146.969 21.023 146.406C20.5982 145.843 20.0911 145.363 19.68 144.787C19.2826 144.197 18.9263 143.607 18.5563 143.003C18.2001 142.399 17.3641 142.056 17.1038 141.384C16.8297 140.725 15.8019 140.464 15.5141 139.819C15.2127 139.161 16.6515 137.651 16.3501 137.034C16.0486 136.416 14.9112 136.21 14.596 135.593C14.2808 134.975 13.3216 134.673 12.9927 134.056C12.7186 133.411 13.1845 132.409 12.9105 131.764C12.6501 131.133 10.389 131.037 10.1149 130.365C9.84087 129.72 10.3205 128.759 10.0738 128.1C9.82716 127.442 9.03236 126.961 8.8131 126.275C8.63495 125.589 8.7994 124.793 8.63495 124.107C8.47051 123.421 7.94977 122.831 7.77163 122.145C7.59348 121.473 6.99052 120.924 6.79867 120.251C6.59312 119.565 6.92201 118.769 6.68904 118.111C6.44238 117.452 6.5383 116.711 6.29164 116.052C6.07238 115.394 6.40127 114.515 6.11349 113.87L5.30498 112.032C5.04461 111.414 5.26387 110.646 5.01721 110.014C4.77054 109.397 2.97537 109.232 2.82463 108.56C2.64649 107.901 3.8387 106.886 3.67426 106.227C3.52352 105.582 3.09871 104.992 2.94797 104.333C2.79723 103.661 2.53686 103.03 2.39982 102.357C2.24908 101.699 1.01576 101.205 0.878727 100.532C0.782802 99.8462 2.78352 98.8994 2.71501 98.227C2.64649 97.5683 1.28983 97.0332 1.22132 96.347L0.919837 94.3161C0.851319 93.6026 0.0565119 92.9302 0.00169755 92.2029C-0.0668203 91.4893 1.96131 90.7484 2.01612 90.0485C2.05723 89.3487 1.38576 88.6351 1.46798 87.9353C1.5365 87.2217 1.39946 86.5082 1.52279 85.8083C1.64613 85.1085 0.947244 84.2028 1.12539 83.5167C1.30354 82.858 2.3039 82.4464 2.45464 81.8288C2.66019 81.1976 1.96131 80.3468 2.15316 79.7019C2.34501 79.0569 4.45536 78.906 4.6198 78.2885C4.79795 77.671 3.11241 76.5869 3.26315 75.942C3.42759 75.3108 3.53722 74.1169 3.67426 73.472C3.77018 72.827 3.64685 72.1272 3.825 71.4822C4.00314 70.851 4.66091 70.3296 4.81165 69.6846C4.9761 68.9711 4.16759 68.0379 4.31833 67.3381C4.48277 66.6108 4.52388 65.8835 4.66091 65.17C4.79795 64.429 8.86791 64.8269 9.05976 64.1682C9.22421 63.4821 8.74458 62.6451 8.88162 61.9452C9.03236 61.2454 10.4438 61.2728 10.5535 60.573C10.6631 59.8869 10.896 59.1871 10.992 58.4735C11.0605 57.8285 9.55309 56.7582 9.69013 56.0858C9.86827 55.4546 10.3068 54.8371 10.5398 54.2059C10.7727 53.5884 11.9101 53.3002 12.1705 52.6827C12.4308 52.0789 13.5819 51.9142 13.8697 51.3104C14.1438 50.7341 13.4997 49.6501 13.8012 49.0463C14.089 48.4562 13.6779 47.4133 14.0479 46.837C14.4179 46.2881 16.1171 46.59 16.5008 46.0685C16.8845 45.5334 16.6515 44.5591 17.0489 44.0239C17.4464 43.5025 17.1038 42.391 17.5149 41.8695C17.926 41.3343 19.1319 41.4578 19.5978 40.9913C20.05 40.4973 20.3378 39.8798 20.79 39.4132C21.2422 38.9192 21.7767 39.1799 22.2152 38.6997C22.6674 38.2194 23.4211 38.041 23.8459 37.5744C24.2981 37.0941 23.6404 36.8197 24.0652 36.3394C24.5174 35.8591 24.8189 35.2279 25.2985 34.7888C25.8055 34.2948 24.4078 32.209 24.8463 31.7699C25.3533 31.2484 25.2163 30.1918 25.6411 29.739C26.1207 29.2175 26.0796 28.2844 26.5044 27.763C26.9292 27.2553 28.2996 27.516 28.7381 26.9671C29.1355 26.4868 28.2174 24.9087 28.6696 24.305C29.0807 23.7835 32.3833 24.9499 32.8081 24.3598C33.0958 23.8384 32.8629 22.6583 33.3973 22.1094C33.8769 21.6291 35.0006 21.7801 35.5214 21.3547C36.0832 20.8744 37.111 20.7097 37.4536 20.2294C37.8784 19.6257 37.9469 18.816 38.4402 18.2809C38.9336 17.7594 39.0158 16.744 39.5639 16.25C40.1121 15.756 40.811 15.4404 41.3728 14.9738C41.9484 14.5347 42.6746 13.3683 43.2502 12.888C43.7572 12.4352 45.4428 11.1041 46.0594 10.7336C46.3746 10.5415 47.0461 10.2808 47.3476 10.1161C47.6764 9.95143 48.1698 10.1161 48.485 9.97888C48.8138 9.85538 50.239 9.6221 50.5816 9.51232C50.9105 9.40254 50.7598 8.23614 51.1023 8.14009C51.4586 8.03031 52.1712 8.81248 52.5138 8.71642C52.7194 8.66154 52.966 8.74387 53.2127 8.79876C53.5142 8.78504 53.7882 8.75759 54.0486 8.66154C54.6927 8.42826 55.7205 9.05948 56.3371 8.83992C56.9675 8.62037 57.3375 7.63236 58.0089 7.49514C58.6667 7.33047 59.393 7.42653 60.0508 7.26186C60.6948 7.09719 61.4897 7.48142 62.1337 7.31675C62.7778 7.1658 63.5315 7.41281 64.1756 7.24814C64.8333 7.08347 64.9293 4.83301 65.6144 4.6409C66.3133 4.48996 66.6833 3.25495 67.3822 3.07656C68.0674 2.88445 69.1226 3.96851 69.794 3.7764C70.4655 3.57056 70.8492 2.363 71.5344 2.14344C72.2196 1.92388 73.0007 2.08855 73.6858 1.869C74.3573 1.64944 75.0288 1.36127 75.7277 1.1966L77.8243 0.757489C78.5369 0.620266 79.4139 1.5671 80.1128 1.45733C80.8117 1.33383 81.4832 1.11427 82.1958 1.04566C82.8946 0.935879 83.5798 0.949602 84.2924 0.990768C85.005 1.01821 85.7176 0.565377 86.4302 0.647711C87.1291 0.730045 87.869 -0.0521265 88.5679 0.00276266C89.2805 0.0439296 89.8698 2.03366 90.5549 2.06111C91.2401 2.10227 91.9801 1.16916 92.679 1.23777C93.3642 1.3201 94.1042 0.688878 94.8031 0.757489C95.5019 0.826101 96.1323 1.71805 96.8175 1.78666C97.5027 1.85527 98.7086 -0.0795712 99.4349 0.00276266C100.134 0.0850965 100.723 0.949601 101.422 1.05938C102.107 1.18288 102.916 0.826101 103.601 1.00449C104.286 1.18288 104.903 1.71805 105.574 1.89644C106.259 2.08855 107.027 1.91016 107.698 2.08855C108.383 2.26694 109.151 1.9925 109.85 2.14344C110.548 2.28066 111.055 3.02167 111.727 3.20006C112.412 3.37845 113.015 3.76267 113.7 3.88617C114.399 4.00967 114.988 4.72323 115.687 4.77812L117.688 4.95651C118.359 5.03885 118.935 5.57402 119.579 5.75241C120.223 5.88963 121.251 4.44879 121.922 4.61346C122.58 4.79185 122.868 6.31502 123.512 6.49341C124.17 6.6718 124.896 6.58947 125.554 6.76786C126.198 6.95997 126.883 7.0423 127.541 7.23442C128.171 7.46769 129.199 6.69925 129.829 6.94625C130.473 7.22069 130.309 9.40254 130.926 9.66326C131.542 9.92399 132.68 9.00459 133.31 9.27904L135.242 9.9926C135.914 10.2533 136.873 9.95143 137.503 10.3082C138.134 10.665 137.736 12.8194 138.339 13.1899C138.929 13.5467 139.888 13.3134 140.477 13.7113C141.066 14.1093 141.765 14.3426 142.313 14.7817C142.875 15.2071 144.013 15.0561 144.479 15.6187C144.917 16.1402 144.766 17.2243 145.205 17.7045C145.657 18.1985 146.767 17.9927 147.233 18.4593C147.699 18.9395 146.781 20.8332 147.247 21.2723C147.699 21.7114 149.508 20.7646 149.974 21.2312C150.426 21.7114 151.358 22.4524 151.824 22.919C152.29 23.3856 152.988 23.5914 153.468 24.0442C153.948 24.4971 154.085 25.3067 154.578 25.7458C155.113 26.2398 156.346 25.9791 156.894 26.4594C157.415 26.9808 157.99 27.4062 158.525 27.9002C159.059 28.4216 156.634 31.7973 157.154 32.2502C157.675 32.7167 158.662 32.703 159.224 33.1558C159.772 33.6087 159.059 34.8025 159.621 35.2416C160.169 35.6807 160.594 36.2708 161.156 36.7236C161.649 37.1353 163.307 36.3531 163.801 36.8334C164.266 37.3 164.609 37.9724 165.061 38.4664C165.5 38.9604 165.212 40.0719 165.623 40.5933C166.062 41.0873 165.596 42.1988 165.938 42.7615C166.281 43.3241 167.514 43.3103 167.857 43.9004C168.172 44.4767 169.351 44.6002 169.666 45.1903C169.981 45.7804 168.885 47.0977 169.172 47.674C169.46 48.2641 170.488 48.5111 170.693 49.156C170.926 49.7736 172.009 50.048 172.242 50.6792C172.475 51.3105 171.721 52.3259 171.94 52.9434C172.16 53.5609 172.571 54.1098 172.79 54.7273C172.996 55.3585 172.516 55.6879 172.735 56.3054C172.968 56.9091 172.694 57.6776 172.859 58.2951C173.023 58.94 173.585 58.5009 173.763 59.1184C173.941 59.7634 174.27 60.3672 174.448 60.971C174.654 61.6571 177.175 61.4787 177.367 62.0687C177.586 62.7686 178.587 63.1665 178.806 63.7566C179.025 64.4427 179.779 64.8818 179.998 65.513C180.204 66.1443 179.217 67.2146 179.477 67.8733C179.71 68.4496 181.56 68.4496 181.876 69.1494C182.15 69.7532 179.546 72.0174 179.861 72.6761C180.19 73.1701 181.259 73.5955 181.437 74.3227C181.588 74.9951 180.793 75.9008 180.93 76.5595C181.094 77.3005 180.752 78.261 181.012 78.7962C181.341 79.4549 182.026 79.9214 182.259 80.6213C182.506 81.3211 183.342 81.8837 183.438 82.611C183.547 83.3383 183.397 84.1068 183.506 84.834C183.616 85.5476 184.287 86.7551 184.452 87.4962C184.52 87.8392 184.644 88.5253 184.767 89.2389C184.877 89.9387 184.986 90.6386 185 91.0091C184.973 91.3658 184.808 92.0794 184.781 92.4225C184.74 92.7792 184.315 93.1223 184.274 93.4791Z" fill="#037E4C"/>
<path d="M160 68.422C160 68.242 159.79 68.052 159.79 67.872C159.79 67.692 159.55 67.522 159.54 67.342C159.53 67.162 159.74 66.972 159.72 66.792C159.7 66.612 159.9 66.402 159.87 66.222C159.84 66.042 159.86 65.842 159.82 65.672C159.78 65.492 159.36 65.422 159.31 65.252C159.26 65.062 159.21 64.872 159.17 64.692C159.11 64.512 159.4 64.352 159.35 64.162C159.3 63.972 159.1 63.822 159.06 63.642C159.02 63.462 159.92 63.092 159.88 62.892C159.85 62.702 159.76 62.522 159.72 62.332C159.68 62.142 159.4 62.002 159.36 61.812C159.32 61.642 159.4 61.442 159.37 61.272C159.34 61.092 159.23 60.942 159.2 60.762C159.18 60.582 159.07 60.282 159.04 60.112C159.01 59.942 158.54 59.832 158.51 59.662C158.48 59.492 158.92 59.252 158.89 59.072C158.87 58.892 158.63 58.752 158.61 58.572C158.59 58.402 158.76 58.202 158.73 58.022C158.7 57.832 158.46 57.672 158.42 57.482C158.38 57.292 158.28 57.132 158.23 56.942C158.17 56.762 157.97 56.632 157.9 56.462C157.83 56.292 158.2 55.932 158.12 55.752C158.04 55.572 157.81 55.472 157.73 55.292L157.48 54.802C157.4 54.632 157.06 54.602 156.97 54.442C156.89 54.282 157.23 53.902 157.14 53.732C157.05 53.572 156.73 53.532 156.65 53.372L156.36 52.912C156.27 52.752 156.13 52.632 156.03 52.482C155.93 52.332 156.1 52.002 156 51.852C155.9 51.702 155.48 51.772 155.37 51.632C155.27 51.482 155.25 51.272 155.14 51.132C155.03 50.992 154.93 50.842 154.81 50.712C154.69 50.572 154.68 50.332 154.57 50.182C154.46 50.032 154.4 49.852 154.3 49.692C154.2 49.532 154.21 49.312 154.12 49.142C154.02 48.982 153.85 48.862 153.75 48.702C153.65 48.542 153.48 48.422 153.38 48.262C153.28 48.102 153.25 47.892 153.15 47.732C153.05 47.572 152.84 47.472 152.73 47.312C152.63 47.152 152.68 46.882 152.57 46.732C152.45 46.582 151.9 46.652 151.79 46.502C151.67 46.352 151.71 46.092 151.59 45.942C151.47 45.792 151.23 45.752 151.11 45.602C150.99 45.452 150.72 45.432 150.6 45.282C150.48 45.142 150.72 44.712 150.6 44.562C150.48 44.412 150.21 44.382 150.1 44.232C149.99 44.082 149.77 44.002 149.65 43.862L149.28 43.432C149.14 43.302 148.98 43.202 148.84 43.072C148.7 42.952 148.71 42.632 148.56 42.512L148.11 42.152C147.96 42.032 147.78 41.952 147.63 41.832C147.48 41.712 147.37 41.532 147.21 41.432C147.05 41.322 146.75 41.412 146.6 41.312C146.45 41.212 146.47 40.842 146.31 40.722C146.15 40.612 145.85 40.702 145.7 40.582C145.55 40.462 145.11 40.732 144.95 40.622C144.81 40.512 144.72 40.332 144.58 40.222C144.44 40.112 144.37 39.902 144.23 39.792C144.09 39.682 143.98 39.522 143.83 39.412C143.68 39.302 143.43 39.342 143.29 39.232C143.15 39.112 143.09 38.842 142.94 38.742C142.88 38.702 142.82 38.652 142.77 38.592C142.74 38.532 142.71 38.472 142.67 38.442C142.59 38.382 142.63 38.142 142.55 38.082C142.47 38.022 142.26 38.212 142.18 38.152C142.1 38.102 141.82 37.842 141.73 37.792C141.65 37.742 141.61 37.612 141.52 37.562C141.44 37.512 141.28 37.402 141.19 37.352C141.01 37.272 140.46 37.112 140.28 37.072C140.08 37.022 139.72 37.022 139.53 36.972C139.34 36.912 139.17 36.792 138.98 36.732C138.79 36.682 138.57 36.762 138.37 36.732C138.18 36.702 137.99 36.792 137.79 36.782C137.63 36.782 137.43 36.592 137.23 36.542C137.05 36.492 136.92 36.232 136.74 36.182C136.54 36.132 136.32 36.312 136.16 36.312C135.97 36.272 135.72 35.482 135.55 35.472C135.34 35.462 135.13 35.842 134.96 35.822C134.77 35.802 134.63 35.482 134.45 35.452C134.27 35.422 134.07 35.532 133.89 35.492C133.72 35.452 133.51 35.602 133.31 35.552C133.15 35.502 132.87 36.042 132.68 36.012C132.51 35.982 132.32 35.982 132.14 35.942C131.97 35.912 132 36.072 131.82 36.032C131.65 35.992 131.5 35.862 131.33 35.822C131.16 35.782 131.14 35.642 130.97 35.602C130.8 35.562 130.61 35.572 130.44 35.532C130.27 35.492 130.13 35.222 129.96 35.202C129.78 35.182 129.57 35.372 129.39 35.352C129.21 35.332 129.01 35.482 128.83 35.462C128.65 35.442 128.51 35.062 128.33 35.042C128.15 35.022 127.95 35.232 127.77 35.222C127.59 35.212 127.41 35.452 127.23 35.442C127.05 35.452 126.85 35.252 126.67 35.282C126.48 35.312 126.26 35.122 126.07 35.162C125.88 35.202 125.67 35.192 125.48 35.242C125.29 35.292 125.22 35.722 125.06 35.772C124.88 35.832 124.69 35.872 124.52 35.922C124.34 35.982 124.19 35.692 124.01 35.732C123.84 35.782 123.69 35.972 123.52 36.012C123.34 36.052 123.04 35.132 122.88 35.152C122.72 35.182 122.56 35.222 122.4 35.242C122.24 35.252 122.1 35.502 121.94 35.502C121.8 35.502 121.67 35.382 121.54 35.372C121.41 35.372 121.28 35.422 121.17 35.402C121.05 35.382 120.85 35.352 120.76 35.312C120.67 35.272 120.41 35.642 120.33 35.582C120.24 35.522 120.43 35.072 120.38 35.012C120.32 34.952 120.1 35.032 120.02 34.922C119.94 34.822 120 34.572 119.91 34.462C119.82 34.332 119.56 34.332 119.44 34.202C119.33 34.072 119.18 33.982 119.05 33.862C118.93 33.732 118.69 33.732 118.56 33.612C118.43 33.492 118.63 33.012 118.5 32.892C118.37 32.772 118.12 32.782 117.99 32.662L117.59 32.332C117.47 32.222 117.13 32.332 116.99 32.202C116.85 32.082 117.03 31.592 116.89 31.472C116.75 31.352 116.44 31.432 116.31 31.312L115.87 30.982C115.73 30.862 115.55 30.802 115.41 30.692C115.27 30.582 115.31 30.192 115.17 30.082C115.02 29.972 114.68 30.182 114.52 30.092C114.36 30.002 114.27 29.812 114.11 29.722C113.95 29.632 113.79 29.552 113.63 29.472C113.46 29.382 113.37 29.162 113.21 29.062C113.05 28.962 112.92 28.822 112.77 28.712C112.61 28.612 112.54 28.392 112.39 28.282C112.24 28.172 112.03 28.152 111.87 28.032C111.72 27.922 111.52 27.872 111.36 27.762C111.21 27.652 111.1 27.472 110.95 27.362C110.8 27.252 110.56 27.252 110.4 27.152C110.24 27.052 110.18 26.792 110.02 26.692C109.86 26.592 109.38 26.872 109.22 26.772C109.06 26.682 108.99 26.412 108.83 26.332C108.67 26.242 108.42 26.292 108.26 26.202C108.1 26.112 107.83 26.202 107.66 26.112C107.5 26.022 107.57 25.532 107.4 25.442C107.24 25.342 106.98 25.422 106.82 25.322C106.66 25.222 106.43 25.232 106.27 25.142C106.1 25.052 105.94 24.972 105.76 24.902C105.59 24.832 105.4 24.782 105.23 24.712C105.05 24.652 104.95 24.342 104.77 24.282C104.59 24.222 104.4 24.162 104.22 24.112C104.04 24.062 103.84 24.052 103.65 24.002C103.47 23.952 103.3 23.822 103.11 23.772C102.92 23.722 102.68 23.912 102.5 23.862C102.31 23.822 102.21 23.472 102.02 23.422C101.83 23.372 101.58 23.572 101.4 23.522C101.21 23.472 100.89 23.892 100.72 23.832C100.55 23.782 100.4 23.642 100.22 23.602C100.04 23.562 99.9003 23.382 99.7303 23.342C99.5503 23.292 99.3903 23.192 99.2103 23.142C99.0303 23.092 98.8103 23.232 98.6303 23.182C98.4703 23.142 98.3403 22.872 98.1903 22.832C98.1303 22.812 98.0703 22.782 98.0103 22.742C97.9703 22.702 97.9303 22.652 97.8803 22.632C97.8003 22.602 97.7703 22.362 97.6903 22.332C97.6103 22.302 97.4803 22.542 97.4003 22.522C97.3203 22.502 97.0303 22.352 96.9503 22.332C96.8703 22.312 96.8103 22.202 96.7303 22.182C96.6503 22.162 96.5003 22.112 96.4203 22.092C96.4203 22.092 96.3203 22.082 96.2503 22.072C96.1303 22.052 96.0103 22.042 95.8803 22.022C95.7903 22.022 95.7103 21.992 95.6203 22.002C95.5303 22.002 95.4503 22.002 95.3603 22.012C95.3203 22.012 95.2703 22.022 95.2303 22.022C95.1503 22.032 95.0903 22.042 95.0503 22.042C94.8603 22.072 94.5503 22.212 94.3703 22.232C94.1803 22.252 93.9903 22.202 93.8103 22.232C93.6203 22.252 93.4603 22.432 93.2803 22.452C93.1003 22.482 92.9603 22.622 92.7803 22.672C92.6303 22.712 92.4003 22.602 92.2103 22.612C92.0403 22.612 91.8403 22.402 91.6703 22.412C91.4803 22.422 91.3203 22.662 91.1703 22.712C90.9803 22.742 90.5603 22.022 90.4103 22.052C90.2203 22.082 90.1103 22.502 89.9503 22.522C89.7503 22.542 89.6203 22.262 89.3503 22.272C89.0003 22.292 88.9203 22.482 88.7203 22.502C88.5503 22.522 88.3903 22.742 88.1903 22.752C88.0203 22.772 87.9203 23.352 87.7203 23.372C87.5503 23.382 87.3703 23.432 87.1803 23.442C87.0003 23.452 87.0803 23.602 86.9003 23.612C86.7303 23.612 86.5403 23.522 86.3603 23.542C86.1903 23.562 86.1303 23.442 85.9503 23.462C85.7703 23.482 85.6003 23.552 85.4203 23.582C85.2403 23.602 85.0403 23.382 84.8603 23.412C84.6803 23.432 84.5303 23.682 84.3503 23.702C84.1703 23.732 84.0203 23.932 83.8503 23.962C83.6703 23.992 83.4203 23.662 83.2403 23.712C83.0603 23.762 82.9403 24.032 82.7703 24.082C82.6003 24.132 82.5003 24.422 82.3303 24.482C82.1603 24.542 81.9203 24.382 81.7503 24.442C81.5803 24.502 81.3203 24.362 81.1603 24.442C80.9903 24.512 80.7903 24.542 80.6303 24.622C80.4703 24.712 80.5203 25.152 80.3703 25.252C80.2103 25.362 80.0303 25.442 79.8703 25.542C79.7103 25.642 79.4703 25.402 79.3103 25.502C79.1403 25.602 79.0503 25.822 78.8803 25.912C78.7103 26.002 78.1203 25.222 77.9403 25.312C77.7603 25.392 77.6203 25.522 77.4403 25.612C77.2703 25.702 77.2103 26.012 77.0403 26.102C76.8803 26.182 76.6703 26.162 76.5203 26.242C76.3603 26.322 76.2403 26.472 76.0803 26.542C75.9203 26.612 75.6403 26.782 75.4803 26.852C75.3103 26.922 75.3403 27.402 75.1903 27.482C75.0303 27.562 74.6903 27.202 74.5303 27.282C74.3703 27.352 74.3003 27.632 74.1303 27.702C73.9703 27.772 73.7303 27.652 73.5703 27.712C73.3903 27.782 73.2903 28.052 73.1203 28.132C72.9503 28.222 72.8103 28.342 72.6503 28.452C72.4903 28.562 72.4403 28.802 72.2803 28.912C72.1303 29.022 71.6903 28.752 71.5403 28.872C71.3903 28.992 71.3503 29.242 71.2003 29.362L70.7903 29.722C70.6503 29.832 70.7003 30.182 70.5603 30.292C70.4203 30.402 69.9703 30.172 69.8403 30.292C69.7103 30.422 69.7503 30.732 69.6203 30.862L69.2503 31.262C69.1203 31.392 69.0403 31.562 68.9103 31.692C68.7803 31.822 68.4203 31.722 68.2903 31.852C68.1603 31.982 68.3303 32.362 68.2203 32.512C68.1103 32.652 67.9103 32.722 67.8003 32.862L67.4803 33.292C67.3703 33.442 67.1403 33.502 67.0103 33.642C66.8903 33.782 66.7203 33.882 66.5903 34.012C66.4603 34.142 66.2303 34.172 66.1003 34.302C65.9703 34.442 65.9103 34.642 65.7803 34.772C65.6503 34.902 65.5703 35.102 65.4303 35.232C65.2903 35.362 65.1003 35.432 64.9603 35.562C64.8203 35.692 64.7803 35.922 64.6503 36.052C64.5203 36.192 64.2503 36.202 64.1203 36.332C63.9903 36.472 64.1903 37.002 64.0703 37.142C63.9503 37.292 63.6903 37.312 63.5703 37.462C63.4503 37.612 63.4603 37.862 63.3503 38.002C63.2303 38.142 63.2803 38.432 63.1503 38.572C63.0303 38.712 62.5603 38.562 62.4303 38.702C62.3003 38.842 62.3403 39.122 62.2203 39.262C62.1003 39.412 62.0803 39.632 61.9603 39.782L61.6303 40.242C61.5303 40.402 61.4503 40.572 61.3503 40.732C61.2503 40.892 60.9303 40.942 60.8403 41.102C60.7403 41.262 60.6603 41.442 60.5903 41.622C60.5103 41.792 60.4703 41.992 60.4003 42.162C60.3203 42.332 60.1603 42.472 60.0903 42.652C60.0103 42.832 60.1603 43.102 60.0803 43.272C60.0003 43.442 59.6403 43.482 59.5503 43.662C59.4603 43.832 59.6103 44.112 59.5403 44.282C59.4603 44.452 59.8203 44.842 59.7403 45.012C59.6603 45.172 59.4903 45.282 59.4103 45.442C59.3303 45.602 59.1303 45.702 59.0403 45.862C58.9603 46.022 58.8203 46.152 58.7303 46.312C58.6503 46.472 58.7303 46.712 58.6503 46.872C58.5803 47.032 58.3003 47.132 58.2403 47.302C58.2103 47.372 58.1703 47.432 58.1203 47.492C58.0703 47.532 58.0103 47.572 57.9903 47.622C57.9503 47.702 57.7003 47.712 57.6603 47.802C57.6203 47.892 57.8403 48.062 57.8003 48.152C57.7603 48.242 57.5603 48.562 57.5303 48.652C57.5003 48.742 57.3803 48.802 57.3403 48.892C57.3003 48.982 57.2303 49.162 57.1903 49.252C57.1203 49.432 57.0803 50.012 57.0603 50.192C57.0503 50.392 57.1203 50.752 57.0903 50.942C57.0703 51.142 56.9803 51.332 56.9603 51.522C56.9403 51.722 57.0803 51.922 57.0603 52.112C57.0603 52.302 57.1503 52.472 57.1903 52.672C57.2203 52.832 57.0803 53.062 57.0803 53.262C57.0803 53.442 56.8403 53.622 56.8403 53.812C56.8403 54.022 57.0603 54.212 57.0903 54.362C57.1103 54.562 56.3503 54.942 56.3603 55.112C56.3703 55.312 56.7803 55.462 56.7903 55.632C56.8003 55.812 56.5103 55.992 56.5103 56.162C56.5103 56.332 56.6503 56.492 56.6403 56.672C56.6303 56.822 56.8103 57.012 56.7903 57.192C56.7703 57.342 57.3303 57.552 57.3003 57.742C57.2803 57.902 57.2803 58.082 57.2503 58.242C57.2203 58.402 57.3803 58.372 57.3503 58.532C57.3103 58.692 57.1803 58.832 57.1403 58.982C57.1003 59.142 56.9603 59.142 56.9203 59.302C56.8803 59.452 56.8803 59.622 56.8303 59.762C56.7803 59.892 56.5003 59.942 56.4503 60.062C56.3903 60.182 56.5303 60.382 56.4703 60.512C56.4003 60.622 56.4903 60.832 56.4203 60.952C56.3403 61.072 55.9503 60.992 55.8903 61.092C55.8103 61.192 55.9203 61.432 55.8303 61.542C55.7403 61.642 55.8503 61.902 55.7603 62.012C55.6603 62.112 55.4103 62.062 55.3203 62.152C55.2203 62.242 54.9803 62.192 54.8903 62.272C54.7903 62.352 54.6703 62.432 54.5703 62.512C54.4703 62.592 54.6203 63.012 54.5103 63.102C54.3903 63.202 54.2503 63.292 54.1203 63.372C53.9803 63.452 53.7903 63.212 53.6603 63.272C53.5303 63.332 53.4503 63.552 53.2903 63.602C53.1303 63.652 52.8003 62.762 52.6803 62.782C52.5503 62.812 52.4403 62.862 52.3003 62.872C52.1703 62.882 52.0503 63.132 51.9003 63.122C51.7703 63.122 51.6503 63.002 51.5303 62.982C51.4103 62.962 51.2803 63.022 51.1503 62.992C51.0303 62.952 50.8103 62.922 50.7003 62.872C50.6003 62.822 50.3003 63.182 50.1803 63.112C50.0603 63.042 50.1803 62.562 50.0903 62.502C50.0003 62.432 49.7903 62.522 49.6903 62.442C49.6003 62.362 49.6603 62.112 49.5803 62.022C49.5003 61.932 49.2803 61.972 49.2003 61.872C49.1103 61.782 49.0003 61.712 48.9203 61.622C48.8303 61.532 48.6303 61.542 48.5503 61.432C48.4603 61.332 48.7703 60.942 48.7103 60.842C48.6403 60.752 48.4203 60.742 48.3603 60.632C48.3003 60.532 48.2003 60.442 48.1503 60.322C48.1003 60.212 47.7503 60.222 47.7103 60.092C47.6603 59.962 48.0703 59.682 48.0203 59.572C47.9903 59.452 47.7003 59.402 47.6503 59.272C47.6103 59.142 47.5603 59.022 47.5303 58.892C47.4903 58.772 47.4103 58.632 47.3803 58.472C47.3603 58.322 47.6503 58.122 47.6303 57.982C47.6003 57.832 47.2103 57.722 47.1903 57.562C47.1703 57.402 47.2603 57.232 47.2303 57.082L47.1703 56.602C47.1503 56.432 47.2803 56.252 47.2803 56.082C47.2803 55.912 47.3503 55.752 47.3603 55.582C47.3703 55.412 47.5203 55.262 47.5403 55.092C47.5703 54.922 47.5003 54.742 47.5403 54.572C47.5803 54.402 47.5303 54.222 47.5703 54.052C47.6103 53.882 47.7403 53.732 47.7803 53.562C47.8203 53.392 47.7303 53.192 47.7803 53.022C47.8203 52.852 48.0403 52.722 48.0803 52.552C48.1203 52.382 47.7003 52.032 47.7403 51.862C47.7803 51.692 48.0103 51.562 48.0503 51.392C48.0903 51.222 47.9703 51.012 48.0103 50.842C48.0503 50.672 47.9003 50.442 47.9503 50.272C48.0003 50.102 48.4903 50.072 48.5403 49.902C48.5903 49.742 48.4703 49.512 48.5403 49.352C48.6103 49.192 48.5503 48.982 48.6103 48.812L48.7703 48.312C48.8203 48.142 48.8303 47.972 48.8803 47.792C48.9203 47.622 49.2103 47.502 49.2503 47.332L49.3603 46.812C49.4003 46.642 49.3903 46.462 49.4303 46.282C49.4703 46.112 49.5903 45.962 49.6303 45.792C49.6703 45.622 49.4803 45.392 49.5203 45.222C49.5703 45.052 49.9103 44.972 49.9603 44.802C50.0103 44.632 49.8203 44.392 49.8803 44.232C49.9403 44.072 49.5403 43.732 49.6203 43.572C49.6903 43.422 49.8503 43.302 49.9203 43.162C50.0003 43.012 50.2003 42.932 50.2803 42.792C50.3603 42.652 50.5003 42.532 50.5803 42.392C50.6603 42.252 50.5803 42.022 50.6603 41.882C50.7403 41.742 51.0203 41.682 51.1003 41.542C51.1303 41.482 51.1803 41.432 51.2303 41.382C51.2803 41.352 51.3403 41.332 51.3703 41.292C51.4103 41.222 51.6603 41.252 51.7103 41.172C51.7603 41.092 51.5703 40.892 51.6103 40.802C51.6603 40.722 51.8903 40.422 51.9403 40.332C51.9803 40.252 52.1103 40.202 52.1503 40.112C52.2003 40.032 52.2903 39.862 52.3403 39.772L50.3303 38.962L52.3403 39.762L52.3603 39.712L52.3803 39.652V39.602L52.3903 39.552V39.432C52.3903 39.352 52.3903 39.272 52.3903 39.212V39.162L52.4003 39.122L52.4203 39.052V39.012L52.4403 38.972V38.932V38.882L52.4203 38.782L52.4003 38.682C52.3803 38.622 52.3603 38.552 52.3403 38.492C52.3103 38.422 52.2903 38.362 52.2703 38.302L52.2303 38.212L52.1803 38.122L52.1503 38.072L52.1103 38.022L52.0203 37.932L51.9203 37.842L51.8703 37.792L51.8303 37.742L51.8103 37.722V37.692L51.8003 37.662V37.632V37.572V37.512L51.8203 37.502V37.482L51.8503 37.452L51.9103 37.382L51.9303 37.352L51.9503 37.322V37.292L51.9703 37.262L51.9903 37.202L52.0103 37.142L52.0703 37.012L52.1203 36.882L52.1403 36.822V36.762V36.732V36.712L52.1203 36.692L52.1003 36.672L52.0803 36.652L52.0603 36.632L52.0103 36.592L51.8703 36.472L51.7403 36.372C51.7403 36.372 51.6603 36.312 51.6303 36.282C51.5903 36.242 51.5603 36.212 51.5203 36.182L51.4603 36.122L51.3703 36.062L51.3103 36.022L51.2303 35.982L51.1103 35.932L51.0203 35.902L50.9203 35.872L50.2403 35.832H50.0803H50.0003H49.9303L49.8703 35.812L49.8103 35.792L49.6903 35.742L49.6303 35.712L49.5703 35.692L49.5103 35.672H49.4803H49.4503H49.3403H49.2303L49.0103 35.702H48.9803H48.9703C48.9703 35.702 48.9603 35.702 48.9403 35.702C48.7303 35.772 48.1703 36.022 48.0003 36.112C47.8103 36.212 47.5303 36.462 47.3503 36.552C47.1603 36.642 46.9503 36.672 46.7703 36.762C46.5903 36.852 46.4803 37.082 46.3103 37.182C46.1403 37.282 46.0503 37.472 45.8903 37.592C45.7603 37.692 45.4803 37.682 45.2903 37.782C45.1203 37.862 44.8403 37.752 44.6703 37.842C44.4803 37.932 44.4203 38.232 44.2903 38.332C44.1203 38.442 43.3903 37.992 43.2403 38.092C43.0603 38.212 43.1303 38.642 42.9703 38.742C42.7903 38.852 42.4603 38.702 42.3003 38.812C42.1403 38.912 42.0503 39.142 41.8703 39.242C41.7103 39.332 41.6303 39.592 41.4503 39.692C41.2903 39.772 41.4203 40.362 41.2303 40.452C41.0703 40.542 40.9203 40.672 40.7503 40.772C40.5903 40.862 40.7203 40.972 40.5603 41.062C40.4003 41.152 40.1903 41.152 40.0203 41.242C39.8603 41.332 39.7503 41.242 39.5803 41.332C39.4103 41.422 39.2803 41.572 39.1203 41.672C38.9603 41.772 38.6703 41.672 38.5103 41.772C38.3503 41.872 38.3003 42.162 38.1403 42.272C37.9803 42.382 37.9203 42.622 37.7703 42.742C37.6203 42.852 37.2503 42.682 37.1003 42.802C36.9503 42.922 36.9403 43.222 36.7903 43.342C36.6403 43.462 36.6603 43.772 36.5203 43.902C36.3703 44.022 36.0903 44.002 35.9603 44.132C35.8303 44.272 35.5303 44.272 35.4103 44.412C35.2803 44.562 35.1103 44.682 34.9903 44.832C34.8703 44.982 35.0803 45.352 34.9903 45.512C34.8803 45.692 34.7403 45.852 34.6303 46.012C34.5203 46.182 34.2003 46.072 34.0803 46.232C33.9603 46.402 33.9703 46.652 33.8503 46.812C33.7303 46.972 32.8603 46.542 32.7403 46.712C32.6203 46.882 32.5203 47.052 32.3903 47.222C32.2703 47.382 32.3303 47.692 32.2003 47.852C32.0803 48.002 31.8703 48.072 31.7603 48.222C31.6503 48.372 31.6003 48.572 31.4803 48.722C31.3603 48.872 31.1803 49.152 31.0603 49.302C30.9403 49.452 31.1603 49.872 31.0403 50.012C30.9303 50.152 30.4603 49.992 30.3403 50.142C30.2203 50.282 30.2703 50.572 30.1403 50.722C30.0203 50.862 29.7503 50.862 29.6203 51.002C29.4903 51.152 29.5003 51.442 29.3903 51.612C29.2803 51.772 29.2103 51.972 29.1103 52.142C29.0103 52.312 29.0503 52.562 28.9503 52.742C28.8503 52.912 28.3303 52.872 28.2303 53.062C28.1403 53.242 28.2203 53.512 28.1403 53.692L27.9303 54.232C27.8503 54.412 28.0603 54.702 27.9803 54.882C27.9003 55.052 27.3803 55.062 27.3103 55.252C27.2403 55.432 27.4203 55.712 27.3603 55.892L27.2003 56.452C27.1403 56.632 27.1403 56.832 27.0803 57.022C27.0303 57.202 26.6603 57.312 26.6203 57.502C26.5703 57.692 26.9003 57.962 26.8603 58.152C26.8203 58.342 26.6603 58.502 26.6203 58.692C26.5803 58.882 26.5503 59.062 26.5303 59.262C26.5003 59.462 26.3303 59.642 26.2903 59.832C26.2503 60.032 26.1503 60.202 26.1003 60.402C26.0503 60.602 25.8603 60.742 25.8103 60.942C25.7603 61.142 25.8103 61.362 25.7503 61.552C25.6903 61.752 25.7203 61.972 25.6603 62.162C25.6003 62.362 25.4703 62.532 25.4103 62.732C25.3603 62.932 25.4503 63.172 25.4103 63.362C25.3703 63.562 25.1503 63.732 25.1203 63.932C25.0803 64.142 25.5103 64.502 25.4803 64.692C25.4603 64.892 25.2703 65.072 25.2503 65.272C25.2503 65.472 25.4003 65.692 25.3803 65.892C25.3703 66.092 25.5703 66.322 25.5503 66.522C25.5403 66.722 25.0603 66.862 25.0403 67.072C25.0203 67.272 25.1903 67.492 25.1703 67.702C25.1403 67.902 25.2403 68.122 25.2303 68.302C25.2203 68.482 25.2103 68.662 25.2003 68.852C25.2003 69.032 25.2303 69.212 25.2303 69.402C25.2303 69.592 24.9903 69.772 25.0003 69.962L25.0303 70.512C25.0303 70.602 25.0503 70.692 25.0703 70.792L25.1003 71.122C25.1003 71.212 25.1203 71.292 25.1403 71.382L25.1703 71.532C25.1803 71.612 25.1903 71.662 25.1903 71.672V71.812C25.1903 71.912 25.1903 72.002 25.2203 72.092C25.2603 72.272 25.5403 72.392 25.5803 72.572C25.6203 72.752 25.3603 73.002 25.3903 73.182C25.4303 73.362 25.7103 73.502 25.7403 73.682C25.7703 73.872 26.2903 74.012 26.3103 74.212C26.3303 74.402 26.2503 74.602 26.2703 74.792C26.2903 74.982 26.1803 75.182 26.2003 75.372C26.2203 75.562 26.1803 75.762 26.2003 75.952C26.2203 76.142 26.4203 76.312 26.4603 76.492C26.4903 76.682 26.3203 76.932 26.3603 77.122C26.3703 77.202 26.3703 77.282 26.3603 77.362C26.3403 77.422 26.3103 77.492 26.3203 77.552C26.3303 77.652 26.1303 77.802 26.1403 77.902C26.1603 78.002 26.4303 78.032 26.4503 78.132C26.4703 78.232 26.5003 78.632 26.5303 78.732C26.5603 78.832 26.5003 78.952 26.5303 79.052C26.5503 79.152 26.6003 79.352 26.6303 79.452L27.5603 79.112L26.6303 79.442C26.6903 79.642 26.9703 80.182 27.0703 80.352C27.1803 80.542 27.4403 80.812 27.5303 81.002C27.6203 81.192 27.6703 81.412 27.7803 81.592C27.8803 81.772 28.1303 81.872 28.2403 82.042C28.3503 82.212 28.5503 82.292 28.6803 82.452C28.7803 82.582 28.8003 82.862 28.9203 83.052C29.0203 83.222 28.9303 83.512 29.0303 83.672C29.1403 83.862 29.4403 83.892 29.5503 84.012C29.6703 84.182 29.3003 84.942 29.4103 85.082C29.5503 85.252 29.9703 85.142 30.0803 85.282C30.2003 85.442 30.0803 85.782 30.1903 85.942C30.3003 86.092 30.5403 86.162 30.6503 86.332C30.7503 86.482 31.0203 86.542 31.1303 86.712C31.2303 86.862 31.8003 86.692 31.9103 86.862C32.0203 87.012 32.1503 87.152 32.2603 87.312C32.3603 87.462 32.4603 87.322 32.5603 87.482C32.6603 87.642 32.6803 87.852 32.7803 88.012C32.8803 88.172 32.7903 88.282 32.9003 88.442C33.0103 88.592 33.1603 88.722 33.2703 88.882C33.3803 89.032 33.2903 89.332 33.4003 89.492C33.5103 89.642 33.8003 89.682 33.9203 89.822C34.0403 89.972 34.3003 90.012 34.4203 90.152C34.5403 90.302 34.3803 90.682 34.5103 90.822C34.6403 90.962 34.9303 90.972 35.0603 91.102C35.2003 91.242 35.5103 91.192 35.6403 91.322C35.7803 91.452 35.7603 91.752 35.9003 91.872C36.0503 92.002 36.0503 92.302 36.2103 92.412C36.3703 92.522 36.5103 92.692 36.6603 92.792C36.8203 92.902 37.1803 92.662 37.3403 92.752C37.5203 92.852 37.6803 92.992 37.8503 93.092C38.0303 93.192 37.9403 93.512 38.1103 93.622C38.2903 93.732 38.5403 93.702 38.7103 93.812C38.8803 93.922 38.5003 94.832 38.6803 94.942C38.8603 95.052 39.0403 95.142 39.2203 95.252C39.3903 95.362 39.6903 95.282 39.8703 95.402C40.0303 95.502 40.1103 95.722 40.2703 95.812C40.4303 95.912 40.6303 95.952 40.7903 96.052C40.9503 96.162 41.2403 96.322 41.4003 96.432C41.5503 96.542 41.9703 96.292 42.1203 96.392C42.2703 96.492 42.1503 96.972 42.3003 97.082C42.4503 97.192 42.7403 97.122 42.8903 97.242C43.0203 97.342 43.1103 97.652 43.1703 97.722C43.2103 97.782 43.3803 97.692 43.4303 97.752C43.4803 97.812 43.5603 97.842 43.6003 97.902C43.6403 97.962 43.8203 97.932 43.8603 98.022C43.9103 98.112 43.5003 98.372 43.5103 98.412C43.5303 98.462 43.7203 98.482 43.7403 98.552C43.7503 98.642 43.7903 98.612 43.8003 98.852C43.8003 99.032 44.1203 99.202 44.1203 99.392C44.1203 99.582 43.6503 99.782 43.6603 99.962C43.6703 100.142 43.9403 100.312 43.9503 100.502L44.0103 101.052C44.0203 101.232 44.1003 101.412 44.1103 101.592C44.1203 101.772 43.8103 101.992 43.8303 102.172C43.8503 102.352 44.2503 102.492 44.2603 102.682C44.2803 102.862 44.1903 103.062 44.2103 103.242L44.2903 103.782C44.3203 103.972 44.1903 104.182 44.2003 104.372C44.2103 104.562 44.1603 104.752 44.1603 104.942C44.1603 105.132 44.0203 105.312 44.0103 105.502C44.0003 105.692 44.0903 105.882 44.0703 106.082C44.0503 106.272 44.1203 106.472 44.1003 106.662C44.0803 106.852 43.9803 107.032 43.9603 107.232C43.9403 107.422 44.0603 107.632 44.0403 107.822C44.0303 108.012 43.8303 108.192 43.8203 108.382C43.8103 108.572 44.2803 108.872 44.2703 109.062C44.2703 109.252 44.0603 109.432 44.0503 109.622C44.0503 109.812 44.2003 110.012 44.1903 110.202C44.1803 110.392 44.3803 110.602 44.3703 110.792C44.3603 110.982 43.8803 111.122 43.8603 111.312C43.8403 111.502 44.0103 111.712 43.9903 111.902C43.9603 112.092 44.0603 112.292 44.0503 112.492C44.0403 112.682 44.0303 112.872 44.0103 113.062C44.0103 113.252 44.0303 113.442 44.0303 113.632C44.0303 113.822 43.7803 114.022 43.7903 114.212L43.8203 114.792C43.8203 114.982 43.8803 115.172 43.8903 115.362C43.9003 115.552 43.8203 115.752 43.8303 115.942C43.8303 116.132 44.0903 116.312 44.1003 116.512C44.1003 116.702 43.8003 116.902 43.8003 117.092C43.8003 117.282 44.0603 117.472 44.0503 117.672C44.0403 117.872 44.5303 118.082 44.5103 118.272C44.4903 118.452 44.3803 118.632 44.3603 118.812C44.3403 118.992 44.1903 119.162 44.1803 119.342C44.1603 119.522 44.0803 119.702 44.0703 119.882C44.0503 120.062 44.2203 120.262 44.2003 120.442C44.1803 120.622 43.9503 120.812 43.9303 120.992C43.9303 121.062 43.9003 121.142 43.8703 121.212C43.8303 121.262 43.7903 121.322 43.7803 121.372C43.7703 121.462 43.5303 121.542 43.5103 121.642C43.5003 121.732 43.7603 121.842 43.7403 121.932C43.7303 122.022 43.6303 122.392 43.6203 122.482C43.6203 122.572 43.5203 122.672 43.5103 122.762C43.5103 122.852 43.4803 123.042 43.4703 123.142V123.192V123.242V123.282L43.5003 123.322L43.5403 123.412C43.5703 123.472 43.6003 123.532 43.6303 123.582V123.622L43.6503 123.652V123.712L43.6603 123.742V123.772L43.6803 123.802L43.7003 123.832L43.7603 123.902L43.8203 123.972L43.9503 124.102L44.0903 124.232C44.1403 124.272 44.1903 124.312 44.2503 124.362L44.3003 124.392L44.3503 124.422L44.4703 124.472L44.5903 124.522L44.6503 124.542L44.7003 124.572L44.7203 124.592L44.7403 124.612V124.632L44.7603 124.652V124.672L44.7703 124.692V124.742V124.752V124.772L44.7503 124.812L44.7103 124.892L44.6803 124.962V124.992L44.6703 125.022V125.082L44.6503 125.152L44.6203 125.292L44.5903 125.432V125.492V125.552V125.572L44.6103 125.592V125.612L44.6403 125.632H44.6603L44.6803 125.652L44.7303 125.672C44.8203 125.712 44.9003 125.762 44.9803 125.802L45.0803 125.852L45.1203 125.882L45.1503 125.912L45.2103 125.972L45.2803 126.022L45.3503 126.072L45.4303 126.112L45.7603 126.262L45.9203 126.352L46.0903 126.452H46.1103L46.1203 126.472H46.2503L46.2703 126.492L46.3103 126.532L46.3503 126.562H46.3703L46.3903 126.582L46.4703 126.612L46.5503 126.632L46.7103 126.672H46.7403C46.7403 126.672 46.7503 126.672 46.7603 126.672V124.482H46.7503V126.672C46.9303 126.672 47.4303 126.612 47.5903 126.582C47.7603 126.552 48.0503 126.412 48.2303 126.392C48.4003 126.372 48.5803 126.422 48.7603 126.392C48.9303 126.372 49.0903 126.192 49.2603 126.162C49.4303 126.132 49.5603 125.992 49.7303 125.942C49.8703 125.902 50.0903 126.012 50.2703 126.002C50.4303 125.992 50.6203 126.202 50.7803 126.192C50.9603 126.182 51.1103 125.942 51.2403 125.892C51.4203 125.852 51.8103 126.582 51.9503 126.552C52.1303 126.522 52.2303 126.102 52.3803 126.082C52.5503 126.062 52.7303 126.342 52.8903 126.332C53.0503 126.332 53.2003 126.172 53.3703 126.172C53.5203 126.172 53.6903 125.982 53.8603 125.992C54.0103 125.992 54.1703 125.432 54.3503 125.442C54.5103 125.442 54.6803 125.422 54.8403 125.442C55.0003 125.452 54.9503 125.292 55.1103 125.312C55.2703 125.322 55.4203 125.442 55.5803 125.462C55.7403 125.482 55.7703 125.612 55.9303 125.632C56.0903 125.652 56.2503 125.622 56.4103 125.632C56.5703 125.652 56.7103 125.912 56.8703 125.922C57.0303 125.942 57.2103 125.732 57.3703 125.752C57.5303 125.772 57.7003 125.602 57.8603 125.612C58.0203 125.622 58.1603 126.002 58.3203 126.012C58.4803 126.012 58.6503 125.802 58.8103 125.802C58.9703 125.802 59.1303 125.562 59.2903 125.552C59.4503 125.552 59.6103 125.782 59.7703 125.772C59.9303 125.772 60.1103 125.972 60.2703 125.962C60.4303 125.952 60.6103 125.972 60.7703 125.962C60.9303 125.942 61.0303 125.522 61.1903 125.482C61.3603 125.442 61.5403 125.442 61.7103 125.402C61.8803 125.372 61.9903 125.682 62.1603 125.652C62.3303 125.632 62.4903 125.452 62.6603 125.432C62.8303 125.412 63.0303 126.362 63.2003 126.352C63.3703 126.342 63.5403 126.312 63.7103 126.302C63.8803 126.302 64.0503 126.062 64.2303 126.052C64.3903 126.052 64.5403 126.172 64.7003 126.172C64.8603 126.172 65.0203 126.102 65.1703 126.112C65.3303 126.112 65.6103 126.112 65.7703 126.112C65.9303 126.122 66.1203 125.702 66.2803 125.712C66.4403 125.732 66.5403 126.212 66.7003 126.232C66.8603 126.252 67.0403 126.062 67.1903 126.092C67.3403 126.122 67.4603 126.352 67.6203 126.382C67.7903 126.422 67.9903 126.242 68.1603 126.262C68.3303 126.282 68.5003 126.242 68.6703 126.252C68.8403 126.252 69.0003 126.102 69.1703 126.102C69.3403 126.102 69.5103 126.582 69.6803 126.572C69.8503 126.572 70.0103 126.392 70.1803 126.382L70.6603 126.332C70.8203 126.332 70.9703 126.012 71.1303 126.012C71.2903 126.012 71.4703 126.482 71.6303 126.472C71.7903 126.462 71.9403 126.192 72.1003 126.182C72.2603 126.182 72.4203 126.132 72.5803 126.122C72.7403 126.112 72.9003 126.032 73.0603 126.022C73.2203 126.012 73.4103 126.322 73.5703 126.302C73.7303 126.282 73.8603 125.882 74.0203 125.872C74.1803 125.852 74.3503 125.942 74.5103 125.922L74.9903 125.842C75.1603 125.812 75.3403 125.942 75.5103 125.932C75.6803 125.922 75.8403 125.972 76.0103 125.972C76.1803 125.972 76.3303 126.112 76.5003 126.122C76.6703 126.132 76.8403 126.042 77.0103 126.062C77.1803 126.082 77.3503 126.012 77.5203 126.032C77.6903 126.052 77.8503 126.152 78.0203 126.172C78.1903 126.192 78.3703 126.072 78.5403 126.092C78.7103 126.102 78.8703 126.302 79.0303 126.312C79.2003 126.322 79.4603 125.852 79.6303 125.862C79.8003 125.862 79.9603 126.072 80.1303 126.082C80.3003 126.082 80.4703 125.932 80.6403 125.942C80.8103 125.952 80.9903 125.752 81.1603 125.762C81.3303 125.772 81.4503 126.252 81.6203 126.272C81.7903 126.292 81.9703 126.122 82.1403 126.152C82.3103 126.182 82.4903 126.082 82.6603 126.102L83.1603 126.142C83.3303 126.142 83.5003 126.122 83.6703 126.122C83.8403 126.122 84.0103 126.372 84.1803 126.362L84.6903 126.342C84.8603 126.342 85.0303 126.282 85.2003 126.272C85.3703 126.262 85.5403 126.342 85.7103 126.332C85.8803 126.332 86.0403 126.072 86.2103 126.062C86.3803 126.062 86.5503 126.362 86.7203 126.362C86.8903 126.362 87.0603 126.102 87.2303 126.112C87.4003 126.112 87.5903 125.632 87.7603 125.652C87.9203 125.672 88.0803 125.782 88.2403 125.802C88.4003 125.822 88.5503 125.972 88.7103 125.982C88.8703 126.002 89.0303 126.082 89.1903 126.092C89.3503 126.112 89.5303 125.942 89.6903 125.962C89.8503 125.982 90.0103 126.212 90.1703 126.232C90.2403 126.232 90.3003 126.262 90.3603 126.292C90.4103 126.332 90.4503 126.372 90.5003 126.382C90.5803 126.402 90.6503 126.632 90.7403 126.652C90.8203 126.662 90.9103 126.402 91.0003 126.422C91.0803 126.432 91.4103 126.532 91.4903 126.542C91.5703 126.542 91.6503 126.642 91.7403 126.652C91.8203 126.652 91.9903 126.692 92.0703 126.692C92.2403 126.692 92.7403 126.632 92.8903 126.602C93.0603 126.572 93.3603 126.432 93.5303 126.412C93.7003 126.392 93.8803 126.442 94.0603 126.422C94.2303 126.402 94.3903 126.232 94.5603 126.202C94.7303 126.172 94.8603 126.032 95.0303 125.982C95.1703 125.942 95.3903 126.052 95.5703 126.042C95.7303 126.042 95.9103 126.252 96.0803 126.242C96.2603 126.232 96.4103 125.992 96.5403 125.942C96.7203 125.912 97.1103 126.632 97.2503 126.602C97.4303 126.572 97.5303 126.152 97.6803 126.132C97.8503 126.112 98.0303 126.392 98.1903 126.382C98.3503 126.382 98.5003 126.222 98.6703 126.222C98.8203 126.222 98.9903 126.032 99.1603 126.042C99.3103 126.042 99.4703 125.482 99.6503 125.492C99.8103 125.492 99.9803 125.482 100.14 125.492C100.3 125.502 100.25 125.342 100.41 125.362C100.57 125.382 100.72 125.492 100.88 125.512C101.04 125.532 101.07 125.662 101.23 125.682C101.39 125.702 101.55 125.672 101.72 125.682C101.88 125.702 102.02 125.962 102.18 125.972C102.34 125.992 102.52 125.792 102.68 125.802C102.84 125.812 103.01 125.652 103.18 125.662C103.34 125.672 103.48 126.052 103.64 126.062C103.8 126.062 103.97 125.852 104.14 125.852C104.3 125.852 104.46 125.602 104.62 125.602C104.78 125.602 104.94 125.822 105.1 125.822C105.26 125.822 105.44 126.022 105.6 126.012C105.76 125.992 105.94 126.022 106.1 126.002C106.26 125.972 106.36 125.552 106.52 125.522C106.69 125.482 106.87 125.472 107.04 125.442C107.21 125.412 107.32 125.722 107.5 125.692C107.67 125.662 107.83 125.492 108 125.472C108.17 125.452 108.37 126.402 108.55 126.392C108.72 126.382 108.89 126.342 109.07 126.342C109.24 126.342 109.41 126.092 109.58 126.092C109.74 126.092 109.9 126.202 110.05 126.212C110.21 126.212 110.37 126.142 110.52 126.142C110.68 126.142 110.96 126.132 111.12 126.142C111.28 126.152 111.47 125.722 111.63 125.742C111.79 125.762 111.89 126.242 112.05 126.262C112.21 126.282 112.39 126.092 112.54 126.112C112.69 126.142 112.81 126.362 112.97 126.392C113.14 126.422 113.34 126.252 113.51 126.272C113.68 126.292 113.85 126.252 114.02 126.252C114.19 126.252 114.35 126.092 114.52 126.092C114.69 126.092 114.87 126.572 115.03 126.562C115.2 126.562 115.36 126.372 115.53 126.372L116.01 126.322C116.17 126.322 116.32 126.002 116.48 125.992C116.64 125.992 116.83 126.462 116.99 126.452C117.15 126.452 117.3 126.172 117.46 126.162C117.62 126.152 117.78 126.112 117.94 126.102C118.1 126.092 118.26 126.012 118.42 126.002C118.58 125.992 118.77 126.302 118.93 126.282C119.09 126.262 119.21 125.862 119.37 125.842C119.53 125.822 119.7 125.912 119.86 125.892L120.34 125.812C120.51 125.782 120.69 125.912 120.86 125.892C121.03 125.872 121.19 125.932 121.36 125.932C121.53 125.932 121.69 126.062 121.86 126.072C122.03 126.072 122.2 125.992 122.37 126.002C122.54 126.012 122.71 125.952 122.88 125.962C123.05 125.982 123.21 126.082 123.38 126.092C123.55 126.112 123.73 125.992 123.9 126.002C124.07 126.012 124.23 126.212 124.4 126.222C124.57 126.222 124.83 125.762 124.99 125.772C125.16 125.772 125.32 125.982 125.49 125.982C125.66 125.982 125.83 125.832 126 125.842C126.17 125.842 126.35 125.652 126.52 125.662C126.69 125.672 126.82 126.142 126.99 126.162C127.16 126.182 127.34 126.012 127.51 126.032C127.68 126.062 127.86 125.962 128.03 125.972L128.53 126.002C128.7 126.002 128.87 125.982 129.04 125.972C129.21 125.962 129.39 126.212 129.56 126.212L130.07 126.182C130.24 126.172 130.41 126.112 130.58 126.102C130.75 126.092 130.92 126.172 131.09 126.162C131.26 126.152 131.42 125.902 131.58 125.892C131.75 125.892 131.93 126.192 132.1 126.192C132.27 126.192 132.44 125.932 132.6 125.942C132.77 125.942 132.95 125.462 133.12 125.482C133.28 125.492 133.44 125.612 133.6 125.622C133.76 125.642 133.91 125.782 134.07 125.802C134.23 125.822 134.39 125.892 134.55 125.912C134.71 125.932 134.89 125.762 135.05 125.772C135.21 125.792 135.38 126.022 135.54 126.042C135.61 126.042 135.67 126.072 135.73 126.102C135.78 126.142 135.83 126.182 135.87 126.192C135.95 126.202 136.03 126.442 136.11 126.452C136.19 126.462 136.28 126.202 136.36 126.212C136.44 126.222 136.77 126.322 136.85 126.322C136.93 126.322 137.02 126.422 137.1 126.432C137.18 126.432 137.35 126.462 137.43 126.462L137.4 124.282L137.43 126.452H137.51C137.51 126.452 137.57 126.452 137.6 126.442C137.65 126.442 137.7 126.422 137.75 126.412L137.92 126.372C138.03 126.342 138.14 126.312 138.23 126.282H138.3L138.36 126.262H138.48L138.54 126.252H138.6L138.66 126.232L138.72 126.212L138.85 126.152L138.97 126.092C139.05 126.052 139.13 126.002 139.21 125.962C139.29 125.912 139.37 125.862 139.45 125.812L139.57 125.732L139.68 125.652L139.73 125.602L139.78 125.552L139.86 125.432L139.94 125.312L139.98 125.252L140.03 125.202L140.06 125.182L140.09 125.162H140.13L140.17 125.142H140.26L140.35 125.122H140.44L140.53 125.102H140.57L140.61 125.072L140.64 125.052H140.65L140.66 125.022L140.71 124.972L140.77 124.922L140.9 124.832L140.97 124.782L141.03 124.732L141.09 124.682L141.11 124.652L141.13 124.622L141.15 124.592V124.552L141.17 124.512V124.472V124.382V124.282L141.15 124.182V124.092V124.052V124.012L141.16 123.972V123.932L141.2 123.862L141.22 123.792L141.25 123.652L141.28 123.502L141.3 123.432L141.32 123.362L141.35 123.292L141.39 123.222L141.47 123.092L141.55 122.962L141.58 122.892L141.6 122.822L141.63 122.682L141.65 122.532C141.66 122.432 141.67 122.332 141.69 122.232C141.69 122.212 141.69 122.192 141.69 122.182V122.172V122.162C141.69 122.162 141.69 122.142 141.69 122.112C141.69 121.932 141.63 121.402 141.6 121.232C141.57 121.042 141.43 120.732 141.41 120.552C141.39 120.362 141.44 120.172 141.42 119.992C141.4 119.802 141.23 119.642 141.2 119.462C141.17 119.282 141.03 119.142 140.98 118.962C140.94 118.812 141.05 118.582 141.04 118.392C141.04 118.222 141.25 118.022 141.24 117.852C141.23 117.662 140.99 117.502 140.94 117.352C140.91 117.162 141.63 116.752 141.6 116.592C141.57 116.402 141.15 116.292 141.13 116.132C141.11 115.952 141.39 115.752 141.38 115.582C141.38 115.412 141.22 115.252 141.22 115.072C141.22 114.912 141.03 114.732 141.04 114.542C141.04 114.382 140.48 114.212 140.49 114.022C140.49 113.852 140.48 113.672 140.49 113.502C140.5 113.332 140.34 113.382 140.36 113.212C140.38 113.042 140.49 112.882 140.51 112.712C140.53 112.542 140.66 112.512 140.68 112.342C140.7 112.172 140.67 111.992 140.68 111.822C140.7 111.652 140.96 111.502 140.97 111.332C140.99 111.162 140.79 110.972 140.8 110.792C140.81 110.612 140.65 110.432 140.66 110.262C140.67 110.092 141.05 109.942 141.06 109.762C141.06 109.592 140.85 109.402 140.86 109.232C140.86 109.062 140.62 108.882 140.62 108.712C140.62 108.542 140.85 108.362 140.84 108.192C140.84 108.022 141.04 107.832 141.03 107.652C141.02 107.482 141.05 107.292 141.03 107.122C141.01 106.952 140.59 106.842 140.55 106.672C140.51 106.482 140.51 106.292 140.48 106.112C140.45 105.922 140.76 105.812 140.74 105.622C140.72 105.432 140.54 105.262 140.53 105.082C140.51 104.902 141.46 104.692 141.45 104.502C141.44 104.322 141.41 104.142 141.4 103.952C141.4 103.772 141.16 103.592 141.15 103.402C141.15 103.232 141.27 103.062 141.27 102.902C141.27 102.732 141.2 102.562 141.21 102.392C141.21 102.222 141.21 101.922 141.21 101.752C141.22 101.582 140.8 101.372 140.81 101.212C140.83 101.042 141.31 100.932 141.33 100.762C141.35 100.592 141.16 100.402 141.19 100.232C141.22 100.062 141.45 99.942 141.48 99.772C141.52 99.592 141.34 99.382 141.36 99.202C141.37 99.122 141.36 99.002 141.36 98.952C141.36 98.912 141.35 98.882 141.36 98.842C141.38 98.772 141.23 98.672 141.25 98.582C141.28 98.492 141.75 98.592 141.76 98.562C141.78 98.512 141.66 98.372 141.69 98.312C141.72 98.262 141.74 98.192 141.78 98.132C141.83 98.082 141.63 97.832 141.81 97.702C141.94 97.602 142.39 97.872 142.52 97.772C142.65 97.672 142.62 97.362 142.75 97.262C142.88 97.162 142.99 97.032 143.13 96.932C143.26 96.832 143.35 96.672 143.48 96.562C143.61 96.452 143.95 96.602 144.08 96.492C144.21 96.382 144.08 95.982 144.22 95.872C144.35 95.762 144.54 95.732 144.67 95.622L145.05 95.272C145.19 95.152 145.42 95.142 145.57 95.032C145.72 94.922 145.89 94.862 146.05 94.762C146.2 94.662 146.42 94.672 146.58 94.572C146.74 94.472 146.84 94.292 147.01 94.192C147.17 94.092 147.29 93.922 147.46 93.822C147.63 93.722 147.83 93.692 148 93.582C148.17 93.472 148.26 93.252 148.42 93.142C148.58 93.032 148.86 93.052 149 92.932C149.15 92.812 149.05 92.262 149.19 92.142C149.33 92.022 149.6 92.042 149.74 91.922C149.88 91.802 149.92 91.552 150.06 91.432C150.2 91.312 150.21 91.032 150.36 90.912C150.5 90.792 150.94 91.032 151.1 90.912C151.24 90.792 151.25 90.512 151.4 90.392C151.55 90.272 151.61 90.052 151.75 89.922L152.15 89.522C152.28 89.382 152.38 89.222 152.51 89.082C152.64 88.942 152.96 88.952 153.08 88.802C153.2 88.652 153.3 88.482 153.41 88.322C153.52 88.162 153.59 87.972 153.7 87.812C153.81 87.652 153.99 87.542 154.09 87.382C154.2 87.222 154.1 86.932 154.21 86.772C154.32 86.612 154.69 86.632 154.8 86.482C154.9 86.312 154.79 86.012 154.89 85.852C155 85.692 154.7 85.252 154.81 85.102C154.92 84.962 155.1 84.872 155.21 84.722C155.32 84.582 155.53 84.512 155.64 84.362C155.75 84.212 155.91 84.112 156.02 83.962C156.12 83.812 156.06 83.552 156.16 83.402C156.26 83.252 156.55 83.192 156.64 83.042C156.68 82.982 156.73 82.922 156.79 82.872C156.85 82.842 156.91 82.812 156.94 82.762C157 82.682 157.25 82.712 157.3 82.632C157.35 82.552 157.17 82.352 157.22 82.272C157.27 82.192 157.53 81.902 157.57 81.822C157.61 81.742 157.74 81.692 157.78 81.602C157.82 81.522 157.91 81.342 157.96 81.262C158.03 81.082 158.19 80.522 158.23 80.352C158.28 80.152 158.27 79.792 158.33 79.612C158.39 79.422 158.5 79.242 158.54 79.052C158.58 78.862 158.47 78.632 158.49 78.442C158.52 78.252 158.43 78.062 158.43 77.872C158.43 77.712 158.62 77.512 158.66 77.312C158.7 77.132 158.98 76.992 159.01 76.812C159.04 76.612 158.84 76.392 158.83 76.232C158.83 76.032 159.64 75.762 159.65 75.592C159.66 75.392 159.28 75.182 159.3 75.012C159.32 74.822 159.64 74.672 159.67 74.492C159.69 74.312 159.56 74.112 159.59 73.922C159.62 73.752 159.45 73.542 159.49 73.342C159.52 73.172 158.98 72.922 159.02 72.732C159.05 72.562 159.06 72.372 159.09 72.202C159.12 72.032 158.97 72.062 159 71.892C159.03 71.722 159.15 71.562 159.18 71.392C159.21 71.222 159.35 71.202 159.38 71.022C159.41 70.842 159.39 70.662 159.42 70.482C159.45 70.302 159.72 70.162 159.75 69.982C159.78 69.802 159.59 69.592 159.6 69.412C159.61 69.232 159.45 69.042 159.46 68.862C159.47 68.682 159.85 68.522 159.86 68.342L160 68.422ZM117.67 109.622C117.58 109.642 117.31 109.692 117.23 109.712C117.14 109.732 116.95 109.852 116.85 109.842C116.75 109.842 116.66 109.772 116.56 109.762C116.46 109.752 116.31 109.892 116.2 109.872C116.09 109.872 115.96 109.952 115.83 109.962C115.73 109.962 115.65 109.792 115.54 109.742C115.44 109.702 115.45 109.442 115.36 109.402C115.26 109.342 115.04 109.482 114.93 109.462C114.8 109.412 115.07 108.692 114.99 108.652C114.89 108.602 114.56 108.842 114.47 108.772C114.38 108.702 114.5 108.422 114.43 108.352C114.35 108.282 114.16 108.312 114.11 108.212C114.06 108.132 113.85 108.152 113.79 108.052C113.75 107.972 113.17 108.172 113.14 108.032C113.1 107.922 113.03 107.822 113 107.712C112.97 107.602 112.83 107.692 112.8 107.572C112.76 107.462 112.87 107.312 112.85 107.202C112.84 107.082 112.97 107.032 112.96 106.922C112.94 106.812 112.89 106.702 112.91 106.592C112.91 106.472 113.17 106.362 113.18 106.252C113.18 106.152 112.98 106.032 113.01 105.912C113.03 105.802 112.88 105.662 112.89 105.552C112.9 105.432 113.3 105.382 113.33 105.272C113.36 105.162 113.17 105.002 113.19 104.882C113.21 104.772 113.01 104.592 113.05 104.462C113.09 104.342 113.34 104.282 113.37 104.172C113.39 104.052 113.65 103.992 113.68 103.872C113.71 103.752 113.79 103.632 113.81 103.512C113.83 103.392 113.49 103.142 113.51 103.012C113.54 102.872 113.6 102.732 113.63 102.592C113.66 102.442 113.99 102.512 114.03 102.382C114.08 102.242 113.99 102.042 114.05 101.912C114.1 101.772 115.01 102.122 115.07 102.002C115.13 101.882 115.18 101.742 115.25 101.622C115.32 101.502 115.2 101.252 115.28 101.132C115.35 101.022 115.52 100.982 115.6 100.872C115.68 100.762 115.7 100.612 115.78 100.512C115.86 100.412 115.99 100.202 116.09 100.102C116.18 100.002 115.94 99.612 116.04 99.512C116.14 99.412 116.58 99.632 116.68 99.542C116.78 99.442 116.72 99.212 116.84 99.102C116.95 99.002 117.2 99.042 117.32 98.942C117.45 98.832 117.42 98.572 117.53 98.452C117.64 98.332 117.71 98.172 117.81 98.052C117.91 97.922 117.87 97.702 117.97 97.572C118.06 97.442 118.54 97.572 118.62 97.432C118.7 97.302 118.62 97.072 118.7 96.942C118.77 96.812 118.82 96.672 118.89 96.542C118.96 96.412 118.77 96.132 118.84 96.002C118.91 95.872 119.4 95.972 119.47 95.842C119.54 95.712 119.38 95.452 119.44 95.322C119.51 95.192 119.55 95.042 119.61 94.912C119.67 94.772 119.68 94.612 119.74 94.482C119.8 94.342 120.16 94.342 120.22 94.202C120.28 94.062 119.98 93.772 120.04 93.632C120.09 93.492 120.25 93.392 120.3 93.252L120.44 92.822C120.49 92.672 120.67 92.572 120.73 92.422C120.79 92.272 120.9 92.162 120.97 92.012C121.04 91.872 121.22 91.792 121.3 91.652C121.38 91.512 121.36 91.322 121.44 91.182C121.52 91.042 121.52 90.862 121.6 90.722C121.68 90.582 121.83 90.472 121.9 90.322C121.97 90.172 121.93 89.972 122 89.822C122.07 89.672 122.3 89.582 122.36 89.432C122.43 89.272 122.05 88.892 122.1 88.732C122.16 88.582 122.39 88.472 122.42 88.272C122.46 88.082 122.33 87.852 122.37 87.672C122.41 87.482 122.23 87.252 122.26 87.132C122.29 86.992 122.77 86.942 122.8 86.802C122.84 86.682 122.68 86.512 122.73 86.392C122.77 86.272 122.7 86.122 122.74 86.002L122.86 85.662C122.9 85.552 122.9 85.432 122.94 85.322C122.98 85.212 123.25 85.192 123.28 85.092C123.31 84.992 123.35 84.892 123.39 84.802C123.42 84.702 123.43 84.592 123.47 84.502C123.51 84.402 123.64 84.372 123.69 84.282C123.73 84.192 123.61 83.972 123.67 83.882C123.73 83.792 124.04 83.932 124.1 83.862C124.16 83.792 124.08 83.532 124.17 83.462C124.25 83.392 124.06 82.942 124.17 82.882C124.27 82.822 124.43 82.862 124.53 82.812C124.64 82.772 124.8 82.852 124.9 82.812C125 82.782 125.13 82.812 125.23 82.782C125.33 82.752 125.38 82.562 125.49 82.542C125.6 82.522 125.77 82.712 125.87 82.702C125.91 82.702 125.96 82.702 126 82.722C126.04 82.752 126.08 82.782 126.11 82.792C126.16 82.792 126.25 83.022 126.3 83.022C126.35 83.022 126.36 82.762 126.42 82.762C126.47 82.762 126.68 82.842 126.73 82.842C126.78 82.842 126.84 82.942 126.89 82.942C126.94 82.942 127.04 82.972 127.09 82.972C127.19 82.972 127.5 82.912 127.59 82.912C127.7 82.892 127.9 82.772 128.01 82.782C128.12 82.782 128.22 82.852 128.33 82.862C128.44 82.882 128.59 82.722 128.7 82.742C128.81 82.752 128.95 82.652 129.07 82.642C129.17 82.642 129.26 82.802 129.37 82.852C129.47 82.902 129.47 83.142 129.56 83.182C129.66 83.232 129.87 83.092 129.98 83.112C130.11 83.162 129.84 83.872 129.91 83.902C130 83.952 130.34 83.692 130.42 83.752C130.51 83.822 130.37 84.092 130.44 84.152C130.51 84.212 130.68 84.202 130.74 84.292C130.8 84.362 131 84.352 131.06 84.452C131.11 84.532 131.65 84.362 131.7 84.492C131.75 84.602 131.81 84.702 131.84 84.822C131.87 84.932 132.01 84.852 132.04 84.972C132.06 85.092 131.97 85.232 131.99 85.352C132.01 85.462 131.87 85.522 131.87 85.652C131.87 85.782 131.92 85.902 131.92 86.022C131.92 86.152 131.68 86.282 131.68 86.402C131.69 86.522 131.88 86.642 131.87 86.772C131.86 86.902 132.03 87.032 132.02 87.162C132.02 87.292 131.64 87.402 131.63 87.522C131.63 87.642 131.82 87.792 131.81 87.922C131.79 88.052 132.03 88.202 132.02 88.332C132.01 88.462 131.77 88.572 131.77 88.702C131.77 88.832 131.53 88.952 131.52 89.082C131.52 89.212 131.46 89.352 131.46 89.482C131.46 89.612 131.86 89.772 131.87 89.912C131.89 90.062 131.86 90.212 131.85 90.362C131.85 90.512 131.52 90.532 131.51 90.682C131.5 90.832 131.64 91.002 131.62 91.152C131.6 91.302 130.65 91.212 130.61 91.352C130.58 91.492 130.57 91.632 130.53 91.772C130.49 91.912 130.68 92.112 130.64 92.252C130.6 92.382 130.46 92.472 130.41 92.592C130.36 92.712 130.39 92.862 130.33 92.992C130.28 93.112 130.21 93.342 130.15 93.462C130.09 93.582 130.44 93.892 130.37 94.012C130.3 94.132 129.82 94.032 129.75 94.152C129.68 94.262 129.8 94.482 129.72 94.592C129.64 94.702 129.4 94.712 129.32 94.822C129.24 94.942 129.32 95.162 129.25 95.292C129.17 95.412 129.15 95.562 129.08 95.692C129.01 95.822 129.1 96.012 129.04 96.152C128.98 96.282 128.49 96.212 128.43 96.342C128.37 96.472 128.47 96.682 128.41 96.812L128.27 97.202C128.21 97.332 128.44 97.582 128.38 97.712C128.32 97.842 127.82 97.762 127.77 97.882C127.71 98.012 127.89 98.252 127.84 98.382C127.78 98.512 127.75 98.652 127.7 98.782C127.64 98.912 127.64 99.062 127.59 99.192C127.53 99.322 127.18 99.312 127.13 99.442C127.08 99.572 127.37 99.862 127.32 99.992C127.27 100.122 127.11 100.202 127.06 100.342L126.91 100.742C126.86 100.882 126.67 100.952 126.61 101.092C126.54 101.222 126.42 101.322 126.35 101.442C126.27 101.572 126.09 101.612 126 101.732C125.91 101.852 125.91 102.022 125.82 102.142C125.73 102.262 125.7 102.422 125.61 102.532C125.52 102.642 125.36 102.712 125.26 102.822C125.16 102.932 125.17 103.132 125.08 103.252C124.99 103.372 124.75 103.372 124.66 103.492C124.57 103.612 124.83 104.072 124.74 104.192C124.65 104.312 124.4 104.322 124.32 104.442C124.23 104.562 124.28 104.782 124.19 104.892C124.1 105.012 124.19 105.252 124.09 105.362C124 105.472 123.55 105.302 123.45 105.402C123.35 105.502 123.41 105.732 123.3 105.832C123.2 105.932 123.19 106.112 123.09 106.222L122.81 106.532C122.72 106.642 122.66 106.772 122.57 106.872C122.48 106.982 122.2 106.932 122.12 107.042L121.87 107.362C121.79 107.472 121.74 107.612 121.66 107.712C121.58 107.812 121.42 107.852 121.34 107.962C121.26 108.062 121.34 108.322 121.25 108.422C121.16 108.522 120.85 108.382 120.76 108.472C120.67 108.552 120.73 108.822 120.63 108.902C120.53 108.982 120.71 109.452 120.59 109.512C120.48 109.572 120.32 109.542 120.21 109.602C120.1 109.662 119.92 109.582 119.82 109.622C119.71 109.662 119.58 109.652 119.47 109.692C119.36 109.722 119.32 109.922 119.22 109.952C119.11 109.992 118.92 109.812 118.82 109.822C118.78 109.822 118.73 109.822 118.69 109.802C118.65 109.772 118.61 109.742 118.58 109.742C118.53 109.742 118.42 109.532 118.38 109.532C118.33 109.532 118.34 109.792 118.29 109.782C118.24 109.782 118.04 109.722 117.99 109.722C117.94 109.722 117.89 109.622 117.84 109.622C117.79 109.622 117.7 109.592 117.66 109.602L117.67 109.622ZM92.7203 109.562C92.6303 109.562 92.3503 109.612 92.2603 109.622C92.1603 109.642 91.9803 109.752 91.8803 109.752C91.7803 109.752 91.6903 109.682 91.5903 109.672C91.4903 109.672 91.3503 109.802 91.2403 109.802C91.1303 109.802 91.0103 109.892 90.8903 109.902C90.7903 109.912 90.7203 109.742 90.6103 109.702C90.5103 109.662 90.5203 109.412 90.4303 109.382C90.3303 109.342 90.1303 109.482 90.0303 109.472C89.9103 109.432 90.1603 108.712 90.0903 108.692C90.0003 108.652 89.6703 108.922 89.5903 108.872C89.5003 108.812 89.6203 108.532 89.5503 108.472C89.4803 108.412 89.3103 108.442 89.2403 108.362C89.1903 108.292 88.9703 108.322 88.9103 108.222C88.8603 108.142 88.3303 108.372 88.2703 108.252C88.2203 108.152 88.1403 108.062 88.0903 107.952C88.0403 107.842 87.9203 107.952 87.8903 107.862C87.8603 107.772 87.9403 107.642 87.9203 107.552C87.9103 107.462 88.0303 107.412 88.0303 107.322C88.0303 107.242 87.9803 107.162 87.9903 107.072C87.9903 106.972 88.2603 106.942 88.2703 106.782C88.2903 106.652 88.0803 106.502 88.1003 106.362C88.1103 106.232 87.9503 106.082 87.9603 105.952C87.9703 105.812 88.3503 105.692 88.3603 105.562C88.3603 105.422 88.1503 105.282 88.1503 105.152C88.1503 105.012 87.9003 104.882 87.9003 104.752C87.9003 104.612 88.1203 104.482 88.1203 104.342C88.1203 104.202 88.3203 104.052 88.3103 103.922C88.2903 103.782 88.3203 103.642 88.3003 103.502C88.2703 103.362 87.8503 103.282 87.8203 103.152C87.7803 103.012 87.7703 102.852 87.7403 102.712C87.7103 102.572 88.0203 102.472 87.9903 102.332C87.9703 102.192 87.7903 102.052 87.7703 101.912C87.7503 101.772 88.7003 101.592 88.6903 101.452C88.6803 101.312 88.6403 101.172 88.6403 101.022C88.6403 100.882 88.3903 100.742 88.3903 100.592C88.3903 100.462 88.5103 100.332 88.5103 100.192C88.5103 100.062 88.4403 99.932 88.4403 99.792C88.4403 99.662 88.4303 99.422 88.4403 99.292C88.4503 99.162 88.0203 99.002 88.0403 98.872C88.0603 98.742 88.5403 98.652 88.5603 98.522C88.5803 98.392 88.3903 98.242 88.4203 98.112C88.4503 97.982 88.6703 97.882 88.7103 97.752C88.7403 97.612 88.5703 97.442 88.5903 97.302C88.6103 97.162 88.5703 97.022 88.5803 96.882C88.5803 96.742 88.4203 96.602 88.4203 96.462C88.4203 96.322 88.9003 96.172 88.8903 96.032C88.8803 95.892 88.7003 95.752 88.7003 95.612L88.6503 95.212C88.6503 95.072 88.3303 94.952 88.3203 94.822C88.3203 94.682 88.7903 94.532 88.7803 94.392C88.7803 94.252 88.5003 94.132 88.4903 94.002C88.4803 93.862 88.4403 93.732 88.4303 93.602C88.4203 93.472 88.3403 93.332 88.3303 93.202C88.3203 93.072 88.6303 92.912 88.6103 92.772C88.5903 92.642 88.1903 92.532 88.1703 92.402C88.1503 92.272 88.2403 92.122 88.2203 91.992L88.1403 91.592C88.1103 91.452 88.2403 91.302 88.2203 91.162C88.2003 91.022 88.2603 90.882 88.2603 90.742C88.2603 90.602 88.3903 90.472 88.4003 90.322C88.4003 90.182 88.3203 90.042 88.3303 89.902C88.3503 89.762 88.2803 89.612 88.3003 89.472C88.3203 89.332 88.4203 89.192 88.4303 89.052C88.4503 88.912 88.3303 88.762 88.3403 88.622C88.3503 88.482 88.5503 88.342 88.5603 88.202C88.5603 88.062 88.1003 87.842 88.1103 87.702C88.1103 87.562 88.3203 87.422 88.3203 87.282C88.3203 87.142 88.1703 86.992 88.1803 86.852C88.1803 86.712 87.9903 86.562 88.0003 86.422C88.0203 86.302 88.4803 86.122 88.5103 86.082C88.5403 86.032 88.3703 85.952 88.4003 85.882C88.4503 85.802 88.3703 85.682 88.4003 85.592C88.4403 85.502 88.4903 85.422 88.5203 85.332C88.5603 85.242 88.5703 85.142 88.6103 85.052C88.6503 84.962 88.9203 84.982 88.9503 84.892L89.0703 84.632C89.1103 84.542 89.1303 84.442 89.1803 84.352C89.2203 84.262 89.3603 84.232 89.4103 84.152C89.4603 84.072 89.3503 83.832 89.4103 83.752C89.4803 83.662 89.7703 83.812 89.8403 83.752C89.9103 83.682 89.8203 83.422 89.9103 83.362C89.9903 83.302 89.8003 82.842 89.9103 82.792C90.0103 82.742 90.1503 82.782 90.2603 82.742C90.3603 82.702 90.5103 82.782 90.6103 82.752C90.7103 82.722 90.8303 82.752 90.9203 82.732C91.0203 82.712 91.0603 82.522 91.1603 82.502C91.2603 82.492 91.4203 82.692 91.5103 82.672C91.5503 82.672 91.5903 82.672 91.6303 82.702C91.6603 82.732 91.7003 82.772 91.7303 82.772C91.7803 82.772 91.8603 83.002 91.9003 83.012C91.9403 83.012 91.9603 82.762 92.0103 82.762C92.0603 82.762 92.2603 82.852 92.3103 82.852C92.3603 82.852 92.4103 82.942 92.4603 82.942C92.5103 82.942 92.6003 82.962 92.6503 82.962C92.7403 82.962 93.0303 82.902 93.1203 82.902C93.2203 82.892 93.4103 82.762 93.5103 82.772C93.6103 82.772 93.7003 82.842 93.8103 82.852C93.9103 82.852 94.0503 82.722 94.1603 82.722C94.2703 82.722 94.3903 82.622 94.5103 82.612C94.6003 82.612 94.6903 82.752 94.7903 82.802C94.8903 82.842 94.8803 83.082 94.9703 83.122C95.0603 83.172 95.2703 83.012 95.3703 83.032C95.5003 83.062 95.2303 83.792 95.3103 83.812C95.4003 83.842 95.7203 83.582 95.8003 83.632C95.8903 83.692 95.7703 83.962 95.8303 84.022C95.8903 84.082 96.0703 84.042 96.1303 84.132C96.1803 84.202 96.3903 84.172 96.4503 84.262C96.5003 84.332 97.0203 84.122 97.0803 84.242C97.1303 84.342 97.2103 84.432 97.2403 84.542C97.2803 84.642 97.4103 84.542 97.4403 84.662C97.4803 84.772 97.4003 84.912 97.4203 85.022C97.4403 85.132 97.3203 85.192 97.3403 85.302C97.3403 85.412 97.4103 85.512 97.4203 85.622C97.4403 85.732 97.1903 85.872 97.1903 85.972C97.1903 86.082 97.4103 86.142 97.4103 86.292C97.4103 86.422 97.5903 86.542 97.5903 86.672C97.5903 86.802 97.2303 86.952 97.2303 87.082C97.2303 87.212 97.4603 87.332 97.4703 87.462C97.4703 87.592 97.7303 87.702 97.7403 87.832C97.7403 87.962 97.5303 88.112 97.5503 88.242C97.5603 88.372 97.3603 88.532 97.3803 88.652C97.4003 88.782 97.3803 88.932 97.4003 89.052C97.4303 89.182 97.8503 89.252 97.8903 89.372C97.9303 89.512 97.9403 89.662 97.9703 89.802C98.0003 89.942 97.7003 90.042 97.7203 90.182C97.7503 90.322 97.9203 90.452 97.9403 90.592C97.9603 90.732 97.0103 90.902 97.0203 91.042C97.0303 91.182 97.0603 91.322 97.0703 91.462C97.0703 91.602 97.3103 91.742 97.3103 91.882C97.3103 92.012 97.1903 92.142 97.1803 92.262C97.1803 92.392 97.2503 92.522 97.2403 92.652C97.2403 92.782 97.2403 93.012 97.2203 93.142C97.2003 93.272 97.6303 93.442 97.6003 93.572C97.5803 93.702 97.0903 93.772 97.0603 93.902C97.0303 94.032 97.2203 94.192 97.1903 94.312C97.1603 94.442 96.9303 94.532 96.8903 94.652C96.8503 94.792 97.0203 94.962 96.9903 95.102C96.9603 95.242 96.9903 95.382 96.9903 95.522C96.9803 95.662 97.1303 95.802 97.1203 95.952C97.1203 96.092 96.6303 96.212 96.6303 96.352C96.6303 96.492 96.8003 96.642 96.8003 96.782L96.8303 97.192C96.8303 97.332 97.1303 97.472 97.1303 97.602C97.1303 97.742 96.6503 97.872 96.6503 98.002C96.6503 98.142 96.9203 98.272 96.9203 98.412C96.9203 98.552 96.9603 98.682 96.9603 98.822C96.9603 98.962 97.0403 99.092 97.0403 99.232C97.0403 99.372 96.7303 99.512 96.7403 99.652C96.7503 99.792 97.1503 99.912 97.1603 100.042C97.1703 100.182 97.0803 100.322 97.0903 100.462L97.1503 100.872C97.1703 101.012 97.0403 101.162 97.0503 101.312C97.0503 101.452 97.0003 101.592 97.0003 101.742C97.0003 101.882 96.8603 102.022 96.8503 102.162C96.8403 102.302 96.9203 102.452 96.9103 102.602C96.8903 102.752 96.9603 102.902 96.9403 103.042C96.9203 103.192 96.8203 103.332 96.8103 103.472C96.7903 103.622 96.9103 103.772 96.9003 103.922C96.8903 104.072 96.6903 104.212 96.6903 104.362C96.6903 104.512 97.1603 104.722 97.1503 104.872C97.1503 105.022 96.9503 105.162 96.9503 105.312C96.9503 105.462 97.1103 105.602 97.1103 105.752C97.1103 105.902 97.3203 106.042 97.3203 106.192C97.3203 106.262 97.2003 106.342 97.0903 106.412C96.9703 106.472 96.8503 106.492 96.8403 106.522C96.8203 106.572 96.9903 106.652 96.9603 106.712C96.9303 106.772 97.0103 106.852 96.9803 106.912C96.9503 106.972 96.9203 107.012 96.8603 107.132C96.8103 107.222 96.8103 107.342 96.7603 107.432C96.7103 107.532 96.4403 107.512 96.4103 107.612L96.2803 107.892C96.2403 107.982 96.2203 108.092 96.1703 108.182C96.1203 108.272 95.9903 108.302 95.9403 108.382C95.8903 108.472 96.0103 108.702 95.9403 108.782C95.8703 108.872 95.5803 108.722 95.5103 108.782C95.4403 108.852 95.5303 109.112 95.4403 109.172C95.3603 109.222 95.5503 109.692 95.4403 109.742C95.3403 109.792 95.2003 109.752 95.1003 109.792C95.0003 109.832 94.8403 109.742 94.7503 109.782C94.6503 109.812 94.5303 109.782 94.4303 109.802C94.3403 109.832 94.2903 110.012 94.1903 110.032C94.0903 110.062 93.9203 109.852 93.8303 109.862C93.7903 109.862 93.7503 109.862 93.7103 109.842C93.6803 109.812 93.6403 109.772 93.6103 109.772C93.5603 109.772 93.4703 109.542 93.4303 109.532C93.3903 109.532 93.3803 109.792 93.3303 109.792C93.2803 109.792 93.0903 109.712 93.0403 109.712C92.9903 109.712 92.9403 109.612 92.9003 109.612C92.8503 109.612 92.7603 109.582 92.7203 109.582V111.772H92.7303V109.582L92.7203 109.562ZM67.2603 109.672C67.1603 109.672 66.9703 109.792 66.8603 109.782C66.7503 109.762 66.6603 109.682 66.5603 109.672C66.4503 109.672 66.3003 109.782 66.1803 109.762C66.0703 109.742 65.9203 109.832 65.7903 109.832C65.6803 109.832 65.6003 109.642 65.4903 109.582C65.3803 109.532 65.3903 109.282 65.2903 109.222C65.1803 109.162 64.9503 109.292 64.8403 109.272C64.7003 109.222 64.9303 108.462 64.8403 108.422C64.7203 108.372 64.3903 108.632 64.2903 108.562C64.1803 108.492 64.2703 108.182 64.1803 108.112C64.0903 108.032 63.9003 108.052 63.8103 107.952C63.7303 107.862 63.5003 107.902 63.4103 107.792C63.3403 107.702 62.8203 107.972 62.7303 107.852C62.6503 107.752 62.5403 107.652 62.4603 107.532C62.3903 107.422 62.2903 107.552 62.2103 107.432C62.1403 107.322 62.1503 107.142 62.0803 107.022C62.0103 106.902 62.1103 106.802 62.0403 106.682C61.9703 106.562 61.8603 106.472 61.8003 106.342C61.7303 106.222 61.8803 105.972 61.8103 105.852C61.7503 105.732 61.4903 105.712 61.4303 105.592C61.3603 105.472 61.1403 105.442 61.0703 105.312C61.0003 105.192 61.2503 104.872 61.1803 104.752C61.1103 104.622 60.8403 104.622 60.7703 104.492C60.7003 104.372 60.4103 104.382 60.3303 104.262C60.2503 104.142 60.3603 103.892 60.2703 103.772C60.1903 103.652 60.2703 103.412 60.1903 103.302C60.1003 103.192 60.0403 103.042 59.9403 102.942C59.8403 102.832 59.4403 102.992 59.3403 102.892C59.2303 102.782 59.1403 102.652 59.0303 102.542C58.9203 102.432 59.1303 102.182 59.0303 102.072C58.9303 101.952 58.7103 101.932 58.6103 101.802C58.5203 101.682 59.2403 101.042 59.1503 100.922C59.0603 100.802 58.9603 100.692 58.8803 100.562C58.8003 100.432 58.5203 100.432 58.4403 100.302C58.3703 100.182 58.4003 100.002 58.3403 99.892C58.2803 99.772 58.1403 99.692 58.0803 99.562C58.0203 99.442 57.8903 99.232 57.8303 99.102C57.7803 98.972 57.3203 99.032 57.2703 98.902C57.2203 98.772 57.6003 98.462 57.5603 98.332C57.5203 98.202 57.2703 98.152 57.2303 98.022C57.1903 97.892 57.3503 97.692 57.3103 97.562C57.2703 97.422 57.0503 97.342 57.0003 97.202C56.9503 97.062 56.8503 96.952 56.8003 96.812C56.7403 96.682 56.5303 96.622 56.4703 96.492C56.4003 96.362 56.7803 96.022 56.7103 95.892C56.6503 95.762 56.4303 95.712 56.3603 95.582L56.1503 95.222C56.0903 95.102 55.7503 95.102 55.6903 94.982C55.6303 94.852 56.0103 94.532 55.9503 94.402C55.8903 94.282 55.5903 94.262 55.5303 94.142C55.4703 94.022 55.3803 93.902 55.3203 93.782C55.2603 93.662 55.1503 93.562 55.0903 93.432C55.0303 93.312 55.2703 93.052 55.2103 92.932C55.1503 92.812 54.7403 92.842 54.6703 92.722C54.6003 92.602 54.6503 92.432 54.5903 92.312L54.4003 91.952C54.3303 91.822 54.4003 91.642 54.3503 91.512C54.3003 91.382 54.3003 91.232 54.2703 91.092C54.2403 90.952 54.3403 90.792 54.3203 90.662C54.3003 90.522 54.1803 90.412 54.1603 90.272C54.1503 90.132 54.0303 90.002 54.0403 89.872C54.0403 89.732 54.1103 89.582 54.1103 89.452C54.1103 89.312 53.9703 89.192 53.9603 89.052C53.9603 88.912 54.1203 88.762 54.1203 88.632C54.1203 88.502 53.6403 88.342 53.6403 88.202C53.6403 88.062 53.8303 87.922 53.8203 87.792C53.8203 87.662 53.6503 87.532 53.6703 87.402C53.6803 87.272 53.4903 87.132 53.5003 86.992C53.5203 86.862 53.9903 86.782 54.0103 86.662C54.0203 86.542 53.8803 86.392 53.9303 86.272C53.9803 86.152 53.9003 86.012 53.9303 85.892C53.9603 85.772 53.9903 85.662 54.0203 85.542C54.0603 85.442 54.0603 85.342 54.0803 85.232C54.1103 85.132 54.3903 85.122 54.4103 85.022C54.4403 84.932 54.4803 84.842 54.5103 84.742C54.5403 84.642 54.5603 84.542 54.6003 84.442C54.6403 84.342 54.7703 84.312 54.8203 84.222C54.8603 84.132 54.7403 83.902 54.8103 83.812C54.8703 83.722 55.1703 83.862 55.2403 83.792C55.3103 83.722 55.2203 83.462 55.3103 83.392C55.3903 83.332 55.2003 82.862 55.3103 82.812C55.4203 82.762 55.5603 82.792 55.6703 82.752C55.7803 82.712 55.9303 82.782 56.0403 82.752C56.1503 82.722 56.2703 82.752 56.3703 82.722C56.4703 82.702 56.5303 82.502 56.6403 82.482C56.7503 82.462 56.9203 82.662 57.0203 82.652C57.0603 82.652 57.1103 82.652 57.1503 82.672C57.1903 82.702 57.2303 82.742 57.2603 82.742C57.3103 82.742 57.4003 82.972 57.4503 82.972C57.5003 82.972 57.5103 82.702 57.5703 82.712C57.6203 82.712 57.8403 82.792 57.8903 82.792C57.9403 82.792 58.0003 82.892 58.0503 82.892C58.1003 82.892 58.2003 82.922 58.2503 82.922C58.3503 82.922 58.6503 82.872 58.7503 82.862C58.8603 82.842 59.0603 82.732 59.1703 82.742C59.2803 82.742 59.3803 82.812 59.4803 82.832C59.5903 82.842 59.7303 82.702 59.8503 82.712C59.9603 82.722 60.1003 82.622 60.2203 82.622C60.3203 82.622 60.4103 82.792 60.5103 82.832C60.6103 82.872 60.6003 83.122 60.6903 83.172C60.7903 83.222 61.0103 83.092 61.1103 83.102C61.2503 83.142 60.9603 83.872 61.0303 83.892C61.1203 83.942 61.4603 83.692 61.5403 83.742C61.6403 83.802 61.4803 84.082 61.5403 84.142C61.6103 84.202 61.7803 84.192 61.8403 84.282C61.8903 84.352 62.1003 84.352 62.1603 84.452C62.2003 84.532 62.7503 84.382 62.8103 84.502C62.8503 84.612 62.9203 84.722 62.9603 84.842C62.9903 84.962 63.1303 84.872 63.1503 84.992C63.1803 85.112 63.1003 85.262 63.1203 85.382C63.1403 85.502 63.0103 85.562 63.0203 85.682C63.0303 85.802 63.0903 85.922 63.0903 86.052C63.0903 86.182 62.8503 86.332 62.8603 86.452C62.8603 86.582 63.0803 86.702 63.0803 86.832C63.0803 86.962 63.2603 87.102 63.2603 87.242C63.2603 87.412 62.9203 87.612 62.9303 87.802C62.9503 87.992 63.1903 88.132 63.2103 88.302C63.2303 88.492 63.5303 88.552 63.5703 88.702C63.6203 88.852 63.4403 89.072 63.5003 89.212C63.5603 89.362 63.4103 89.592 63.4703 89.732C63.5303 89.882 63.5703 90.042 63.6403 90.182C63.7203 90.322 64.1403 90.262 64.2303 90.382C64.3303 90.522 64.4003 90.672 64.4803 90.802C64.5703 90.942 64.3203 91.152 64.4103 91.292C64.5003 91.432 64.7203 91.492 64.8003 91.632C64.8803 91.772 64.1003 92.332 64.1903 92.482C64.2803 92.622 64.3603 92.762 64.4503 92.902C64.5303 93.042 64.8103 93.072 64.8903 93.222C64.9603 93.352 64.9203 93.532 64.9903 93.672C65.0603 93.802 65.1903 93.902 65.2503 94.032C65.3103 94.162 65.4503 94.392 65.5103 94.522C65.5703 94.662 66.0303 94.602 66.0903 94.732C66.1503 94.862 65.7703 95.192 65.8303 95.322C65.8803 95.462 66.1403 95.502 66.1803 95.642C66.2303 95.782 66.0903 95.992 66.1303 96.132C66.1803 96.282 66.4203 96.352 66.4903 96.492C66.5503 96.632 66.6703 96.742 66.7403 96.882C66.8103 97.022 67.0303 97.062 67.1103 97.192C67.1903 97.322 66.8703 97.712 66.9603 97.842C67.0503 97.972 67.2803 98.002 67.3703 98.122C67.4603 98.242 67.5603 98.352 67.6503 98.472C67.7403 98.592 68.0603 98.532 68.1603 98.652C68.2603 98.772 67.9803 99.182 68.0803 99.312C68.1903 99.442 68.5003 99.402 68.6003 99.522C68.7103 99.642 68.8303 99.742 68.9403 99.862C69.0503 99.982 69.2003 100.062 69.3003 100.152C69.4003 100.252 69.2603 100.582 69.3603 100.672C69.4603 100.772 69.8403 100.602 69.9403 100.702C70.0403 100.802 70.0503 100.972 70.1503 101.062L70.4503 101.342C70.5503 101.442 70.5303 101.632 70.6203 101.742C70.7103 101.852 70.7403 101.992 70.8103 102.102C70.8803 102.222 70.8403 102.392 70.9003 102.512C70.9603 102.632 71.1003 102.702 71.1503 102.822C71.2003 102.942 71.3303 103.032 71.3703 103.162C71.4103 103.292 71.3703 103.442 71.4103 103.562C71.4503 103.682 71.6103 103.762 71.6403 103.882C71.6703 104.002 71.5303 104.182 71.5603 104.292C71.6003 104.402 72.0803 104.442 72.1103 104.562C72.1303 104.682 71.9803 104.842 71.9903 104.952C71.9903 105.062 72.1703 105.152 72.1803 105.272C72.1903 105.382 72.4103 105.492 72.3903 105.612C72.3803 105.732 71.9103 105.832 71.8903 105.922C71.8903 106.022 72.0403 106.142 72.0003 106.242C71.9603 106.342 72.0503 106.462 72.0203 106.562C71.9903 106.662 71.9303 106.752 71.9103 106.842C71.8803 106.942 71.8803 107.042 71.8503 107.142C71.8003 107.242 71.5303 107.232 71.4903 107.322C71.4503 107.412 71.4303 107.512 71.3903 107.602C71.3403 107.692 71.3203 107.802 71.2703 107.902C71.2203 107.992 71.0903 108.042 71.0403 108.132C70.9703 108.222 71.0803 108.462 71.0103 108.552C70.9303 108.642 70.6303 108.522 70.5603 108.602C70.4903 108.692 70.5703 108.952 70.4803 109.022C70.3903 109.092 70.5903 109.552 70.4803 109.612C70.3703 109.672 70.2203 109.642 70.1203 109.692C70.0203 109.742 69.8503 109.662 69.7503 109.702C69.6503 109.742 69.5203 109.712 69.4203 109.742C69.3203 109.772 69.2803 109.972 69.1703 109.992C69.0603 110.012 68.8903 109.822 68.8003 109.832C68.7603 109.832 68.7203 109.832 68.6703 109.812C68.6303 109.782 68.6003 109.752 68.5703 109.742C68.5203 109.742 68.4303 109.512 68.3903 109.512C68.3503 109.512 68.3403 109.772 68.2903 109.772C68.2403 109.772 68.0503 109.692 68.0003 109.682C67.9503 109.682 67.9003 109.582 67.8603 109.582C67.8203 109.582 67.7303 109.542 67.6803 109.532C67.5903 109.522 67.3103 109.592 67.2203 109.572L67.2603 109.672Z" fill="#F1EAD1"/>
<path d="M141.87 138.582C141.87 138.472 141.97 138.352 141.97 138.232C141.97 138.112 141.99 137.882 141.99 137.762L139.8 137.872L141.98 137.762V137.722L141.97 137.682V137.652L141.94 137.612L141.89 137.532C141.86 137.482 141.82 137.432 141.79 137.392L141.77 137.362V137.332L141.75 137.282V137.252L141.74 137.222L141.72 137.192L141.7 137.162L141.64 137.102L141.57 137.042L141.43 136.932L141.28 136.832L141.2 136.782L141.11 136.742L141.06 136.722H141L140.88 136.682L140.76 136.662L140.65 136.632H140.63L140.61 136.612H140.6L140.59 136.582V136.562L140.57 136.542V136.502H140.56V136.492L140.59 136.452L140.64 136.382L140.68 136.312V136.282L140.7 136.252V136.192L140.74 136.132L140.79 136.002L140.84 135.872L140.86 135.812V135.762V135.742V135.722L140.85 135.702H140.84L140.82 135.682H140.8L140.76 135.652L140.68 135.602L140.64 135.582H140.62V135.562L139.69 135.272H139.67H139.65L139.63 135.262H139.62L139.59 135.222L139.56 135.202L139.53 135.182L139.5 135.162L139.44 135.132L139.41 135.112L139.38 135.092L139.35 135.062L139.32 135.022L139.27 134.942L139.22 134.862L139.19 134.832H139.18L139.16 134.812L139.1 134.782L139.04 134.762L138.91 134.722H138.89C138.89 134.722 138.89 134.722 138.87 134.722C138.7 134.722 138.2 134.782 138.04 134.812C137.86 134.842 137.57 134.982 137.4 135.002C137.22 135.022 137.04 134.972 136.87 135.002C136.7 135.022 136.54 135.202 136.37 135.222C136.2 135.252 136.07 135.392 135.9 135.442C135.76 135.482 135.54 135.372 135.36 135.382C135.2 135.382 135.01 135.172 134.85 135.182C134.67 135.192 134.52 135.432 134.38 135.482C134.2 135.512 133.81 134.792 133.66 134.822C133.48 134.852 133.38 135.272 133.23 135.292C133.06 135.312 132.87 135.032 132.72 135.042C132.56 135.042 132.41 135.202 132.24 135.202C132.09 135.202 131.92 135.392 131.74 135.382C131.59 135.382 131.43 135.942 131.25 135.932C131.09 135.932 130.92 135.952 130.76 135.932C130.6 135.922 130.65 136.082 130.49 136.062C130.33 136.052 130.18 135.932 130.02 135.912C129.86 135.892 129.83 135.762 129.67 135.742C129.51 135.722 129.34 135.752 129.18 135.742C129.02 135.722 128.88 135.462 128.72 135.452C128.56 135.432 128.38 135.642 128.22 135.622C128.06 135.612 127.88 135.772 127.72 135.762C127.56 135.752 127.41 135.372 127.25 135.362C127.09 135.362 126.91 135.572 126.75 135.572C126.59 135.572 126.42 135.812 126.26 135.812C126.1 135.812 125.93 135.582 125.77 135.592C125.61 135.592 125.43 135.392 125.27 135.402C125.11 135.412 124.93 135.382 124.77 135.402C124.61 135.422 124.51 135.842 124.35 135.882C124.18 135.922 123.99 135.922 123.82 135.952C123.65 135.982 123.53 135.672 123.36 135.692C123.19 135.712 123.03 135.892 122.85 135.912C122.68 135.932 122.48 134.982 122.3 134.992C122.13 135.002 121.96 135.032 121.78 135.042C121.61 135.042 121.44 135.282 121.26 135.292C121.1 135.292 120.94 135.172 120.79 135.172C120.63 135.172 120.47 135.242 120.31 135.232C120.15 135.232 119.87 135.232 119.71 135.232C119.55 135.222 119.36 135.642 119.2 135.632C119.04 135.612 118.94 135.132 118.78 135.112C118.62 135.092 118.44 135.282 118.28 135.252C118.12 135.222 118 135.002 117.85 134.962C117.68 134.922 117.48 135.102 117.31 135.082C117.14 135.062 116.97 135.102 116.8 135.092C116.63 135.092 116.46 135.242 116.29 135.242C116.12 135.242 115.94 134.762 115.77 134.772C115.6 134.772 115.43 134.952 115.27 134.962C115.11 134.962 114.95 135.002 114.78 135.012C114.62 135.012 114.47 135.332 114.3 135.332C114.14 135.332 113.95 134.862 113.79 134.872C113.63 134.872 113.48 135.152 113.31 135.162C113.14 135.172 112.99 135.212 112.82 135.222C112.65 135.232 112.5 135.312 112.34 135.322C112.18 135.332 111.99 135.022 111.83 135.042C111.67 135.062 111.54 135.462 111.38 135.472C111.22 135.492 111.05 135.402 110.88 135.422C110.72 135.442 110.56 135.472 110.4 135.502C110.23 135.532 110.05 135.402 109.88 135.412C109.71 135.422 109.55 135.372 109.37 135.372C109.2 135.372 109.04 135.232 108.87 135.222C108.7 135.212 108.53 135.302 108.36 135.282C108.19 135.262 108.01 135.332 107.84 135.312C107.67 135.292 107.51 135.192 107.34 135.172C107.17 135.152 106.99 135.272 106.82 135.252C106.65 135.242 106.49 135.042 106.32 135.032C106.15 135.022 105.89 135.492 105.72 135.482C105.55 135.482 105.39 135.272 105.22 135.262C105.05 135.262 104.87 135.412 104.71 135.402C104.54 135.392 104.36 135.592 104.19 135.582C104.02 135.572 103.89 135.092 103.72 135.082C103.55 135.062 103.37 135.232 103.2 135.212C103.03 135.182 102.85 135.282 102.68 135.272C102.51 135.252 102.34 135.242 102.17 135.232C102 135.232 101.83 135.252 101.66 135.252C101.49 135.252 101.31 135.002 101.14 135.012C100.97 135.012 100.8 135.032 100.63 135.042C100.46 135.042 100.29 135.102 100.12 135.112C99.9503 135.122 99.7803 135.042 99.6003 135.052C99.4303 135.052 99.2703 135.312 99.1003 135.322C98.9303 135.322 98.7603 135.022 98.5803 135.022C98.4103 135.022 98.2403 135.282 98.0703 135.272C97.9003 135.262 97.7103 135.752 97.5403 135.732C97.3803 135.712 97.2203 135.602 97.0603 135.582C96.9003 135.562 96.7503 135.412 96.5903 135.402C96.4303 135.382 96.2703 135.302 96.1103 135.292C95.9503 135.272 95.7703 135.442 95.6103 135.422C95.4503 135.402 95.2903 135.172 95.1203 135.152C95.0503 135.152 94.9903 135.122 94.9303 135.092C94.8803 135.052 94.8403 135.012 94.7903 135.002C94.7103 134.992 94.6303 134.752 94.5503 134.732C94.4703 134.722 94.3803 134.982 94.2903 134.962C94.2103 134.952 93.8803 134.852 93.8003 134.842C93.7203 134.842 93.6303 134.742 93.5503 134.732C93.4703 134.732 93.3003 134.692 93.2103 134.692C93.0403 134.692 92.5403 134.752 92.3803 134.782C92.2003 134.812 91.9103 134.952 91.7403 134.972C91.5603 134.992 91.3803 134.942 91.2103 134.972C91.0403 134.992 90.8803 135.172 90.7103 135.192C90.5403 135.222 90.4103 135.362 90.2403 135.412C90.1003 135.452 89.8803 135.342 89.7003 135.352C89.5403 135.352 89.3503 135.142 89.1903 135.152C89.0103 135.162 88.8603 135.402 88.7203 135.452C88.5403 135.482 88.1503 134.762 88.0003 134.792C87.8203 134.822 87.7203 135.242 87.5703 135.262C87.4003 135.282 87.2103 135.002 87.0603 135.012C86.9003 135.012 86.7503 135.172 86.5803 135.172C86.4303 135.172 86.2603 135.362 86.0803 135.352C85.9303 135.352 85.7703 135.912 85.5903 135.902C85.4303 135.902 85.2603 135.922 85.1003 135.902C84.9403 135.892 84.9903 136.052 84.8303 136.032C84.6703 136.022 84.5203 135.902 84.3603 135.882C84.2003 135.862 84.1703 135.732 84.0103 135.712C83.8503 135.692 83.6803 135.722 83.5203 135.712C83.3603 135.692 83.2203 135.432 83.0603 135.422C82.9003 135.402 82.7203 135.612 82.5503 135.592C82.3903 135.582 82.2103 135.742 82.0503 135.732C81.8903 135.722 81.7403 135.342 81.5803 135.332C81.4203 135.332 81.2403 135.542 81.0803 135.542C80.9203 135.542 80.7503 135.782 80.5903 135.782C80.4303 135.782 80.2603 135.552 80.1003 135.562C79.9403 135.562 79.7603 135.362 79.6003 135.372C79.4403 135.382 79.2603 135.352 79.1003 135.372C78.9403 135.392 78.8403 135.812 78.6803 135.852C78.5103 135.892 78.3203 135.892 78.1503 135.922C77.9803 135.952 77.8603 135.642 77.6903 135.662C77.5203 135.682 77.3603 135.862 77.1803 135.882C77.0103 135.902 76.8103 134.952 76.6303 134.962C76.4603 134.972 76.2903 135.002 76.1103 135.012C75.9403 135.012 75.7703 135.252 75.5903 135.262C75.4303 135.262 75.2703 135.142 75.1203 135.142C74.9603 135.142 74.8003 135.212 74.6403 135.202C74.4803 135.202 74.2003 135.202 74.0403 135.202C73.8803 135.192 73.6903 135.612 73.5303 135.602C73.3703 135.582 73.2703 135.102 73.1103 135.082C72.9503 135.062 72.7703 135.252 72.6103 135.222C72.4503 135.192 72.3303 134.972 72.1803 134.932C72.0103 134.902 71.8103 135.072 71.6403 135.052C71.4703 135.032 71.3003 135.072 71.1303 135.062C70.9603 135.062 70.7903 135.212 70.6203 135.212C70.4503 135.212 70.2703 134.732 70.1003 134.742C69.9303 134.742 69.7603 134.922 69.6003 134.932C69.4403 134.932 69.2803 134.972 69.1103 134.982C68.9503 134.982 68.8003 135.302 68.6303 135.302C68.4703 135.302 68.2803 134.832 68.1203 134.842C67.9603 134.842 67.8103 135.122 67.6403 135.132C67.4703 135.142 67.3203 135.182 67.1503 135.192C66.9903 135.202 66.8303 135.282 66.6703 135.292C66.5103 135.302 66.3203 134.992 66.1603 135.012C66.0003 135.032 65.8703 135.432 65.7103 135.442C65.5503 135.452 65.3803 135.372 65.2103 135.392C65.0403 135.412 64.8903 135.442 64.7303 135.472C64.5603 135.502 64.3803 135.372 64.2103 135.382C64.0403 135.392 63.8803 135.342 63.7003 135.342C63.5303 135.342 63.3703 135.202 63.2003 135.192C63.0303 135.182 62.8603 135.272 62.6903 135.252C62.5203 135.232 62.3403 135.302 62.1703 135.282C62.0003 135.262 61.8403 135.162 61.6703 135.142C61.5003 135.122 61.3203 135.242 61.1503 135.222C60.9803 135.212 60.8203 135.012 60.6503 135.002C60.4803 134.992 60.2203 135.462 60.0503 135.452C59.8803 135.452 59.7203 135.242 59.5503 135.232C59.3803 135.232 59.2003 135.382 59.0403 135.372C58.8703 135.362 58.6903 135.562 58.5203 135.552C58.3503 135.542 58.2203 135.062 58.0503 135.042C57.8803 135.022 57.7003 135.192 57.5303 135.172C57.3603 135.142 57.1803 135.242 57.0103 135.232C56.8403 135.212 56.6703 135.202 56.5003 135.192C56.3303 135.192 56.1603 135.212 55.9903 135.212C55.8203 135.212 55.6403 134.962 55.4703 134.972C55.3003 134.972 55.1303 134.992 54.9603 135.002C54.7903 135.002 54.6203 135.062 54.4503 135.072C54.2803 135.082 54.1103 135.002 53.9303 135.012C53.7603 135.012 53.6003 135.272 53.4303 135.282C53.2603 135.282 53.0903 134.982 52.9103 134.982C52.7403 134.982 52.5703 135.242 52.4003 135.232C52.2303 135.232 52.0403 135.712 51.8703 135.692C51.7103 135.672 51.5503 135.562 51.3903 135.542C51.2303 135.522 51.0803 135.372 50.9203 135.362C50.7603 135.342 50.6003 135.262 50.4403 135.252C50.2803 135.232 50.1003 135.402 49.9403 135.382C49.7803 135.362 49.6203 135.132 49.4503 135.112C49.3803 135.112 49.3203 135.082 49.2603 135.052C49.2103 135.012 49.1703 134.972 49.1203 134.962C49.0403 134.952 48.9603 134.712 48.8803 134.692C48.8003 134.682 48.7103 134.942 48.6203 134.932C48.5403 134.922 48.2103 134.822 48.1303 134.812C48.0503 134.812 47.9603 134.712 47.8803 134.702C47.8003 134.702 47.6303 134.672 47.5403 134.662H47.4703C47.4503 134.662 47.4203 134.662 47.3903 134.662C47.3503 134.662 47.3103 134.682 47.2603 134.692L47.1203 134.732C47.0203 134.762 46.9303 134.792 46.8503 134.822H46.7903L46.7403 134.842H46.6403L46.5903 134.852H46.5403L46.4903 134.872L46.4403 134.892L46.3303 134.952L46.2203 135.012C46.1503 135.052 46.0803 135.102 46.0103 135.142C45.9403 135.192 45.8703 135.242 45.8003 135.282L45.7003 135.362L45.6003 135.442L45.5503 135.492L45.5103 135.542L45.4403 135.662L45.3703 135.782L45.3303 135.842L45.2903 135.892L45.2703 135.912L45.2403 135.932H45.2103L45.1803 135.952H45.1103L45.0303 135.972H45.0103H45.0003H44.9503H44.8603H44.8203H44.7803L44.7503 135.992L44.7203 136.012L44.6603 136.052L44.5903 136.082L44.4503 136.132L44.3103 136.192L44.2503 136.222L44.2203 136.242L44.1903 136.262L44.1703 136.282L44.1503 136.312V136.342L44.1303 136.382V136.462L44.1203 136.542V136.712L44.1003 136.802V136.842L44.0903 136.882V136.922L44.0603 136.952L44.0203 137.012L43.9903 137.072L43.9403 137.202L43.9003 137.332L43.8803 137.402L43.8503 137.462L43.8203 137.522L43.7803 137.582L43.6903 137.692L43.6103 137.802L43.5803 137.862L43.5503 137.922L43.5103 138.052L43.4803 138.182L43.4303 138.452C43.4303 138.452 43.4303 138.482 43.4303 138.492V138.502V138.512C43.4303 138.512 43.4303 138.532 43.4303 138.552C43.4203 138.792 43.4603 139.482 43.4803 139.702C43.5003 139.942 43.6403 140.352 43.6603 140.582C43.6703 140.822 43.6403 141.062 43.6603 141.302C43.6803 141.542 43.8603 141.752 43.8903 141.982C43.9203 142.212 44.0703 142.392 44.1303 142.622C44.1803 142.802 44.0803 143.112 44.1003 143.352C44.1203 143.572 43.9203 143.832 43.9403 144.052C43.9703 144.302 44.2203 144.482 44.2703 144.672C44.3203 144.912 43.6403 145.492 43.6803 145.702C43.7303 145.942 44.1603 146.052 44.2003 146.262C44.2403 146.492 43.9903 146.782 44.0203 147.002C44.0503 147.222 44.2303 147.412 44.2703 147.662C44.3003 147.872 44.5103 148.072 44.5603 148.332C44.6003 148.552 45.1803 148.662 45.2403 148.922C45.2903 149.152 45.3503 149.372 45.4303 149.632C45.5003 149.872 45.6203 149.762 45.6903 149.992C45.7703 150.212 45.7403 150.462 45.8303 150.682C45.9203 150.902 45.8303 151.002 45.9203 151.222C46.0203 151.442 46.1803 151.632 46.2903 151.852C46.4103 152.062 46.3203 152.382 46.4503 152.592C46.5903 152.802 46.9203 152.882 47.0603 153.082C47.2103 153.272 47.5103 153.352 47.6703 153.532C47.8303 153.702 47.7303 154.122 47.9103 154.302C48.1003 154.472 48.4403 154.472 48.6203 154.622C48.8203 154.772 49.1603 154.712 49.3503 154.852C49.5503 154.982 49.6303 155.302 49.8403 155.422C50.0603 155.532 50.1903 155.852 50.4103 155.952C50.6403 156.042 50.8703 156.192 51.1003 156.272C51.3403 156.342 51.6303 156.012 51.8603 156.062C52.1103 156.122 52.3603 156.182 52.6003 156.232C52.8503 156.272 52.9203 156.612 53.1803 156.652C53.4603 156.692 53.6603 156.552 54.0003 156.602C54.3703 156.602 54.6103 157.542 54.8403 157.532C55.0703 157.522 55.2903 157.492 55.5203 157.482C55.7503 157.482 55.9703 157.242 56.2103 157.232C56.4203 157.232 56.6303 157.352 56.8403 157.352C57.0503 157.352 57.2603 157.282 57.4703 157.292C57.6803 157.292 58.0603 157.292 58.2703 157.292C58.4803 157.302 58.7403 156.882 58.9503 156.892C59.1603 156.912 59.3003 157.392 59.5103 157.412C59.7203 157.432 59.9603 157.242 60.1703 157.272C60.3803 157.302 60.5303 157.522 60.7403 157.562C60.9603 157.602 61.2303 157.422 61.4503 157.442C61.6703 157.462 61.9003 157.422 62.1203 157.432C62.3403 157.432 62.5603 157.282 62.7903 157.282C63.0103 157.282 63.2503 157.762 63.4703 157.752C63.6903 157.752 63.9103 157.572 64.1403 157.562L64.7803 157.512C64.9903 157.512 65.1903 157.192 65.4103 157.192C65.6203 157.192 65.8703 157.662 66.0803 157.652C66.2903 157.642 66.4903 157.372 66.7103 157.362L67.3503 157.302C67.5603 157.292 67.7703 157.212 67.9903 157.202C68.2003 157.192 68.4503 157.502 68.6703 157.482C68.8903 157.462 69.0503 157.062 69.2603 157.052C69.4703 157.032 69.7003 157.122 69.9103 157.102L70.5503 157.022C70.7703 156.992 71.0203 157.122 71.2403 157.112C71.4603 157.102 71.6803 157.152 71.9103 157.152C72.1303 157.152 72.3403 157.292 72.5703 157.302C72.7903 157.312 73.0203 157.222 73.2403 157.242C73.4603 157.262 73.7003 157.192 73.9203 157.212C74.1403 157.232 74.3603 157.332 74.5803 157.352C74.8003 157.372 75.0503 157.252 75.2703 157.272C75.5003 157.282 75.7103 157.482 75.9303 157.492C76.1603 157.502 76.5003 157.032 76.7303 157.042C76.9503 157.042 77.1703 157.252 77.3903 157.262C77.6103 157.262 77.8503 157.112 78.0703 157.122C78.2903 157.132 78.5403 156.932 78.7603 156.942C78.9803 156.952 79.1503 157.432 79.3703 157.452C79.5903 157.472 79.8403 157.302 80.0603 157.322C80.2803 157.352 80.5203 157.252 80.7503 157.262C80.9803 157.272 81.1903 157.282 81.4203 157.302C81.6503 157.302 81.8703 157.282 82.0903 157.282C82.3203 157.282 82.5503 157.532 82.7703 157.522L83.4503 157.492C83.6803 157.492 83.9003 157.432 84.1203 157.422C84.3503 157.412 84.5803 157.492 84.8003 157.482C85.0303 157.482 85.2403 157.222 85.4603 157.212C85.6903 157.212 85.9203 157.512 86.1403 157.512C86.3703 157.512 86.5903 157.252 86.8203 157.262C87.0503 157.262 87.3003 156.782 87.5203 156.802C87.7403 156.822 87.9403 156.932 88.1503 156.952C88.3603 156.972 88.5603 157.122 88.7803 157.132C88.9903 157.152 89.2003 157.232 89.4103 157.242C89.6203 157.262 89.8603 157.092 90.0703 157.112C90.2803 157.132 90.5003 157.362 90.7103 157.382C90.8003 157.382 90.8803 157.412 90.9703 157.442C91.0303 157.482 91.0903 157.522 91.1603 157.532C91.2703 157.542 91.3703 157.782 91.4703 157.802C91.5803 157.812 91.7003 157.552 91.8103 157.572C91.9203 157.582 92.3503 157.682 92.4603 157.692C92.5703 157.692 92.6803 157.792 92.7903 157.802C92.9003 157.802 93.1203 157.832 93.2303 157.842C93.4603 157.842 94.1203 157.782 94.3303 157.752C94.5603 157.722 94.9503 157.582 95.1803 157.562C95.4103 157.542 95.6503 157.592 95.8803 157.562C96.1103 157.542 96.3203 157.362 96.5403 157.342C96.7703 157.312 96.9403 157.172 97.1703 157.122C97.3503 157.082 97.6403 157.192 97.8803 157.182C98.1003 157.182 98.3403 157.392 98.5503 157.382C98.7903 157.372 98.9903 157.132 99.1703 157.082C99.4003 157.052 99.9203 157.772 100.12 157.742C100.35 157.712 100.5 157.292 100.7 157.272C100.92 157.252 101.17 157.532 101.38 157.522C101.59 157.522 101.79 157.362 102.02 157.362C102.22 157.362 102.44 157.172 102.67 157.182C102.87 157.182 103.08 156.622 103.32 156.632C103.53 156.632 103.75 156.612 103.97 156.632C104.18 156.642 104.12 156.482 104.33 156.502C104.54 156.512 104.74 156.632 104.95 156.652C105.16 156.672 105.2 156.802 105.41 156.822C105.62 156.842 105.84 156.812 106.06 156.822C106.27 156.842 106.46 157.102 106.67 157.112C106.88 157.132 107.12 156.922 107.34 156.942C107.55 156.952 107.78 156.792 108 156.802C108.21 156.812 108.4 157.192 108.62 157.202C108.84 157.202 109.07 156.992 109.28 156.992C109.5 156.992 109.71 156.752 109.92 156.752C110.14 156.752 110.35 156.982 110.56 156.972C110.78 156.972 111.01 157.172 111.23 157.162C111.45 157.152 111.68 157.182 111.89 157.162C112.1 157.142 112.24 156.722 112.45 156.682C112.68 156.642 112.92 156.642 113.15 156.612C113.38 156.582 113.53 156.892 113.76 156.872C113.99 156.852 114.2 156.672 114.43 156.652C114.66 156.632 114.92 157.582 115.15 157.572C115.38 157.562 115.6 157.532 115.83 157.522C116.06 157.522 116.28 157.282 116.52 157.272C116.73 157.272 116.94 157.392 117.15 157.392C117.36 157.392 117.57 157.322 117.78 157.332C117.99 157.332 118.37 157.332 118.58 157.332C118.79 157.342 119.05 156.922 119.26 156.932C119.47 156.952 119.61 157.432 119.82 157.452C120.03 157.472 120.27 157.282 120.48 157.312C120.69 157.342 120.84 157.562 121.05 157.602C121.27 157.642 121.54 157.462 121.76 157.482C121.98 157.502 122.21 157.462 122.43 157.472C122.65 157.472 122.87 157.322 123.1 157.322C123.33 157.322 123.56 157.802 123.78 157.792C124 157.792 124.22 157.612 124.45 157.602L125.09 157.552C125.3 157.552 125.5 157.232 125.72 157.232C125.93 157.232 126.18 157.702 126.39 157.692C126.6 157.692 126.8 157.412 127.02 157.402L127.66 157.342C127.87 157.332 128.08 157.252 128.3 157.242C128.51 157.232 128.76 157.542 128.98 157.522C129.19 157.502 129.36 157.102 129.57 157.092C129.78 157.072 130.01 157.162 130.22 157.142L130.86 157.062C130.92 157.062 130.97 157.062 131.03 157.062C131.12 157.062 131.22 157.092 131.32 157.092C131.5 157.092 131.64 157.092 131.77 157.072C132.03 157.022 132.3 157.032 132.55 156.962C132.8 156.892 133.08 156.982 133.34 156.902C133.59 156.822 133.82 156.652 134.07 156.582C134.32 156.492 134.54 156.322 134.78 156.232C135.03 156.142 135.28 156.102 135.53 155.992C135.77 155.892 135.95 155.632 136.17 155.502C136.4 155.372 136.71 155.402 136.93 155.242C137.15 155.082 137.18 154.482 137.37 154.322C137.56 154.162 137.89 154.152 138.07 153.972C138.26 153.792 138.33 153.492 138.51 153.322C138.68 153.132 138.71 152.792 138.88 152.612C139.05 152.432 139.53 152.542 139.71 152.342C139.88 152.142 139.89 151.802 140.04 151.592C140.2 151.382 140.26 151.092 140.38 150.852C140.51 150.612 140.65 150.402 140.74 150.142C140.84 149.892 140.92 149.642 141 149.382C141.07 149.122 141.39 148.912 141.45 148.632L141.57 147.792C141.6 147.522 141.57 147.252 141.57 147.022C141.57 146.782 141.67 146.542 141.68 146.312C141.68 146.072 141.44 145.852 141.45 145.612C141.45 145.382 141.77 145.162 141.78 144.932C141.78 144.702 141.54 144.462 141.55 144.232C141.56 144.002 141.09 143.732 141.11 143.512C141.13 143.292 141.25 143.092 141.27 142.872C141.29 142.652 141.44 142.462 141.46 142.242C141.48 142.022 141.56 141.822 141.58 141.602C141.6 141.382 141.43 141.152 141.45 140.932C141.47 140.712 141.7 140.502 141.72 140.282C141.72 140.192 141.75 140.102 141.77 140.022C141.81 139.962 141.85 139.892 141.86 139.832C141.87 139.722 142.11 139.622 142.12 139.502C142.13 139.392 141.87 139.272 141.88 139.152C141.89 139.042 141.97 138.592 141.98 138.482L141.87 138.582Z" fill="#F1EAD1"/>
</svg>
