<svg width="185" height="181" viewBox="0 0 185 181" fill="none" xmlns="http://www.w3.org/2000/svg">
<path d="M184.274 93.4791C184.219 93.8359 183.739 95.1806 183.671 95.5237C183.602 95.8668 184.699 96.3196 184.616 96.6764C184.548 97.0194 183.506 97.2664 183.424 97.5958C183.383 97.8016 183.191 97.9937 183.027 98.1721C182.903 98.4328 182.78 98.6936 182.739 98.968C182.629 99.6267 181.629 100.203 181.423 100.848C181.259 101.493 181.862 102.316 181.684 102.961C181.506 103.62 181.081 104.21 180.903 104.855C180.738 105.5 180.012 106.008 179.847 106.639C179.683 107.284 179.107 107.819 178.929 108.45C178.765 109.123 180.546 110.303 180.354 110.989C180.163 111.661 181.04 112.608 180.875 113.308C180.697 114.008 179.245 114.364 179.094 115.064C178.943 115.75 179.806 116.684 179.669 117.397C179.546 118.111 178.957 118.687 178.765 119.373C178.559 120.045 178.532 120.786 178.326 121.473L177.682 123.545C177.463 124.231 176.23 124.533 175.983 125.191C175.764 125.864 175.613 126.55 175.257 127.181C174.928 127.799 174.572 128.402 174.202 129.006C173.845 129.61 173.9 130.474 173.489 131.051C173.078 131.641 173.393 132.67 173.009 133.26C172.612 133.864 170.652 133.397 170.228 133.946C169.816 134.509 170.173 135.579 169.775 136.142C169.378 136.718 169.57 137.679 169.172 138.269C168.775 138.845 167.72 138.955 167.322 139.531C166.925 140.08 168.062 142.152 167.555 142.687C167.103 143.222 166.021 143.277 165.555 143.812C165.089 144.334 165.02 145.24 164.541 145.761C164.061 146.269 163.307 146.557 162.828 147.065C162.334 147.559 162.17 148.355 161.622 148.821C161.101 149.301 160.909 150.07 160.402 150.564C159.895 151.058 159.032 151.168 158.552 151.675C158.072 152.197 157.47 152.554 157.031 153.102C156.579 153.638 155.715 153.843 155.304 154.406L154.071 155.97C153.646 156.492 152.851 156.67 152.413 157.178C151.988 157.686 152.728 159.319 152.276 159.826C151.81 160.334 150.371 159.854 149.905 160.334C149.453 160.842 149.11 161.446 148.603 161.898C148.096 162.351 147.671 162.873 147.151 163.312C146.644 163.751 146.822 165.055 146.287 165.507C145.753 165.947 143.971 164.739 143.451 165.164C142.944 165.604 143.163 167.044 142.587 167.415L140.957 168.65C140.367 169.048 140.162 170.063 139.559 170.461C138.942 170.859 137.284 169.459 136.695 169.83C136.092 170.173 135.845 171.188 135.188 171.435C134.53 171.724 133.968 172.176 133.296 172.41C132.625 172.643 132.173 173.686 131.474 173.851C130.816 174.015 129.966 173.343 129.336 173.521C128.706 173.686 128.336 174.784 127.705 174.962C127.048 175.099 125.855 173.343 125.239 173.494C124.608 173.645 124.512 175.621 123.868 175.799C123.238 175.978 122.142 176.444 121.511 176.636C120.895 176.842 120.36 177.364 119.73 177.583C119.127 177.816 118.318 177.432 117.688 177.624C116.989 177.816 116.592 178.983 115.893 179.189C115.18 179.394 114.536 179.71 113.837 179.93C113.111 180.163 111.425 176.417 110.781 176.65C110.124 176.924 109.63 177.748 108.959 177.954C108.274 178.159 107.602 176.924 106.931 177.158C106.273 177.391 105.56 177.514 104.889 177.789C104.3 178.036 104.121 179.875 103.477 180.081C102.833 180.273 102.093 180.259 101.436 180.41C100.778 180.506 99.9693 179.641 99.3115 179.71C98.6538 179.779 97.9275 178.846 97.2697 178.873C96.6256 178.914 96.009 180.012 95.3375 180.012C94.6797 180.026 93.9945 181 93.3094 181C92.6379 181.014 92.0623 179.394 91.4183 179.298C90.7605 179.216 90.0342 179.875 89.3764 179.779C88.7324 179.683 87.9513 180.52 87.2798 180.41C86.622 180.314 86.1287 179.175 85.4846 179.065C84.8269 178.955 84.1554 179.051 83.5113 178.942C82.8672 178.804 82.8124 178.187 82.1958 178.036C81.5517 177.858 81.0173 177.281 80.4006 177.117C79.7702 176.952 79.8525 177.665 79.2358 177.514C78.5917 177.364 77.9065 177.35 77.2762 177.226C76.5773 177.075 75.481 179.367 74.8643 179.243C74.1518 179.12 73.3158 179.696 72.7129 179.545C72.0277 179.367 71.2603 179.847 70.6025 179.724C69.9448 179.6 69.5062 178.228 68.7937 178.132C68.177 178.063 67.2589 179.669 66.4915 179.614C65.8337 179.587 65.1622 176.17 64.477 176.032C63.8878 176.019 62.9833 176.787 62.2434 176.581C61.5993 176.389 61.2019 175.264 60.5578 175.072C59.8315 174.852 59.16 174.084 58.5571 174.056C57.8171 174.029 57.0634 174.413 56.3782 174.194C55.6793 174.002 54.7886 174.413 54.0897 174.166C53.4045 173.905 52.8016 173.411 52.1027 173.164C51.4175 172.904 50.0335 172.917 49.3072 172.698C48.622 172.547 46.6898 171.655 46.0594 171.285C45.7579 171.106 45.2098 170.612 44.922 170.42C44.6205 170.214 44.5383 169.679 44.2506 169.473C43.9628 169.267 43.0172 168.197 42.7432 167.977C42.4828 167.744 41.5372 168.471 41.2632 168.252C41.0028 168.005 41.2906 167.017 41.0576 166.756C40.9206 166.605 40.8521 166.331 40.7835 166.084C40.6328 165.837 40.4821 165.59 40.2765 165.411C39.7695 164.945 39.8243 163.724 39.331 163.271C38.8513 162.818 37.8373 162.941 37.3439 162.489C36.8506 162.022 36.5491 161.377 36.0558 160.91C35.5625 160.471 35.494 159.593 35.0555 159.085C34.6169 158.591 34.4662 157.796 34.0277 157.301C33.5618 156.794 31.6021 157.796 31.0951 157.301C30.6018 156.807 29.3137 157.123 28.7929 156.643C28.2585 156.149 28.6285 154.749 28.1488 154.228C27.6692 153.734 26.4359 153.981 25.9289 153.487C25.4218 152.979 25.1752 152.211 24.6681 151.717C24.1611 151.223 23.517 150.838 23.01 150.344C22.5167 149.823 21.9411 149.356 21.5163 148.78C21.0641 148.217 21.4478 146.969 21.023 146.406C20.5982 145.843 20.0911 145.363 19.68 144.787C19.2826 144.197 18.9263 143.607 18.5563 143.003C18.2001 142.399 17.3641 142.056 17.1038 141.384C16.8297 140.725 15.8019 140.464 15.5141 139.819C15.2127 139.161 16.6515 137.651 16.3501 137.034C16.0486 136.416 14.9112 136.21 14.596 135.593C14.2808 134.975 13.3216 134.673 12.9927 134.056C12.7186 133.411 13.1845 132.409 12.9105 131.764C12.6501 131.133 10.389 131.037 10.1149 130.365C9.84087 129.72 10.3205 128.759 10.0738 128.1C9.82716 127.442 9.03236 126.961 8.8131 126.275C8.63495 125.589 8.7994 124.793 8.63495 124.107C8.47051 123.421 7.94977 122.831 7.77163 122.145C7.59348 121.473 6.99052 120.924 6.79867 120.251C6.59312 119.565 6.92201 118.769 6.68904 118.111C6.44238 117.452 6.5383 116.711 6.29164 116.052C6.07238 115.394 6.40127 114.515 6.11349 113.87L5.30498 112.032C5.04461 111.414 5.26387 110.646 5.01721 110.014C4.77054 109.397 2.97537 109.232 2.82463 108.56C2.64649 107.901 3.8387 106.886 3.67426 106.227C3.52352 105.582 3.09871 104.992 2.94797 104.333C2.79723 103.661 2.53686 103.03 2.39982 102.357C2.24908 101.699 1.01576 101.205 0.878727 100.532C0.782802 99.8462 2.78352 98.8994 2.71501 98.227C2.64649 97.5683 1.28983 97.0332 1.22132 96.347L0.919837 94.3161C0.851319 93.6026 0.0565119 92.9302 0.00169755 92.2029C-0.0668203 91.4893 1.96131 90.7484 2.01612 90.0485C2.05723 89.3487 1.38576 88.6351 1.46798 87.9353C1.5365 87.2217 1.39946 86.5082 1.52279 85.8083C1.64613 85.1085 0.947244 84.2028 1.12539 83.5167C1.30354 82.858 2.3039 82.4464 2.45464 81.8288C2.66019 81.1976 1.96131 80.3468 2.15316 79.7019C2.34501 79.0569 4.45536 78.906 4.6198 78.2885C4.79795 77.671 3.11241 76.5869 3.26315 75.942C3.42759 75.3108 3.53722 74.1169 3.67426 73.472C3.77018 72.827 3.64685 72.1272 3.825 71.4822C4.00314 70.851 4.66091 70.3296 4.81165 69.6846C4.9761 68.9711 4.16759 68.0379 4.31833 67.3381C4.48277 66.6108 4.52388 65.8835 4.66091 65.17C4.79795 64.429 8.86791 64.8269 9.05976 64.1682C9.22421 63.4821 8.74458 62.6451 8.88162 61.9452C9.03236 61.2454 10.4438 61.2728 10.5535 60.573C10.6631 59.8869 10.896 59.1871 10.992 58.4735C11.0605 57.8285 9.55309 56.7582 9.69013 56.0858C9.86827 55.4546 10.3068 54.8371 10.5398 54.2059C10.7727 53.5884 11.9101 53.3002 12.1705 52.6827C12.4308 52.0789 13.5819 51.9142 13.8697 51.3104C14.1438 50.7341 13.4997 49.6501 13.8012 49.0463C14.089 48.4562 13.6779 47.4133 14.0479 46.837C14.4179 46.2881 16.1171 46.59 16.5008 46.0685C16.8845 45.5334 16.6515 44.5591 17.0489 44.0239C17.4464 43.5025 17.1038 42.391 17.5149 41.8695C17.926 41.3343 19.1319 41.4578 19.5978 40.9913C20.05 40.4973 20.3378 39.8798 20.79 39.4132C21.2422 38.9192 21.7767 39.1799 22.2152 38.6997C22.6674 38.2194 23.4211 38.041 23.8459 37.5744C24.2981 37.0941 23.6404 36.8197 24.0652 36.3394C24.5174 35.8591 24.8189 35.2279 25.2985 34.7888C25.8055 34.2948 24.4078 32.209 24.8463 31.7699C25.3533 31.2484 25.2163 30.1918 25.6411 29.739C26.1207 29.2175 26.0796 28.2844 26.5044 27.763C26.9292 27.2553 28.2996 27.516 28.7381 26.9671C29.1355 26.4868 28.2174 24.9087 28.6696 24.305C29.0807 23.7835 32.3833 24.9499 32.8081 24.3598C33.0958 23.8384 32.8629 22.6583 33.3973 22.1094C33.8769 21.6291 35.0006 21.7801 35.5214 21.3547C36.0832 20.8744 37.111 20.7097 37.4536 20.2294C37.8784 19.6257 37.9469 18.816 38.4402 18.2809C38.9336 17.7594 39.0158 16.744 39.5639 16.25C40.1121 15.756 40.811 15.4404 41.3728 14.9738C41.9484 14.5347 42.6746 13.3683 43.2502 12.888C43.7572 12.4352 45.4428 11.1041 46.0594 10.7336C46.3746 10.5415 47.0461 10.2808 47.3476 10.1161C47.6764 9.95143 48.1698 10.1161 48.485 9.97888C48.8138 9.85538 50.239 9.6221 50.5816 9.51232C50.9105 9.40254 50.7598 8.23614 51.1023 8.14009C51.4586 8.03031 52.1712 8.81248 52.5138 8.71642C52.7194 8.66154 52.966 8.74387 53.2127 8.79876C53.5142 8.78504 53.7882 8.75759 54.0486 8.66154C54.6927 8.42826 55.7205 9.05948 56.3371 8.83992C56.9675 8.62037 57.3375 7.63236 58.0089 7.49514C58.6667 7.33047 59.393 7.42653 60.0508 7.26186C60.6948 7.09719 61.4897 7.48142 62.1337 7.31675C62.7778 7.1658 63.5315 7.41281 64.1756 7.24814C64.8333 7.08347 64.9293 4.83301 65.6144 4.6409C66.3133 4.48996 66.6833 3.25495 67.3822 3.07656C68.0674 2.88445 69.1226 3.96851 69.794 3.7764C70.4655 3.57056 70.8492 2.363 71.5344 2.14344C72.2196 1.92388 73.0007 2.08855 73.6858 1.869C74.3573 1.64944 75.0288 1.36127 75.7277 1.1966L77.8243 0.757489C78.5369 0.620266 79.4139 1.5671 80.1128 1.45733C80.8117 1.33383 81.4832 1.11427 82.1958 1.04566C82.8946 0.935879 83.5798 0.949602 84.2924 0.990768C85.005 1.01821 85.7176 0.565377 86.4302 0.647711C87.1291 0.730045 87.869 -0.0521265 88.5679 0.00276266C89.2805 0.0439296 89.8698 2.03366 90.5549 2.06111C91.2401 2.10227 91.9801 1.16916 92.679 1.23777C93.3642 1.3201 94.1042 0.688878 94.8031 0.757489C95.5019 0.826101 96.1323 1.71805 96.8175 1.78666C97.5027 1.85527 98.7086 -0.0795712 99.4349 0.00276266C100.134 0.0850965 100.723 0.949601 101.422 1.05938C102.107 1.18288 102.916 0.826101 103.601 1.00449C104.286 1.18288 104.903 1.71805 105.574 1.89644C106.259 2.08855 107.027 1.91016 107.698 2.08855C108.383 2.26694 109.151 1.9925 109.85 2.14344C110.548 2.28066 111.055 3.02167 111.727 3.20006C112.412 3.37845 113.015 3.76267 113.7 3.88617C114.399 4.00967 114.988 4.72323 115.687 4.77812L117.688 4.95651C118.359 5.03885 118.935 5.57402 119.579 5.75241C120.223 5.88963 121.251 4.44879 121.922 4.61346C122.58 4.79185 122.868 6.31502 123.512 6.49341C124.17 6.6718 124.896 6.58947 125.554 6.76786C126.198 6.95997 126.883 7.0423 127.541 7.23442C128.171 7.46769 129.199 6.69925 129.829 6.94625C130.473 7.22069 130.309 9.40254 130.926 9.66326C131.542 9.92399 132.68 9.00459 133.31 9.27904L135.242 9.9926C135.914 10.2533 136.873 9.95143 137.503 10.3082C138.134 10.665 137.736 12.8194 138.339 13.1899C138.929 13.5467 139.888 13.3134 140.477 13.7113C141.066 14.1093 141.765 14.3426 142.313 14.7817C142.875 15.2071 144.013 15.0561 144.479 15.6187C144.917 16.1402 144.766 17.2243 145.205 17.7045C145.657 18.1985 146.767 17.9927 147.233 18.4593C147.699 18.9395 146.781 20.8332 147.247 21.2723C147.699 21.7114 149.508 20.7646 149.974 21.2312C150.426 21.7114 151.358 22.4524 151.824 22.919C152.29 23.3856 152.988 23.5914 153.468 24.0442C153.948 24.4971 154.085 25.3067 154.578 25.7458C155.113 26.2398 156.346 25.9791 156.894 26.4594C157.415 26.9808 157.99 27.4062 158.525 27.9002C159.059 28.4216 156.634 31.7973 157.154 32.2502C157.675 32.7167 158.662 32.703 159.224 33.1558C159.772 33.6087 159.059 34.8025 159.621 35.2416C160.169 35.6807 160.594 36.2708 161.156 36.7236C161.649 37.1353 163.307 36.3531 163.801 36.8334C164.266 37.3 164.609 37.9724 165.061 38.4664C165.5 38.9604 165.212 40.0719 165.623 40.5933C166.062 41.0873 165.596 42.1988 165.938 42.7615C166.281 43.3241 167.514 43.3103 167.857 43.9004C168.172 44.4767 169.351 44.6002 169.666 45.1903C169.981 45.7804 168.885 47.0977 169.172 47.674C169.46 48.2641 170.488 48.5111 170.693 49.156C170.926 49.7736 172.009 50.048 172.242 50.6792C172.475 51.3105 171.721 52.3259 171.94 52.9434C172.16 53.5609 172.571 54.1098 172.79 54.7273C172.996 55.3585 172.516 55.6879 172.735 56.3054C172.968 56.9091 172.694 57.6776 172.859 58.2951C173.023 58.94 173.585 58.5009 173.763 59.1184C173.941 59.7634 174.27 60.3672 174.448 60.971C174.654 61.6571 177.175 61.4787 177.367 62.0687C177.586 62.7686 178.587 63.1665 178.806 63.7566C179.025 64.4427 179.779 64.8818 179.998 65.513C180.204 66.1443 179.217 67.2146 179.477 67.8733C179.71 68.4496 181.56 68.4496 181.876 69.1494C182.15 69.7532 179.546 72.0174 179.861 72.6761C180.19 73.1701 181.259 73.5955 181.437 74.3227C181.588 74.9951 180.793 75.9008 180.93 76.5595C181.094 77.3005 180.752 78.261 181.012 78.7962C181.341 79.4549 182.026 79.9214 182.259 80.6213C182.506 81.3211 183.342 81.8837 183.438 82.611C183.547 83.3383 183.397 84.1068 183.506 84.834C183.616 85.5476 184.287 86.7551 184.452 87.4962C184.52 87.8392 184.644 88.5253 184.767 89.2389C184.877 89.9387 184.986 90.6386 185 91.0091C184.973 91.3658 184.808 92.0794 184.781 92.4225C184.74 92.7792 184.315 93.1223 184.274 93.4791Z" fill="#037E4C"/>
<path d="M159.881 120.183C159.831 119.753 159.451 119.503 159.291 119.273C159.121 119.013 159.121 118.703 158.861 118.473C158.771 118.413 158.711 118.303 158.651 118.203C158.621 118.153 158.591 118.093 158.551 118.053C158.531 118.033 158.511 118.003 158.491 117.983L158.461 117.953H158.441V117.933L157.601 117.663C157.421 117.673 157.231 117.653 157.051 117.663C156.871 117.683 156.761 118.093 156.591 118.123C156.401 118.163 156.201 118.163 156.021 118.193C155.831 118.223 155.711 117.923 155.521 117.943C155.331 117.963 155.161 118.133 154.971 118.153C154.781 118.173 154.561 117.253 154.371 117.263C154.181 117.273 154.001 117.303 153.811 117.313C153.621 117.313 153.441 117.553 153.251 117.553C153.091 117.553 152.861 117.443 152.831 117.433C152.761 117.433 152.671 117.483 152.591 117.463C152.521 117.443 152.381 117.403 152.311 117.363C152.261 117.323 151.951 117.623 151.871 117.543C151.791 117.463 152.061 117.073 152.031 117.013C152.001 116.953 151.801 117.003 151.771 116.913C151.751 116.833 151.911 116.673 151.921 116.613C151.921 116.543 151.741 116.523 151.741 116.443C151.741 116.373 151.691 116.303 151.701 116.223C151.701 116.183 151.661 116.153 151.631 116.113C151.591 116.073 151.561 115.933 151.561 115.853C151.561 115.663 152.031 115.493 152.031 115.303C152.031 115.113 151.861 114.913 151.861 114.723L151.821 114.173C151.821 113.993 151.521 113.813 151.521 113.633C151.521 113.453 151.981 113.253 151.981 113.073C151.981 112.893 151.721 112.723 151.711 112.533L151.661 111.993C151.661 111.813 151.581 111.633 151.571 111.453C151.561 111.273 151.871 111.053 151.841 110.873C151.811 110.693 151.421 110.563 151.391 110.383C151.361 110.203 151.441 110.013 151.401 109.833L151.291 109.303C151.251 109.113 151.361 108.903 151.341 108.713C151.321 108.523 151.351 108.333 151.341 108.143C151.331 107.953 151.451 107.773 151.441 107.573C151.441 107.383 151.341 107.203 151.341 107.003C151.341 106.813 151.261 106.623 151.271 106.433C151.271 106.243 151.371 106.053 151.361 105.863C151.351 105.673 151.211 105.483 151.191 105.293C151.181 105.103 151.341 104.903 151.321 104.713C151.301 104.523 150.811 104.293 150.791 104.103C150.771 103.913 150.931 103.713 150.911 103.523C150.891 103.333 150.711 103.163 150.691 102.973C150.671 102.783 150.451 102.613 150.431 102.423C150.421 102.233 150.841 102.013 150.831 101.823C150.831 101.633 150.621 101.463 150.621 101.263C150.621 101.073 150.481 100.893 150.451 100.703C150.421 100.513 150.391 100.333 150.351 100.143C150.311 99.9529 150.241 99.7829 150.201 99.5929C150.161 99.4029 150.341 99.1629 150.291 98.9729L150.131 98.4129C150.081 98.2329 149.981 98.0529 149.931 97.8729C149.881 97.6929 149.911 97.4829 149.851 97.2929C149.801 97.1129 149.521 96.9929 149.471 96.8129C149.421 96.6329 149.661 96.3629 149.611 96.1729C149.551 95.9929 149.251 95.8729 149.201 95.6929C149.151 95.5129 148.631 95.4429 148.591 95.2529C148.551 95.0729 148.601 94.8829 148.561 94.7029C148.521 94.5229 148.601 94.3229 148.561 94.1529C148.521 93.9729 148.541 93.7829 148.501 93.6129C148.461 93.4329 148.241 93.3029 148.201 93.1229C148.161 92.9429 148.321 92.7029 148.281 92.5229C148.261 92.4529 148.261 92.3729 148.261 92.2929C148.281 92.2329 148.301 92.1629 148.291 92.1129C148.271 92.0229 148.471 91.8629 148.451 91.7729C148.431 91.6829 148.161 91.6729 148.151 91.5729C148.151 91.4729 148.081 91.1129 148.051 91.0229C148.021 90.9329 148.071 90.8129 148.041 90.7229C148.011 90.6329 147.951 90.4529 147.931 90.3629C147.851 90.1829 147.581 89.6929 147.491 89.5329C147.391 89.3629 147.131 89.1129 147.041 88.9329C146.951 88.7529 146.911 88.5529 146.821 88.3829C146.731 88.2129 146.501 88.1229 146.401 87.9529C146.301 87.7829 146.121 87.7129 146.001 87.5529C145.901 87.4329 145.921 87.1529 145.811 86.9829C145.721 86.8229 145.811 86.5529 145.721 86.3929C145.621 86.2129 145.331 86.1729 145.221 86.0529C145.101 85.8929 145.521 85.1929 145.421 85.0529C145.301 84.8929 144.881 84.9729 144.791 84.8329C144.681 84.6729 144.831 84.3629 144.741 84.2029C144.651 84.0529 144.441 83.9629 144.351 83.7929C144.271 83.6429 144.021 83.5629 143.941 83.3829C143.871 83.2329 143.301 83.3429 143.221 83.1629C143.151 83.0029 143.021 82.8629 142.941 82.7029C142.861 82.5429 142.751 82.6729 142.671 82.5129C142.591 82.3529 142.601 82.1529 142.511 81.9929C142.431 81.8329 142.521 81.7429 142.441 81.5829C142.361 81.4229 142.241 81.2829 142.151 81.1229C142.071 80.9629 142.201 80.6929 142.111 80.5329C142.031 80.3729 141.751 80.3029 141.671 80.1429C141.591 79.9829 141.351 79.9029 141.261 79.7529C141.171 79.5929 141.391 79.2529 141.301 79.1029C141.211 78.9429 140.931 78.8929 140.831 78.7529C140.721 78.6029 140.421 78.5929 140.311 78.4529C140.201 78.3129 140.271 78.0329 140.161 77.8929C140.051 77.7529 140.091 77.4729 139.971 77.3329C139.851 77.1929 139.751 77.0229 139.631 76.8929C139.501 76.7629 139.111 76.9129 138.981 76.8029C138.831 76.6729 138.711 76.5129 138.571 76.3829C138.431 76.2429 138.591 75.9629 138.461 75.8229C138.331 75.6829 138.091 75.6429 137.961 75.5029C137.831 75.3629 138.421 74.6029 138.271 74.4629C138.131 74.3229 137.981 74.2029 137.851 74.0629C137.721 73.9229 137.421 73.9329 137.281 73.7829C137.161 73.6529 137.131 73.4429 137.011 73.3129C136.891 73.1729 136.721 73.0929 136.611 72.9529C136.501 72.8129 136.271 72.5829 136.171 72.4429C136.061 72.3029 135.611 72.4229 135.511 72.2729C135.411 72.1329 135.671 71.7229 135.571 71.5729C135.471 71.4229 135.201 71.4029 135.101 71.2529C135.011 71.1029 135.071 70.8629 134.961 70.7129C134.851 70.5629 134.561 70.5229 134.441 70.3729C134.321 70.2329 134.151 70.1229 134.021 69.9829C133.891 69.8429 133.641 69.8329 133.511 69.7029C133.371 69.5729 133.551 69.1029 133.411 68.9729C133.271 68.8429 133.011 68.8429 132.871 68.7129L132.441 68.3729C132.301 68.2529 131.981 68.3529 131.841 68.2329C131.701 68.1129 131.861 67.6229 131.721 67.5029C131.581 67.3829 131.271 67.4829 131.121 67.3729L130.661 67.0729C130.511 66.9629 130.331 66.9129 130.181 66.8129C130.031 66.7129 130.061 66.3429 129.911 66.2429C129.761 66.1429 129.401 66.3529 129.251 66.2529C129.101 66.1529 129.001 65.9629 128.851 65.8629L128.391 65.5829C128.231 65.4829 128.141 65.2629 127.991 65.1529C127.841 65.0429 127.721 64.8829 127.571 64.7629C127.421 64.6529 127.351 64.4529 127.201 64.3329C127.051 64.2129 126.841 64.1829 126.691 64.0629C126.541 63.9429 126.341 63.8829 126.201 63.7629C126.051 63.6429 125.961 63.4629 125.811 63.3329C125.661 63.2129 125.431 63.1929 125.281 63.0729C125.131 62.9529 125.091 62.6929 124.941 62.5829C124.791 62.4629 124.301 62.6829 124.151 62.5629C124.001 62.4529 123.951 62.1829 123.801 62.0729C123.651 61.9529 123.411 61.9729 123.241 61.8829C123.081 61.7829 122.801 61.8429 122.641 61.7429C122.491 61.6429 122.591 61.1729 122.441 61.0629C122.291 60.9529 122.021 60.9929 121.871 60.8829C121.721 60.7629 121.491 60.7529 121.341 60.6429L120.861 60.3329C120.701 60.2329 120.521 60.1629 120.351 60.0729C120.181 59.9829 120.121 59.6729 119.951 59.5829L119.441 59.3229C119.271 59.2329 119.071 59.2129 118.891 59.1329C118.711 59.0629 118.571 58.9129 118.391 58.8429C118.211 58.7729 117.941 58.9129 117.771 58.8429C117.591 58.7729 117.541 58.4229 117.371 58.3429C117.191 58.2629 116.921 58.4129 116.751 58.3229C116.581 58.2329 116.191 58.5729 116.031 58.4829C115.871 58.3929 115.761 58.2229 115.601 58.1329C115.441 58.0429 115.351 57.8429 115.191 57.7529C115.031 57.6629 114.901 57.5229 114.751 57.4329C114.591 57.3329 114.341 57.4329 114.181 57.3529C114.021 57.2729 113.931 57.0029 113.771 56.9229C113.701 56.8929 113.641 56.8429 113.581 56.7929C113.541 56.7429 113.511 56.6829 113.461 56.6629C113.381 56.6229 113.381 56.3729 113.301 56.3329C113.221 56.2929 113.031 56.4929 112.951 56.4429C112.871 56.4029 112.551 56.1929 112.471 56.1529C112.381 56.1129 112.331 55.9929 112.241 55.9629C112.161 55.9229 111.981 55.8429 111.901 55.8029C111.721 55.7429 111.171 55.6029 110.991 55.5729C110.801 55.5329 110.441 55.5529 110.251 55.5029C110.061 55.4529 109.891 55.3429 109.681 55.3129C109.481 55.2829 109.251 55.4029 109.051 55.3829C108.851 55.3629 108.661 55.4629 108.461 55.4629C108.301 55.4629 108.081 55.3029 107.871 55.2629C107.681 55.2229 107.531 54.9729 107.361 54.9529C107.171 54.9229 106.961 55.1129 106.801 55.1229C106.611 55.1229 106.351 54.3429 106.201 54.3229C106.011 54.3129 105.811 54.6729 105.651 54.6629C105.471 54.6429 105.361 54.3229 105.211 54.2929C105.061 54.2629 104.881 54.3629 104.741 54.3229C104.621 54.2829 104.441 54.4129 104.331 54.3529C104.261 54.3129 103.901 54.7429 103.771 54.6529C103.671 54.5729 103.541 54.5129 103.451 54.4129C103.361 54.3229 103.291 54.4529 103.201 54.3529C103.121 54.2429 103.131 54.0829 103.071 53.9729C103.011 53.8629 103.121 53.7729 103.071 53.6729C103.031 53.5629 102.961 53.4729 102.941 53.3529C102.921 53.2329 103.141 53.0829 103.141 52.9829C103.141 52.8829 102.931 52.7729 102.941 52.6529C102.961 52.5329 102.791 52.3929 102.821 52.2529C102.851 52.1129 103.231 52.0529 103.261 51.9329C103.291 51.8029 103.121 51.6029 103.171 51.4629C103.211 51.3229 103.031 51.0929 103.081 50.9329C103.131 50.7729 103.391 50.6829 103.441 50.5129C103.491 50.3429 103.751 50.2229 103.791 50.0429C103.841 49.8629 103.931 49.6729 103.961 49.4729C104.001 49.2629 103.641 49.0429 103.661 48.8129C103.671 48.6829 103.681 48.5229 103.681 48.4029C103.681 48.3029 103.681 48.1929 103.671 48.0929C103.661 47.8929 103.961 47.7729 103.941 47.5629C103.921 47.3529 103.751 47.1629 103.731 46.9629C103.711 46.7629 104.611 46.4629 104.581 46.2329C104.551 46.0129 104.491 45.8029 104.461 45.5829C104.421 45.3629 104.151 45.1929 104.111 44.9729C104.061 44.7729 104.131 44.5529 104.091 44.3629C104.041 44.1629 103.911 43.9829 103.861 43.7929C103.801 43.5929 103.671 43.2529 103.601 43.0629C103.541 42.8629 103.061 42.8029 102.991 42.6229C102.931 42.4429 103.281 42.1129 103.201 41.9129C103.131 41.7229 102.841 41.6029 102.761 41.4229C102.681 41.2329 102.781 40.9929 102.681 40.8029C102.591 40.5929 102.281 40.4829 102.161 40.3029C102.041 40.1129 101.861 39.9729 101.721 39.8029C101.581 39.6329 101.311 39.5929 101.161 39.4329C101.011 39.2829 101.151 38.7929 100.981 38.6429C100.801 38.5029 100.531 38.5029 100.351 38.3629L99.8111 38.0329C99.6311 37.9229 99.3111 38.0729 99.1311 37.9629C98.9511 37.8629 98.9811 37.3529 98.8011 37.2529C98.6111 37.1629 98.3211 37.3129 98.1311 37.2229C97.9411 37.1429 97.7411 37.0929 97.5511 37.0229C97.3611 36.9529 97.1511 36.9529 96.9611 36.8929C96.7711 36.8329 96.6411 36.4729 96.4411 36.4229C96.2411 36.3729 95.9811 36.7129 95.7811 36.6729C95.5911 36.6329 95.4011 36.5029 95.2011 36.4829C95.0011 36.4529 94.8011 36.4529 94.6111 36.4429C94.4011 36.4329 94.2011 36.2829 93.9911 36.2729C93.7811 36.2529 93.5811 36.1929 93.3711 36.1729C93.1611 36.1529 92.9711 36.0229 92.7611 36.0029C92.5511 35.9829 92.3411 36.0729 92.1311 36.0729C91.9211 36.0729 91.7011 36.1329 91.4911 36.1329C91.2811 36.1329 91.0711 36.0629 90.8511 36.0729C90.6311 36.0729 90.4211 36.2329 90.2111 36.2529C90.0011 36.2829 89.7611 36.1229 89.5411 36.1729C89.3211 36.2229 89.1211 36.7429 88.9211 36.7929C88.7211 36.8529 88.4611 36.7429 88.2611 36.8029C88.0511 36.8629 87.9111 37.1029 87.7111 37.1829C87.5111 37.2629 87.3811 37.5329 87.2011 37.6229C87.0111 37.7129 86.6411 37.3929 86.4411 37.4829C86.2511 37.5829 86.1411 37.8629 85.9411 37.9629C85.7411 38.0529 85.6211 38.2929 85.4411 38.4129C85.2611 38.5329 85.0811 38.6629 84.9211 38.8129C84.7611 38.9629 84.6111 39.1229 84.4611 39.2829C84.3111 39.4429 83.9811 39.4529 83.8411 39.6229C83.6911 39.7929 83.5711 39.9829 83.4411 40.1629C83.3111 40.3429 83.2211 40.5529 83.1211 40.7429C83.0111 40.9329 82.8211 41.0829 82.7211 41.2729C82.6211 41.4729 82.7411 41.7629 82.6411 41.9529C82.5411 42.1429 82.1911 42.2229 82.1011 42.4229C82.0111 42.6229 82.1511 42.9129 82.0811 43.1129C82.0011 43.3129 82.3611 43.6929 82.2811 43.8729C82.2011 44.0529 82.0511 44.2029 81.9811 44.3829C81.9111 44.5729 81.7311 44.7129 81.6711 44.9029C81.6111 45.0929 81.5011 45.2729 81.4511 45.4729C81.4111 45.6729 81.5311 45.9129 81.4911 46.1129C81.4611 46.3129 81.2011 46.4929 81.1811 46.7029C81.1711 46.7829 81.1411 46.8729 81.1111 46.9529C81.0711 47.0129 81.0311 47.0729 81.0211 47.1329C81.0111 47.2429 80.7811 47.3329 80.7611 47.4429C80.7511 47.5529 81.0011 47.6729 81.0011 47.7729C81.0011 47.8829 80.9211 48.3029 80.9311 48.4129C80.9311 48.5229 80.8511 48.6329 80.8611 48.7429C80.8611 48.8429 80.8711 49.0629 80.8811 49.1729C80.9111 49.3929 81.0811 49.9929 81.1411 50.1729C81.2111 50.3829 81.4211 50.6929 81.4911 50.8829C81.5611 51.0829 81.5711 51.2929 81.6411 51.4829C81.7111 51.6729 81.9211 51.8029 82.0111 51.9829C82.0911 52.1529 82.2811 52.2929 82.3611 52.4129C82.4211 52.4829 82.3411 52.6229 82.3611 52.7129C82.3811 52.8029 82.1711 52.8929 82.1711 52.9729C82.1711 53.0529 82.3911 53.1729 82.4111 53.2729C82.4111 53.4129 81.6911 53.2929 81.7011 53.3229C81.7011 53.3829 82.0011 53.6629 81.9611 53.7429C81.9111 53.8329 81.6611 53.6929 81.6211 53.7429C81.5811 53.7929 81.6011 53.9529 81.5311 53.9929C81.4711 54.0229 81.4711 54.2329 81.3711 54.2529C81.3011 54.2729 81.3611 54.8229 81.1211 54.8629C80.9511 54.8929 80.7711 54.9529 80.5911 54.9829C80.4211 55.0129 80.5011 55.1529 80.3211 55.1729C80.1511 55.1929 79.9611 55.1229 79.7811 55.1529C79.6011 55.1729 79.5411 55.0529 79.3611 55.0829C79.1811 55.1029 79.0111 55.1729 78.8311 55.2029C78.6511 55.2229 78.4411 55.0329 78.2611 55.0629C78.0811 55.0929 77.9411 55.3429 77.7611 55.3729C77.5811 55.4029 77.4411 55.6129 77.2611 55.6529C77.0811 55.6929 76.8311 55.3829 76.6511 55.4229C76.4711 55.4629 76.3411 55.7229 76.1711 55.7629C75.9911 55.8129 75.8911 56.1029 75.7211 56.1529C75.5511 56.2129 75.3111 56.0529 75.1411 56.1229C74.9711 56.1829 74.7111 56.0529 74.5511 56.1229C74.3811 56.1929 74.1811 56.2229 74.0211 56.3029C73.8511 56.3829 73.8811 56.8029 73.7311 56.8829C73.5611 56.9829 73.3811 57.0629 73.2111 57.1529C73.0411 57.2529 72.8211 57.0129 72.6511 57.1029C72.4811 57.1929 72.3711 57.4129 72.2011 57.4929C72.0311 57.5729 71.4911 56.8029 71.3011 56.8829C71.1211 56.9629 70.9611 57.0529 70.7811 57.1429C70.6011 57.2229 70.5211 57.5129 70.3411 57.5929C70.1811 57.6629 69.9711 57.6329 69.8111 57.6929C69.6411 57.7629 69.5111 57.8929 69.3411 57.9629C69.1711 58.0229 68.8911 58.1629 68.7211 58.2229C68.5511 58.2829 68.5311 58.7629 68.3711 58.8229C68.2111 58.8829 67.9011 58.5129 67.7311 58.5729C67.5611 58.6329 67.4611 58.8929 67.2911 58.9429C67.1211 58.9929 66.9011 58.8529 66.7311 58.9029C66.5511 58.9529 66.4211 59.2029 66.2411 59.2729C66.0611 59.3429 65.9111 59.4729 65.7411 59.5529C65.5711 59.6329 65.4811 59.8629 65.3111 59.9529C65.1411 60.0429 64.7511 59.7329 64.5811 59.8229C64.4111 59.9229 64.3311 60.1629 64.1711 60.2529C64.0111 60.3429 63.8711 60.4629 63.7211 60.5629C63.5711 60.6629 63.5711 61.0129 63.4211 61.1129C63.2711 61.2129 62.8611 60.9229 62.7011 61.0229C62.5511 61.1229 62.5411 61.4329 62.3911 61.5329L61.9511 61.8629C61.8011 61.9629 61.6911 62.1229 61.5511 62.2329C61.4111 62.3429 61.0711 62.2029 60.9211 62.3229C60.7811 62.4329 60.8711 62.8429 60.7311 62.9529C60.5911 63.0629 60.3811 63.1029 60.2411 63.2129L59.8311 63.5729C59.6911 63.6929 59.4511 63.7229 59.3111 63.8429C59.1611 63.9629 58.9911 64.0329 58.8311 64.1429C58.6811 64.2529 58.4611 64.2529 58.3011 64.3529C58.1411 64.4529 58.0411 64.6429 57.8711 64.7429C57.7111 64.8429 57.5911 65.0129 57.4211 65.1129C57.2611 65.2129 57.0611 65.2529 56.9011 65.3629C56.7411 65.4729 56.6511 65.6829 56.4911 65.7929C56.3311 65.9029 56.0711 65.8629 55.9211 65.9729C55.7611 66.0829 55.8211 66.6229 55.6711 66.7329C55.5211 66.8429 55.2611 66.8129 55.1111 66.9329C54.9611 67.0529 54.9111 67.2929 54.7611 67.4129C54.6111 67.5329 54.5811 67.8129 54.4311 67.9229C54.2811 68.0329 53.8711 67.7929 53.7111 67.9029C53.5611 68.0129 53.5111 68.2729 53.3511 68.3829C53.1911 68.4929 53.1111 68.7029 52.9611 68.8229L52.5311 69.1929C52.3911 69.3229 52.2711 69.4729 52.1311 69.6029C51.9911 69.7329 51.6811 69.7029 51.5511 69.8429C51.4211 69.9829 51.2811 70.1129 51.1611 70.2629C51.0311 70.4029 50.9411 70.5829 50.8111 70.7229C50.6911 70.8729 50.4911 70.9529 50.3711 71.1029C50.2411 71.2429 50.3011 71.5429 50.1711 71.6829C50.0411 71.8229 49.6911 71.7629 49.5611 71.9029C49.4311 72.0429 49.4811 72.3529 49.3511 72.4929C49.2211 72.6329 49.4311 73.1029 49.2911 73.2329C49.1611 73.3629 48.9611 73.4129 48.8311 73.5429C48.7011 73.6729 48.4811 73.7029 48.3511 73.8229C48.2211 73.9529 48.0511 74.0329 47.9111 74.1529C47.7811 74.2729 47.7811 74.5429 47.6511 74.6629C47.5311 74.7929 47.2311 74.7929 47.1111 74.9229C47.0611 74.9729 47.0011 75.0229 46.9311 75.0629C46.8711 75.0829 46.8011 75.1029 46.7611 75.1329C46.6911 75.1929 46.4611 75.1129 46.3911 75.1829C46.3211 75.2429 46.4511 75.4829 46.3911 75.5529C46.3211 75.6229 46.0211 75.8429 45.9611 75.9129C45.9011 75.9829 45.7611 75.9929 45.7011 76.0729C45.6411 76.1429 45.5111 76.2829 45.4511 76.3529C45.3411 76.5129 45.0511 77.0029 44.9711 77.1629C44.8811 77.3429 44.7911 77.6829 44.6911 77.8529C44.5911 78.0229 44.4311 78.1629 44.3311 78.3329C44.2311 78.5029 44.2811 78.7529 44.1911 78.9229C44.1111 79.1029 44.1411 79.3029 44.0811 79.4829C44.0311 79.6329 43.8011 79.7729 43.7011 79.9529C43.6111 80.1129 43.3211 80.1629 43.2311 80.3229C43.1311 80.5029 43.2311 80.7629 43.1911 80.9129C43.1211 81.1029 42.3011 81.1129 42.2311 81.2629C42.1511 81.4529 42.4411 81.7629 42.3711 81.9129C42.2911 82.0829 41.9511 82.1229 41.8611 82.2829C41.7811 82.4429 41.8211 82.6629 41.7211 82.8229C41.6311 82.9629 41.7011 83.2229 41.6011 83.3929C41.5111 83.5329 41.9111 83.9629 41.8111 84.1329C41.7211 84.2829 41.6511 84.4629 41.5511 84.6129C41.4611 84.7629 41.6211 84.7929 41.5211 84.9429C41.4211 85.0929 41.2411 85.1829 41.1511 85.3329C41.0511 85.4829 40.9211 85.4529 40.8211 85.6029C40.7311 85.7529 40.6711 85.9329 40.5811 86.0929C40.4911 86.2429 40.1911 86.2729 40.1011 86.4329C40.0111 86.5929 40.1011 86.8529 40.0011 87.0129C39.9111 87.1729 39.9711 87.4129 39.8811 87.5729C39.7911 87.7329 39.3911 87.7229 39.3011 87.8829C39.2211 88.0429 39.3411 88.3129 39.2611 88.4729C39.1811 88.6429 39.3311 88.9029 39.2611 89.0629C39.1911 89.2329 38.9211 89.3129 38.8511 89.4729C38.7811 89.6429 38.5211 89.7529 38.4611 89.9229C38.4011 90.0929 38.2911 90.2629 38.2511 90.4429C38.2111 90.6229 38.5511 90.8729 38.5211 91.0529C38.4911 91.2429 38.4211 91.4329 38.3811 91.6229C38.3411 91.8129 38.0111 91.8229 37.9711 92.0129C37.9211 92.2029 38.0211 92.4229 37.9711 92.6129C37.9211 92.7929 36.9711 92.7029 36.9311 92.8929C36.8811 93.0829 36.8511 93.2729 36.7911 93.4629C36.7311 93.6529 36.9011 93.9029 36.8411 94.0929C36.7911 94.2629 36.6211 94.3929 36.5611 94.5629C36.5011 94.7329 36.5111 94.9229 36.4511 95.0929C36.3811 95.2629 36.3211 95.5729 36.2611 95.7429C36.2011 95.9129 36.5411 96.2329 36.4811 96.4029C36.4211 96.5629 35.9311 96.5529 35.8711 96.7229C35.8011 96.8829 35.9311 97.1329 35.8511 97.2929C35.7811 97.4529 35.5311 97.5229 35.4511 97.6929C35.3711 97.8629 35.4911 98.1329 35.4211 98.3129C35.3611 98.4929 35.3511 98.6929 35.3011 98.8729C35.2511 99.0529 35.3611 99.2729 35.3211 99.4629C35.2811 99.6429 34.7811 99.7429 34.7411 99.9329C34.7011 100.123 34.8311 100.333 34.8011 100.523L34.7511 101.073C34.7211 101.253 34.9911 101.473 34.9611 101.653C34.9311 101.833 34.4411 101.953 34.4211 102.133C34.3911 102.313 34.6211 102.523 34.6011 102.703C34.5711 102.883 34.5911 103.063 34.5711 103.253C34.5611 103.433 34.6111 103.623 34.5911 103.803C34.5811 103.983 34.2511 104.153 34.2411 104.333C34.2411 104.513 34.6011 104.703 34.5911 104.883C34.5911 105.063 34.4711 105.243 34.4711 105.423C34.4711 105.603 34.4811 105.783 34.4911 105.963C34.4911 106.153 34.3611 106.343 34.3511 106.533C34.3511 106.723 34.2811 106.903 34.2611 107.093C34.2411 107.283 34.1011 107.443 34.0711 107.633C34.0411 107.823 34.1111 108.023 34.0811 108.203C34.0611 108.393 34.1111 108.593 34.0811 108.783C34.0511 108.973 33.9511 109.143 33.9211 109.333C33.8911 109.523 34.0011 109.733 33.9711 109.923C33.9511 110.113 33.7511 110.283 33.7311 110.473C33.7111 110.663 34.1611 110.973 34.1511 111.153C34.1511 111.343 33.9511 111.523 33.9411 111.713C33.9411 111.903 34.0811 112.103 34.0711 112.293C34.0711 112.483 34.2511 112.683 34.2411 112.873C34.2311 113.063 33.7711 113.213 33.7511 113.403C33.7411 113.593 33.9211 113.793 33.9011 113.983C33.8811 114.173 33.9911 114.373 33.9811 114.563C33.9811 114.753 33.9811 114.943 33.9811 115.133C33.9811 115.323 34.0211 115.513 34.0311 115.703C34.0311 115.883 33.8111 116.163 33.8211 116.183C33.8211 116.253 33.8311 116.323 33.8211 116.393C33.8211 116.463 33.8511 116.553 33.8211 116.623C33.8011 116.703 33.7011 116.733 33.6711 116.803C33.6411 116.863 33.7911 117.073 33.7311 117.143C33.6711 117.223 33.4111 117.053 33.3611 117.093C33.3111 117.133 33.3711 117.383 33.2811 117.423C33.2111 117.453 33.2711 117.933 33.1411 117.943C33.0311 117.953 32.9111 117.863 32.8111 117.853C32.7611 117.853 32.7211 117.813 32.6611 117.773C32.5811 117.733 32.4911 117.693 32.4011 117.683C32.2211 117.663 32.0511 117.593 31.8811 117.573C31.7011 117.553 31.5111 117.723 31.3311 117.703C31.1511 117.683 30.9811 117.463 30.8011 117.443C30.7311 117.443 30.6611 117.413 30.5911 117.393C30.5411 117.353 30.4911 117.313 30.4311 117.313C30.3411 117.303 30.2611 117.073 30.1711 117.053C30.0811 117.043 29.9811 117.293 29.8911 117.283C29.8011 117.273 29.4511 117.173 29.3511 117.173C29.2611 117.173 29.1711 117.073 29.0811 117.073C28.9911 117.073 28.8111 117.043 28.7111 117.033V119.163V117.043H28.6811H28.6611H28.6411L28.6111 117.063L28.5811 117.083L28.5111 117.123C28.5111 117.123 28.4211 117.183 28.3911 117.213H28.3611L28.3411 117.233H28.2911L28.2711 117.243H28.2511L28.2311 117.263L28.2111 117.283L28.1611 117.333L28.1111 117.393L28.0111 117.523L27.9211 117.663C27.8911 117.713 27.8611 117.763 27.8311 117.813L27.8111 117.863L27.7911 117.913L27.7611 118.023L27.7311 118.143L27.6911 118.253V118.273L27.6711 118.293H27.6611L27.6411 118.313H27.6211L27.6011 118.323H27.5611L27.5311 118.293L27.4711 118.233L27.4111 118.183L27.3811 118.163H27.3611L27.3111 118.123L27.2611 118.093L27.1511 118.023L27.0411 117.953L26.9911 117.923L26.9411 117.903H26.9211H26.9011H26.8811L26.8711 117.923H26.8611L26.8511 117.953L26.8311 117.983L26.8111 118.023L26.7811 118.063H26.7711L26.7511 118.093H26.7311H26.7111H26.6711H26.6311H26.6011L26.5711 118.113L26.5011 118.143H26.4611L26.4211 118.163H26.3811L26.3211 118.183L26.2011 118.203H26.1411L26.0811 118.233L26.0211 118.253L25.9611 118.283L25.8611 118.353L25.7611 118.423L25.5611 118.583L25.5311 118.603H25.5211C25.5211 118.603 25.5111 118.613 25.4911 118.633L27.3511 119.733L25.4911 118.643C25.4311 118.713 25.3411 118.813 25.2311 118.943C25.1511 119.073 24.9511 119.183 25.0111 119.363C25.0311 119.693 25.0511 120.023 25.0611 120.173C25.0711 120.343 25.1211 120.573 25.1611 120.803L25.1911 120.973V121.013V121.023L25.5311 122.113L25.5511 122.133L25.6111 122.193C25.6911 122.283 25.7711 122.363 25.8411 122.423C26.1111 122.713 26.4711 123.053 26.8411 123.213C27.2211 123.383 27.5711 123.303 27.8511 123.333C28.1411 123.363 28.3511 123.253 28.5811 123.223C28.7711 123.203 29.0411 123.323 29.2611 123.323C29.4611 123.323 29.6811 123.533 29.8611 123.513C30.0711 123.493 30.2311 123.263 30.3911 123.213C30.5811 123.173 31.0711 123.863 31.2111 123.833C31.3911 123.803 31.4911 123.393 31.6511 123.373C31.8311 123.343 32.0311 123.623 32.1911 123.603C32.3511 123.593 32.5211 123.433 32.6911 123.443C32.8411 123.443 33.0111 123.273 33.1911 123.283C33.3211 123.293 33.5611 122.743 33.6811 122.763C33.8011 122.783 33.9211 122.783 34.0411 122.823C34.1511 122.863 34.1611 122.713 34.2811 122.763C34.3911 122.823 34.4511 122.973 34.5411 123.053C34.6311 123.133 34.5811 123.243 34.6511 123.333C34.7311 123.413 34.8311 123.473 34.8811 123.563C34.9411 123.663 34.7911 123.883 34.8211 123.963C34.8511 124.043 35.0711 124.053 35.1011 124.163C35.1211 124.263 35.3011 124.313 35.3211 124.453C35.3411 124.633 35.0111 124.843 35.0311 125.023C35.0511 125.193 35.2911 125.343 35.3211 125.513C35.3511 125.693 35.6111 125.823 35.6411 125.993C35.6711 126.163 35.4911 126.383 35.5211 126.553C35.5611 126.723 35.3911 126.953 35.4311 127.123C35.4711 127.293 35.4811 127.493 35.5311 127.653C35.5811 127.823 36.0011 127.863 36.0611 128.023C36.1311 128.203 36.1711 128.403 36.2311 128.583C36.2911 128.763 36.0211 128.933 36.0711 129.123C36.1211 129.303 36.3211 129.453 36.3711 129.633C36.4211 129.813 35.5611 130.193 35.6011 130.383C35.6511 130.573 35.7111 130.743 35.7511 130.943C35.7911 131.133 36.0611 131.273 36.1011 131.463C36.1411 131.633 36.0611 131.833 36.1011 132.003C36.1311 132.183 36.2411 132.333 36.2711 132.513C36.3011 132.693 36.3911 133.003 36.4211 133.173C36.4511 133.353 36.9011 133.473 36.9211 133.643C36.9411 133.813 36.5211 134.043 36.5411 134.223C36.5711 134.403 36.8011 134.563 36.8211 134.743C36.8411 134.923 36.6611 135.113 36.6811 135.293C36.7011 135.493 36.9411 135.673 36.9811 135.863C37.0211 136.053 37.1211 136.233 37.1711 136.423C37.2211 136.613 37.4411 136.743 37.5111 136.933C37.5811 137.123 37.2311 137.483 37.3111 137.673C37.3811 137.863 37.6211 137.983 37.7211 138.163L38.0211 138.683C38.1111 138.863 38.4511 138.893 38.5611 139.063C38.6611 139.233 38.3811 139.663 38.4911 139.833C38.6011 140.013 38.9111 140.033 39.0511 140.193C39.1811 140.353 39.3311 140.503 39.4611 140.663C39.5911 140.823 39.7611 140.943 39.9111 141.083C40.0611 141.223 40.0011 141.613 40.1511 141.763C40.3111 141.913 40.6911 141.763 40.8611 141.873C41.0311 141.993 41.1311 142.203 41.3011 142.323C41.4711 142.443 41.6411 142.553 41.8311 142.633C42.0211 142.733 42.1511 142.963 42.3411 143.073C42.5211 143.193 42.6811 143.333 42.8811 143.423C43.0711 143.523 43.1911 143.723 43.3811 143.833C43.5711 143.943 43.8011 143.943 44.0011 144.033C44.1911 144.123 44.4211 144.133 44.6211 144.223C44.8111 144.313 44.9811 144.473 45.1711 144.533C45.3711 144.603 45.6211 144.543 45.8111 144.613C45.9811 144.643 46.2411 144.983 46.5911 144.973C46.6711 144.973 46.7911 144.953 46.8611 144.913C46.9211 144.873 46.9811 144.813 47.0311 144.763C47.1511 144.653 47.2711 144.543 47.3611 144.543C47.5511 144.543 47.7211 144.743 47.9011 144.753C48.0811 144.753 48.2811 144.613 48.4611 144.623C48.6411 144.633 48.8411 144.443 49.0311 144.453C49.2111 144.463 49.3511 144.923 49.5411 144.943C49.7211 144.963 49.9311 144.793 50.1111 144.823C50.2911 144.853 50.4911 144.753 50.6811 144.773C50.8711 144.783 51.0511 144.793 51.2311 144.813C51.4211 144.813 51.6011 144.793 51.7811 144.793C51.9711 144.793 52.1611 145.033 52.3411 145.023L52.9011 145.003C53.0911 145.003 53.2711 144.943 53.4611 144.933C53.6511 144.933 53.8411 145.003 54.0211 144.993C54.2111 144.993 54.3811 144.743 54.5711 144.733C54.7611 144.733 54.9511 145.023 55.1311 145.023C55.3211 145.023 55.5011 144.773 55.6911 144.783C55.8811 144.793 56.0811 144.323 56.2711 144.343C56.4511 144.353 56.6211 144.473 56.7911 144.483C56.9711 144.503 57.1311 144.643 57.3111 144.663C57.4911 144.683 57.6611 144.753 57.8311 144.773C58.0111 144.793 58.2011 144.633 58.3811 144.643C58.5611 144.663 58.7311 144.883 58.9111 144.903C58.9811 144.903 59.0511 144.933 59.1211 144.953C59.1711 144.993 59.2211 145.033 59.2811 145.033C59.3711 145.043 59.4511 145.283 59.5411 145.293C59.6311 145.303 59.7311 145.053 59.8211 145.063C59.9111 145.073 60.2611 145.173 60.3611 145.173C60.4511 145.173 60.5411 145.273 60.6311 145.273C60.7211 145.273 60.9011 145.303 61.0011 145.313C61.1911 145.313 61.7311 145.253 61.9011 145.223C62.0911 145.193 62.4111 145.053 62.6011 145.043C62.7911 145.023 62.9911 145.073 63.1811 145.043C63.3711 145.023 63.5411 144.853 63.7311 144.823C63.9211 144.793 64.0611 144.653 64.2511 144.603C64.4011 144.563 64.6411 144.673 64.8411 144.663C65.0211 144.663 65.2211 144.863 65.4011 144.853C65.6011 144.843 65.7611 144.603 65.9111 144.563C66.1011 144.533 66.5311 145.233 66.6911 145.203C66.8811 145.173 67.0011 144.763 67.1611 144.753C67.3511 144.733 67.5511 145.003 67.7211 145.003C67.8911 145.003 68.0611 144.843 68.2511 144.843C68.4111 144.843 68.6011 144.663 68.7911 144.663C68.9511 144.663 69.1311 144.123 69.3311 144.133C69.5011 144.133 69.6911 144.123 69.8711 144.133C70.0411 144.143 69.9911 143.993 70.1711 144.003C70.3411 144.013 70.5111 144.133 70.6811 144.143C70.8511 144.163 70.8811 144.293 71.0611 144.303C71.2311 144.323 71.4211 144.293 71.5911 144.303C71.7711 144.323 71.9211 144.573 72.0911 144.583C72.2711 144.603 72.4611 144.403 72.6411 144.423C72.8211 144.433 73.0111 144.273 73.1811 144.293C73.3611 144.303 73.5111 144.673 73.6911 144.683C73.8711 144.683 74.0611 144.483 74.2311 144.483C74.4111 144.483 74.5911 144.243 74.7611 144.243C74.9411 144.243 75.1211 144.463 75.2911 144.453C75.4711 144.453 75.6611 144.653 75.8411 144.633C76.0211 144.623 76.2111 144.653 76.3911 144.633C76.5711 144.613 76.6811 144.203 76.8511 144.173C77.0411 144.133 77.2411 144.133 77.4211 144.103C77.6111 144.073 77.7311 144.373 77.9211 144.353C78.1111 144.333 78.2811 144.163 78.4711 144.143C78.6611 144.123 78.8811 145.043 79.0711 145.033C79.2611 145.023 79.4411 144.993 79.6311 144.983C79.8211 144.983 80.0011 144.743 80.2011 144.743C80.3711 144.743 80.5511 144.853 80.7211 144.863C80.8911 144.863 81.0711 144.793 81.2411 144.803C81.4111 144.803 81.7211 144.803 81.9011 144.803C82.0711 144.813 82.2911 144.403 82.4611 144.423C82.6311 144.443 82.7511 144.903 82.9211 144.933C83.0911 144.953 83.2911 144.773 83.4611 144.793C83.6311 144.823 83.7611 145.043 83.9311 145.073C84.1111 145.103 84.3311 144.943 84.5211 144.963C84.7011 144.983 84.8911 144.943 85.0711 144.953C85.2511 144.953 85.4411 144.803 85.6211 144.803C85.8011 144.803 86.0011 145.263 86.1811 145.263C86.3611 145.263 86.5511 145.083 86.7311 145.083L87.2611 145.043C87.4411 145.043 87.6011 144.733 87.7811 144.733C87.9611 144.733 88.1611 145.183 88.3311 145.183C88.5011 145.183 88.6711 144.913 88.8511 144.903L89.3811 144.843C89.5611 144.833 89.7311 144.763 89.9011 144.743C90.0811 144.733 90.2811 145.033 90.4611 145.013C90.6411 144.993 90.7711 144.613 90.9511 144.593C91.1311 144.573 91.3111 144.663 91.4911 144.643L92.0111 144.573C92.1911 144.543 92.3911 144.673 92.5811 144.653C92.7711 144.643 92.9411 144.693 93.1311 144.693C93.3211 144.693 93.4911 144.823 93.6711 144.833C93.8611 144.843 94.0411 144.753 94.2311 144.773C94.4111 144.793 94.6111 144.723 94.7911 144.743C94.9711 144.763 95.1511 144.863 95.3411 144.873C95.5311 144.893 95.7211 144.783 95.9111 144.793C96.1011 144.803 96.2711 144.993 96.4511 145.003C96.6411 145.013 96.9211 144.563 97.1111 144.573C97.2911 144.573 97.4711 144.773 97.6511 144.783C97.8311 144.783 98.0311 144.643 98.2111 144.653C98.3911 144.663 98.5911 144.473 98.7811 144.483C98.9611 144.493 99.1011 144.953 99.2911 144.973C99.4711 144.993 99.6811 144.823 99.8611 144.853C100.041 144.883 100.241 144.783 100.431 144.803C100.621 144.813 100.801 144.823 100.981 144.843C101.171 144.843 101.351 144.823 101.531 144.823C101.721 144.823 101.911 145.063 102.091 145.053L102.651 145.033C102.841 145.033 103.021 144.973 103.211 144.963C103.401 144.953 103.591 145.033 103.771 145.023C103.961 145.023 104.131 144.773 104.321 144.763C104.511 144.763 104.701 145.053 104.881 145.053C105.071 145.053 105.251 144.803 105.441 144.813C105.631 144.813 105.831 144.353 106.021 144.363C106.201 144.383 106.371 144.493 106.541 144.503C106.721 144.523 106.881 144.663 107.061 144.683C107.241 144.703 107.411 144.773 107.581 144.793C107.761 144.813 107.951 144.653 108.131 144.663C108.311 144.683 108.481 144.903 108.661 144.923C108.731 144.923 108.801 144.953 108.871 144.973C108.921 145.013 108.971 145.053 109.031 145.063C109.121 145.073 109.201 145.313 109.291 145.323C109.381 145.333 109.481 145.083 109.571 145.093C109.661 145.103 110.011 145.203 110.111 145.203C110.201 145.203 110.291 145.303 110.381 145.303C110.471 145.303 110.651 145.333 110.751 145.343C110.941 145.343 111.481 145.283 111.651 145.253C111.841 145.223 112.161 145.093 112.351 145.073C112.541 145.053 112.741 145.103 112.931 145.073C113.121 145.053 113.291 144.883 113.481 144.853C113.671 144.823 113.811 144.683 114.001 144.633C114.151 144.593 114.391 144.703 114.591 144.693C114.771 144.693 114.971 144.893 115.151 144.883C115.351 144.873 115.511 144.633 115.661 144.593C115.851 144.563 116.281 145.263 116.441 145.233C116.631 145.203 116.751 144.793 116.911 144.783C117.101 144.763 117.301 145.033 117.471 145.033C117.641 145.033 117.811 144.873 118.001 144.873C118.161 144.873 118.351 144.693 118.541 144.693C118.701 144.693 118.881 144.153 119.081 144.163C119.251 144.163 119.441 144.153 119.621 144.163C119.791 144.173 119.741 144.023 119.921 144.033C120.091 144.043 120.261 144.163 120.431 144.173C120.601 144.193 120.631 144.323 120.811 144.333C120.981 144.353 121.171 144.323 121.341 144.333C121.521 144.353 121.671 144.603 121.841 144.613C122.021 144.633 122.211 144.433 122.391 144.453C122.571 144.463 122.761 144.303 122.931 144.323C123.111 144.333 123.261 144.703 123.441 144.713C123.621 144.713 123.811 144.513 123.981 144.513C124.161 144.513 124.341 144.273 124.511 144.273C124.691 144.273 124.871 144.493 125.041 144.483C125.221 144.483 125.411 144.683 125.591 144.663C125.771 144.653 125.961 144.683 126.141 144.663C126.321 144.643 126.431 144.233 126.601 144.203C126.791 144.163 126.991 144.163 127.171 144.133C127.361 144.103 127.481 144.403 127.671 144.383C127.861 144.363 128.031 144.193 128.221 144.173C128.411 144.153 128.631 145.073 128.821 145.063C129.011 145.053 129.191 145.023 129.381 145.013C129.571 145.013 129.751 144.773 129.951 144.773C130.121 144.773 130.301 144.883 130.471 144.893C130.641 144.893 130.821 144.823 130.991 144.833C131.161 144.833 131.471 144.833 131.651 144.833C131.821 144.843 132.041 144.433 132.211 144.453C132.381 144.473 132.501 144.933 132.671 144.963C132.841 144.983 133.041 144.803 133.211 144.823C133.381 144.853 133.511 145.073 133.681 145.103C133.861 145.133 134.081 144.973 134.271 144.993C134.451 145.013 134.641 144.973 134.821 144.983C135.001 144.983 135.191 144.833 135.371 144.833C135.551 144.833 135.751 145.293 135.931 145.293C136.111 145.293 136.301 145.113 136.481 145.113L137.011 145.063C137.191 145.063 137.351 144.753 137.531 144.753C137.711 144.753 137.911 145.203 138.081 145.203C138.121 145.203 138.171 145.183 138.211 145.153C138.281 145.123 138.361 145.093 138.441 145.063C138.591 145.003 138.751 144.883 138.871 144.863C139.071 144.823 139.261 144.753 139.451 144.693C139.651 144.643 139.821 144.523 140.011 144.463C140.201 144.403 140.511 144.623 140.701 144.553C140.891 144.483 140.921 144.053 141.101 143.973C141.281 143.893 141.511 143.893 141.691 143.803L142.201 143.493C142.371 143.373 142.631 143.393 142.811 143.273C142.991 143.163 143.191 143.103 143.371 142.993C143.551 142.883 143.791 142.883 143.971 142.763C144.161 142.653 144.271 142.443 144.451 142.333C144.631 142.213 144.761 142.023 144.931 141.893C145.101 141.763 145.321 141.693 145.481 141.553C145.651 141.413 145.731 141.163 145.881 141.013C146.041 140.863 146.311 140.823 146.461 140.653C146.621 140.483 146.441 139.933 146.571 139.773C146.701 139.603 146.971 139.533 147.081 139.353C147.201 139.173 147.181 138.913 147.281 138.733C147.381 138.553 147.321 138.263 147.411 138.093C147.501 137.913 147.991 137.963 148.091 137.773C148.181 137.593 148.111 137.313 148.211 137.133C148.311 136.953 148.281 136.713 148.361 136.533C148.441 136.343 148.511 136.163 148.571 135.973C148.631 135.783 148.671 135.583 148.711 135.393C148.761 135.203 149.051 135.063 149.091 134.863L149.201 134.283C149.241 134.093 149.221 133.893 149.261 133.693C149.291 133.503 149.411 133.323 149.431 133.133C149.461 132.943 149.261 132.713 149.281 132.533C149.311 132.343 149.631 132.203 149.671 132.013C149.701 131.823 149.491 131.593 149.531 131.413C149.571 131.223 149.141 130.943 149.191 130.763C149.231 130.593 149.371 130.443 149.411 130.263C149.451 130.093 149.621 129.953 149.671 129.783C149.711 129.613 149.821 129.463 149.871 129.293C149.921 129.123 149.791 128.913 149.841 128.753C149.891 128.593 150.141 128.453 150.191 128.293C150.211 128.223 150.241 128.163 150.281 128.103C150.321 128.063 150.371 128.023 150.391 127.973C150.421 127.893 150.661 127.863 150.691 127.773C150.721 127.693 150.491 127.543 150.521 127.463C150.551 127.383 150.701 127.063 150.731 126.973C150.751 126.893 150.861 126.823 150.881 126.733C150.901 126.653 150.961 126.483 150.981 126.393C151.011 126.213 151.051 125.683 151.061 125.513C151.061 125.323 150.991 124.993 151.011 124.803C151.011 124.713 151.041 124.623 151.071 124.533C151.091 124.433 151.111 124.453 151.111 124.393C151.111 124.323 150.981 124.193 151.001 124.103C151.011 124.023 150.941 123.883 150.961 123.773C150.981 123.683 151.141 123.673 151.211 123.603C151.281 123.533 151.471 123.653 151.531 123.613C151.591 123.563 151.571 123.323 151.641 123.253C151.681 123.223 151.811 123.353 151.911 123.513C152.011 123.663 152.051 123.823 152.151 123.813C152.311 123.773 152.381 123.373 152.531 123.343C152.691 123.313 152.881 123.583 153.031 123.563C153.171 123.543 153.331 123.393 153.511 123.403C153.671 123.403 153.841 123.233 154.031 123.243C154.181 123.253 154.371 122.713 154.561 122.723C154.731 122.733 154.901 122.723 155.091 122.743C155.271 122.763 155.221 122.603 155.401 122.623C155.581 122.643 155.741 122.763 155.931 122.783C156.111 122.803 156.141 122.933 156.321 122.963C156.511 122.983 156.711 122.943 156.921 122.953C157.121 122.953 157.331 123.193 157.581 123.173C157.831 123.153 158.081 122.893 158.391 122.783C158.711 122.673 159.021 122.233 159.211 121.973C159.321 121.833 159.441 121.813 159.581 121.763C159.721 121.703 159.891 121.593 159.961 121.423C160.121 121.053 159.991 120.553 159.931 120.173L159.881 120.183ZM119.271 138.473C119.091 138.473 118.571 138.533 118.401 138.563C118.221 138.593 117.911 138.733 117.731 138.743C117.551 138.763 117.361 138.713 117.181 138.743C117.001 138.763 116.841 138.933 116.661 138.963C116.481 138.993 116.341 139.133 116.171 139.183C116.031 139.223 115.791 139.113 115.601 139.123C115.431 139.123 115.231 138.923 115.061 138.933C114.871 138.943 114.721 139.183 114.571 139.223C114.391 139.253 113.971 138.553 113.811 138.583C113.621 138.613 113.521 139.023 113.361 139.033C113.181 139.053 112.991 138.783 112.821 138.783C112.651 138.783 112.491 138.943 112.321 138.943C112.161 138.943 111.991 139.123 111.801 139.123C111.641 139.123 111.481 139.663 111.291 139.653C111.121 139.653 110.951 139.663 110.771 139.653C110.601 139.643 110.661 139.793 110.481 139.783C110.311 139.773 110.151 139.653 109.981 139.643C109.811 139.623 109.781 139.493 109.611 139.483C109.441 139.463 109.271 139.493 109.101 139.483C108.931 139.463 108.781 139.213 108.611 139.203C108.441 139.183 108.251 139.383 108.081 139.373C107.911 139.363 107.731 139.523 107.561 139.503C107.391 139.493 107.241 139.123 107.071 139.113C106.901 139.113 106.721 139.313 106.551 139.313C106.381 139.313 106.211 139.553 106.041 139.553C105.871 139.553 105.701 139.333 105.531 139.343C105.361 139.343 105.171 139.143 105.001 139.163C104.831 139.173 104.641 139.143 104.481 139.163C104.311 139.183 104.211 139.593 104.041 139.623C103.861 139.663 103.671 139.663 103.491 139.693C103.311 139.723 103.191 139.423 103.011 139.443C102.831 139.463 102.661 139.633 102.481 139.653C102.301 139.673 102.081 138.753 101.901 138.763C101.721 138.773 101.541 138.803 101.361 138.813C101.181 138.813 101.001 139.053 100.821 139.053C100.651 139.053 100.491 138.943 100.321 138.933C100.151 138.933 99.9911 139.003 99.8211 138.993C99.6511 138.993 99.3511 138.993 99.1911 138.993C99.0211 138.983 98.8211 139.393 98.6611 139.373C98.5011 139.353 98.3811 138.893 98.2211 138.863C98.0611 138.843 97.8611 139.023 97.7011 139.003C97.5411 138.973 97.4111 138.753 97.2511 138.723C97.0711 138.693 96.8611 138.853 96.6911 138.833C96.5111 138.813 96.3311 138.853 96.1611 138.843C95.9811 138.843 95.8111 138.993 95.6311 138.993C95.4511 138.993 95.2611 138.533 95.0911 138.533C94.9211 138.533 94.7411 138.713 94.5611 138.713L94.0511 138.763C93.8811 138.763 93.7211 139.073 93.5511 139.073C93.3811 139.073 93.1811 138.623 93.0111 138.623C92.8411 138.623 92.6811 138.893 92.5111 138.903L92.0011 138.963C91.8311 138.973 91.6711 139.053 91.5011 139.063C91.3311 139.073 91.1311 138.773 90.9611 138.793C90.7911 138.813 90.6611 139.193 90.4911 139.213C90.3211 139.233 90.1411 139.143 89.9711 139.163L89.4711 139.233C89.2911 139.263 89.1011 139.133 88.9211 139.153C88.7411 139.173 88.5711 139.113 88.3911 139.113C88.2111 139.113 88.0511 138.983 87.8711 138.973C87.6911 138.963 87.5111 139.053 87.3411 139.033C87.1611 139.013 86.9811 139.083 86.8011 139.063C86.6211 139.043 86.4511 138.943 86.2711 138.933C86.0911 138.913 85.9011 139.023 85.7211 139.013C85.5411 139.003 85.3711 138.813 85.2011 138.803C85.0211 138.793 84.7511 139.243 84.5711 139.233C84.3911 139.233 84.2211 139.033 84.0511 139.023C83.8711 139.023 83.6911 139.163 83.5111 139.153C83.3311 139.153 83.1411 139.333 82.9611 139.323C82.7811 139.313 82.6511 138.853 82.4711 138.833C82.3011 138.813 82.1011 138.983 81.9211 138.953C81.7411 138.923 81.5511 139.023 81.3811 139.003C81.2011 138.993 81.0311 138.983 80.8511 138.963C80.6711 138.963 80.5011 138.983 80.3211 138.983C80.1411 138.983 79.9611 138.743 79.7811 138.753L79.2411 138.773C79.0611 138.773 78.8811 138.833 78.7111 138.843C78.5311 138.853 78.3511 138.773 78.1711 138.783C77.9911 138.783 77.8211 139.033 77.6511 139.043C77.4711 139.043 77.2911 138.753 77.1111 138.753C76.9311 138.753 76.7511 139.003 76.5811 138.993C76.4011 138.993 76.2011 139.453 76.0211 139.443C75.8511 139.433 75.6911 139.313 75.5211 139.303C75.3511 139.283 75.1911 139.143 75.0211 139.123C74.8511 139.103 74.6911 139.033 74.5211 139.013C74.3511 138.993 74.1611 139.153 74.0011 139.143C73.8311 139.123 73.6611 138.903 73.4911 138.883C73.4211 138.883 73.3511 138.853 73.2911 138.833C73.2411 138.793 73.1911 138.753 73.1411 138.753C73.0511 138.743 72.9811 138.513 72.8911 138.493C72.8011 138.483 72.7111 138.733 72.6211 138.723C72.5311 138.713 72.1911 138.613 72.1011 138.613C72.0111 138.613 71.9311 138.513 71.8411 138.513C71.7511 138.513 71.5811 138.483 71.4911 138.473V140.603V138.483C71.3011 138.483 70.7811 138.543 70.6111 138.573C70.4311 138.603 70.1211 138.743 69.9411 138.753C69.7611 138.773 69.5711 138.723 69.3911 138.753C69.2111 138.773 69.0511 138.943 68.8611 138.973C68.6811 139.003 68.5411 139.143 68.3611 139.193C68.2211 139.233 67.9911 139.123 67.7911 139.133C67.6211 139.133 67.4311 138.933 67.2611 138.943C67.0711 138.953 66.9211 139.193 66.7711 139.233C66.5811 139.263 66.1711 138.563 66.0211 138.593C65.8311 138.623 65.7211 139.033 65.5711 139.043C65.3911 139.063 65.2011 138.793 65.0311 138.793C64.8611 138.793 64.7011 138.953 64.5211 138.953C64.3611 138.953 64.1911 139.133 64.0011 139.133C63.8411 139.133 63.6711 139.673 63.4911 139.663C63.3211 139.663 63.1511 139.673 62.9711 139.663C62.8011 139.653 62.8511 139.803 62.6811 139.793C62.5111 139.783 62.3511 139.663 62.1811 139.653C62.0111 139.633 61.9811 139.503 61.8111 139.493C61.6411 139.473 61.4711 139.503 61.3011 139.493C61.1311 139.473 60.9811 139.223 60.8111 139.213C60.6411 139.193 60.4511 139.393 60.2811 139.383C60.1111 139.373 59.9311 139.533 59.7611 139.513C59.5911 139.503 59.4411 139.133 59.2711 139.123C59.1011 139.123 58.9211 139.323 58.7511 139.323C58.5811 139.323 58.4111 139.563 58.2411 139.563C58.0711 139.563 57.9011 139.343 57.7311 139.353C57.5611 139.353 57.3711 139.153 57.2011 139.173C57.0311 139.183 56.8411 139.153 56.6811 139.173C56.5111 139.193 56.4011 139.603 56.2411 139.633C56.0611 139.673 55.8711 139.673 55.6911 139.703C55.5111 139.733 55.3911 139.433 55.2111 139.453C55.0311 139.473 54.8611 139.643 54.6811 139.663C54.5011 139.683 54.2911 138.763 54.1111 138.773C53.9311 138.783 53.7511 138.813 53.5711 138.823C53.3911 138.823 53.2111 139.063 53.0311 139.063C52.8611 139.063 52.7011 138.953 52.5311 138.943C52.3611 138.943 52.2011 139.013 52.0311 139.003C51.8611 139.003 51.5611 139.003 51.4011 139.003C51.2311 138.993 51.0311 139.403 50.8611 139.383C50.7011 139.363 50.5811 138.903 50.4211 138.873C50.2611 138.853 50.0611 139.033 49.9011 139.013C49.7411 138.983 49.6111 138.763 49.4511 138.733C49.2811 138.703 49.0611 138.863 48.8811 138.843C48.7011 138.823 48.5211 138.863 48.3511 138.853C48.2011 138.843 47.9411 139.003 47.8711 138.993C47.7911 138.993 47.7711 138.533 47.6211 138.493C47.4911 138.473 47.3311 138.613 47.2011 138.593C47.0711 138.573 46.9311 138.593 46.8211 138.543C46.7011 138.503 46.4911 138.753 46.3611 138.713C46.2211 138.673 46.2711 138.203 46.1811 138.153C46.0711 138.103 45.8511 138.283 45.7311 138.233C45.6111 138.193 45.4911 138.153 45.3811 138.073C45.2711 138.003 45.1311 137.993 45.0111 137.923C44.8911 137.863 45.0011 137.513 44.8911 137.443C44.7911 137.373 44.4411 137.573 44.3311 137.483C44.2311 137.393 44.2111 137.213 44.1011 137.123C44.0011 137.023 43.8811 136.953 43.7911 136.843C43.6911 136.733 43.7011 136.523 43.6111 136.413C43.5211 136.293 43.4911 136.143 43.4211 136.003C43.3511 135.863 43.4011 135.683 43.3411 135.543C43.2811 135.413 43.1511 135.293 43.1011 135.143C43.0611 134.993 42.9311 134.873 42.8911 134.713C42.8611 134.553 42.9011 134.373 42.8711 134.223C42.8411 134.063 42.6711 133.943 42.6411 133.783C42.6111 133.623 42.7511 133.423 42.7211 133.263C42.6811 133.113 42.1911 132.963 42.1611 132.803C42.1311 132.633 42.2811 132.443 42.2611 132.283C42.2311 132.123 42.0611 131.973 42.0311 131.803C42.0111 131.633 41.7811 131.493 41.7711 131.323C41.7611 131.153 42.1911 130.953 42.1811 130.783C42.1811 130.613 41.9811 130.453 41.9811 130.283C41.9811 130.113 41.8611 129.943 41.8511 129.763C41.8411 129.583 41.8311 129.413 41.8211 129.243C41.8011 129.063 41.7511 128.903 41.7311 128.723C41.7111 128.543 41.9211 128.333 41.8911 128.143L41.7911 127.593C41.7511 127.413 41.6811 127.233 41.6411 127.053C41.6011 126.873 41.6411 126.663 41.6011 126.463C41.5511 126.263 41.2811 126.133 41.2311 125.933C41.1811 125.733 41.4111 125.443 41.3411 125.203C41.3011 125.053 41.0511 125.103 41.0411 124.993C41.0411 124.923 40.5611 124.843 40.5811 124.713C40.6011 124.603 40.7211 124.523 40.7611 124.433C40.8011 124.343 40.9611 124.303 41.0111 124.233C41.0611 124.163 41.1611 124.123 41.2211 124.063C41.2711 124.003 41.1911 123.833 41.2711 123.783C41.3411 123.723 41.5611 123.833 41.6211 123.803C41.6511 123.793 41.6811 123.793 41.7211 123.803C41.7611 123.823 41.8011 123.843 41.8211 123.843C41.8611 123.843 41.9911 124.023 42.0211 124.023C42.0511 124.023 41.9711 123.783 42.0111 123.783C42.0511 123.783 42.1911 123.833 42.2111 123.843C42.2411 123.843 42.2811 123.933 42.3111 123.933C42.3411 123.933 42.3911 123.963 42.4111 123.963C42.5911 123.963 43.1111 123.903 43.2811 123.873C43.4611 123.843 43.7711 123.703 43.9511 123.693C44.1311 123.673 44.3211 123.723 44.5011 123.693C44.6811 123.673 44.8511 123.503 45.0311 123.473C45.2111 123.443 45.3511 123.303 45.5311 123.253C45.6711 123.213 45.9011 123.323 46.1011 123.313C46.2711 123.313 46.4611 123.513 46.6311 123.503C46.8211 123.493 46.9811 123.253 47.1211 123.213C47.3111 123.183 47.7211 123.883 47.8711 123.853C48.0611 123.823 48.1711 123.413 48.3311 123.403C48.5111 123.383 48.7011 123.653 48.8711 123.653C49.0411 123.653 49.2011 123.493 49.3811 123.493C49.5411 123.493 49.7111 123.313 49.9011 123.313C50.0611 123.313 50.2311 122.773 50.4211 122.783C50.5911 122.783 50.7611 122.773 50.9411 122.783C51.1111 122.793 51.0611 122.643 51.2311 122.653C51.4011 122.663 51.5611 122.783 51.7311 122.793C51.9011 122.813 51.9311 122.943 52.1011 122.953C52.2711 122.973 52.4411 122.943 52.6111 122.953C52.7811 122.973 52.9311 123.223 53.1011 123.233C53.2711 123.253 53.4611 123.053 53.6311 123.063C53.8011 123.073 53.9811 122.913 54.1511 122.933C54.3211 122.943 54.4711 123.313 54.6411 123.323C54.8111 123.323 54.9911 123.123 55.1611 123.123C55.3311 123.123 55.5011 122.883 55.6711 122.883C55.8411 122.883 56.0111 123.103 56.1811 123.093C56.3511 123.093 56.5411 123.293 56.7111 123.273C56.8811 123.263 57.0711 123.283 57.2411 123.273C57.4111 123.253 57.5211 122.843 57.6811 122.813C57.8611 122.773 58.0511 122.773 58.2311 122.743C58.4111 122.713 58.5311 123.013 58.7111 122.993C58.8911 122.973 59.0611 122.803 59.2411 122.783C59.4211 122.763 59.6311 123.683 59.8111 123.673C59.9911 123.663 60.1711 123.633 60.3511 123.623C60.5311 123.623 60.7111 123.383 60.8911 123.383C61.0611 123.383 61.2211 123.493 61.3911 123.503C61.5611 123.503 61.7211 123.433 61.8911 123.443C62.0611 123.443 62.3611 123.443 62.5211 123.443C62.6911 123.453 62.8911 123.043 63.0611 123.063C63.2211 123.083 63.3411 123.543 63.5011 123.573C63.6611 123.593 63.8611 123.413 64.0211 123.433C64.1811 123.463 64.3111 123.683 64.4711 123.713C64.6411 123.743 64.8611 123.583 65.0411 123.593C65.2211 123.613 65.4011 123.573 65.5711 123.583C65.7511 123.583 65.9211 123.433 66.1011 123.433C66.2811 123.433 66.4611 123.893 66.6411 123.893C66.8211 123.893 66.9911 123.713 67.1711 123.713C67.3411 123.713 67.5111 123.673 67.6811 123.663C67.8511 123.663 68.0111 123.353 68.1811 123.353C68.3511 123.353 68.5411 123.803 68.7111 123.803C68.8811 123.803 69.0411 123.533 69.2111 123.523C69.3811 123.513 69.5511 123.473 69.7211 123.463C69.8911 123.453 70.0511 123.373 70.2211 123.363C70.3911 123.353 70.5911 123.653 70.7611 123.633C70.9311 123.613 71.0611 123.233 71.2311 123.213C71.4011 123.193 71.5811 123.283 71.7511 123.263C71.9211 123.243 72.0911 123.213 72.2511 123.193C72.4311 123.163 72.6211 123.283 72.8011 123.273C72.9811 123.263 73.1511 123.313 73.3311 123.313C73.5111 123.313 73.6711 123.443 73.8511 123.453C74.0311 123.463 74.2111 123.373 74.3911 123.393C74.5711 123.413 74.7511 123.343 74.9311 123.363C75.1111 123.383 75.2811 123.483 75.4611 123.493C75.6411 123.513 75.8311 123.403 76.0111 123.413C76.1911 123.423 76.3611 123.613 76.5311 123.623C76.7111 123.633 76.9911 123.183 77.1611 123.193C77.3411 123.193 77.5111 123.393 77.6811 123.403C77.8611 123.403 78.0411 123.263 78.2211 123.273C78.4011 123.273 78.5911 123.093 78.7711 123.103C78.9511 123.113 79.0811 123.573 79.2611 123.593C79.4311 123.613 79.6311 123.443 79.8111 123.473C79.9911 123.503 80.1811 123.403 80.3511 123.423C80.5311 123.443 80.7011 123.453 80.8811 123.463C81.0611 123.463 81.2311 123.443 81.4111 123.443C81.5911 123.443 81.7711 123.683 81.9511 123.673C82.1311 123.673 82.3111 123.653 82.4911 123.643C82.6711 123.643 82.8511 123.583 83.0211 123.573C83.2011 123.563 83.3811 123.643 83.5611 123.633C83.7411 123.623 83.9111 123.383 84.0911 123.373C84.2711 123.373 84.4511 123.663 84.6311 123.663C84.8111 123.663 84.9911 123.413 85.1711 123.423C85.3511 123.423 85.5511 122.963 85.7311 122.973C85.9011 122.983 86.0611 123.103 86.2311 123.113C86.4011 123.133 86.5611 123.273 86.7311 123.293C86.9011 123.313 87.0611 123.383 87.2311 123.403C87.4011 123.423 87.5911 123.253 87.7511 123.273C87.9211 123.293 88.0911 123.513 88.2611 123.533C88.3311 123.533 88.4011 123.563 88.4611 123.583C88.5111 123.623 88.5611 123.663 88.6111 123.663C88.7011 123.673 88.7711 123.903 88.8611 123.923C88.9511 123.933 89.0411 123.683 89.1311 123.693C89.2211 123.703 89.5611 123.803 89.6511 123.803C89.7411 123.803 89.8211 123.903 89.9111 123.903C90.0011 123.903 90.1711 123.933 90.2611 123.943C90.4411 123.943 90.9611 123.883 91.1311 123.853C91.3111 123.823 91.6211 123.683 91.8011 123.673C91.9811 123.653 92.1711 123.703 92.3511 123.673C92.5311 123.653 92.7011 123.483 92.8811 123.453C93.0611 123.423 93.2011 123.283 93.3811 123.233C93.5211 123.193 93.7511 123.303 93.9511 123.293C94.1211 123.293 94.3111 123.493 94.4811 123.483C94.6711 123.473 94.8311 123.233 94.9711 123.193C95.1611 123.163 95.5711 123.863 95.7211 123.833C95.9111 123.803 96.021 123.393 96.1811 123.383C96.3611 123.363 96.5511 123.633 96.7211 123.633C96.8911 123.633 97.0511 123.473 97.2311 123.473C97.3911 123.473 97.5611 123.293 97.7511 123.293C97.9111 123.293 98.0811 122.753 98.2711 122.763C98.4411 122.763 98.6111 122.753 98.7911 122.763C98.9611 122.773 98.9111 122.623 99.0811 122.633C99.2511 122.643 99.4111 122.763 99.5811 122.773C99.7511 122.793 99.7811 122.923 99.9511 122.933C100.121 122.953 100.291 122.923 100.461 122.933C100.631 122.953 100.781 123.203 100.951 123.213C101.121 123.233 101.311 123.033 101.481 123.043C101.651 123.053 101.831 122.893 102.001 122.913C102.171 122.923 102.321 123.293 102.491 123.303C102.661 123.303 102.841 123.103 103.011 123.103C103.181 123.103 103.351 122.863 103.521 122.863C103.691 122.863 103.861 123.083 104.031 123.073C104.201 123.073 104.391 123.273 104.561 123.253C104.731 123.243 104.921 123.263 105.091 123.253C105.261 123.233 105.371 122.823 105.531 122.793C105.711 122.753 105.901 122.753 106.081 122.723C106.261 122.693 106.381 122.993 106.561 122.973C106.741 122.953 106.911 122.783 107.091 122.763C107.271 122.743 107.481 123.663 107.661 123.653C107.841 123.643 108.021 123.613 108.201 123.603C108.381 123.603 108.561 123.363 108.741 123.363C108.911 123.363 109.071 123.473 109.241 123.483C109.411 123.483 109.571 123.413 109.741 123.423C109.911 123.423 110.211 123.423 110.371 123.423C110.541 123.433 110.741 123.023 110.911 123.043C111.071 123.063 111.191 123.523 111.351 123.553C111.511 123.573 111.711 123.393 111.871 123.413C112.031 123.443 112.161 123.663 112.321 123.693C112.491 123.723 112.711 123.563 112.891 123.573C113.071 123.593 113.251 123.553 113.421 123.563C113.601 123.563 113.771 123.413 113.951 123.413C114.131 123.413 114.311 123.873 114.491 123.873C114.671 123.873 114.841 123.693 115.021 123.693C115.191 123.693 115.361 123.653 115.531 123.643C115.701 123.643 115.861 123.333 116.031 123.333C116.201 123.333 116.391 123.783 116.561 123.783C116.731 123.783 116.891 123.513 117.061 123.503C117.231 123.503 117.401 123.453 117.571 123.443C117.741 123.433 117.901 123.353 118.071 123.343C118.241 123.333 118.441 123.633 118.611 123.613C118.781 123.593 118.911 123.213 119.081 123.193C119.251 123.173 119.431 123.263 119.601 123.243C119.771 123.223 119.941 123.193 120.101 123.173C120.281 123.143 120.471 123.263 120.651 123.253C120.831 123.243 121.001 123.293 121.181 123.293C121.361 123.293 121.521 123.423 121.701 123.433C121.881 123.443 122.061 123.353 122.241 123.373C122.421 123.393 122.601 123.323 122.781 123.343C122.961 123.363 123.131 123.463 123.311 123.473C123.491 123.493 123.681 123.383 123.861 123.393C124.041 123.403 124.211 123.593 124.381 123.603C124.561 123.613 124.841 123.163 125.011 123.173C125.191 123.173 125.361 123.373 125.531 123.383C125.711 123.383 125.891 123.243 126.071 123.253C126.251 123.253 126.441 123.073 126.621 123.083C126.801 123.093 126.931 123.553 127.111 123.573C127.281 123.593 127.481 123.423 127.661 123.453C127.841 123.483 128.031 123.383 128.201 123.403C128.381 123.423 128.551 123.433 128.731 123.443C128.911 123.443 129.081 123.423 129.261 123.423C129.441 123.423 129.621 123.663 129.801 123.653C129.981 123.653 130.161 123.633 130.341 123.623C130.521 123.623 130.701 123.563 130.871 123.553C131.051 123.543 131.231 123.623 131.411 123.613C131.591 123.603 131.761 123.363 131.941 123.353C132.121 123.353 132.301 123.643 132.481 123.643C132.661 123.643 132.841 123.393 133.021 123.403C133.201 123.413 133.401 122.943 133.581 122.953C133.751 122.963 133.911 123.083 134.081 123.093C134.251 123.113 134.411 123.253 134.581 123.273C134.751 123.293 134.911 123.363 135.081 123.383C135.251 123.403 135.441 123.233 135.601 123.253C135.771 123.273 135.941 123.493 136.111 123.513C136.181 123.513 136.251 123.543 136.311 123.563C136.361 123.603 136.411 123.643 136.461 123.643C136.551 123.653 136.621 123.883 136.711 123.903C136.801 123.913 136.891 123.663 136.981 123.673C137.071 123.683 137.411 123.783 137.501 123.783C137.591 123.783 137.671 123.883 137.761 123.883C137.851 123.883 138.021 123.913 138.111 123.923C138.291 123.923 138.811 123.863 138.981 123.833C139.161 123.803 139.471 123.663 139.651 123.653C139.831 123.633 140.021 123.683 140.201 123.653C140.381 123.633 140.551 123.463 140.731 123.433C140.911 123.403 141.051 123.263 141.231 123.213C141.371 123.173 141.601 123.283 141.801 123.273C141.971 123.273 142.161 123.473 142.331 123.463C142.521 123.453 142.681 123.213 142.821 123.173C142.911 123.153 143.061 123.323 143.211 123.493C143.391 123.663 143.341 123.833 143.391 123.823C143.441 123.793 143.561 123.403 143.641 123.403C143.731 123.403 143.721 123.693 143.781 123.713C143.841 123.733 143.971 123.633 144.041 123.683C144.091 123.723 144.271 123.633 144.341 123.703C144.381 123.753 144.861 123.463 144.941 123.583C145.001 123.683 145.081 123.773 145.121 123.883C145.151 123.993 145.291 123.893 145.321 124.023C145.351 124.143 145.271 124.283 145.281 124.393C145.281 124.503 145.161 124.543 145.151 124.653C145.151 124.753 145.171 124.863 145.141 124.973C145.111 125.083 144.851 125.113 144.811 125.193C144.801 125.213 144.811 125.233 144.811 125.263C144.811 125.313 144.811 125.373 144.821 125.433C144.821 125.553 144.851 125.663 144.821 125.763C144.761 125.953 144.861 126.183 144.821 126.363C144.771 126.543 144.381 126.633 144.341 126.813C144.301 126.993 144.481 127.223 144.451 127.393C144.421 127.573 144.631 127.783 144.611 127.953C144.591 128.123 144.351 128.273 144.331 128.443C144.311 128.613 144.091 128.783 144.081 128.953C144.081 129.123 144.021 129.303 144.021 129.473C144.021 129.643 144.411 129.803 144.421 129.963C144.431 130.143 144.421 130.333 144.421 130.513C144.421 130.693 144.111 130.763 144.111 130.943C144.111 131.123 144.251 131.303 144.231 131.483C144.221 131.663 143.281 131.703 143.261 131.863C143.241 132.033 143.241 132.193 143.211 132.363C143.181 132.533 143.371 132.733 143.331 132.903C143.301 133.053 143.151 133.173 143.111 133.323C143.071 133.463 143.091 133.633 143.041 133.773C142.991 133.913 142.941 134.183 142.871 134.313C142.811 134.443 143.131 134.753 143.071 134.893C143.001 135.033 142.541 134.953 142.461 135.063C142.381 135.183 142.481 135.403 142.401 135.523C142.321 135.643 142.081 135.643 141.981 135.733C141.881 135.833 141.941 136.073 141.851 136.183C141.771 136.303 141.721 136.433 141.621 136.543C141.531 136.653 141.581 136.853 141.491 136.973C141.411 137.093 140.951 136.873 140.871 136.973C140.791 137.063 140.821 137.283 140.741 137.383C140.651 137.463 140.571 137.563 140.481 137.643C140.391 137.723 140.481 138.043 140.371 138.133C140.251 138.203 139.891 137.883 139.791 137.943C139.691 138.003 139.721 138.313 139.601 138.373C139.481 138.423 139.381 138.503 139.261 138.563C139.141 138.623 139.051 138.743 138.931 138.803C138.801 138.843 138.561 138.583 138.441 138.633C138.321 138.673 138.291 139.083 138.161 139.133C138.031 139.193 137.861 139.093 137.721 139.133L137.301 139.243C137.151 139.283 137.001 139.183 136.811 139.193C136.631 139.203 136.461 139.153 136.281 139.153C136.101 139.153 135.941 139.023 135.761 139.013C135.581 139.003 135.401 139.093 135.231 139.073C135.051 139.053 134.871 139.123 134.691 139.103C134.511 139.083 134.341 138.983 134.161 138.973C133.981 138.953 133.791 139.063 133.611 139.053C133.431 139.043 133.261 138.853 133.091 138.843C132.911 138.833 132.641 139.283 132.461 139.273C132.281 139.273 132.111 139.073 131.931 139.063C131.751 139.063 131.571 139.203 131.391 139.193C131.211 139.193 131.021 139.373 130.851 139.363C130.671 139.353 130.531 138.893 130.361 138.873C130.191 138.853 129.991 139.023 129.811 138.993C129.631 138.963 129.441 139.063 129.271 139.043C129.091 139.033 128.921 139.023 128.741 139.003C128.561 139.003 128.391 139.023 128.211 139.023C128.031 139.023 127.841 138.783 127.661 138.793L127.121 138.813C126.941 138.813 126.771 138.873 126.591 138.883C126.411 138.893 126.231 138.813 126.051 138.823C125.871 138.823 125.711 139.073 125.531 139.083C125.351 139.083 125.171 138.793 124.991 138.793C124.811 138.793 124.641 139.043 124.461 139.033C124.281 139.023 124.091 139.493 123.911 139.483C123.741 139.473 123.581 139.353 123.411 139.343C123.241 139.323 123.081 139.183 122.911 139.163C122.741 139.143 122.581 139.073 122.411 139.053C122.241 139.033 122.061 139.193 121.891 139.183C121.721 139.163 121.551 138.943 121.381 138.923C121.311 138.923 121.241 138.893 121.181 138.873C121.131 138.833 121.081 138.793 121.031 138.793C120.941 138.783 120.861 138.553 120.781 138.533C120.691 138.523 120.601 138.773 120.511 138.763C120.421 138.753 120.081 138.653 119.991 138.653C119.901 138.653 119.821 138.553 119.731 138.553C119.641 138.553 119.471 138.523 119.381 138.513L119.401 140.643L119.381 138.523L119.271 138.473ZM87.3811 46.2529C87.4211 46.1229 87.3711 45.9729 87.4111 45.8529C87.4611 45.7329 87.4911 45.6029 87.5511 45.4929C87.6011 45.3729 87.6211 45.2429 87.6611 45.1229C87.7211 45.0029 87.9911 44.9829 88.0411 44.8729C88.0811 44.7529 88.1511 44.6529 88.2011 44.5429C88.2511 44.4329 88.2711 44.3029 88.3511 44.1929C88.4211 44.0929 88.5411 44.0229 88.6211 43.9329C88.6911 43.8329 88.5911 43.5829 88.6811 43.4829C88.7711 43.3829 89.0711 43.5129 89.1611 43.4329C89.2411 43.3429 89.2011 43.0829 89.3011 43.0029C89.4011 42.9329 89.2611 42.4529 89.3911 42.3929C89.5211 42.3329 89.6811 42.3529 89.8011 42.3129C89.9311 42.2729 90.1011 42.3429 90.2211 42.3029C90.3411 42.2529 90.4911 42.2929 90.6111 42.2629C90.7311 42.2329 90.8111 42.0229 90.9411 42.0029C91.0711 41.9829 91.2611 42.1629 91.3811 42.1429C91.4311 42.1329 91.4911 42.1429 91.5411 42.1629C91.5811 42.1929 91.6311 42.2229 91.6711 42.2229C91.7411 42.2229 91.8311 42.4429 91.9011 42.4429C91.9611 42.4429 91.9911 42.1829 92.0611 42.1829C92.1211 42.1829 92.3811 42.2729 92.4411 42.2729C92.5011 42.2729 92.5711 42.3629 92.6311 42.3629C92.6911 42.3629 92.8111 42.3829 92.8711 42.3729C92.9911 42.3829 93.3411 42.3229 93.4511 42.3229C93.5711 42.3129 93.8111 42.2029 93.9311 42.2229C94.0611 42.2329 94.1811 42.2929 94.3011 42.3229C94.4211 42.3529 94.5911 42.2129 94.7211 42.2329C94.8511 42.2529 95.0011 42.1729 95.1411 42.1729C95.2611 42.1729 95.3611 42.3629 95.4911 42.4129C95.6111 42.4629 95.6211 42.7229 95.7311 42.7829C95.8511 42.8429 96.0811 42.7229 96.1911 42.7529C96.3411 42.8129 96.1211 43.5429 96.2011 43.5929C96.3211 43.6529 96.6511 43.4229 96.7511 43.4929C96.8611 43.5829 96.7511 43.8529 96.8311 43.9429C96.9111 44.0329 97.1011 44.0229 97.1811 44.1329C97.2411 44.2329 97.4711 44.2329 97.5411 44.3529C97.6011 44.4529 98.1311 44.2929 98.2111 44.4329C98.2811 44.5529 98.3611 44.6729 98.4011 44.8129C98.4511 44.9429 98.5711 44.8429 98.6211 44.9829C98.6611 45.1229 98.6011 45.2829 98.6311 45.4229C98.6611 45.5629 98.5511 45.6229 98.5711 45.7629C98.591 45.9029 98.6611 46.0229 98.6811 46.1629C98.6911 46.3029 98.4711 46.4629 98.4811 46.5929C98.4911 46.7229 98.7011 46.8429 98.7011 46.9829C98.7011 47.1129 98.8811 47.2529 98.8611 47.3929C98.8511 47.5329 98.4911 47.6529 98.4811 47.7729C98.4611 47.9029 98.6711 48.0529 98.6611 48.1829C98.6411 48.3129 98.8611 48.4729 98.8411 48.6129C98.8311 48.7529 98.5711 48.8429 98.5511 48.9629C98.5311 49.0929 98.3011 49.1829 98.2711 49.3029C98.2411 49.4329 98.1811 49.5529 98.1511 49.6729C98.1211 49.7929 98.4711 50.0329 98.4411 50.1729C98.4011 50.3229 98.3411 50.4629 98.3011 50.6029C98.2511 50.7529 97.9411 50.6729 97.8811 50.8029C97.8311 50.9429 97.8811 51.1429 97.8011 51.2729C97.7211 51.4129 96.9111 50.9429 96.8411 51.0329C96.7711 51.1329 96.7111 51.2529 96.6111 51.3429C96.5211 51.4329 96.5911 51.7029 96.4711 51.7829C96.3711 51.8629 96.2111 51.8429 96.1111 51.9129C96.0111 51.9729 95.9411 52.1029 95.8411 52.1629C95.7411 52.2229 95.5411 52.3329 95.4311 52.3829C95.3211 52.4329 95.3411 52.8729 95.2111 52.9129C95.0811 52.9529 94.8211 52.5529 94.6911 52.5829C94.5711 52.6029 94.4911 52.8329 94.3611 52.8429C94.2311 52.8529 94.0811 52.6729 93.9611 52.6729C93.8311 52.6729 93.7211 52.8729 93.5911 52.8729C93.4611 52.8729 93.3411 52.9329 93.2111 52.9429C93.0811 52.9429 92.9711 53.1229 92.8411 53.1229C92.7111 53.1229 92.5711 52.6729 92.4611 52.6629C92.3511 52.6629 92.2211 52.8329 92.1011 52.8329H91.7511C91.6411 52.8229 91.4711 53.0829 91.3411 53.0629C91.2111 53.0329 91.2111 52.5729 91.1111 52.5329C91.0011 52.5029 90.8111 52.7129 90.6911 52.6729C90.5711 52.6429 90.4611 52.6129 90.3411 52.5729C90.2211 52.5329 90.0811 52.5429 89.9711 52.4829C89.8611 52.4229 89.8911 52.1129 89.8011 52.0429C89.7011 51.9829 89.3911 52.2329 89.2711 52.1729C89.1511 52.1129 89.1211 51.9429 89.0111 51.8729C88.9011 51.8029 88.7911 51.7329 88.6911 51.6529C88.5811 51.5629 88.5611 51.3929 88.4811 51.2829C88.3911 51.1829 88.3511 51.0429 88.2711 50.9429C88.1911 50.8329 88.2411 50.6529 88.1811 50.5329C88.1111 50.4229 87.9811 50.3429 87.9311 50.2129C87.8911 50.0829 87.7511 49.9929 87.7211 49.8629C87.6911 49.7329 87.7211 49.5729 87.7011 49.4429C87.6711 49.3129 87.5311 49.2029 87.5011 49.0729C87.4711 48.9429 87.6211 48.7729 87.6111 48.6429C87.6011 48.5129 87.1011 48.3929 87.0911 48.2429C87.0911 48.1029 87.2611 47.9429 87.2511 47.8129C87.2411 47.6829 87.1011 47.5429 87.1011 47.4029C87.1011 47.2629 86.9011 47.1129 86.9311 46.9729C86.9511 46.8329 87.4111 46.7629 87.4411 46.6429C87.4711 46.5229 87.3411 46.3629 87.3811 46.2329V46.2529Z" fill="#F1EAD1"/>
</svg>
