<?xml version="1.0" encoding="UTF-8"?>
<svg id="Capa_1" xmlns="http://www.w3.org/2000/svg" version="1.1" viewBox="0 0 450 619">
  <!-- Generator: Adobe Illustrator 29.4.0, SVG Export Plug-In . SVG Version: 2.1.0 Build 152)  -->
  <defs>
    <style>
      .st0 {
        fill: #067e4c;
      }
    </style>
  </defs>
  <path class="st0" d="M250.7,6.3c.3.2.3,1,.8,1.1s2.6-.7,3.9-.4.4,1.1.9,1.2,1-.4,2-.1,2.1,1.5,2.2,2.5c2.6-1.8,3.2,0,5.3.7,5.5,1.9,9.3,3.3,14.5,5.9s3.1.7,3.9,1.5.5,1.6.6,1.7c.2.1,1-.4,1.5-.3,1.5.2,3.8,3.3,2.4,4.2s-2.6.3-3.6.6c-4.9,1.7-9.3,3.6-14.2,4.8s-2.2,1.6-2.3,1.7c-3,1.3-6.4,1.9-9.6,3.7s-1.9,1.8-2.5,2.8l1.8.4.4,1.6c4.5-1.2,9-2.4,13.6-3.4s19.2-4.9,22-4.8,1.8,0,4.5-.5,2.9.1,3.8-.2.6-1.3,1-1.3c1.6-.1,4.5.5,6.1.5s2.9-.9,4.6,0l-.4-1.3c2,.9,2.8-.3,4.6-.8l6.4,1.3.7-2.6c.6.7,2.7,1,3.5.9s1.2-1,1.8-1.2c1.3-.3,5.7,1,6.1-.5,2.8-.5,7.7.2,10.2,0s2.7-1.3,4.5-1.3c2.5,0,6.6.6,9.2,0s.3-.9.5-.9c.8,0,1.4.7,2.2.9,1.5.3,3.4-.7,3.7,1.8,1.9-3.3,4.5-.1,6,0s1.6-.5,2.6-.4c1.6.1,8.8,2.3,10.8,2.9,5.9,1.9,13.9,7.4,17.9,11.9.6.6,2,1.2,2.5,2.1,1.9,3.3,4.7,5.6,7,8.9,2.4,3.5,3.8,7.9,5.5,11.3,5,10,4.4,19.4,6.3,29.8.6,3.2.9,4.1.8,8.2-.5,19.1-6.6,38-13.5,55.6-4.5,7.9-8,16.6-13,24.5-5.6,8.8-12.6,17.3-19.4,25.2s-2.7,1.7-2.8,1.8c-.3.4.2,1.8-.2,2.5s-2.8,2.3-3.4,2.9-4.7,5.1-4.8,5.4c-.3.9,1.2,5.2,1.7,6.5,1,3.1,2.8,6.4,3.9,9.4,8.9,24.5,4.9,41.1-3.1,64.7-1.9,5.5-2.9,11-4.7,16.5-.7,2.1-2.7,5.9-3.1,7.5s.1,2.6-.2,3.8-1.7,1.9-2.1,3.2-.2,2.7-.5,3.9c-.7,2.5-6.5,14.7-8.1,17.5s-4.5,5.3-6.1,8c-1.3,2.2-.7,1.9-2.7,3.9-1.5,1.6-1.9,2.6-3.5,4.4-2.8,3.3-5.4,6.7-8.8,10.2-1.8,1.8-3.1,3.4-4.7,5s-5.6,5.2-5.8,6.2c-.5,2.4.2,5.7,0,8s-.9.6-.9.9c-.5,14.3,1.8,31,10.6,42.7,5.3,7.1,17.5,16.1,25.6,19.1,2.1.8,7.2,4.7,7.5,7.1s0,4.7,0,5.2c-.3,2.2-3,5.9-3.9,8.1-3.8,9.9-7.9,17-14.3,25.5-1,1.4-2.8,1.8-3,2.1s.3.9.2,1.3-5.8,7.1-6.6,7.9c-6.6,6.9-14,13.4-21.9,18.8-4.3,2.9-10.8,7.8-15.6,9.6-6.4,2.4-13.3,6.2-20.1,8.6-3.6,1.3-6.7,1.3-10.4,1.5s-3.9.6-5.9.5c-.4,1.4-1.4,2.8-1.9,4.1-1.1,3-.7,4-3.3,6.9-7.3,8.2-28.3,11.9-38.9,12.8-10.6.9-21.5-.2-32.2.5s-12.9,1.7-16.3,3.1c-7.7,3.4-13.1,12.8-17.4,19.7s0,2.2-1.8,1.9c-.4.4.3,2.6-.2,3.4s-1.4,1.1-2,2.2c-.9,1.6-3.5,8-5.1,8s-5.7-1.1-6.9-1.4c-3.4-.9-4.9-2.1-7.4-3.3-5-2.3-16.8-4.8-20.6-8.8s-.2-1.1-.4-1.3c-.2-.2-1.4,0-2-.4-3-1.6-5.8-3.8-9-5.2l-.4-2.4-1.1.9c-.3,0-.5-1-.8-1.2-6-4-12.7-9.3-17.5-14.9s-4.2-6.1-4.5-6.3-1.1.1-1.7-.4c-1.5-1.3-5.8-9-7.3-11.2s-2.3-2-2.6-2.7c-.5-1,.3-2,.2-2.1s-.8-.2-1-.5c-2-3.4-5.9-10.3-6.8-14s.5-2,1-2.8c1.8-3.1,2.9-5.2,5.5-7.3s4.6-6,6.4-7.3,1.8.5,1.2-2.1c2.9-.5,3.2-4.4,6.2-4-.2-.7-.6-1-.2-1.7.9-2.2,5-5.8,6.6-8s7.2-10.1,7.2-10.8c0-1.8-3.5-3.7-4.7-4.8-7.9-7.1-15.5-13.6-23.2-21.4s-5.5-5.6-7.8-8.1-3.3-5.4-5.5-7.3c-1.9-4.6,5.6-7.4,8.5-9.1,5.1-3,8.8-4.9,13.2-8.9,1.5-1.4,3.8-1.7,5-2.5s11-11.9,12-13.2c2.8-3.7.4-2.5-.3-3.4s-.2-1.5-.6-2-1.4-.3-1.9-1c-5-7.6-10.5-17.9-13-26.4s-3.3-11.5-3.5-13.7c-1.1-18.9-1.3-36.1,2.2-55s1.3-2.7,1.4-4.2-.5-6.9-.8-8.5c-1.2-5.9-7.8-7.4-11.7-11.7-6.9-7.5-14.1-18.4-16.6-28.4s-1.9-8.9-2-10.9,1.5-7.3.8-9.6-2.8-3.4-3.2-4.8c-2-7-5.2-14.3-7.1-21.5s-2.7-9.6-3.2-12.8.8-1,.8-1.6-1.1-1.2-1.2-2.3c-.4-2.7-.4-6.6-.7-9.5s-1.5-8.4-1.5-11.7.9-2.4.8-3.5c-.4-3.4-.5-3.9-.4-7.5s-1.1-5.3.4-5.8l-.9-2.6c2.1-.9.8-1.7.9-3.6s.4-2.5.3-3.5-.7-1.2-.7-1.8,1.2-2,1.6-2.9-.8-1.2,1.1-2c-2.3-.8-1.4-3.9-.9-5.8s2.6-5.3,2.7-6.6-.2-1.8,0-4-1.3-2.1.9-2.4c-1.8-2.3.2-4.6.8-6.9,1.5-5.9,3.2-15.8,6.4-21s1.3-.9,1.7-1.8-.1-2,0-3,1.7-4.3,2-4.3c3.2-.5,5.7,1.3,8.6,2s4.8.8,6.6,1.3,1.1.9,2,1.2c1.2.4-.3-1.5.9-.9s0,.8.5.9c.8.2,1.9-.2,2.9,0s6.3,3.7,7.8,4.6c5.7,3.3,10.6,6.7,15.9,10.6s1.3,2.6,4,1.9c.6-1.8-.4-3.8-1.5-5.3-3.4-1.8-6.1-4.6-9.1-6.8s-1.6-.5-2.4-1.1c-1.5-1.1-1.9-3.2-3.1-4s-2.2-.6-3.3-1.1c-3.7-2-7.3-4.8-11.1-6.5s-8.9-2.7-12.9-4.6-2,.3-1.7-.8,1.6-3.5,2.3-4.8,2.4-2.5,2.6-4.2c2.7.6,5.6.9,8.4,1.5,7.4,1.7,16.8,5.6,22.9,10.3s1.9,2.8,3.6,3.5c1,.2,6-3.9,3.6-5.3l-10.4-8.2.2-1.3c-.9-.3-1.5,1.2-2,1.2s-4.2-2.8-5.1-3.2c-1.9-.9-4.7-1.9-6.7-2.6s-7.7-1.1-8.2-2.8,2-5,3.1-6.2,2,0,1.7-2.3c.8-1,9.3.7,10.9,1.1s9.3,3.6,11.1,4.8,1.3,2.6,3.8,2.4,1.9-2.4,3.4-2.9c0-.4-1.1-2.3-1.5-2.7-1.7-1.8-12.1-7.3-14.5-7.8s-2.3.9-3.4-1.1,2-5.3,3.5-7c3.8-4.5,9-7.7,13.5-11.7,1.4-1.2,2.7-3.7,4.4-4.9s4.1-1.3,5.1-2-.2-1.2,0-1.5c.6-.9,3.5-1.3,4.3-1.7,2.4-1.1,6.4-5.1,9-6.5s6.3-2,9.1-3.3,7.7-5.5,12-5.4v-1.1c2.9,0,6.7-2.7,9.3-3.1s5.2.8,4.9-2c2.4,1.4,4.1-.2,6.2-.7,5.3-1.3,11.1-2.5,16.5-3.4s2.9-.2,5.4-.3,5.2-1.8,7.2-1.6,1,.7,2,.7c1.7,0,3.8-2.1,6.1-1.2l.2,1.3c2.1-1,4.4-.9,6.5-1.1s1-.8,1.2-.6.1.8.7,1.3c2.7,2.1,2.4.3,4-.3,3.7-1.2,4.6-.4,7.8-.1s3.6-.5,5.2-.4c3.6.3,8,2.6,11.5,2s2.5,0,5.8.5c5.1.9,15.6.7,19.5,3.2ZM325.1,80.7c-.3-.2-.4-.9-.7-1.2-2.3-1.7-11.7-4.2-15-4.9s-1.8-1.1-2.4-1.1-3,1.3-4.4,1.3-3.8-.6-5.6-.4-1.5.9-2.4,1.1c-11,2.4-24.2,9.3-33.7,14.9s-6.7,4-10.3,6.1-2.8,3.2-4.9,1.3c-1.2,2.7-2.9,3.9-5.5,5.1s-1.5,0-2.2.5c-1,.6-1.5,2-3.7,2.9s-4.7.8-6.6,1.3-.5,1.2-1,1.3-1.2-.4-2.1-.3-2,1-2.8,1.1-4.6-.4-5.2-.3-.6,1.5-1.8,1.7-2.3-.6-3-.5-.2.8-.6.9c-1,.2-4.5,0-5.6,0s0,.9-.9.9-1.8-.5-2.7-.5c-10.1.1-21.7,3.4-31.1,7.8s-12.3,8.7-18.1,12.8-6.9,8.9-10.5,12.1-1.4.3-1.6.7c-.2.7.3,1.7,0,2.6s-1,.6-1.2.8-.9,3.6-1.5,4.9c-1.2,2.6-2.2,5.7-2.7,8.9s-.7,1.1-.7,1.4,1,1,1.2,1.7c1.1,3.3.3,4.4.4,7.1s.8.6.9,1c.7,2.5,1.2,7.7,1.3,10.2,0,3.9-2.6,11.6-4.3,15.4-2.8,6.1-8.4,14.9-10,20.9s-.2,5.8-.7,8.1-1,1.7-1.2,2.8c-.7,3.1.7,6.8-1.2,9.4s-1.2.8-1.7,1.4c-1.4,2-.8,3.4-3.8,4.6s-5.6,1.2-7.3,1.1-6.3-2.8-6.8-3.2-.4-1.4-.8-2.1c-3.5-4.8-5.8-9.7-9.5-13.9s-6.8-7.8-12.7-9c-3.3-.7-9.4-.9-12.6-.1s-.4.9-.8,1.1c-.6.4-1.5.1-2.2.5-6.1,3.3-11.4,10.4-13.3,17h-1.7c.8,2.3-.4,3.7-.8,5.7-.9,4.7-1.4,10.6-1.5,15.3s3.5,17.6,4.6,18.6c2.6,2.4,4.1,6.6,6.3,9.8,1.2,1.8,6.8,7.7,8.6,8.6s2.7,1,3.3,1.1c1.6.2,4.8-.7,5.1.8h.6c3-1.8,2-5.3,3.2-8.2s3.9-4.9,6.6-5.8,1.3.2,1.6.1c1-.3,1.7-1.1,3.1-1.1,5.6-.2,13.7,6.4,13.8,12.2s-2.1,4.5,0,7.5,3.7,3.1,5.4,6.5c3.1,6.5,5,14,5.2,21.3.4,11.4,1.8,24.3,1.3,35.7s-.9,8.1-1.5,8.7-.7.3-1.1.4v.9s.9-.4.9-.4c.5,2.3.4,4.6-.4,6.9s-.3,1.3-.6,3.4c-.8,5.1-4.7,16.6-6.8,21.5s-12.2,19.7-16.6,24.1-5,2.6-5.1,6.2c0,1.2,1,1.1,1.6,1.7,3.1,3.7,3.1,4.5,7.1,7.5,2.8,2.1,6.1,6.9,9,9.1,2.2,1.6,4.3,1.5,5.1,4.9.2.2,2.9-1.7,3-1.8s-.5-1.8,0-2.7c2.2-.3,1-1.5,1.6-3.4.9-3.2,4.3-9,5.7-12.4,10.3-25.4,18.4-53,12.5-80s-3.2-9.8-3.9-14.7c-1.1-8.4,2.2-20.6,10.6-24.3.5-.2,7.3-2,7.7-2,.9,0,8.6,1.6,9.5,2,8,3.6,13.5,9.6,18.3,16.1s2.3,3,3,4.1.1,3,.5,3.4,1.1.1,1.7,1,2.6,7.6,2.8,8.7-.6,3.4-.2,4.9l1.3.3c.6,6,.8,12,.9,18.1s-.4,12.3-.9,19.4-.9,15.7,6.6,21.2c1.3.9,4.5,2.7,5.7,3.1,8.2,3,15.3,2.4,23.7,3,2.2.2,4.6.3,7,.3,6.2,0,15.9.6,21.6,2.3.8.2,1.7.3,2.5.4v1.8c1.3.4.5-1,1.5-.9s3.1.9,3.8,1.2c7.8,3.3,14.3,10.4,16.9,18.4,1.9,5.8.9,12.1-2,17.3s-2.5,1.8-2.1,4.4,1.8,2.3,2.6,3.6,2.5,5.1,3.2,6.9c3.2,7.7,2.9,9.6.6,17.5s.3,1.1,0,1.8-2.6,3.5-2.9,3.8c-1.2,1.2-4.7,2.6-4.8,4.1l4.3,5.7c1.4.8,3.2-2.5,5.3-2v-2.1c.3-.3,3.8-.8,4.4-1.2,7.8-3.7,18.7-12.8,25-18.8,9.7-9.3,18.1-20,24-32.1.8-1.7.6-4,2.7-4.8-1.7-2.5-2.9-5.3-4.4-7.8-4.1-6.8-8-12.9-9.3-21.3s.3-3.9-.1-5.6-1.1-1.5-1.2-2.3c-.2-1.9.4-7.8.4-10.2s.4-6.7-.4-9.9c-1.2-.8-6.8,4.3-8.2,4.9-9.9,4.7-20.4,10.1-31.5,12.6-2.4.5-4.2-.3-4.7-.2s-.8.7-1.4.8c-22.2,2.8-46.6-.2-66.4-11.3-2.2-1.2-7.8-4.6-8.6-6.8s-.2-2.2-.7-3.3c1-.3,1.3-1.7,2.1-2,2.2-.6,7.5,3.3,9.4,4.6,4.6,3.2,11.9,5.6,17.3,7.8,1.6.7,2.1,1.9,4.6,2.1,7.5.5,14.7,2.7,22.2,3.4,2.2.2,3.9.5,6-.3.6,1.6,4.8.2,6.7,0s3.2.2,6-.6c3.4-.9,3.9-.3,6.4-.7s1.6-1.2,2.7-1.3,2.1,1.2,3.4.8,1-1.5,2-2c4.2-2.2,10.9-3.8,15.5-6.1s.7-1.1,1.6-1.5,2.4.1,3.1-.3.3-1.2,1-1.8c1.4-1.1,6-2.5,6.3-2.8s.5-1.6,1.6-2.6c1.7-1.5,5.5-3,6.7-4.1s.3-1.5.7-2,2.1-.9,2.8-1.6c2.7-2.7,5.6-7.2,8.8-9.6s2.3-.9,2.4-1c.2-.2,0-1.1.3-1.6,1.6-3.1,4.8-5.7,7.1-8.8,4.8-6.6,8.5-14.1,12-21.5s1.6-1.3,1.2-3.2c2.5-.4,1.2-1.4,1.7-3.2,1.6-6.2,5-14.9,7.3-21s1.7-4.2,1.8-4.4c.2-1-.5-2.1-.4-3.4.6-5.5,5.7-15,7.3-21,1.8-7,2.9-15,2.9-22.3s-.4-4.8-1.2-7.6-1.3-7.4-2.1-10.3c-1.9-6.7-6.1-13.4-7.1-20.6s.5-1.6.3-2.4-1.8-1.5-2.1-2.4c-.5-1.7,0-4.2-.2-5.5-.7-3.9-2.9-9.3-3.4-13.4s.9-5.3-1.6-8.6c-1.9-2.6-3.6-2.3-6.2-3.6-1.6-.8-3.3-2.8-4.3-3.2s-1.9-.2-2.5-.6-.7-1.4-1.3-1.8-2-.1-3-.5-1.6-1.7-2.7-2.2c-2.2-1-14.2-3.6-16.8-3.6s-.9.4-1.2.8l-.7-1.8c-1.2,1.4-2.1.4-3.2.5-3.9.6-3,.3-6.3,0s-6.1,1.1-8.4.8-3.2-2-4.7-2.9c1.2-3.8-1.5-9.7,1.6-13s7.2-4,9.7-4,3,.9,4,.8,1.2-1.3,2.6-1.3c4.3-.2,12.1,1.1,16.8,1.8s6.4,2.2,11.2,4.3,5.3,1.2,6.3,2.1.3,1.3.5,1.5,1.4,0,2.1.3,3.5,3.5,4.6,4.2l.4-.9,3.8,1.3c-1.2-2.8-.3-5.9-.6-8.9-.4-4.7-1.6-9.7-1.5-14.4s1.1-1.2,1.2-1.7-1.2-1.5-1.3-2.6,1-2,.9-3-1.8-2.1-2.1-3.2.3-2.6,0-3.7c-.3-1.7-1.9-4.1-1.9-5.1s.7-1,.7-1.6c0-3.4-3.3-10.5-4.9-13.7-2.2-4.6-5.1-10.3-8.1-14.4-4.8-6.5-10-10.6-16.4-14.7ZM95.6,293.7c-.1-.2-3.7-3-4.2-3.1-3.9-.9-7.6-.2-7.9,4.3s.9,5.1,1.1,5.5,1.1.2,1.6.7.3,1.8,1.4,2.1c4.4,1.4,7.7-2.3,8.1-6.3s.2-2.8,0-3.2ZM175.3,377c-.4-.7.3-1.6.2-2.3s-1.1-1.2-1.1-1.9.9-1.1.8-2.5-1.4-4.3-1.7-6.3c-1-6.4-1.9-12.9-5.2-18.7s-10.5-13.9-17-17.4-8.5-1.6-10.3-1.1-.5,1-1,1.2c-1,.5-2.3.4-3.2,1.2-9.9,7.9-.9,26.3.4,36.2,1.8,14.4.1,31.3-3.2,45.2-.4,1.7-2,4.2-2.2,5.2-1.6,10-5,16.5-8.9,25.7s-1.3,5.1-2,6.3-1.1.1-1.3.3-.3,2.7-.9,3.8c-5.3,10.8-10.2,21.5-15.5,32.2-3.4,6.9-7.8,13.6-11,20.3-.8,1.6-1.6,3.4-2.6,5s-6.7,7.8-6.8,9.1c-.2,2.3,2.6,5.2,3.7,7.3,9.9,18.3,24.1,35.1,41.9,46,2.8,1.7,6.6,4,9.5,5.1s1.7,1.6,2.2,1.9c.8.4,2.3.3,3.2.7,5.6,2.3,6.9,3.9,13.3,4s1.6.7,2.6.5,4.8-3.6,5.9-4.2c6.3-3.7,22.1-7.2,29.6-6.2.9.1,1.7.9,2.1.8s.9-.7,1.8-.8c5.9-.6,12.1,1.1,18.1-.4.7,2.2,1.9-1.3,3.8.9,1.5-2.7,6.4-.9,9.4-1.8,3.7-1.2,6.8-1.7,10.6-2.7,8-2.1,13.5-5.2,15.7-13.5.4-1.7.6-3.8-.1-5.4s-2.3-3.4-4.2-4.7-.3-1.5-1.8-1l.2.9c-1.5-.3-2.3-.9-4-.9-6,0-12.6,1.4-18.6,1.4s-5.3-.9-7.5-.9c-4-.1-8.2,1-12.3-.4-1.7-2.5-1.3-5.5,2.1-5.8s3.7,0,3.9,0c.4,0,0,.9.5.9,1,.2.5-.6.7-.8.6-.6,2.1.3,2.8.3,10.8,0,23.7.7,34.3-1.8s16.2-13,11-22.3c-1.3-2.4-2.3-2.5-4.2-3.7s-1.5-1.6-1.8-1.6-1.3.7-2.2.8c-1.8.2-3.8-.8-5.3-.7-6.6.7-13.1,1.1-19.9,1.1-6,0-13.6.2-19.5-.8-.5,0-1.1.2-1.6.3-1.1-2.5-1.8.5-3.8-1.1-1.5-4.9,2.1-5.7,6-5.9,6.4-.3,14.1.6,20.8.9,1.3,0,3.8.9,4.8.9s0-.9.9-.9,2.1.5,3.1.4c5-.1,17.5-1.2,21-4.6,2.9-2.8,3.4-4.3,4.4-7.9s.9-.3.9-.6c0-.7-.5-7.3-.6-8.1s-4.9-8.8-5.7-9.1c-2.1-.3-4.1-1.3-6.4-1.3s-6.3.9-9.2.7c-.6-1.9-1.1-.2-2.3,0s-3.7.2-4.1-.1,0-.5,0-.8h-.7c-.3,1.6-2.2.2-3.7,0-8.3-.7-17.7.1-25.9-1-2.5-.4-4.2-2.3-3.1-4.8s1.7-.9,2.6-1.1c4.3-.9,8.4.3,12.6.5,2.3,0,6.8-.8,8.2-.6,7.5.8,16.2,1.9,23.8.7s5-1,6.1-1.5c2.6-1.1,5.7-8.4,5.8-11.1s-.3-5.8-.5-7.4-3.9-6.3-4.3-6.7c-4.9-5.8-15.6-8.7-22.9-9.4s-4.4.4-6,.3-.3-1.2-1.4-1.2-1.7.8-3,.8-1.8-.4-2.7-.5c-1.8,0-5.2.7-5.7-.9-2.4,2.6-6.4.3-9.7.8l-.9-1.3c-3.7,1.5-8,.7-11.8-.2s-5.8-1.7-9.2-3.6-2.8-1.4-4.5-2.2c-2-1-4.1-2.6-3.5-5l-1.3.4c-.7-1.1-.6-2.8-.9-3.6s-.9-.4-1.2-1.1c-1.8-4.3-.9-16.7-.5-21.5s1.2-7.4,1.4-10.6-1.1-3,.4-4.4c0-.3-.7-.2-.8-.3Z"/>
  <path class="st0" d="M260.5,306l.2-1.3,5.1.5v1.3c1.4-1.2,4.2-1.1,6-.9,7.7,1.1,14.8.5,22.6-.1,3.8-.3,8.5-2.3,11.9-2.6s1.7.6,2.6.4c3.1-.4,4.7-2.5,9.3-2.2,3.4.2,5.3,1,6.3,4.3.9,3.2,0,3.1-.6,5.4-3,11.4-9.3,19.7-17.4,28.1s-6.9,5.1-11.6,8.1c-1,.7-.9,2.3-3.4.9l-.3,1.4c-2.3-.4-2.1.6-3.2,1.1-1.8.7-5.1,1-5.3,1.1s-.2.8-.5,1c-1.9,1.2-6.1.6-8.1.7s0,1.3-3,.8c-2.6-.5-1.4.1-3.2.1-27.8.6-54-17.8-68.2-40-2.9-4.6-4.8-8.3-4.5-14.1s7.1-9.6,12.6-9.5c10.3.1,23.2,7,33.3,10.1,4.8,1.4,12.8,2.4,16.8,3.9,1.2.5,1.6,1.3,2.7,1.5ZM289.7,311.3c-.3,2.3-2.3,1-3.7,1-21.1,1-39.2-2.6-59.6-9.1-4.3-1.4-9.3-4.1-13.9-5.1-1.5-.3-6.2-1-7.4-.8s-3,3.8-2.2,5.6,3.8,4.2,4,4.4c10.3,6.5,30.3,15.2,42.5,17.6,3.4.7,8.1-.2,11.4,1.9l1.7-.9c2.8,2.3,2,.6,3.1.4,2.8-.3,6.4.2,9.3,0s7.4-.6,9.8-1.3,5.2-.4,7.6-1.1c4.3-1.3,14.5-6.4,17.2-9.7.6-.8,2.9-4.1,1.8-4.9-1.7-.6-3.9.7-5.6,1s-4.2.4-6.3.8c-3.3.6-6.2,2.3-9.7.2Z"/>
  <path class="st0" d="M226.4,155.8c.1,0,0-.6.2-.7,1.5-.9,5,1.8,6,2s1.3-.4,2-.3,4.5,2.6,4.8,3.1c1.7,2.7,1.2,11.4-.2,14.1s-3.4,1.6-5.4,2.8c-5.9-.9-13.2-1.8-19.4-1.4s-5.3,1.1-8,1.5c-6.9,1-16.1,3.4-22.8,6.4s-8.1,5.3-9.9,5.4-3.1-.2-3.5-.2c-4.2-.4-6.8-9.2-4.6-12.6s2-1.5,2.7-2.3c3-3.6,5.7-6.3,9.9-8.9s3.5-1.4,4.9-2.6h.6s.4.9.4.9c0-.6.2-1,.8-1.2,4.9-2.5,8.5-2.4,13.5-3.3,4-.7,9.7-2.7,13.8-3s13.6.7,14.2.3Z"/>
  <path class="st0" d="M299.5,256c5.4,5.8,10,13.7,7,22.1s-5.1,7.9-6.1,8.5-3.1,1.4-3.4,1.5c-7.6,2.8-20,.9-27.9-.7s-7.8-1.8-10.4-3.3-2.7-3.7-1.4-6.7c.5.2,1,.4,1.5.4,4.1,0,7.3,1.7,11.4,2.3s5.4.4,8.1,1.7,4.7-.2,7,0,4,1,5.7.9,1.9-1.2,2.9-1.6,2.1,0,3.3-.7,1.5-2.5,2.9-3.4c1.1-4.6-.4-8.2-2.6-12.1s-4.8-5.5-7.3-8.7-8.5-14.3-10.6-19-2.7-6.6-2.9-12.6.3-12.9,2.5-19.2c.9-2.5,2.4-4.6,3.1-7.1,5.9-2.3,5.5,1.8,4.4,6.2s-2.9,7.1-3.3,10.4c-1.9,15.6,6,30.2,16,41.1Z"/>
  <path class="st0" d="M90,243.7c.2.2,1.4-.2,2,.4,0,2.3,3.7,7.2,3.2,9-.7,2.6-2.4,3.1-4.9,2.4-3.9-1-3.8-6.5-6.1-9.3s-9.3-5.5-13.3-4.1-5,3.5-5.7,4.9c-3.6,6.7-2.5,13.6,1.4,19.8s5.8,6,6,8.5c.4,5.9-5.4,6.2-8,1.9s-2-5.8-3-7.6c-2.8-5.2-4.4-6.5-4.8-13.3s.3-4.5,1.4-7.9,0-1.8.2-2.4c2.3-7.7,11.2-10.8,18.6-10.1s7.6,2.8,12.2,5.1c1.2.4.7,2.6.9,2.8Z"/>
  <path class="st0" d="M216.8,213.6c.2.3,1.3,0,1.9,1s2.2,5.3,2,6.8-1.6,4.7-2.2,5.6-1.1.6-1.5,1.2-.5,1.8-.9,2.6c-1.6,2.8-7.6,4.1-10.5,3.5s-6.6-3.6-7.5-4.8c-1.9-2.6-2.5-7.7-2-10.8s1.5-4.6,1.8-4.9c1.3-1.6,7.8-5.4,9.9-5.6s4.3.5,6.2,1.7c3.1,2,1.8,2.2,2.9,3.5Z"/>
  <path class="st0" d="M328.9,210.8c1,.6,1.2,2.9,1.5,3.3s1.7,0,2.4,2.2,1.1,6.6-.6,9.4-3.7,4.7-4,4.9c-.6.5-4.1,1.9-5,2.1-8.4,2-15.3-5.7-13.6-14,.9-4.6,5.5-10,10.3-10.5,1.1-.1,2.5.3,3.5.7s4.9,1.8,5.3,2Z"/>
  <path class="st0" d="M206,195.5c.1,0,0-.7.7-.8,6.7-.8,13.7-.4,20,2.2l6,5.9c1.5,3.3-1.4,5.9-4.5,4.5s-4.1-2.7-6-4.2c-3-2.3-19.1-1.5-23,0s-7.3,3.2-9,4.3-6.7,7.1-8.8,3.4,1.5-6.6,3.7-8.5,12.5-6.3,15.6-6.9,5,.3,5.3.2Z"/>
  <path class="st0" d="M339.5,198c.1.2.4,2.3,1.4,1.2s-.4-1.5.4-1.3c0,2.3,2.4,2.5,3.5,3.7s2.2,4.2,1.8,5.7-1.9.4-2,1.6c-1-2-3.2-1.1-4.2-1.5s-3.8-3.3-5.2-4.1c-2.6-1.6-5.2-1.9-7.6-3s-.5-1-.8-1c-.9,0-3.2.7-4.4.7-6.4.3-5.7-.6-11.8,2s-1.3-.2-1.5,0-1.7,2.6-2.3,3.2c-3,2.7-6.5,2.9-7-1.8s2.3-4.2,3.2-5,2-.9,2.9-1.5,1.4-1.6,2.3-2.2c3.5-2.1,14.5-2.1,18.5-1.4s12.1,3.9,12.7,4.8Z"/>
</svg>