<?xml version="1.0" encoding="UTF-8"?>
<svg id="Capa_1" xmlns="http://www.w3.org/2000/svg" version="1.1" viewBox="0 0 450 619">
  <!-- Generator: Adobe Illustrator 29.4.0, SVG Export Plug-In . SVG Version: 2.1.0 Build 152)  -->
  <defs>
    <style>
      .st0 {
        fill: #067e4c;
      }
    </style>
  </defs>
  <path class="st0" d="M264.7,25.4c1,.7,2.5,1.4,3.5,2.1.8,2.9-2.2,2.4-3.9,3.2-6.6,2.9-13.1,5.9-19.8,8.8s-8.9,2.9-9,4.6c-.5,5.2,6.2.6,8.3-.1,15.6-5.1,32.2-10.7,49-13.3,8-1.2,16.6,0,24.9-.5s3.5-1.4,3.7-1.4c1.1,0,1.6,1,2.7.9s2.3-1.1,3.4-1.3c2.8-.5,6.5-.2,9.2-.6,4-.6,11.4-4.6,14.7-4.9s1.9.5,3.2.3,2.2-2,2.9-2.2c3.3-1.2,11.3-1.5,14.9-1.7,15.4-1.1,20.7,2.4,33.6,9.2,1.4.7,3.8,1.1,5.2,1.8s3.4,3.9,5.5,5.3,3,1.3,3.9,2.2,1.1,2.2,1.7,3c4.3,5.1,12.8,15,15,21.1s5.3,12.1,6.8,17.1,2.2,11.1,2.5,16.7,1.5,3.1,1.7,4.4c.6,2.5,0,5.3.2,7.3.2,3,1.4,7.6,1.4,10.4s-1,2.1-1,3.2.8,1.4.8,2.3c0,1.9-1.2,4.5-1.2,6.3-.3,6.4-.8,11.4-2.3,17.8-2.4,10.3-3.6,19.7-8.3,29.7s-.9,5.7-2.2,9.1c-3.8,10.4-8.5,21.4-13.3,31.2-.3.6-.2,1.6-.6,2.1s-1.7.5-2.1,1.2-.1,1.7-.4,2.4c-7,15-18.2,27.4-27.3,41.1-1.7,2.5-2.2,4.3-2,7.4s1.7,6.4,1.9,8.9c1.2,19.8-.6,39-7.9,58.2-1.6,4.2-4.6,8.1-4.2,13s1.2,2.3,1.1,3.4-1.2,1.4-1.6,2.5c-.8,2.3.2,5.1-.2,6.8-2.5,10.2-5.1,20.7-8.4,30.5-5.6,16.3-16.9,34.8-29.4,47s-3.8,2.8-4.6,3.6c-1.2,1.3-3,4.7-3.3,6.3s.4,1.5.4,2.2-1.2,1.6-1.3,2.4.6,1.2.7,1.8c0,1.2-1.3,3.8-1.3,5.6,0,4.5.1,9.5.5,14.1.4,4.6,1.3,10,3.9,13.7,4.3,3.9,7.7,8.7,11.5,13.1s2,.4,1.4,2.5c1.5-.8,2.1.5,3.1.7,2.9.5,5.9-.3,6.6,4s-2.5,5.7-4.2,8.5c-4.9,7.8-9,15.8-14.3,23.1-7,9.5-15.1,16.6-23.1,25-4.2,4.4-11,8.3-15.7,12.6-.9.8-1.2,2.1-2.2,2.9-2.4,1.9-8.5,4.4-11.5,6.3s-3.1,2.9-4.6,3.8c-2.7,1.6-7,2.7-9.8,4.3s-3.4,2.9-8.1,4.5c-12,4.2-20.5,8-33.4,10.6-4.2.8-8.8,1.6-13.1,2.4s-3.1-1-4.9-1.6c-6.6-2.3-12.6-3.7-19.1-5.7s-2.5-2.2-4.3-2.8c-13.4-3.9-23.1-9.3-35-16.5-21.3-13-42.9-24.8-61.3-42.3-4.6-1.1-6.1-5.9-8.7-8.2-1.4-1.2-4.2-2.3-5.6-3.7s-2.1-3.1-4.8-5.4c-4.3-3.7-7.9-7.9-11.8-12s-8.3-6-8.3-10.2.5-4,.7-4.4,3.5-3,4.1-3.4c1-.7,2.4-.9,2.9-1.3s.1-1.1.6-1.5,1.9-.6,2.8-1.4c2.4-2.2,5.1-5.9,7.9-8.4s4.6-5.5,7.3-9.5c4.8-7.3,10.5-15.7,12.9-24.3s1.1-4.2,1.5-6.4c0-.5-7.6-4.8-8.7-5.6-16.1-11.7-25.4-28.2-31.7-46.6s-1.2-2.7-1.7-5.3c-2.9-13.4-8.2-29.7-13.1-42.7s-5-6.9-9.5-10.7c-3.1-2.6-10.7-11.5-12.5-15.1s-1.2-4.9-2-6.9c-2.6-6.7-5-9.5-5.4-17.6-.2-5.6,1.7-22.8,4.1-27.8s2.3-1.6,1.8-4.9-4.2-10.6-5.7-14.9c-1.7-4.8-2.1-10.7-3.6-15.2s-1.1-.6-1.5-1.3c-.6-1.3-1-6.3-1.5-8.3s-2.4-9-2.6-11.1c-.3-5.1,0-10.7-1-15.8s-1.1-1.6-1.3-2.4c-.2-1.4.5-4.3.4-6.1-1.1-17.2-.1-31.2,3.1-47.9s2.6-18.5,6.1-25.8,4.1-8.8,6.3-13.4,1.6-8.4,8.5-4.4c5.5,3.2,11.2,6.1,16.7,9.5,8.6,5.2,23.3,15.8,30.3,23.3s.3,2.5,3,2c5.8-1.3-2.2-7.7-3.6-9.1-5.3-5.4-12.2-12.2-18.3-16.4-4.8-3.2-9.7-6.8-14.7-9.6s-9.1-4.6-13.5-6.6l-.8-1.9c1.9-1.4,5.9-9.9,7.5-10s6.1,2.3,7.6,3.1c11,5.7,21.7,12.6,31.7,19.8s3.9,2.6,4.5,4.2c4.5-1.3,2.6-4.1.4-6.7s-5.5-4.1-8.3-6.2-3.6-2.9-6.4-4.8c-5.7-3.7-11.9-7.4-17.3-10.9s-4.6-2.5-6.9-3.7l-.3-1.2c1.9-.7,1.1-2.3,2-3.4s3.4-3,3.6-3.1c.7-.4,1.6-.8,2.4-.7,3.9,2.1,8.1,3.7,12.1,5.6s4.3,2,6.4,3.1,8.4,5.8,8.4,1.9-2.2-3.1-3.5-4c-4.3-3-10.5-7-15-9.4s-4.8-1.9-4.8-2.2c1.2-1.6,2.6-3,4-4.5s.5-1.4.8-1.7c1.3-1.1,6.4-3,7.6-4.3,5.5-5.6,7.1-6.3,13.8-10.5s4.1-3.5,6.1-4.7,3.9-1.3,5.7-2.3c17.4-9.5,34.4-15.8,53.3-21.7,10.9-3.4,23.4-4.5,34.4-5.9,16.3-2,32.9-.3,48.7,3.3,12.8,2.9,25.6,9.3,37.9,14.6s3.4,2.6,4.6,3.5ZM319.2,101.1c-.4-.3-4.5,1.2-5.8,1.1-2.8,0-4.4-1.2-7.8-.2s-6.3,3.9-8.7,5-5.1.3-7.1,1.2-1.5,1.9-2.3,2.6c-2.1,1.7-7.2,2.9-9,4.5s-1.2,2.3-2.4,3.2c-2.3,1.8-8.3,3.2-9.1,4-1.7,1.6.4.8-2.9,2.3s-3.1,1.6-6.8,2.4-.7,1.2-1.6,1.8c-2.8,1.7-9.8,2.9-13.1,3.7-8.5,1.9-16.6,3-25.1,3.9s-5.2.3-9.9,0-4,.5-5.1.3-2-1.8-3.8-1.8-2.1,1-3.3,1-1.6-.9-2.4-1c-8.2-.9-14.9,3.7-22.1,6.4s-1.8-.1-2.4.2-.3,1-.8,1.3c-2.3,1.8-5.4,1.5-7.3,2.6s-.9,1.4-1.5,1.8c-4.5,3.4-10.5,8.3-15.1,11.1s-1.8.3-2,.5-.5,1.4-1.3,2.3c-1.9,2.1-5.9,4.2-8,6.1s-9.6,11.8-11.1,15.1-.5,10.2-.4,12.8,1.1,4.2,1,6.1c-.2,3-3.9,15.2-5.3,18.1-4.1,8.7-13.4,14.7-17.4,23.8-3.9,8.8-5.6,16.9-7,26.3s-.2,9.9-2.2,10.9c-5.7.5-11.2,1.7-16.8,0s-7.8-3.5-11.7-8.9c-3.9-5.3-8.4-11.8-12.9-16.6s-7-4.4-7.9-4.8-3-.6-4.3-.9c-3.9,3.6-9.4,5.8-11.2,11.2-6.6,7.7-8.7,20.7-9.6,30.8s4.3,21.2,7.3,26.8,13.7,15.2,20.3,20.5,1.1.8,3.2,1.9,5.2,4.5,6.7,3.5c1.7-2.9,5.1-4.6,8.5-4.2s2.3,1.1,3.5,1.6,1.2-.3,1.9,0,3.2,2.7,3.5,3.1c.9,1,.8,2.9,2.8,2.8s3.4-.8,3.2-2.2l5.9-3.5v-2.3c6.8-.3,3.3,4.8,3.8,7.6s.7.3.9.7c2.4,5.5,8.3,14.4,9.2,19.8s-.4,2.3-.2,3,3.2,4.9,3.8,7.4c1.5,5.9,2.9,12.7,4,18.5,3.3,18.9-1.6,53.1-10.1,70.3-2.7,5.4-6.5,10.1-9.3,15.5s-1.4,1.8-2,2.7l.2,1.1c2.8,3.2,4.4,7.4,8,9.8,8.1,5.2,14.9,13,22.4,19.3s6.2,3.9,8.2,5.8,3.4,4.5,5.4,5.9,3,1.1,4.2,1.9c5,3.1,8.6,7.1,14.1,10.2,12.5,7.1,23.8,16.5,36.5,22.5s1.6,1.9,2.7,2.5c1.6.9,6.5,2.3,9.1,3.5,6.9,3.1,13.6,6.3,20.5,9.1,1.9.8,6.3,2.5,8.2,2.6s4.8-1.6,6.5-2,1.5.3,2,.1,1.3-1.5,2.6-2c5.8-2.4,10.9-3.5,16.9-6.6,8.6-4.4,15.9-8.9,22.9-15.1,1.3-1.1,5-2.2,6.7-3.5,6-4.6,12.1-10.3,17.3-15.5,3.2-3.2,6.9-6.5,9.6-9.8,3.9-4.7,6.3-9.9,10.5-14.6s5.5-7,8.4-12.7,4.9-5.3,4.2-7.8-1.3-1.2-1.6-2.2c-.9-2.7.8-9.9-1.2-13.4l1-20.9c-.9-.9-4.7,3.1-5.5,3.7-9.5,7-24.5,13.2-36.1,15.5-13.5,2.7-27.4,3.7-40.9,1.7-13.4-1.9-26.3-4.9-39-10.2s-4.4-2.2-6.6-3.2c-8.7-4-15.4-7.1-22.5-13.4-2.9-2.6-6.9-2.9-9.9-5.3s-6.9-4.4-9.6-7.2c-1.7-1.7-4.6-6-.6-6.7s6.3,4.7,8.6,6.2c9.7,6.7,21,13.9,31.5,19,8.5,4.1,19.6,9.5,28.7,11.2,3.5.7,4.2,1.5,6.6,2.2,7.9,2.1,22.7,2.8,30.8,2.6,1.5,0,3.8,1,5.1.8,23.3-3.3,43-10.2,61.1-25.6,4.9-4.2,9.8-8.7,13.2-13.5s4.7-4,5.7-5.6c4.7-8.1,10.4-16.4,14.6-25.2,5-10.9,7.7-23.7,10-35,1.2-5.6,2.6-11.4,3-17.1s-.6-2.5,1-6.5c4.9-12,8-24.2,9.5-36.8s-.1-10,0-15.6c0-.9.6-2,.7-3,.2-4.4-1.9-12.9-2.9-17.7-3-13.8-8-26.3-13.3-39.2l-3.5-12.7c-.4-.6-5.7-.6-6.7-.6s-7,.9-7.4.9c-8.4-1.2-16.7-3.5-25-5s-12.4-2.9-18.9-6.8c-5.8-3.5-5.7-15.4,1.3-15.7s14.4,2,17.6,3.8,1.8,2.3,2.9,2.8c3.7,1.6,8.8.8,12.6,1.9s3.8,2.3,6.4,2.5,3.7-1.1,5-1.2,5.7,1.1,6.3.5c-1.8-4.5-2.1-9.4-3.7-13.8,1.8-2.6.2-3.1-.3-4.9-1.2-5.3.2-10.8-.2-16.2-.7-8.9-2.4-18.5-4.3-27.1s-.9-6-1.9-7.9-1.2-.7-1.5-1.3c-.5-1.2-.2-2.6-.7-4-2.3-6.9-9.3-9.9-14.2-14.4s-4.9-5.1-10.8-7-2.9-.1-4-.7-.9-1.3-1.1-1.5ZM58.6,345.9c-.3.3-.2,1.1-.6,1.5-2.3,2.9-2.7,3.1-1.5,7.1s1.5,3.7,1.7,3.9c1.2,1.8,5.5,1.6,7.2.7s3.2-6.7,2.6-8.6-1.8-2.8-2.1-3.1c-1.1-1.1-6.3-2.6-7.4-1.5Z"/>
  <path class="st0" d="M163.5,224.7c-.6-.6-1.9-5-1.8-5.4,1.1-5.2,4.9-7.8,9.9-8.8s6.3-.2,8-1.3.4-1.1.8-1.2c.7-.1,3.8.4,5,0s.1-1.9,2.3-.8c.9-2.2,1.7-.9,3-1.3s3.7-2.9,4.7-3.3,4.2-.2,4.3-.3c.7-.5.4-2.3,2.3-2.9s2.4.3,3.5.3.2-.8.9-1c2.6-.9,6.4-.5,8.2-1.6s2-.6,4.2-1.4c4-1.4,13-7.6,16.7-4s2.9,10.7,1.5,13.3-2.3,3.1-2.9,3.6c-4.1,3.5-10.8,6.2-16.2,7.3-10.2,2.1-20.6,3.6-30.3,7.1-4.8,1.7-10.3,3.3-15.4,3.8s-6.8.2-8.9-2Z"/>
  <path class="st0" d="M302.6,235.7c-.2.2-3.3,5.3-3.4,5.7-1.9,5.2-3,11.1-2.7,16.4.4,8.3,1.9,17.6,4.3,25.8s2.7,3.3,3.1,4.4c.7,1.9,1,3.9,1.9,6.1,1.6,4.4,4.2,8.8,6.1,13.1,3.4,7.5,10,15.7,11.2,23.9s.5,3.5.5,4.5-2.1,6.8-2.5,7.8c-.8,1.8-6,6.6-7.9,6.6s-1.6-.7-3.1-.3c-4.1,1.1-9.5,4.5-13.1,6.6s-5.7,2.8-7.6,2.6c-1.3-.8-3.6-1.6-4.8-2.3s-1.7-2.8-2.7-3.4c-2.3-1.4-4.9-.6-7.1-.8s-5.3-1.4-6.6-2.4c-2.4-1.8-4.8-8.2-4.5-11.1.6-4.3,5,.3,5.8,2.7s.4,4.1,1.1,4.6c1.7,1.2,7.9-.7,10.1-.4s5.7,6.8,10.4,6.5,5-1.9,5.8-2.2c5.4-2.6,8.4-6,15-6.5s1.9.4,2,.3,0-.9.3-1.4,1.6-1.1,2.3-1.9c2.6-3.1,2.3-8.3,1.1-11.9-1.9-5.7-5.6-10.1-8.5-15.4s-6.7-14.5-10.2-21.2c-3.4-6.6-3.5-12.6-5.3-19.5-2-7.6-2-11.5-1.4-19.4s0-6.2,2-11.2,2.4-8.9,6.9-11.9,7-4,9.3-3.8,4.3,1.3,4.9,1.6c6.5,2.7,15.2,6.2,22.1,7.9s5.4.3,7.1.8c2.8.8,5.3,1.5,8.1,2.1s5.1-1.8,7.2.4.2,2.6-.3,3.5c-1.5,2.6-6.3.8-8.8,1.3-3-1.6-6.8-1.4-10.5-2.1-5.5-1-16-3.6-21.2-5.5s-6.2-3.9-9.8-3.3-6.2,2.5-6.4,2.8Z"/>
  <path class="st0" d="M43.2,273.4c-.5-.4-.7-1.2-1.3-1.7s-4.3-2.4-4.7-2.4c-2-.1-3.1,1.6-3.9,3.2-1.3,2.6-3.6,18.4-3.3,21.4s.8,3,.9,4.5c1.5,0,1.5-1.9,2.8-2.6,8.2-4,17.8-2.8,23.8,4.2,2.2,2.5,5.5,8.5.3,9.1-3.1-3.2-5.2-7-9.4-8.9-6.3-2.9-10.6,1.6-16.6,1.9-.6.5,5.8,12.4,6.8,13.6s1.3.3,1.7.8c2.9,3.5,7.4,6.4,12,8s1.6,1.2,2,1.3,2-1,3.1-1.1c3-.4,10.9.7,13.5,2.4s3.2,2.6,3.3,2.8c1.4,1.5,3.5,4.1.7,5.4s-7.6-3.8-11.1-4.3-9.2-.6-9.7-.5-1,1.1-1.5,1.2c-1,0-11.2-6.1-12.4-7.2-6.7-6.3-13.2-15.2-14.5-24.8s.6-3.4.4-4.5-1.3-1.6-1.3-2.4c.7-6,1.4-15.3,3.8-21s2.7-5.4,3.6-6.2c3.2-2.9,6.7-2.5,10-.1s5.8,4.8,6,5.2c2.3,3.8-1.3,6.2-5.1,3Z"/>
  <path class="st0" d="M313.1,389.5c-3.9-3-7.2-6-12-7.5s-8.3-2.1-11.7-2.8-17.1-1.2-19.9-.9-9.9,1.8-13.1,2.6c-10.4,2.6-13.1,5.3-21.2,11.2s-5.1,4.8-7.2,1.7c-3-4.5,3.6-7,6.5-8.9,4.8-3.1,12.9-8.6,18.6-9.5s8.3-1.6,12.9-2,10.9-2.2,14.5-1.2,1.2.8,4.8.8,8.1.7,11.6,1.5c9.8,2.3,15.4,7.5,22.9,13.7,1.8,1.5,5.3,2.1,4.1,6s-9.3-3.4-10.9-4.6Z"/>
  <path class="st0" d="M348.5,321.6c-2.7,4-6.7,5.2-11.5,3.9s-4.8-3.4-5.1-3.8c-2.5-3-3.3-8.4-2.8-12.2,1-7.3,4.4-13.7,7.9-19.8s1.3-5.1,3.6-3,4,7.2,4.6,8.5c3.8,8,8.6,18.4,3.3,26.4Z"/>
  <path class="st0" d="M202.6,251.6c4-.5,11.7,1.7,13.6,5.4,2.9,5.7,1.6,10.6-2.2,15.3s-14.1,4.8-18.5.2-3.4-6.5-3.4-7.8,1.5-6.4,2-7.2c1.8-2.8,5.1-5.5,8.5-6Z"/>
  <path class="st0" d="M347.6,269.5c-.7,1.1-.3,2.3-2.2,3.6s-4.5,2-5.3,2.2c-11.5,2.9-19.3-12.2-10.9-20.3s5-3.6,5.5-3.9c1.4-.6,7.9.5,9.4,1.1,5.3,2.2,7.5,11.7,4.7,16.3s-1,.6-1.2.9Z"/>
  <path class="st0" d="M227,234.8c2.7-.7,6.6-.2,6,3.4s-8.2,4.2-10.2,5c-13.3,5.2-26,7.8-40.3,8.4-2.2,0-9.1,1.5-9.6-1.8s4.4-3.7,6.7-3.9c6-.5,12.1-1,18.2-1.9s3.5-.3,4.6-.5,1.7-1.4,2.6-1.7c1.6-.5,4.4-.2,6-.6s4-2,6.2-2.3,3.8,0,6.4-1.5,2.1-2.3,3.5-2.6Z"/>
  <path class="st0" d="M297.7,408c-4.1,1.9-3.8-1.4-5.6-3.8s-7.3-5.7-11.4-5.9c-6.6-.3-12.7,2-17.3,6.6s-2.6,4.9-5.3,2.6-1.4-2.3-1.4-2.5c0-1,5.5-6.4,6.6-7.3,2.1-1.6,1.3-.7,3.3-2.8s5.6-2.3,7.2-2.5c10.5-1.8,23.7,3.5,23.9,15.6Z"/>
</svg>